<svg xmlns="http://www.w3.org/2000/svg" viewBox="0 0 650.29 765.9"><defs><style>.cls-1{fill:#231815;}</style></defs><title>hikyo_logo</title><g id="レイヤー_2" data-name="レイヤー 2"><g id="レイヤー_1-2" data-name="レイヤー 1"><path d="M311.14,469.5a4.18,4.18,0,0,0,.57-.45,4.08,4.08,0,0,0,1.13-1.89c.23-.31.46-.61.68-.93,14.45-20.65,23-46.09,24.57-73.52q.27-4.54.32-9a4.16,4.16,0,0,0,0-.79c.36-43.25-14.11-80.68-42-108.57-24.27-24.23-57.82-40.62-94.34-46.21C161.9,222,134.61,198,122.86,158.88c-4.7-15.67-9.37-18.43-18.9-21-7-1.9-17.45-1.17-27.07,13.05l-.16.26c-1,1.68-23.86,41.34-27.81,54.55-.41,1.35-.89,2.91-1.43,4.66-3.52,11.37-9.41,30.38-11.84,50.41a2.08,2.08,0,0,0,0,.25,1.81,1.81,0,0,0,0,.23c-.09,19,5.16,35.65,15.63,49.44,8.81,11.6,21.38,21.27,37.39,28.74,25.57,11.94,54.45,16,74.26,17.25,17.76,1.14,36.87,10,52.41,24.37,14.67,13.56,24,30,25,43.87,1.56,22.81-5.08,40.24-9.05,50.64a71.6,71.6,0,0,0-2.76,8.07c-1.8,7.76,3.47,18.12,9.53,22.93a18.86,18.86,0,0,0,11.41,4.26,20.66,20.66,0,0,0,8.72-1.83C279,501.67,297.26,488,311.14,469.5ZM200.62,236.63c58.05,8.94,124.35,50,128.51,135.86L184.08,233A127.61,127.61,0,0,0,200.62,236.63ZM44.12,261.54c2.36-19.2,8.08-37.66,11.51-48.71.55-1.78,1-3.37,1.45-4.74,3.57-11.92,25.51-50.05,27-52.63,5.39-7.89,11.27-11,17.48-9.36,6.67,1.8,9.17,2.48,13,15.31,8.53,28.46,24.66,49.51,47.47,62.33a4.47,4.47,0,0,0,.35.41l2.09,2c-33.54,29.24-58.19,64.48-73.52,105C59.74,316.18,44,292.8,44.12,261.54Zm182,118-.07,0c-1.51-1.57-3.06-3.12-4.69-4.63-17.05-15.72-38.18-25.44-58-26.69-14.28-.91-40.55-3.87-64.56-13.53,14.91-39.58,39-74,71.87-102.45L329.29,385c-.05,2.36-.13,4.74-.28,7.16-1.46,24.81-8.88,47.83-21.44,66.77Zm28.7,121.37a.84.84,0,0,1-.14.06l-.21.07c-4.11,1.86-7.69,1.5-11-1.08-4.91-3.89-7.08-11.11-6.37-14.19a69.47,69.47,0,0,1,2.44-7c4.21-11,11.28-29.57,9.59-54.24a52,52,0,0,0-2.74-13l56,54.6A104.51,104.51,0,0,1,254.82,500.9Z"/><path d="M153.26,124.27a10.41,10.41,0,0,0,10.2-10.33,9.93,9.93,0,0,0-10.31-9.8A10.42,10.42,0,0,0,143,114.46,9.93,9.93,0,0,0,153.26,124.27Z"/><path d="M344.6,473.83A10.23,10.23,0,0,0,334,483.93a10.81,10.81,0,0,0,10.76,10.48,10.23,10.23,0,0,0,10.67-10.1A10.81,10.81,0,0,0,344.6,473.83Z"/><path d="M272,229.34c38.5,6.33,66.19,19.91,86.07,36.55a4.4,4.4,0,0,0,1.17,1.5c.12.09,2.37,1.94,6.06,5,38.19,37,42.19,85,42.08,104.15.23,38.93-19.77,70-20.62,71.25-7.41,11.33-4.23,28.77,3.56,33.54.61.37,1.36.92,2.16,1.51,3.32,2.44,8.53,6.26,16.28,6.4a31.8,31.8,0,0,0,14.33-3.51c8.89-4.25,31.11-20.34,52.84-45.42,19.26-22.22,44.37-58.79,54.12-106.22a270.54,270.54,0,0,0,5.65-48,4.38,4.38,0,0,0,.41-1.7,100.17,100.17,0,0,0-.77-16.19c-1.15-18.1-4.89-36.5-12.81-53.39a4.54,4.54,0,0,0-.72-1.05c-10-19.38-27.47-31.2-64-38.34l-.31,0c-14.32-1.84-27.47.77-39,3.07-6.63,1.31-12.88,2.56-18.31,2.71l-1.72.05c-15.67.49-44.69,1.39-77.74-21.78-32.07-22.49-28.13-63.45-21.17-76a93.34,93.34,0,0,1,5.76-8.56c6.67-9.27,14.24-19.79,11-28.83-1.54-4.3-5.3-7.5-11.19-9.55a4.5,4.5,0,0,0-2.63-1c-24.81-1-50.09,4.77-69.41,15.64-26,14.62-42,38.62-46.51,69.46-5.68,38.82,10.54,64,25.19,78.37C227.46,214.34,250,225.71,272,229.34ZM429,470.12a4.12,4.12,0,0,0-1.36,2.35,68.71,68.71,0,0,1-8.83,5.37c-11,5.26-15.95,1.61-20.77-1.92-1-.71-1.88-1.38-2.83-2-2.47-1.51-5.87-13.28-.56-21.37,8.26-12.62,22.23-42.87,22-75.94.16-28.32-5.68-53.39-17.37-75,16.13,14.4,32.81,30.19,40.81,40.58.08.13.13.27.22.4C452.19,359.69,486.63,419.59,429,470.12Zm96.95-200.71a208.85,208.85,0,0,1-.11,25.9c-3.9-25.21-14.42-48.84-31.39-70.5C512.22,232.76,523.08,248.14,525.91,269.41ZM398.64,190l1.69-.05c6.25-.17,12.89-1.48,19.93-2.87,10.79-2.14,23-4.56,35.71-2.94,34.71,6.83,49.66,18,57.77,34,0,.11.07.22.12.33,1.42,3,2.68,6.12,3.82,9.25.35,1,.69,2.1,1,3.17-8.05-8.62-18.6-14.69-31.46-18.09a48.59,48.59,0,0,0-5.07-1,4.59,4.59,0,0,0-1.05-.15c-9.89-1.29-18.88.63-28.28,2.65-14.76,3.17-31.43,6.75-57.66-.24-30.53-8.13-44.86-20.87-57.67-34.77C363.51,191.05,385.47,190.4,398.64,190Zm-84.75-23c3.9,3.85,7.48,7.82,11.23,12,14.71,16.44,30,33.51,67.51,43.54,28.46,7.61,47.13,3.62,62.19.4,8.71-1.87,16-3.41,23.68-2.64,25.35,28,38.68,59.73,39.5,94.19a142.78,142.78,0,0,1-11.73,60.06A4.24,4.24,0,0,0,506,377a245.57,245.57,0,0,1-37.33,57.59q-2.89,3.35-5.78,6.46a87.45,87.45,0,0,0,7.26-46.92c-2.62-23.61-13.17-43-20.29-53.81a4.53,4.53,0,0,0-.52-1c-15.82-22.35-75.62-71.68-83.36-78q-3.69-3.07-7.63-6c-32.67-24-70.2-32.18-84.75-34.56a107.57,107.57,0,0,1-51.33-24.12C234.9,189.89,270.09,172.89,313.89,167ZM195.27,121.63c4.17-28.48,18.3-49.68,42.09-63,24.13-13.56,50.7-14.73,62.7-14.45,4.34,1.19,6.93,2.84,7.67,4.93,1.75,4.85-4.94,14.14-9.81,20.91a102,102,0,0,0-6.31,9.45c-7.56,13.65-12.33,53.29,14.92,79.8-45.69,7.35-80.52,25.34-90.88,31.15C198.38,172.08,191.35,148.42,195.27,121.63Z"/><path d="M373.19,134.17c22.72,15.77,43.25,15.07,53.17,14.72l1.05,0A78.48,78.48,0,0,0,440.12,147c6.87-1.39,14-2.82,21.51-1.91,16.37,3.16,26.22,8.47,32.88,17.72a.1.1,0,0,1,0,.05l.22.26.18.2.23.22.22.18.25.18.24.15.27.15.27.12.27.11.28.09.3.08.28,0,.31.05h.59a4.46,4.46,0,0,0,.63,0l.16,0a3.69,3.69,0,0,0,.45-.11l.22-.06c.13,0,.26-.09.38-.15l.23-.1.1,0,.13-.09.31-.16.17-.14.37-.3a3.26,3.26,0,0,0,.33-.31c.1-.11.19-.22.28-.34a3.28,3.28,0,0,0,.27-.38c.07-.11.13-.24.19-.36a3.89,3.89,0,0,0,.19-.42c.05-.13.08-.25.12-.38s.07-.3.1-.45,0-.26,0-.4a3.38,3.38,0,0,0,0-.45,2.58,2.58,0,0,0,0-.4,3.89,3.89,0,0,0-.09-.47,2.53,2.53,0,0,0-.12-.36,3.9,3.9,0,0,0-.2-.47,1.42,1.42,0,0,0-.08-.18,186,186,0,0,0-25.8-35.82C453.71,97.62,428.11,78,400.73,63.78a4.43,4.43,0,0,0-2.16-1.4c-17.58-5.14-32.42.49-40.75,15.42C352.41,87.51,349.13,117.47,373.19,134.17Zm-7.32-52.38c6-10.73,15.41-14.57,28-11.44l.05,0c27.29,13.81,52.8,33.27,75.79,57.86a153.39,153.39,0,0,1,10.72,12.88,91.6,91.6,0,0,0-17-4.8l-.31,0c-9.18-1.15-17.5.54-24.83,2a72.37,72.37,0,0,1-11.08,1.7l-1.08,0c-9.56.34-27.29,1-47.5-13C358.08,112.75,362.77,87.35,365.87,81.79Z"/><path d="M187.22,399.83c-10.75-10-22.14-16.44-34.83-19.75-10.8-2.82-20.77-2.86-28.76-2.88a76.83,76.83,0,0,1-12.81-.67C98.93,374.34,74.3,369.79,64,359.87c-8.31-8-13.47-19.31-14.85-22.58l-.09-.37a4.27,4.27,0,0,0-4.82-3.27l-.17,0H44l-.19.06a4.77,4.77,0,0,0-.51.13,4.2,4.2,0,0,0-2.46,5.44c0,.06.09.25.21.54,12,52.53,41.41,98.77,87.67,137.64a192.25,192.25,0,0,0,16.93,12.75l.18.11.08,0q11,6.35,21.35,6.55c11.51.22,22.32-5.28,32.3-16.52C213.06,465.25,220.91,431.14,187.22,399.83ZM75,402.28A226.87,226.87,0,0,1,57.4,365.21l.67.67h0l18.87,18.71C75.91,391.46,75.31,397.42,75,402.28Zm75.32,80.82a185.9,185.9,0,0,1-16-12.06q-30.77-25.82-51.16-55.91a178,178,0,0,1,1.47-23l94.35,93.59C170,490,160.66,489,150.29,483.1Zm42.57-8.4a55.57,55.57,0,0,1-6.52,6.32L83.2,378.86a245.12,245.12,0,0,0,26.12,6.05,84,84,0,0,0,14.38.83c16,.06,35.87.15,57.51,20.28C210.35,433.13,204.14,462,192.86,474.7Z"/><path d="M623.05,242.53q-4.38-13.87-10.18-27.38l-.16-.35-.2-.33q-3.54-5.64-7.43-11.33l.18-.16c-26.38-39.68-84-104.31-123.17-135.62C425.86,21,354.9-2.59,281.09.23,203.76,3.17,132.47,34.79,79.79,88.77,27.76,142.08-.4,211.38,0,284.41s29.32,142,81.93,194.75a291.77,291.77,0,0,0,23.38,21l-.48-.28c3.71,3.16,27.45,23.26,31.25,26.29,4,4.09,8.21,7.06,12.49,10.91,11.54,10.4,23.89,17.9,36.9,26.32l.17.1a456.22,456.22,0,0,0,55.43,27.91l.18.07a291.28,291.28,0,0,0,45.06,12.89q8.31,1.67,16.72,2.84a294.44,294.44,0,0,0,41,2.87A292.53,292.53,0,0,0,636.55,317.6C636.55,287.39,632,270.89,623.05,242.53ZM9.36,284.36C9,213.75,36.23,146.76,86.57,95.26c51-52.13,119.87-82.61,194.58-85.37C357.17,7.07,430,33.27,485.8,84.17c56.48,51.55,88.12,121.72,88.53,197.09S543.88,427.15,488,479.32c-55.21,51.51-127.78,78.5-203.82,76.52-74.74-2-144-31.67-195.51-83.24C37.73,421.66,9.75,355,9.36,284.36Zm534.44,233a282.77,282.77,0,0,1-298.94,64.83,447.83,447.83,0,0,1-54-27.21c-9.06-5.87-17.79-11.56-26.13-17.62a299.81,299.81,0,0,0,119.5,28.14c78.77,2.14,154-25.74,211.22-79.06,58-54,90-127.1,89.61-205.23-.32-57.08-17.94-103.27-50.25-149.14,26.37,24.4,49.62,56.4,69.06,87.38,15.07,35.19,22.72,59.58,22.72,98.15A280.65,280.65,0,0,1,543.8,517.36Z"/><path class="cls-1" d="M3.27,694.43H22.64V720H43.82v-25.6H63.19v70.26H43.82v-28.2H22.64v28.2H3.27Z"/><path class="cls-1" d="M186.63,694.43H206v23.79l18.67-23.79h23.68l-27.1,33.13,29.11,37.13H225.78L206,738.6v26.09H186.63Z"/><path class="cls-1" d="M538.21,729.56c0-20.77,13.75-36.33,36.43-36.33s36.64,15.56,36.64,36.33c0,20.48-14.46,36.34-36.64,36.34S538.21,750,538.21,729.56Zm53.7,0c0-13.55-8.84-19.87-17.17-19.87s-17.16,6.32-17.16,19.87,8.83,19.88,17.16,19.88S591.91,743.11,591.91,729.56Z"/><polygon class="cls-1" points="381.74 694.43 361.77 694.43 379.43 730.46 388.86 708.86 381.74 694.43"/><polygon class="cls-1" points="402.82 694.43 392.28 718.62 392.24 718.53 382.55 740.53 382.55 764.69 401.92 764.69 401.92 736.89 422.79 694.43 402.82 694.43"/><polygon class="cls-1" points="612.74 676.73 617.97 676.73 617.97 693.57 621.48 693.57 621.48 676.73 627.13 676.73 627.13 673.46 612.74 673.46 612.74 676.73"/><polygon class="cls-1" points="645.72 673.46 640.21 688.71 634.63 673.46 630.07 673.46 630.07 693.57 633.57 693.57 633.57 680.21 638.57 693.57 641.78 693.57 646.78 680.21 646.78 693.57 650.29 693.57 650.29 673.46 645.72 673.46"/></g></g></svg>