<svg xmlns="http://www.w3.org/2000/svg" viewBox="0 0 61.78 349.24"><defs><style>.cls-1{fill:#231815;}</style></defs><title>aaa</title><g id="レイヤー_2" data-name="レイヤー 2"><g id="レイヤー_1-2" data-name="レイヤー 1"><polygon class="cls-1" points="60.75 13.99 60.75 0 1.02 0 1.02 38.65 13.23 38.65 13.23 13.99 60.75 13.99"/><polygon class="cls-1" points="19.45 77.82 60.75 64.68 60.75 46.42 1.02 46.42 1.02 59.64 36.18 59.64 1.02 71.76 1.02 83.88 36.18 95.99 1.02 95.99 1.02 109.22 60.75 109.22 60.75 91.98 19.45 77.82"/><path class="cls-1" d="M43.94,224.41c10.24,0,16.81-7.17,16.81-20.39V182.77H1v14H26.28v1.87L1,213v15.7l27.39-16.13C31.06,220,36,224.41,43.94,224.41Zm-5.8-20.48v-7.16H48.72v7.16c0,4-2,6.49-5.29,6.49S38.14,208,38.14,203.93Z"/><path class="cls-1" d="M36.44,260.49c.42-.68,4.18-7.85,4.52-8.53,1.79-3.33,3.33-4.44,5.46-4.44S50,249.4,50,251.87c0,2.73-1.79,4.61-4.52,5.72l5.72,11.18c6.65-2.73,10.58-7.77,10.58-16.9,0-11-6.4-18.26-15.53-18.26-8.62,0-13.48,4.87-16.3,10.33-.6,1-3.67,7.17-4.27,8.36-2.56,5-4.86,6.74-7.76,6.74-3.58,0-5.89-3-5.89-7.25,0-4.87,3.16-9,8.45-10.67l-4.78-11.6C6,232.93,0,239.59,0,251.79c0,12.88,8.45,21,18,21C26.54,272.78,32,268.85,36.44,260.49Z"/><polygon class="cls-1" points="48.55 276.19 48.55 291.3 1.02 291.3 1.02 305.2 48.55 305.2 48.55 320.82 60.75 320.82 60.75 276.19 48.55 276.19"/><polygon class="cls-1" points="58.73 326.58 58.73 329.74 48.57 329.74 48.57 331.85 58.73 331.85 58.73 335.27 60.71 335.27 60.71 326.58 58.73 326.58"/><polygon class="cls-1" points="60.71 346.49 51.5 343.16 60.71 339.79 60.71 337.04 48.57 337.04 48.57 339.15 56.64 339.15 48.57 342.17 48.57 344.11 56.64 347.13 48.57 347.13 48.57 349.24 60.71 349.24 60.71 346.49"/><path class="cls-1" d="M38.14,135.84H60.75v-14H1v14s24.83,0,24.83,20.14H1v14H60.75V156S38.14,156,38.14,135.84Z"/></g></g></svg>