<svg xmlns="http://www.w3.org/2000/svg" viewBox="0 0 174.01 178.08"><defs><style>.cls-1{fill:#231815;}</style></defs><title>アセット 1</title><g id="レイヤー_2" data-name="レイヤー 2"><g id="レイヤー_1-2" data-name="レイヤー 1"><path class="cls-1" d="M85.62,149.86V129.33c0-6.46-3.82-12.13-10.49-15.55a35.7,35.7,0,0,0-15.79-3.6H37.15V30.94H166.42v-16H103.11V0h-16V14.94h-66v95.25H0v16H21.15v19.63c0,9.42-2.32,16.26-5.51,16.26H0v16H15.64c6.87,0,12.75-3.5,16.55-9.86,3.29-5.5,5-13,5-22.4V126.18H59.34c5.44,0,9.76,2.07,10.28,3.14v20.53c0,7.77,5.57,14.45,8,17,5.24,5.49,11.53,8.64,17.28,8.64h71.54v-16H94.87C92,159.46,85.69,152.91,85.62,149.86Z"/><path class="cls-1" d="M162.94,54.4a100.3,100.3,0,0,0-12.87-.46H114.29c-1.1,0-2,0-2.69-.08V49.67c0-2.9-1.18-9.9-12.15-12.16-3.69-.76-8.48-1.09-16-1.09H44.33v16H83.45A80.86,80.86,0,0,1,95.6,53v3.9c0,13,14.07,13,18.69,13h35.8c2.73,0,5.67,0,7.92.09V73.3c-.57,0-1.27.06-2.12.06H59.4c-2.38,0-8.7,0-12.46,5-2.6,3.43-2.6,7.42-2.6,10.34v16.41h16V89.36h91.28v3.18a34.62,34.62,0,0,1-3.85.22H72v16h48.74v7.68H88.87v16h31.89v7.68H105.54v16h46.88v-16H136.76v-7.68h33.32v-16H136.76v-7.68h11c16.4,0,19.85-6,19.85-11V87.15c3.53-1.86,6.38-5.28,6.38-11.59V65C174,62.92,173.21,55.86,162.94,54.4Z"/></g></g></svg>