<svg xmlns="http://www.w3.org/2000/svg" viewBox="0 0 236.77 226.77"><defs><style>.cls-1{fill:#231815;}</style></defs><title>アセット 2</title><g id="レイヤー_2" data-name="レイヤー 2"><g id="レイヤー_1-2" data-name="レイヤー 1"><path class="cls-1" d="M143.16,97.84h-3.69V0h-20V97.84h-2.31v-12h-20v12H62.38V93.9h8.55v-.1c10-1,15.16-10.25,15.16-19.37v-46c.71,0,1.58.07,2.67.19a15,15,0,0,0,1.71.12h4.29V78.3h20V24.89c0-10.3-5-15.74-14.84-16.16h-9c-5.73-.61-14-.82-19.82,4.39a15.11,15.11,0,0,0-5,11.42V73.9H62.38V11.33h-20V73.9H36V35.19a16.2,16.2,0,0,0-4.79-11.82c-6-6-15.22-5.83-20.15-5.77H0v20H11.36a44.73,44.73,0,0,1,4.66.12V74.43c0,11.28,7.49,19.47,17.8,19.47h8.55v3.94H0v20H42.38v3H33.82C25,120.86,16,128.32,16,145v58.46a7.31,7.31,0,0,1-.07,1.09,22.35,22.35,0,0,1-4.52.22l-1.39,0H0v20H11l1.87,0c4.55,0,11.81-.57,17.27-5.91,2.68-2.63,5.88-7.43,5.88-15.42V145a17.66,17.66,0,0,1,.42-4.11h5.94V226h20V140.86h5.94a17.66,17.66,0,0,1,.42,4.11v58.46c0,8,3.2,12.79,5.88,15.42,5.46,5.35,12.72,5.91,17.27,5.91l1.87,0h20.52c.39,0,.77,0,1.17,0h32.22c9,0,12.58-8.42,13.46-11,1.38-4,2.05-9.26,2.05-15.94V85.8h-20ZM93.33,204.74a22.35,22.35,0,0,1-4.52-.22,7.31,7.31,0,0,1-.07-1.09V145c0-16.65-8.94-24.11-17.8-24.11H62.38v-3H97.17v78.1a72,72,0,0,0,.48,8.79H94.72Zm49.41,0H117.93a38.81,38.81,0,0,1-.76-8.83v-78.1h26v80A47.8,47.8,0,0,1,142.74,204.76Z"/><rect class="cls-1" x="143.76" y="15.85" width="20" height="63.05"/><path class="cls-1" d="M231.1,15.3c-3-4.31-8.74-9.45-19.13-9.45H169.91V226.77h20v-83.9h26.86v46.64c0,8-1.5,16.09-4.84,16.09v20A21.94,21.94,0,0,0,230.31,216c4.35-6.19,6.46-14.85,6.46-26.46V38.93C236.77,28.52,234.92,20.79,231.1,15.3ZM212,25.85c2.1,0,2.43.47,2.7.86.63.91,2.1,3.92,2.1,12.23V66.44H189.91V25.85Zm-22.06,97V86.44h26.86v36.43Z"/></g></g></svg>