<?xml version="1.0" encoding="utf-8"?>
<!-- Generator: Adobe Illustrator 22.1.0, SVG Export Plug-In . SVG Version: 6.00 Build 0)  -->
<svg version="1.1" id="レイヤー_1" xmlns="http://www.w3.org/2000/svg" xmlns:xlink="http://www.w3.org/1999/xlink" x="0px"
	 y="0px" viewBox="0 0 832 40.8" style="enable-background:new 0 0 832 40.8;" xml:space="preserve">
<style type="text/css">
	.st0{enable-background:new    ;}
	.st1{fill:#231815;}
</style>
<title>Sentence_right_1</title>
<g id="レイヤー_2_1_">
	<g id="レイヤー_1-2">
		<g class="st0">
			<path class="st1" d="M4.4,5.5h7c4,0,6.9,2.9,6.9,6.6c0,3.9-3,7-6.9,7H7.1v12.2H4.4V5.5z M11.4,16.6c2.7,0,4.3-1.9,4.3-4.3
				S14.2,8,11.4,8H7.1v8.5H11.4z"/>
			<path class="st1" d="M21.9,22.1c0-5.4,3.2-9.7,9.2-9.7c5.5,0,8.4,4.2,8.4,9.2c0,0.4,0,0.9-0.1,1.3H24.3c0.3,4,2.8,6.6,6.7,6.6
				c2.7,0,4.8-1.4,6-3.7l1.9,1.1c-1.4,2.7-3.9,4.8-8,4.8C25.1,31.8,21.9,27.5,21.9,22.1z M37.1,20.8c-0.4-3.7-2.4-6.1-6.1-6.1
				s-6.2,2.4-6.7,6.1H37.1z"/>
			<path class="st1" d="M45.4,12.9h2l0.5,2.6c1-1.8,2.4-3,5.3-3c1.3,0,2.8,0.6,3.4,1.1l-1.3,2.2c-0.8-0.6-1.9-0.9-2.9-0.9
				c-2.3,0-4.6,2.1-4.6,6.9v9.6h-2.4V12.9z"/>
			<path class="st1" d="M58.3,26.9l2.2-0.8c0.6,2,2,3.5,4.5,3.5c1.8,0,3.4-1.3,3.4-3.2c0-1.8-1.1-2.8-3.4-3.7l-2.2-0.9
				c-1.7-0.7-3.2-2.2-3.2-4.6c0-2.7,2.3-4.7,4.9-4.7c2.6,0,4.2,1.3,5.2,3.4l-2,1.1c-0.7-1.7-1.8-2.3-3.2-2.3c-1.4,0-2.5,1.1-2.5,2.5
				c0,1.7,1.5,2.3,2.5,2.8l2.7,1.2c1.8,0.8,3.6,2.5,3.6,5.1c0,3.1-2.2,5.6-6.2,5.6C61.2,31.8,59.3,29.7,58.3,26.9z"/>
			<path class="st1" d="M74.9,22.1c0-5.4,3.8-9.7,9.4-9.7s9.4,4.3,9.4,9.7c0,5.4-3.8,9.7-9.4,9.7S74.9,27.5,74.9,22.1z M91.2,22.1
				c0-4.5-3.1-7.4-6.9-7.4s-6.9,3-6.9,7.4c0,4.5,3.1,7.4,6.9,7.4S91.2,26.6,91.2,22.1z"/>
			<path class="st1" d="M99.7,12.9h2l0.5,2.1c1.2-1.6,2.8-2.5,5.7-2.5c4.5,0,6.7,3.3,6.7,7.6v11.2h-2.4V19.7c0-3.3-2.3-5-4.9-5
				c-2.5,0-5.1,1.9-5.1,6.9v9.8h-2.4V12.9z"/>
			<path class="st1" d="M120.3,22.1c0-5.4,3.7-9.7,9.1-9.7c3.8,0,5.8,2,6.6,3.1l0.4-2.7h2v18.4h-2l-0.4-2.9
				c-1.1,1.6-3.5,3.4-6.6,3.4C123.6,31.8,120.3,27.5,120.3,22.1z M136.1,22.1c0-4.1-2.6-7.4-6.7-7.4s-6.7,3.3-6.7,7.4
				c0,4.1,2.6,7.4,6.7,7.4S136.1,26.2,136.1,22.1z"/>
			<path class="st1" d="M146.2,5h2.4v26.3h-2.4V5z"/>
			<path class="st1" d="M156.2,5.5h2.8v2.9h-2.8V5.5z M156.4,12.9h2.4v18.4h-2.4V12.9z"/>
			<path class="st1" d="M167,15.1h-2.4v-2.2h2.4V7.8l2.4-0.5v5.6h3.8v2.2h-3.8v16.2H167V15.1z"/>
			<path class="st1" d="M180.6,38.7l2.6-7.4l-7.3-18.4h2.7l5.8,15l5.2-15h2.5l-9,25.8H180.6z"/>
			<path class="st1" d="M206.1,5.5h2.8v2.9h-2.8V5.5z M206.2,12.9h2.4v18.4h-2.4V12.9z"/>
			<path class="st1" d="M213.8,26.9l2.2-0.8c0.6,2,2,3.5,4.5,3.5c1.8,0,3.4-1.3,3.4-3.2c0-1.8-1.1-2.8-3.4-3.7l-2.2-0.9
				c-1.7-0.7-3.2-2.2-3.2-4.6c0-2.7,2.3-4.7,4.9-4.7c2.6,0,4.2,1.3,5.2,3.4l-2,1.1c-0.7-1.7-1.8-2.3-3.2-2.3c-1.4,0-2.5,1.1-2.5,2.5
				c0,1.7,1.5,2.3,2.5,2.8l2.7,1.2c1.8,0.8,3.6,2.5,3.6,5.1c0,3.1-2.2,5.6-6.2,5.6C216.7,31.8,214.8,29.7,213.8,26.9z"/>
			<path class="st1" d="M238.3,26.9l2.2-0.8c0.6,2,2,3.5,4.5,3.5c1.8,0,3.4-1.3,3.4-3.2c0-1.8-1.1-2.8-3.4-3.7l-2.2-0.9
				c-1.7-0.7-3.2-2.2-3.2-4.6c0-2.7,2.3-4.7,4.9-4.7c2.6,0,4.2,1.3,5.2,3.4l-2,1.1c-0.7-1.7-1.8-2.3-3.2-2.3c-1.4,0-2.5,1.1-2.5,2.5
				c0,1.7,1.5,2.3,2.5,2.8l2.7,1.2c1.8,0.8,3.6,2.5,3.6,5.1c0,3.1-2.2,5.6-6.2,5.6C241.2,31.8,239.2,29.7,238.3,26.9z"/>
			<path class="st1" d="M256.7,15.1h-2.4v-2.2h2.4V7.8l2.4-0.5v5.6h3.8v2.2h-3.8v16.2h-2.4V15.1z"/>
			<path class="st1" d="M266.3,22.1c0-5.4,3.7-9.7,9.1-9.7c3.8,0,5.8,2,6.6,3.1l0.4-2.7h2v18.4h-2l-0.4-2.9
				c-1.1,1.6-3.5,3.4-6.6,3.4C269.6,31.8,266.3,27.5,266.3,22.1z M282.2,22.1c0-4.1-2.6-7.4-6.7-7.4s-6.7,3.3-6.7,7.4
				c0,4.1,2.6,7.4,6.7,7.4S282.2,26.2,282.2,22.1z"/>
			<path class="st1" d="M292.2,12.9h2l0.5,2.6c1-1.8,2.4-3,5.3-3c1.3,0,2.8,0.6,3.4,1.1l-1.3,2.2c-0.8-0.6-1.9-0.9-2.9-0.9
				c-2.3,0-4.6,2.1-4.6,6.9v9.6h-2.4V12.9z"/>
			<path class="st1" d="M305.3,22.1c0-5.4,3.6-9.7,9.2-9.7c3,0,6,1.3,7.7,4.7l-2.1,1c-1.2-2.2-3-3.5-5.7-3.5c-3.6,0-6.6,3-6.6,7.4
				c0,4.5,3,7.4,6.8,7.4c2.9,0,5.1-2,5.9-3.7l2.1,1.1c-1.5,2.7-4.5,4.8-8,4.8C308.9,31.8,305.3,27.5,305.3,22.1z"/>
			<path class="st1" d="M327.9,5h2.4v10c1.2-1.6,3.2-2.5,5.7-2.5c4.8,0,6.7,3.3,6.7,7.6v11.2h-2.4V19.7c0-3.3-2.3-5-4.9-5
				c-2.5,0-5.1,1.9-5.1,6.9v9.8h-2.4V5z"/>
			<path class="st1" d="M357.6,22.1c0-5.4,3.6-9.7,9.2-9.7c3,0,6,1.3,7.7,4.7l-2.1,1c-1.2-2.2-3-3.5-5.7-3.5c-3.6,0-6.6,3-6.6,7.4
				c0,4.5,3,7.4,6.8,7.4c2.9,0,5.1-2,5.9-3.7l2.1,1.1c-1.5,2.7-4.5,4.8-8,4.8C361.2,31.8,357.6,27.5,357.6,22.1z"/>
			<path class="st1" d="M378.2,22.1c0-5.4,3.8-9.7,9.4-9.7s9.4,4.3,9.4,9.7c0,5.4-3.8,9.7-9.4,9.7S378.2,27.5,378.2,22.1z
				 M394.5,22.1c0-4.5-3.1-7.4-6.9-7.4s-6.9,3-6.9,7.4c0,4.5,3.1,7.4,6.9,7.4S394.5,26.6,394.5,22.1z"/>
			<path class="st1" d="M403,12.9h2l0.5,2.1c1.2-1.6,2.8-2.5,5.7-2.5c4.5,0,6.7,3.3,6.7,7.6v11.2h-2.4V19.7c0-3.3-2.3-5-4.9-5
				c-2.5,0-5.1,1.9-5.1,6.9v9.8H403V12.9z"/>
			<path class="st1" d="M425.2,12.9h2l0.5,2.1c1.2-1.6,2.8-2.5,5.7-2.5c4.5,0,6.7,3.3,6.7,7.6v11.2h-2.4V19.7c0-3.3-2.3-5-4.9-5
				c-2.5,0-5.1,1.9-5.1,6.9v9.8h-2.4V12.9z"/>
			<path class="st1" d="M445.8,22.1c0-5.4,3.2-9.7,9.2-9.7c5.5,0,8.4,4.2,8.4,9.2c0,0.4,0,0.9-0.1,1.3h-15.1c0.3,4,2.8,6.6,6.7,6.6
				c2.7,0,4.8-1.4,6-3.7l1.9,1.1c-1.4,2.7-3.9,4.8-8,4.8C449,31.8,445.8,27.5,445.8,22.1z M461.1,20.8c-0.4-3.7-2.4-6.1-6.1-6.1
				c-3.7,0-6.2,2.4-6.7,6.1H461.1z"/>
			<path class="st1" d="M467.6,22.1c0-5.4,3.6-9.7,9.2-9.7c3,0,6,1.3,7.7,4.7l-2.1,1c-1.2-2.2-3-3.5-5.7-3.5c-3.6,0-6.6,3-6.6,7.4
				c0,4.5,3,7.4,6.8,7.4c2.9,0,5.1-2,5.9-3.7l2.1,1.1c-1.5,2.7-4.5,4.8-8,4.8C471.2,31.8,467.6,27.5,467.6,22.1z"/>
			<path class="st1" d="M490.8,15.1h-2.4v-2.2h2.4V7.8l2.4-0.5v5.6h3.8v2.2h-3.8v16.2h-2.4V15.1z"/>
			<path class="st1" d="M502.2,5.5h2.8v2.9h-2.8V5.5z M502.4,12.9h2.4v18.4h-2.4V12.9z"/>
			<path class="st1" d="M512.5,12.9h2l0.5,2.1c1.2-1.6,2.8-2.5,5.7-2.5c4.5,0,6.7,3.3,6.7,7.6v11.2h-2.4V19.7c0-3.3-2.3-5-4.9-5
				c-2.5,0-5.1,1.9-5.1,6.9v9.8h-2.4V12.9z"/>
			<path class="st1" d="M533.2,31.5c0-3.1,2.1-5.7,4.3-6.6c-1.4-1-3.2-2.6-3.2-5.6c0-4.1,3.4-6.8,7.4-6.8h8.4v1.9l-3.1,0.4
				c0.9,0.9,1.9,2.2,1.9,4.4c0,2.6-1.7,4.8-3.1,5.6c2.1,1,4.2,3.3,4.2,6.8c0,4.5-3.7,7.6-8.3,7.6C537.1,39.1,533.2,36.1,533.2,31.5z
				 M547.6,31.5c0-3.1-2.5-5.4-5.9-5.4c-3.1,0-5.9,2.3-5.9,5.4c0,3.2,2.8,5.4,5.9,5.4C545.1,36.9,547.6,34.7,547.6,31.5z
				 M546.4,19.3c0-2.5-1.7-4.6-4.7-4.6c-2.9,0-4.9,2.1-4.9,4.6c0,2.5,2,4.6,4.9,4.6C544.8,23.9,546.4,21.7,546.4,19.3z"/>
			<path class="st1" d="M564.1,22.1c0-5.4,3.6-9.7,9.2-9.7c3,0,6,1.3,7.7,4.7l-2.1,1c-1.2-2.2-3-3.5-5.7-3.5c-3.6,0-6.6,3-6.6,7.4
				c0,4.5,3,7.4,6.8,7.4c2.9,0,5.1-2,5.9-3.7l2.1,1.1c-1.5,2.7-4.5,4.8-8,4.8C567.7,31.8,564.1,27.5,564.1,22.1z"/>
			<path class="st1" d="M584.6,22.1c0-5.4,3.8-9.7,9.4-9.7c5.6,0,9.4,4.3,9.4,9.7c0,5.4-3.8,9.7-9.4,9.7
				C588.4,31.8,584.6,27.5,584.6,22.1z M600.9,22.1c0-4.5-3.1-7.4-6.9-7.4c-3.8,0-6.9,3-6.9,7.4c0,4.5,3.1,7.4,6.9,7.4
				C597.8,29.6,600.9,26.6,600.9,22.1z"/>
			<path class="st1" d="M609.4,12.9h2l0.5,2.6c1-1.8,2.4-3,5.3-3c1.3,0,2.8,0.6,3.4,1.1l-1.3,2.2c-0.8-0.6-1.9-0.9-2.9-0.9
				c-2.3,0-4.6,2.1-4.6,6.9v9.6h-2.4V12.9z"/>
			<path class="st1" d="M622.5,22.1c0-5.4,3.2-9.7,9.2-9.7c5.5,0,8.4,4.2,8.4,9.2c0,0.4,0,0.9-0.1,1.3H625c0.3,4,2.8,6.6,6.7,6.6
				c2.7,0,4.8-1.4,6-3.7l1.9,1.1c-1.4,2.7-3.9,4.8-8,4.8C625.7,31.8,622.5,27.5,622.5,22.1z M637.8,20.8c-0.4-3.7-2.4-6.1-6.1-6.1
				s-6.2,2.4-6.7,6.1H637.8z"/>
			<path class="st1" d="M655.7,15.1h-2.4v-2.2h2.4V7.8l2.4-0.5v5.6h3.8v2.2h-3.8v16.2h-2.4V15.1z"/>
			<path class="st1" d="M665.3,22.1c0-5.4,3.8-9.7,9.4-9.7c5.6,0,9.4,4.3,9.4,9.7c0,5.4-3.8,9.7-9.4,9.7
				C669.1,31.8,665.3,27.5,665.3,22.1z M681.6,22.1c0-4.5-3.1-7.4-6.9-7.4c-3.8,0-6.9,3-6.9,7.4c0,4.5,3.1,7.4,6.9,7.4
				C678.5,29.6,681.6,26.6,681.6,22.1z"/>
			<path class="st1" d="M697.8,31.5c0-3.1,2.1-5.7,4.3-6.6c-1.4-1-3.2-2.6-3.2-5.6c0-4.1,3.4-6.8,7.4-6.8h8.4v1.9l-3.1,0.4
				c0.9,0.9,1.9,2.2,1.9,4.4c0,2.6-1.7,4.8-3.1,5.6c2.1,1,4.2,3.3,4.2,6.8c0,4.5-3.7,7.6-8.3,7.6C701.6,39.1,697.8,36.1,697.8,31.5z
				 M712.1,31.5c0-3.1-2.5-5.4-5.9-5.4c-3.1,0-5.9,2.3-5.9,5.4c0,3.2,2.8,5.4,5.9,5.4C709.6,36.9,712.1,34.7,712.1,31.5z M711,19.3
				c0-2.5-1.7-4.6-4.7-4.6c-2.9,0-4.9,2.1-4.9,4.6c0,2.5,2,4.6,4.9,4.6C709.3,23.9,711,21.7,711,19.3z"/>
			<path class="st1" d="M719.4,22.1c0-5.4,3.7-9.7,9.1-9.7c3.8,0,5.8,2,6.6,3.1l0.4-2.7h2v18.4h-2l-0.4-2.9
				c-1.1,1.6-3.5,3.4-6.6,3.4C722.8,31.8,719.4,27.5,719.4,22.1z M735.3,22.1c0-4.1-2.6-7.4-6.7-7.4c-4.1,0-6.7,3.3-6.7,7.4
				c0,4.1,2.6,7.4,6.7,7.4C732.7,29.6,735.3,26.2,735.3,22.1z"/>
			<path class="st1" d="M745.4,12.9h2l0.5,2.6c1-1.8,2.4-3,5.3-3c1.3,0,2.8,0.6,3.4,1.1l-1.3,2.2c-0.8-0.6-1.9-0.9-2.9-0.9
				c-2.3,0-4.6,2.1-4.6,6.9v9.6h-2.4V12.9z"/>
			<path class="st1" d="M758.5,22.1c0-5.4,3.7-9.7,9.1-9.7c3.8,0,5.8,2.1,6.6,3.2V5h2.4v26.3h-1.9l-0.4-3.2
				c-1.1,1.6-3.5,3.6-6.7,3.6C761.8,31.8,758.5,27.5,758.5,22.1z M774.3,22.1c0-4.1-2.6-7.4-6.7-7.4c-4.1,0-6.7,3.3-6.7,7.4
				c0,4.1,2.6,7.4,6.7,7.4C771.7,29.6,774.3,26.2,774.3,22.1z"/>
			<path class="st1" d="M782.7,22.1c0-5.4,3.2-9.7,9.2-9.7c5.5,0,8.4,4.2,8.4,9.2c0,0.4,0,0.9-0.1,1.3h-15.1c0.3,4,2.8,6.6,6.7,6.6
				c2.7,0,4.8-1.4,6-3.7l1.9,1.1c-1.4,2.7-3.9,4.8-8,4.8C785.9,31.8,782.7,27.5,782.7,22.1z M798,20.8c-0.4-3.7-2.4-6.1-6.1-6.1
				s-6.2,2.4-6.7,6.1H798z"/>
			<path class="st1" d="M806.2,12.9h2l0.5,2.1c1.2-1.6,2.8-2.5,5.7-2.5c4.5,0,6.7,3.3,6.7,7.6v11.2h-2.4V19.7c0-3.3-2.3-5-4.9-5
				c-2.5,0-5.1,1.9-5.1,6.9v9.8h-2.4V12.9z"/>
		</g>
	</g>
</g>
</svg>
