<?xml version="1.0" encoding="utf-8"?>
<!-- Generator: Adobe Illustrator 22.1.0, SVG Export Plug-In . SVG Version: 6.00 Build 0)  -->
<svg version="1.1" id="レイヤー_1" xmlns="http://www.w3.org/2000/svg" xmlns:xlink="http://www.w3.org/1999/xlink" x="0px"
	 y="0px" viewBox="0 0 517.8 40.8" style="enable-background:new 0 0 517.8 40.8;" xml:space="preserve">
<style type="text/css">
	.st0{enable-background:new    ;}
	.st1{fill:#231815;}
</style>
<title>Sentence_left</title>
<g id="レイヤー_2_1_">
	<g id="レイヤー_1-2">
		<g class="st0">
			<path class="st1" d="M1.5,25.4l2.5-1c0.5,1.8,2.1,4.9,6.2,4.9c2.9,0,5.1-2.1,5.1-4.8c0-3-2.1-4.1-4.4-5.3l-3.8-2
				c-2.3-1.2-3.8-3.3-3.8-6c0-3.5,2.8-6.1,6.5-6.1c3,0,5.4,1.7,6.5,4.5l-2.4,1.1c-0.8-2-2-3.1-4.3-3.1c-2,0-3.7,1.5-3.7,3.5
				c0,2.1,1.1,3.1,3.3,4.2l4.1,2.2c3.2,1.8,4.8,3.8,4.8,6.8c0,4.1-3.1,7.4-7.8,7.4C5.6,31.8,2.7,29.2,1.5,25.4z"/>
			<path class="st1" d="M22,22.1c0-5.4,3.8-9.7,9.4-9.7s9.4,4.3,9.4,9.7c0,5.4-3.8,9.7-9.4,9.7S22,27.5,22,22.1z M38.3,22.1
				c0-4.5-3.1-7.4-6.9-7.4s-6.9,3-6.9,7.4c0,4.5,3.1,7.4,6.9,7.4S38.3,26.6,38.3,22.1z"/>
			<path class="st1" d="M46.2,24.1V12.9h2.4v11.6c0,3.3,2.3,5,4.9,5c2.9,0,5.1-2.1,5.1-6V12.9h2.4v18.4h-2l-0.5-2.1
				c-1.1,1.5-2.8,2.5-5.7,2.5C48.2,31.8,46.2,28.5,46.2,24.1z"/>
			<path class="st1" d="M68.8,12.9h2l0.5,2.6c1-1.8,2.4-3,5.3-3c1.3,0,2.8,0.6,3.4,1.1l-1.3,2.2c-0.8-0.6-1.9-0.9-2.9-0.9
				c-2.3,0-4.6,2.1-4.6,6.9v9.6h-2.4V12.9z"/>
			<path class="st1" d="M82,22.1c0-5.4,3.6-9.7,9.2-9.7c3,0,6,1.3,7.7,4.7l-2.1,1c-1.2-2.2-3-3.5-5.7-3.5c-3.6,0-6.6,3-6.6,7.4
				c0,4.5,3,7.4,6.8,7.4c2.9,0,5.1-2,5.9-3.7l2.1,1.1c-1.5,2.7-4.5,4.8-8,4.8C85.6,31.8,82,27.5,82,22.1z"/>
			<path class="st1" d="M102.5,22.1c0-5.4,3.2-9.7,9.2-9.7c5.5,0,8.4,4.2,8.4,9.2c0,0.4,0,0.9-0.1,1.3H105c0.3,4,2.8,6.6,6.7,6.6
				c2.7,0,4.8-1.4,6-3.7l1.9,1.1c-1.4,2.7-3.9,4.8-8,4.8C105.7,31.8,102.5,27.5,102.5,22.1z M117.8,20.8c-0.4-3.7-2.4-6.1-6.1-6.1
				s-6.2,2.4-6.7,6.1H117.8z"/>
			<path class="st1" d="M133.5,22.1c0-5.4,3.8-9.7,9.4-9.7s9.4,4.3,9.4,9.7c0,5.4-3.8,9.7-9.4,9.7S133.5,27.5,133.5,22.1z
				 M149.8,22.1c0-4.5-3.1-7.4-6.9-7.4s-6.9,3-6.9,7.4c0,4.5,3.1,7.4,6.9,7.4S149.8,26.6,149.8,22.1z"/>
			<path class="st1" d="M158.3,15.1h-2.8v-2.2h2.8v-1.8c0-4.3,2-6,5.3-6c0.9,0,1.6,0.2,2.2,0.4V8c-0.8-0.4-1.6-0.6-2.2-0.6
				c-1.9,0-2.9,1.3-2.9,3.3v2.2h4.9v2.2h-4.9v16.2h-2.4V15.1z"/>
			<path class="st1" d="M178.3,22.1c0-5.4,3.6-9.7,9.2-9.7c3,0,6,1.3,7.7,4.7l-2.1,1c-1.2-2.2-3-3.5-5.7-3.5c-3.6,0-6.6,3-6.6,7.4
				c0,4.5,3,7.4,6.8,7.4c2.9,0,5.1-2,5.9-3.7l2.1,1.1c-1.5,2.7-4.5,4.8-8,4.8C181.9,31.8,178.3,27.5,178.3,22.1z"/>
			<path class="st1" d="M200.9,12.9h2l0.5,2.6c1-1.8,2.4-3,5.3-3c1.3,0,2.8,0.6,3.4,1.1l-1.3,2.2c-0.8-0.6-1.9-0.9-2.9-0.9
				c-2.3,0-4.6,2.1-4.6,6.9v9.6h-2.4V12.9z"/>
			<path class="st1" d="M214,22.1c0-5.4,3.2-9.7,9.2-9.7c5.5,0,8.4,4.2,8.4,9.2c0,0.4,0,0.9-0.1,1.3h-15.1c0.3,4,2.8,6.6,6.7,6.6
				c2.7,0,4.8-1.4,6-3.7l1.9,1.1c-1.4,2.7-3.9,4.8-8,4.8C217.2,31.8,214,27.5,214,22.1z M229.3,20.8c-0.4-3.7-2.4-6.1-6.1-6.1
				s-6.2,2.4-6.7,6.1H229.3z"/>
			<path class="st1" d="M235.9,22.1c0-5.4,3.7-9.7,9.1-9.7c3.8,0,5.8,2,6.6,3.1l0.4-2.7h2v18.4h-2l-0.4-2.9
				c-1.1,1.6-3.5,3.4-6.6,3.4C239.2,31.8,235.9,27.5,235.9,22.1z M251.7,22.1c0-4.1-2.6-7.4-6.7-7.4s-6.7,3.3-6.7,7.4
				c0,4.1,2.6,7.4,6.7,7.4S251.7,26.2,251.7,22.1z"/>
			<path class="st1" d="M262.3,15.1h-2.4v-2.2h2.4V7.8l2.4-0.5v5.6h3.8v2.2h-3.8v16.2h-2.4V15.1z"/>
			<path class="st1" d="M273.8,5.5h2.8v2.9h-2.8V5.5z M273.9,12.9h2.4v18.4h-2.4V12.9z"/>
			<path class="st1" d="M281.1,12.9h2.5l5.8,15.5l5.7-15.5h2.5l-7.2,18.4h-2.3L281.1,12.9z"/>
			<path class="st1" d="M302.3,5.5h2.8v2.9h-2.8V5.5z M302.5,12.9h2.4v18.4h-2.4V12.9z"/>
			<path class="st1" d="M313.2,15.1h-2.4v-2.2h2.4V7.8l2.4-0.5v5.6h3.8v2.2h-3.8v16.2h-2.4V15.1z"/>
			<path class="st1" d="M326.7,38.7l2.6-7.4l-7.3-18.4h2.7l5.8,15l5.2-15h2.5l-9,25.8H326.7z"/>
			<path class="st1" d="M352.2,5.5h2.8v2.9h-2.8V5.5z M352.4,12.9h2.4v18.4h-2.4V12.9z"/>
			<path class="st1" d="M359.9,26.9l2.2-0.8c0.6,2,2,3.5,4.5,3.5c1.8,0,3.4-1.3,3.4-3.2c0-1.8-1.1-2.8-3.4-3.7l-2.2-0.9
				c-1.7-0.7-3.2-2.2-3.2-4.6c0-2.7,2.3-4.7,4.9-4.7c2.6,0,4.2,1.3,5.2,3.4l-2,1.1c-0.7-1.7-1.8-2.3-3.2-2.3c-1.4,0-2.5,1.1-2.5,2.5
				c0,1.7,1.5,2.3,2.5,2.8l2.7,1.2c1.8,0.8,3.6,2.5,3.6,5.1c0,3.1-2.2,5.6-6.2,5.6C362.9,31.8,360.9,29.7,359.9,26.9z"/>
			<path class="st1" d="M385.5,31.5c0-3.1,2.1-5.7,4.3-6.6c-1.4-1-3.2-2.6-3.2-5.6c0-4.1,3.4-6.8,7.4-6.8h8.4v1.9l-3.1,0.4
				c0.9,0.9,1.9,2.2,1.9,4.4c0,2.6-1.7,4.8-3.1,5.6c2.1,1,4.2,3.3,4.2,6.8c0,4.5-3.7,7.6-8.3,7.6C389.4,39.1,385.5,36.1,385.5,31.5z
				 M399.9,31.5c0-3.1-2.5-5.4-5.9-5.4c-3.1,0-5.9,2.3-5.9,5.4c0,3.2,2.8,5.4,5.9,5.4C397.4,36.9,399.9,34.7,399.9,31.5z
				 M398.7,19.3c0-2.5-1.7-4.6-4.7-4.6c-2.9,0-4.9,2.1-4.9,4.6c0,2.5,2,4.6,4.9,4.6C397.1,23.9,398.7,21.7,398.7,19.3z"/>
			<path class="st1" d="M407.2,22.1c0-5.4,3.7-9.7,9.1-9.7c3.8,0,5.8,2,6.6,3.1l0.4-2.7h2v18.4h-2l-0.4-2.9
				c-1.1,1.6-3.5,3.4-6.6,3.4C410.5,31.8,407.2,27.5,407.2,22.1z M423,22.1c0-4.1-2.6-7.4-6.7-7.4c-4.1,0-6.7,3.3-6.7,7.4
				c0,4.1,2.6,7.4,6.7,7.4C420.4,29.6,423,26.2,423,22.1z"/>
			<path class="st1" d="M433.1,12.9h2l0.5,2.6c1-1.8,2.4-3,5.3-3c1.3,0,2.8,0.6,3.4,1.1l-1.3,2.2c-0.8-0.6-1.9-0.9-2.9-0.9
				c-2.3,0-4.6,2.1-4.6,6.9v9.6h-2.4V12.9z"/>
			<path class="st1" d="M446.2,22.1c0-5.4,3.7-9.7,9.1-9.7c3.8,0,5.8,2.1,6.6,3.2V5h2.4v26.3h-1.9l-0.4-3.2
				c-1.1,1.6-3.5,3.6-6.7,3.6C449.5,31.8,446.2,27.5,446.2,22.1z M462.1,22.1c0-4.1-2.6-7.4-6.7-7.4s-6.7,3.3-6.7,7.4
				c0,4.1,2.6,7.4,6.7,7.4S462.1,26.2,462.1,22.1z"/>
			<path class="st1" d="M470.5,22.1c0-5.4,3.2-9.7,9.2-9.7c5.5,0,8.4,4.2,8.4,9.2c0,0.4,0,0.9-0.1,1.3h-15.1c0.3,4,2.8,6.6,6.7,6.6
				c2.7,0,4.8-1.4,6-3.7l1.9,1.1c-1.4,2.7-3.9,4.8-8,4.8C473.7,31.8,470.5,27.5,470.5,22.1z M485.7,20.8c-0.4-3.7-2.4-6.1-6.1-6.1
				s-6.2,2.4-6.7,6.1H485.7z"/>
			<path class="st1" d="M494,12.9h2l0.5,2.1c1.2-1.6,2.8-2.5,5.7-2.5c4.5,0,6.7,3.3,6.7,7.6v11.2h-2.4V19.7c0-3.3-2.3-5-4.9-5
				c-2.5,0-5.1,1.9-5.1,6.9v9.8H494V12.9z"/>
		</g>
	</g>
</g>
</svg>
