<?xml version="1.0" encoding="utf-8"?>
<!-- Generator: Adobe Illustrator 22.1.0, SVG Export Plug-In . SVG Version: 6.00 Build 0)  -->
<svg version="1.1" id="レイヤー_1" xmlns="http://www.w3.org/2000/svg" xmlns:xlink="http://www.w3.org/1999/xlink" x="0px"
	 y="0px" viewBox="0 0 1000 250" style="enable-background:new 0 0 1000 250;" xml:space="preserve">
<style type="text/css">
	.st0{enable-background:new    ;}
	.st1{fill:#231815;}
	.st2{fill:none;}
</style>
<title>4Magic_Sentence_yoko3_1</title>
<g id="レイヤー_2_1_">
	<g id="レイヤー_1-2">
		<g class="st0">
			<path class="st1" d="M59,63.3h4.3v2.8H59v7.2h-3.2v-7.2H43.5v-2.6l10.7-21.3H59V63.3z M55.8,52.5c0-2.5,0.1-4.7,0.2-7.5h-0.7
				c-1,2.3-1.9,4.5-3,6.7l-5.7,11.6h9.2V52.5z"/>
		</g>
		<g class="st0">
			<path class="st1" d="M88.2,41.9c-0.3,0.3-0.6,0.5-0.8,0.9C84,49.9,80,54.4,74,58.7c-0.3,0.3-0.5,0.4-0.6,0.4
				c-0.2,0-0.3-0.2-0.6-0.6c-0.4-0.6-1-1.1-1.5-1.4c6.3-3.8,10.9-9.5,13.3-14.8c0.4-0.9,0.6-1.6,0.7-2.5c0.9,0.3,2,0.7,2.7,1
				c0.4,0.2,0.6,0.4,0.6,0.6C88.5,41.6,88.4,41.7,88.2,41.9z M96.1,55.8c4.2,0,5.5-0.1,5.8-0.1c0.3,0,0.4,0.1,0.4,0.4
				c-0.1,1.3-0.1,2.7-0.2,4.5c-0.1,3.4-0.3,6.5-1,10.7c-0.5,2.8-1.8,4.8-5.4,4.8c-1.4,0-2.2,0-3.4-0.1c-0.9,0-0.9,0-1-1
				c-0.2-0.8-0.5-1.5-0.9-2c2.1,0.3,3.3,0.4,4.8,0.4c2,0,2.9-0.9,3.3-3.2c0.5-2.9,0.9-6.7,0.9-12.1h-9.5c-0.6,8.8-5,14.9-12.8,18.5
				c-0.3,0.1-0.5,0.2-0.6,0.2c-0.2,0-0.3-0.2-0.6-0.6c-0.3-0.6-0.9-1.1-1.4-1.4c7.8-3.1,12.1-8.6,12.7-16.7h-1.9
				c-4.1,0-5.5,0.1-5.7,0.1c-0.3,0-0.3,0-0.3-0.3V56c0-0.3,0-0.3,0.3-0.3c0.2,0,1.6,0.1,5.7,0.1H96.1z M95.6,39.8
				c0.5-0.3,0.6-0.2,0.7,0.1c3,6.8,8.2,12.8,14.8,16.6c-0.5,0.4-1.1,1-1.5,1.7c-0.3,0.4-0.4,0.6-0.5,0.6c-0.1,0-0.3-0.1-0.6-0.3
				c-6.5-4.7-11.3-10.6-14.5-17.5c-0.2-0.3,0-0.3,0.4-0.6L95.6,39.8z"/>
			<path class="st1" d="M152.7,64.8c0,0.3,0,0.3-0.3,0.3s-1.5-0.1-5.5-0.1h-12.2v4.3c0,5.1,0.1,7.3,0.1,7.5c0,0.3,0,0.3-0.3,0.3
				h-2.1c-0.3,0-0.3,0-0.3-0.3c0-0.2,0.1-2.4,0.1-7.5v-4.3h-11.4c-3.9,0-5.2,0.1-5.4,0.1c-0.3,0-0.3,0-0.3-0.3v-2
				c0-0.3,0-0.3,0.3-0.3c0.2,0,1.5,0.1,5.4,0.1h11.4V56h-8c-4.3,0-5.7,0.1-5.9,0.1c-0.3,0-0.3,0-0.3-0.4v-1.8c0-0.3,0-0.3,0.3-0.3
				c0.2,0,1.6,0.1,5.9,0.1h8v-8.9c0-3,0-4.2-0.3-5.8c1.1,0,2.1,0.1,2.9,0.3c0.3,0,0.5,0.2,0.5,0.3c0,0.3-0.1,0.4-0.2,0.8
				c-0.1,0.4-0.3,1.5-0.3,4.4v9h8.8c4.3,0,5.7-0.1,5.9-0.1c0.3,0,0.4,0,0.4,0.3v1.8c0,0.3,0,0.4-0.4,0.4c-0.2,0-1.6-0.1-5.9-0.1
				h-8.8v6.6h12.2c4,0,5.2-0.1,5.5-0.1s0.3,0,0.3,0.3V64.8z M121.4,42.3c0.5-0.3,0.5-0.4,0.8-0.1c2,2.5,3.6,4.8,5,7.5
				c0.1,0.3,0.1,0.4-0.4,0.7l-1.1,0.7c-0.6,0.3-0.6,0.4-0.8,0c-1.3-2.8-2.9-5.3-4.8-7.5c-0.2-0.2-0.3-0.3,0.3-0.6L121.4,42.3z
				 M147.1,43.9c-0.2,0.1-0.4,0.4-0.7,0.9c-1.1,1.8-2.5,3.9-4.7,6.5c-0.3,0.3-0.4,0.5-0.6,0.5c-0.2,0-0.3-0.1-0.6-0.3
				c-0.5-0.3-1-0.6-1.4-0.7c2.3-2.7,4-5.3,5-7.3c0.4-0.7,0.5-1.1,0.7-1.8c0.9,0.4,1.7,0.8,2.4,1.2c0.3,0.2,0.4,0.3,0.4,0.4
				C147.6,43.6,147.4,43.7,147.1,43.9z"/>
			<path class="st1" d="M177.7,47.3c-0.8,7.2-2.9,14.2-5.6,18.6c-1.8,3.1-3.7,4.4-6.3,4.4c-3.2,0-6.2-3.5-6.2-9.7
				c0-3.9,1.8-8.1,4.9-11c3.1-2.9,7.4-4.7,12.8-4.7c9.5,0,15.2,5.6,15.2,13.7c0,6.9-4.3,12.5-13.5,14.8c-0.5,0.1-0.8,0-1.1-0.5
				c-0.3-0.4-0.8-1.1-1.7-1.6c8.4-1.7,13.3-6.2,13.3-13.3c0-6.3-4.9-10.8-11-10.8H177.7z M166.4,51.4c-2.8,2.8-4.1,6.3-4.1,9.2
				c0,4.6,1.9,6.6,3.4,6.6c1.4,0,2.7-0.9,4-3.1c2.2-3.8,4.4-10.4,5-16.6C171.4,47.9,168.5,49.3,166.4,51.4z"/>
			<path class="st1" d="M227.7,48.2c1.9,0,2.7-0.1,3.1-0.3c0.4-0.2,0.8-0.2,1.1,0.1c0.7,0.6,1.3,1.3,1.8,2c0.4,0.6,0.2,1-0.2,1.3
				c-0.6,0.5-1.1,0.7-2,1.8c-3.1,3.7-7.6,8.2-12.1,11.9c1.4,1.4,3.1,3.3,4.4,5c0.3,0.3,0.3,0.6,0,0.9c-0.5,0.5-1,1-1.6,1.4
				c-0.3,0.2-0.5,0.3-0.7-0.1c-3.8-4.9-8.2-9.2-13.1-12.8c0.5-0.5,1.2-1.2,1.7-1.7c0.3-0.3,0.4-0.2,0.8,0c2.5,1.9,4.6,3.6,6.5,5.4
				c4.4-3.7,8.9-8.3,11.8-12.1L210.4,51c-3.4,0-6.1,0.2-8.4,0.3c-0.5,0-0.6-0.1-0.7-0.5c-0.1-0.9-0.3-1.9-0.3-3
				c2.8,0.3,5.7,0.3,9.4,0.3H227.7z"/>
			<path class="st1" d="M243.5,53.2c0.2-0.3,0.4-0.4,0.7-0.3c2.8,1,5.2,2.3,7.5,3.9c0.4,0.3,0.4,0.6,0.2,0.9
				c-0.3,0.6-0.7,1.3-1.1,1.8c-0.3,0.3-0.5,0.4-0.8,0.1c-2.3-1.8-5-3.2-7.8-4.3C242.7,54.5,243.2,53.6,243.5,53.2z M250.1,69.5
				c3.9-2,7.7-4.3,11.7-7.3c3.7-2.8,8.3-7,12.1-11.8c0.2,1.1,0.4,1.8,0.8,2.8c0.2,0.4,0.1,0.8-0.2,1.1c-3.6,4.2-7.3,7.4-11.2,10.4
				c-3.8,2.9-8,5.4-12.4,8c-0.9,0.5-1.6,1-2,1.4c-0.4,0.4-0.8,0.3-1.2-0.1c-0.6-0.6-1.4-1.8-2-2.8C247.1,70.8,248.4,70.3,250.1,69.5
				z M248.5,43.5c0.3-0.4,0.4-0.4,0.8-0.2c2.6,1.1,5.1,2.7,7.4,4.4c0.4,0.3,0.3,0.5,0.1,0.9c-0.3,0.6-0.8,1.4-1.2,1.8
				c-0.3,0.3-0.4,0.2-0.8-0.1c-2.1-1.9-4.8-3.6-7.6-4.8C247.6,44.9,248.1,44.1,248.5,43.5z M267,41.7c0.2-0.1,0.3-0.1,0.5,0
				c1.7,1.2,3.6,3.3,4.8,5.1c0.1,0.2,0.1,0.3-0.1,0.5l-1.2,1c-0.2,0.2-0.4,0.1-0.6-0.1c-1.2-2.1-3-4.1-4.9-5.4L267,41.7z
				 M270.6,38.9c0.2-0.1,0.3-0.2,0.5,0c1.7,1.3,3.6,3.2,4.8,5c0.1,0.2,0.1,0.3-0.1,0.5l-1.1,1c-0.2,0.2-0.3,0.2-0.5-0.1
				c-1.1-1.7-2.9-3.8-4.9-5.3L270.6,38.9z"/>
			<path class="st1" d="M284,53.1c0.3-0.2,0.5-0.1,0.8,0.2c1.4,1.8,2.6,3.7,3.5,6c0.2,0.4,0.2,0.5-0.2,0.8c-0.6,0.3-1.1,0.6-1.6,0.8
				c-0.4,0.2-0.6,0-0.7-0.3c-0.9-2.1-2.2-4.5-3.7-6.3C282.9,53.7,283.5,53.4,284,53.1z M306.8,53.1c0.4,0.3,0.4,0.7,0,1
				c-0.4,0.4-0.7,0.9-1.2,2c-1.8,4.2-3.9,8-6.3,11c-2.6,3.4-5.1,5.7-8.6,8.1c-0.3,0.2-0.7,0.3-0.9,0c-0.6-0.5-1.3-0.9-2.2-1.1
				c4.4-2.9,6.9-5.1,9.5-8.5c2.3-2.9,4.4-6.8,5.8-10.5c0.4-1.1,0.6-2,0.7-3.5C304.7,52.1,306.1,52.6,306.8,53.1z M292.4,51.1
				c0.3-0.1,0.5-0.1,0.7,0.3c1.2,1.6,2.4,3.8,3.2,5.9c0.1,0.3,0,0.5-0.3,0.7c-0.5,0.3-1.1,0.6-1.7,0.8c-0.3,0.1-0.4,0-0.6-0.4
				c-0.9-2.3-1.8-4.3-3.3-6.3C291.3,51.7,291.9,51.4,292.4,51.1z"/>
			<path class="st1" d="M337.8,47.3c1.3,0,1.7-0.1,2.1-0.5c0.3-0.2,0.6-0.1,1.1,0.2c0.5,0.3,1.2,0.9,1.7,1.4
				c0.5,0.5,0.4,0.9,0.1,1.3c-0.4,0.4-0.8,0.8-1.1,1.5c-2.6,5.5-5.3,10-8.2,13.3c-3.8,4.4-8.4,8.2-13.3,11c-0.3,0.2-0.6,0.1-0.9-0.1
				c-0.6-0.6-1.4-0.9-2.4-1.2c6.3-3.4,10-6.7,14.1-11.3c3.2-3.7,5.6-7.4,8-13l-12.2,0.3c-3.1,3.9-5.4,6.5-8.4,9.1
				c-0.5,0.4-0.9,0.4-1.3,0.1c-0.5-0.3-1.3-0.7-2.2-0.9c5.4-4.3,8.5-8.1,11.1-12.4c1.4-2.3,1.9-3.6,2.1-5.3c1.3,0.4,2.6,1,3.2,1.5
				c0.4,0.3,0.5,0.8,0,1.1c-0.5,0.3-0.9,0.9-1.3,1.4c-0.6,1-1.1,1.8-1.7,2.7L337.8,47.3z"/>
		</g>
		<g class="st0">
			<path class="st1" d="M56.2,120.5c-0.6-2.2-1.9-3.1-3.7-3.1c-2.2,0-3.5,1.1-3.5,2.8c0,1.8,0.9,2.7,3.7,3.4l0.8,0.2
				c4.2,1.1,5.3,2.6,5.3,5.1c0,3-2.2,5-6.1,5c-3.3,0-5.5-1.5-6.4-4.4l2.1-0.7c0.6,2.3,2.2,3.4,4.3,3.4c2.8,0,4-1.3,4-3.1
				c0-1.8-0.7-2.7-3.9-3.6l-0.7-0.2c-3.8-1-5-2.5-5-5.1c0-2.4,1.9-4.6,5.6-4.6c2.8,0,4.9,1.3,5.9,4.2L56.2,120.5z"/>
			<path class="st1" d="M75.3,127.8c0,4.2-2.7,6.2-6.4,6.2c-3.7,0-6.4-1.9-6.4-6.2V116h2.1v11.7c0,3.2,1.7,4.6,4.4,4.6
				c2.7,0,4.4-1.4,4.4-4.6V116h2V127.8z"/>
			<path class="st1" d="M86.3,123.1l7.1,10.5H91l-6-9.1l-2.7,2.8v6.3h-2.1V116h2.1v9l8-9h2.5L86.3,123.1z"/>
			<path class="st1" d="M98.8,133.6h-2.1V116h2.1V133.6z"/>
			<path class="st1" d="M112.5,120.5c-0.6-2.2-1.9-3.1-3.7-3.1c-2.2,0-3.5,1.1-3.5,2.8c0,1.8,0.9,2.7,3.7,3.4l0.8,0.2
				c4.2,1.1,5.3,2.6,5.3,5.1c0,3-2.2,5-6.1,5c-3.3,0-5.5-1.5-6.4-4.4l2.1-0.7c0.6,2.3,2.2,3.4,4.3,3.4c2.8,0,4-1.3,4-3.1
				c0-1.8-0.7-2.7-3.9-3.6l-0.7-0.2c-3.8-1-5-2.5-5-5.1c0-2.4,1.9-4.6,5.6-4.6c2.8,0,4.9,1.3,5.9,4.2L112.5,120.5z"/>
			<path class="st1" d="M131.7,133.6h-2.1v-8.4h-8.7v8.4h-2.1V116h2.1v7.5h8.7V116h2.1V133.6z"/>
			<path class="st1" d="M148.9,133.6h-2.2l-1.7-5.6h-6.3l-1.8,5.6h-2l5.7-17.6h2.6L148.9,133.6z M143.3,122.1
				c-0.5-1.5-0.8-2.8-1.2-4.5h-0.4c-0.4,1.7-0.8,3-1.2,4.5l-1.3,4.3h5.4L143.3,122.1z"/>
		</g>
		<g class="st0">
			<path class="st1" d="M411.3,46.7c0,0.1,0,0.2-0.2,0.2c-0.1,0-0.7,0-2.7,0h-0.6c0.7,0.8,1.6,1.5,2.8,2.2c-0.2,0.1-0.4,0.3-0.6,0.6
				c-0.1,0.1-0.1,0.2-0.2,0.2c-0.1,0-0.2-0.1-0.3-0.2c-1-0.8-1.7-1.5-2.3-2.4c0,1.7,0.1,2.8,0.1,3.2c0,0.1,0,0.2-0.2,0.2h-0.9
				c-0.1,0-0.2,0-0.2-0.2c0-0.3,0.1-1.4,0.1-3.1c-1,1.6-2.3,2.8-3.8,3.8c-0.2,0.1-0.3,0.2-0.4,0.2c-0.1,0-0.1-0.1-0.2-0.2
				c-0.2-0.3-0.4-0.4-0.6-0.6c1.5-0.9,2.6-1.7,3.6-2.9c0.2-0.2,0.4-0.5,0.6-0.8h-1c-1.9,0-2.5,0-2.7,0s-0.1,0-0.1-0.2V46
				c0-0.2,0-0.2,0.1-0.2s0.7,0,2.7,0h1.7v-2.6c0-0.7,0-1.2-0.1-1.7c0.5,0,1,0.1,1.3,0.1c0.1,0,0.2,0.1,0.2,0.2c0,0.1,0,0.2-0.1,0.3
				c-0.1,0.2-0.1,0.5-0.1,1.1v2.6h1.2c1.9,0,2.6,0,2.7,0c0.1,0,0.2,0,0.2,0.2V46.7z M411.6,53.6c0,0.1,0,0.2-0.2,0.2
				c-0.1,0-0.6,0-1.8,0c-0.4,1.3-1,2.4-1.7,3.3c0.6,0.3,1.1,0.7,1.7,1.1c0.1,0.1,0.1,0.2,0,0.4l-0.4,0.4c-0.2,0.3-0.3,0.3-0.4,0.1
				c-0.6-0.4-1.1-0.9-1.7-1.2c-1.1,1.1-2.6,1.8-4.6,2.5c-0.4,0.1-0.4,0.1-0.6-0.3c-0.1-0.2-0.3-0.5-0.5-0.6c2.1-0.5,3.6-1.3,4.7-2.2
				c-0.7-0.4-1.4-0.7-2.1-1c-0.2,0.3-0.4,0.5-0.5,0.7c-0.2,0.3-0.2,0.3-0.6,0.1l-0.4-0.2c-0.3-0.1-0.3-0.1-0.2-0.3
				c0.3-0.4,0.6-0.7,0.9-1.3c0.3-0.4,0.6-1,1-1.6c-1.9,0-2.5,0-2.6,0c-0.1,0-0.2,0-0.2-0.2v-0.7c0-0.1,0-0.2,0.2-0.2
				c0.1,0,0.7,0,2.7,0h0.4c0.1-0.2,0.2-0.4,0.3-0.7c0.2-0.4,0.3-0.8,0.4-1.2c0.5,0.1,0.8,0.2,1.1,0.3c0.1,0,0.2,0.1,0.2,0.2
				c0,0.1-0.1,0.2-0.2,0.3c-0.2,0.1-0.3,0.3-0.5,0.8l-0.1,0.3h2.7c2,0,2.6,0,2.7,0c0.1,0,0.2,0,0.2,0.2V53.6z M403.1,42.4
				c0.2-0.1,0.2-0.1,0.3,0c0.5,0.6,0.9,1.3,1.3,2.1c0.1,0.1,0,0.1-0.2,0.3L404,45c-0.3,0.1-0.3,0.1-0.4,0c-0.3-0.8-0.7-1.4-1.2-2.1
				c-0.1-0.1-0.1-0.2,0.1-0.3L403.1,42.4z M405.5,53.7c-0.3,0.6-0.7,1.2-1,1.7c0.8,0.3,1.6,0.6,2.4,1c0.7-0.8,1.2-1.7,1.5-2.7H405.5
				z M410.9,43.1c-0.1,0.1-0.2,0.2-0.3,0.4c-0.3,0.5-0.7,1.1-1.1,1.6c-0.1,0.1-0.2,0.2-0.3,0.2c-0.1,0-0.2,0-0.3-0.1
				c-0.2-0.1-0.4-0.2-0.6-0.2c0.5-0.6,0.9-1.3,1.3-1.9c0.1-0.3,0.2-0.5,0.3-0.8c0.4,0.1,0.7,0.3,1,0.4c0.1,0.1,0.2,0.1,0.2,0.2
				C411,43,410.9,43.1,410.9,43.1z M420.3,46.8c0,0.1,0,0.2-0.2,0.2c-0.1,0-0.5,0-1.7,0c-0.2,2.9-0.9,5.9-2.2,8.1
				c1,1.4,2.4,2.7,4.5,4.2c-0.2,0.2-0.4,0.5-0.6,0.8c-0.1,0.2-0.2,0.3-0.3,0.3c-0.1,0-0.1-0.1-0.3-0.2c-1.7-1.4-3-2.8-4-4.1
				c-1.1,1.6-2.6,3-5.1,4.4c-0.2,0.1-0.3,0.1-0.3,0.1c-0.1,0-0.2-0.1-0.3-0.3c-0.2-0.3-0.4-0.5-0.6-0.7c2.7-1.3,4.5-2.8,5.7-4.6
				c-1-1.7-1.7-3.7-2.1-5.8c-0.4,0.7-0.8,1.4-1.3,2.1c-0.1,0.1-0.2,0.2-0.3,0.2c-0.1,0-0.1-0.1-0.3-0.2c-0.2-0.2-0.4-0.4-0.7-0.5
				c1.8-2.2,2.8-5,3.4-7.4c0.2-0.7,0.3-1.3,0.3-1.9c0.4,0.1,0.9,0.2,1.2,0.3c0.2,0.1,0.3,0.1,0.3,0.3c0,0.1-0.1,0.2-0.2,0.4
				c-0.1,0.1-0.2,0.5-0.3,1c-0.2,0.8-0.4,1.6-0.7,2.4h3.7c1.7,0,2.2,0,2.3,0c0.1,0,0.2,0,0.2,0.2V46.8z M413.7,46.9l-0.3,0.7
				c0.4,2.4,1.1,4.5,2,6.2c0.9-1.6,1.5-3.9,1.7-6.9H413.7z"/>
			<path class="st1" d="M441.4,50.9c0,0.1,0,0.2-0.1,0.2c-0.1,0-0.8,0-2.8,0h-0.3v4.9c0,0.9,0,1.8,0,2.6c0,0.9-0.1,1.3-0.6,1.6
				c-0.4,0.3-0.9,0.4-2.6,0.4c-0.4,0-0.4,0-0.4-0.3c-0.1-0.3-0.2-0.7-0.4-1c0.7,0.1,1.1,0.1,1.7,0.1c0.7,0,1-0.2,1-0.8v-7.4h-11.1
				c-2,0-2.7,0-2.8,0c-0.1,0-0.2,0-0.2-0.2V50c0-0.1,0-0.2,0.2-0.2c0.1,0,0.8,0,2.8,0h12.8c2,0,2.7,0,2.8,0c0.1,0,0.1,0,0.1,0.2
				V50.9z M433.1,44.9c1.6,2,3.9,2.7,6.5,3.2c-0.2,0.2-0.4,0.5-0.5,0.8c-0.2,0.4-0.2,0.4-0.6,0.3c-2.7-0.7-4.9-1.7-6.5-4
				c-1.1,2.4-3.6,3.4-6.2,4.1c-0.4,0.1-0.4,0.1-0.6-0.3c-0.1-0.3-0.3-0.5-0.5-0.7c2.9-0.6,5.2-1.4,6.2-3.4h-2.7c-2.2,0-2.9,0-3,0
				c-0.2,0-0.2,0-0.2-0.2v-0.9c0-0.1,0-0.1,0.2-0.1c0.1,0,0.8,0,3,0h3.1l0.1-0.6c0.1-0.6,0.1-1.3,0-1.8c0.5,0,1,0.1,1.3,0.1
				c0.2,0,0.3,0.1,0.3,0.2c0,0.1-0.1,0.2-0.2,0.4c-0.1,0.2-0.1,0.6-0.2,1.1l-0.1,0.7h3.8c2.1,0,2.8,0,3,0c0.2,0,0.2,0,0.2,0.1v0.9
				c0,0.1,0,0.2-0.2,0.2c-0.1,0-0.8,0-3,0H433.1z M433.3,55.5c0,2.3,0,2.7,0,2.8c0,0.2,0,0.2-0.2,0.2h-0.9c-0.1,0-0.2,0-0.2-0.2
				v-0.7h-4.4v1.1c0,0.1,0,0.2-0.2,0.2h-0.9c-0.1,0-0.2,0-0.2-0.2c0-0.1,0-0.5,0-2.9v-1.1c0-1.1,0-1.6,0-1.7c0-0.1,0-0.2,0.2-0.2
				c0.1,0,0.6,0,2.1,0h2.3c1.5,0,2,0,2.1,0c0.1,0,0.2,0,0.2,0.2c0,0.1,0,0.5,0,1.4V55.5z M432.1,53.9h-4.4v2.6h4.4V53.9z"/>
			<path class="st1" d="M462.7,49.3c0,0.1,0,0.2-0.2,0.2c-0.1,0-0.8,0-2.8,0h-4.7c-1.1,0.8-2.4,1.6-3.6,2.3h5.2c1.9,0,2.7,0,2.8,0
				c0.1,0,0.2,0,0.2,0.2c0,0.1,0,0.7,0,2.6v2c0,3.2,0,3.7,0,3.9c0,0.1,0,0.1-0.2,0.1h-1c-0.1,0-0.2,0-0.2-0.1v-0.9h-8v1
				c0,0.1,0,0.2-0.2,0.2h-1c-0.1,0-0.2,0-0.2-0.2c0-0.1,0-0.7,0-4v-3.5c-1.4,0.7-2.8,1.3-4.3,1.8c-0.4,0.1-0.4,0.1-0.6-0.2
				c-0.2-0.3-0.4-0.5-0.6-0.7c3.6-1.1,6.8-2.6,9.6-4.3H447c-2,0-2.7,0-2.8,0c-0.1,0-0.2,0-0.2-0.2v-0.9c0-0.1,0-0.1,0.2-0.1
				c0.1,0,0.8,0,2.8,0h4.8v-2.7h-2.2c-2,0-2.6,0-2.7,0c-0.1,0-0.2,0-0.2-0.2v-0.9c0-0.1,0-0.2,0.2-0.2c0.1,0,0.8,0,2.7,0h2.2v-0.6
				c0-1.1,0-1.7-0.1-2.4c0.6,0,1,0.1,1.4,0.1c0.1,0,0.3,0.1,0.3,0.2s0,0.2-0.1,0.4c-0.1,0.3-0.1,0.7-0.1,1.7v0.6h1c2,0,2.6,0,2.7,0
				c0.1,0,0.2,0,0.2,0.2v0.9c0,0.1,0,0.2-0.2,0.2c-0.1,0-0.7,0-2.7,0h-1v2.7h1.6c1.6-1.2,3-2.6,4.3-4.1c0.5-0.6,0.7-0.9,0.9-1.4
				c0.5,0.2,0.9,0.4,1.2,0.7c0.1,0.1,0.2,0.2,0.2,0.3c0,0.1-0.1,0.2-0.2,0.2c-0.3,0.1-0.5,0.4-0.9,0.9c-1.1,1.3-2.3,2.4-3.6,3.5h3.3
				c2,0,2.7,0,2.8,0c0.1,0,0.2,0,0.2,0.1V49.3z M458.3,52.8h-8v2.1h8V52.8z M458.3,56h-8v2.3h8V56z"/>
		</g>
		<g class="st0">
			<path class="st1" d="M471,58c0,1.6-1.4,3-3,3s-3-1.3-3-3s1.4-3,3-3S471,56.3,471,58z M466.2,58c0,1,0.8,1.9,1.9,1.9
				c1.1,0,1.9-0.8,1.9-1.9c0-1-0.8-1.9-1.9-1.9C467,56.1,466.2,56.9,466.2,58z"/>
		</g>
		<g class="st0">
			<path class="st1" d="M420.3,86.8c0,0.1,0,0.2-0.2,0.2c-0.1,0-0.8,0-2.7,0h-13c-2,0-2.6,0-2.7,0c-0.1,0-0.2,0-0.2-0.2v-0.9
				c0-0.1,0-0.2,0.2-0.2c0.1,0,0.8,0,2.7,0h2.9c-0.3-1.1-0.7-1.8-1.1-2.7c-0.1-0.1,0-0.1,0.2-0.3l0.7-0.2c0.2-0.1,0.2,0,0.3,0.1
				c0.5,0.9,0.9,1.9,1.3,3.1h4c0.4-0.9,0.8-1.7,1-2.3c0.1-0.4,0.2-0.6,0.2-1c0.4,0.1,0.9,0.2,1.3,0.3c0.2,0.1,0.2,0.1,0.2,0.2
				c0,0.1-0.1,0.2-0.1,0.3c-0.1,0.1-0.2,0.3-0.3,0.4c-0.3,0.7-0.6,1.4-0.9,2.1h3.4c2,0,2.6,0,2.7,0c0.1,0,0.2,0,0.2,0.2V86.8z
				 M418.9,81.9c0,0.2,0,0.2-0.2,0.2c-0.1,0-0.8,0-2.9,0h-9.9c-2.1,0-2.8,0-3,0c-0.1,0-0.2,0-0.2-0.2V81c0-0.1,0-0.2,0.2-0.2
				c0.1,0,0.8,0,3,0h4.1v-0.1c0-1.1,0-1.6-0.1-2.1c0.5,0,0.9,0,1.4,0.1c0.2,0,0.3,0.1,0.3,0.2c0,0.1,0,0.3-0.1,0.4
				c-0.1,0.2-0.1,0.5-0.1,1.5v0.1h4.4c2.1,0,2.8,0,3,0c0.1,0,0.2,0,0.2,0.2V81.9z M416.8,93.6c0,3.3,0,3.8,0,4c0,0.1,0,0.2-0.2,0.2
				h-1c-0.1,0-0.2,0-0.2-0.2v-1h-9.3v1.1c0,0.1,0,0.1-0.2,0.1h-1c-0.1,0-0.2,0-0.2-0.1c0-0.1,0-0.7,0-4v-2c0-2,0-2.6,0-2.7
				c0-0.1,0-0.2,0.2-0.2c0.1,0,0.8,0,2.9,0h5.7c2.1,0,2.8,0,2.9,0c0.1,0,0.2,0,0.2,0.2c0,0.1,0,0.7,0,2.4V93.6z M415.5,89.9h-9.3
				v2.1h9.3V89.9z M415.5,93.2h-9.3v2.3h9.3V93.2z"/>
			<path class="st1" d="M433.2,93.2c0,0.2,0,0.2-0.2,0.3c-0.2,0-0.6,0.1-0.9,0.1c-0.1,0-0.2-0.1-0.2-0.3c0-0.9,0-2,0-3.1
				c-2.3,1.2-3.5,2.3-3.5,3.5c0,1.3,1.2,1.8,3.6,1.8c1.8,0,3.5-0.2,5.1-0.4c0.1,0,0.2,0,0.2,0.1c0.1,0.3,0.1,0.7,0.1,1
				c0,0.2-0.1,0.3-0.2,0.3c-1.5,0.2-3.3,0.3-5.2,0.3c-3,0-4.9-0.8-4.9-3c0-1.8,1.2-3.2,4.7-5c0-1.4-0.5-2-1.8-2
				c-0.9,0-2.1,0.6-3.5,1.7c-0.8,0.7-1.3,1.3-2,2.1c-0.1,0.1-0.2,0.1-0.3,0c-0.2-0.2-0.6-0.6-0.7-0.8c-0.1-0.1-0.1-0.2,0-0.3
				c1.9-1.7,3.7-3.7,4.9-5.9c-1.3,0.1-2.6,0.1-4,0c-0.2,0-0.2-0.1-0.2-0.2c0-0.3-0.1-0.7-0.1-1.1c1.6,0.1,3.2,0.1,4.9,0
				c0.3-0.6,0.6-1.3,0.8-2.1c0.1-0.4,0.2-0.7,0.2-1.1c0.6,0.1,1.2,0.3,1.6,0.5c0.2,0.1,0.2,0.3,0,0.5c-0.1,0.1-0.2,0.2-0.4,0.6
				c-0.3,0.5-0.4,1-0.7,1.6c1.5-0.1,3-0.4,4.5-0.7c0.2,0,0.2,0,0.3,0.1c0,0.3,0.1,0.6,0.1,0.9c0,0.1,0,0.2-0.3,0.3
				c-1.7,0.3-3.5,0.5-5.2,0.7c-0.7,1.3-1.4,2.3-2.2,3.2l0,0c0.9-0.6,1.8-0.9,2.7-0.9c1.6,0,2.5,0.8,2.7,2.5c1-0.5,2.3-1,3.3-1.5
				c0.6-0.3,1.2-0.6,1.6-1.1c0.5,0.4,0.9,1,1,1.2c0.2,0.3,0,0.4-0.2,0.5c-0.3,0-0.7,0.1-1.2,0.3c-1.6,0.7-3,1.2-4.5,1.8V93.2z"/>
			<path class="st1" d="M454.6,90.5c0.3,0,0.4,0,0.5-0.1c0.1,0,0.1-0.1,0.2-0.1c0.1,0,0.3,0.1,0.6,0.4c0.3,0.3,0.4,0.4,0.4,0.6
				c0,0.1-0.1,0.2-0.2,0.2c-0.2,0.1-0.3,0.2-0.6,0.5c-0.9,0.9-1.8,1.6-2.7,2.3c2.6,1.2,5.4,1.7,8.7,2c-0.2,0.2-0.4,0.5-0.6,1
				c-0.1,0.3-0.2,0.3-0.6,0.3c-3.2-0.4-6.1-1.1-8.7-2.5c-2.3,1.4-4.8,2.1-7.8,2.6c-0.4,0.1-0.4,0-0.6-0.2c-0.1-0.4-0.3-0.6-0.5-0.8
				c3-0.4,5.5-1,7.8-2.2c-1-0.7-1.9-1.5-2.7-2.4c-1.2,1.1-2.6,2.1-4.3,3c-0.1,0.1-0.2,0.1-0.3,0.1s-0.1-0.1-0.2-0.2
				c-0.2-0.3-0.4-0.5-0.6-0.7c2.8-1.1,5-2.9,6.6-5.2l-0.1,0c-0.5-0.1-0.9-0.4-0.9-1.3v-0.8c0-0.6,0-1.1-0.1-1.7
				c0.5,0,0.9,0.1,1.3,0.1c0.2,0,0.2,0.1,0.2,0.2s0,0.1-0.1,0.2c-0.1,0.1-0.1,0.3-0.1,0.9v0.5c0,0.5,0.1,0.7,0.6,0.8
				c0.5,0.1,1.1,0.1,1.8,0.1c1.3,0,2.1-0.1,2.7-0.4c0.5-0.2,0.6-0.8,0.7-1.5c0.2,0.2,0.5,0.3,0.8,0.4c0.3,0.1,0.4,0.2,0.3,0.6
				c-0.2,0.8-0.5,1.2-1,1.4c-0.7,0.3-1.7,0.4-3.4,0.4c-0.4,0-0.8,0-1.1,0c-0.3,0.5-0.7,0.9-1.1,1.4H454.6z M460.2,85
				c0,1.7,0,1.9,0,2c0,0.1,0,0.1-0.2,0.1h-1c-0.1,0-0.2,0-0.2-0.1v-2.6h-14.7V87c0,0.1,0,0.2-0.2,0.2h-1c-0.1,0-0.2,0-0.2-0.2
				c0-0.1,0-0.3,0-2v-0.6c0-0.6,0-0.8,0-0.9c0-0.1,0-0.2,0.2-0.2c0.1,0,0.9,0,2.9,0h1.1c-0.2-0.5-0.4-0.9-0.8-1.4
				c-0.1-0.1,0-0.2,0.2-0.3l0.6-0.2c0.2-0.1,0.2-0.1,0.3,0.1c0.4,0.5,0.7,1.1,0.9,1.8h2.8c-0.2-0.5-0.4-1.1-0.7-1.6
				c-0.1-0.1,0-0.2,0.2-0.2l0.6-0.2c0.2-0.1,0.2,0,0.3,0.1c0.4,0.6,0.7,1.3,0.9,2h2.2c0.3-0.4,0.5-0.9,0.7-1.3
				c0.2-0.4,0.3-0.9,0.4-1.3c0.4,0.1,0.8,0.2,1.2,0.4c0.1,0.1,0.2,0.1,0.2,0.2c0,0.1-0.1,0.2-0.1,0.3c-0.1,0.1-0.3,0.2-0.4,0.4
				c-0.2,0.4-0.5,0.8-0.8,1.3h1.3c2.1,0,2.8,0,2.9,0c0.1,0,0.2,0,0.2,0.2c0,0.1,0,0.3,0,0.8V85z M446.7,86.1
				c0.2,0.1,0.2,0.1,0.2,0.3c-0.5,1.2-1.2,2.2-2.1,3.1c-0.1,0.1-0.2,0.1-0.4,0l-0.5-0.4c-0.2-0.1-0.2-0.2-0.1-0.3
				c0.9-0.8,1.7-1.8,2.1-2.9c0-0.1,0.1-0.2,0.3,0L446.7,86.1z M458.4,80c-0.2,0-0.3,0-0.6,0.1c-0.3,0.1-0.6,0.1-0.9,0.1
				c-1.8,0.3-3.9,0.5-5.9,0.7c-2.3,0.2-4.5,0.3-6.4,0.3c-0.3,0-0.3,0-0.4-0.3c-0.1-0.3-0.3-0.6-0.5-0.8c2.6,0,4.7,0,7-0.2
				c2-0.1,3.8-0.4,5.5-0.7c0.5-0.1,0.9-0.3,1.3-0.4c0.4,0.2,0.7,0.5,1,0.7c0.1,0.1,0.2,0.2,0.2,0.3C458.7,79.9,458.6,80,458.4,80z
				 M448.6,91.5c0.9,1,1.9,1.7,2.9,2.3c1-0.6,1.9-1.4,2.9-2.3H448.6z M451.1,84.8c0.1-0.1,0.2-0.1,0.3,0c0.6,0.4,1.2,1,1.6,1.5
				c0.1,0.1,0.1,0.2-0.1,0.3l-0.5,0.4c-0.2,0.1-0.3,0.1-0.3,0c-0.5-0.7-0.9-1.2-1.5-1.7c-0.1-0.1-0.1-0.1,0.1-0.3L451.1,84.8z
				 M456.5,85.7c0.1-0.1,0.2-0.1,0.3,0c0.9,0.8,1.8,1.7,2.6,2.8c0.1,0.1,0,0.2-0.1,0.3l-0.5,0.5c-0.2,0.2-0.2,0.2-0.3,0
				c-0.8-1.2-1.7-2.2-2.5-2.9c-0.1-0.1-0.1-0.1,0.1-0.3L456.5,85.7z"/>
			<path class="st1" d="M474.9,83.1c-3.2,0.5-6,1-8.6,1.5c-0.8,0.1-1,0.2-1.3,0.4c-0.1,0.1-0.3,0.1-0.4,0.1s-0.2-0.1-0.3-0.2
				c-0.2-0.4-0.4-0.9-0.6-1.5c0.8,0,1.3-0.1,2.6-0.3c3.2-0.5,7.5-1.1,13.2-1.8c0.2,0,0.3,0,0.4,0.2c0.1,0.3,0.1,0.8,0.1,1.1
				c0,0.2-0.1,0.2-0.3,0.3c-1.1,0.1-2,0.2-3.1,0.6c-3.1,1.2-5.5,3.8-5.5,6.7c0,3.5,3.1,4.6,6.2,4.8c0.3,0,0.3,0.1,0.3,0.2
				c0,0.2-0.1,0.7-0.1,1c0,0.2-0.1,0.3-0.3,0.3c-3.6-0.3-7.5-1.8-7.5-6.1C469.8,87.4,471.6,84.9,474.9,83.1L474.9,83.1z M477.5,86.1
				c0.1,0,0.1,0,0.2,0c0.9,0.6,1.8,1.6,2.4,2.6c0.1,0.1,0,0.2,0,0.2l-0.6,0.5c-0.1,0.1-0.2,0.1-0.3,0c-0.6-1-1.5-2-2.5-2.7
				L477.5,86.1z M479.3,84.7c0.1-0.1,0.1-0.1,0.2,0c0.9,0.7,1.8,1.6,2.4,2.5c0.1,0.1,0,0.2-0.1,0.3l-0.6,0.5c-0.1,0.1-0.2,0.1-0.3,0
				c-0.5-0.9-1.4-1.9-2.4-2.7L479.3,84.7z"/>
			<path class="st1" d="M489.1,88.3c1.5-1,3-1.5,4.6-1.5c3.1,0,5,1.9,5,4.7c0,3.2-2.5,5.5-7,5.5c-2.6,0-3.7-1.1-3.7-2.5
				c0-1.1,1-2.2,2.5-2.2c1.9,0,3.2,1.2,3.6,3c1.8-0.6,3.1-1.8,3.1-3.9c0-2.2-1.7-3.5-3.7-3.5c-2.1,0-4.2,1.1-5.8,2.4
				c-0.7,0.5-1.2,1.1-1.9,1.7c-0.2,0.2-0.3,0.2-0.4,0c-0.3-0.3-0.6-0.6-0.8-0.9c-0.1-0.1-0.1-0.2,0.1-0.3c1.7-1.5,2.8-2.6,4.8-4.7
				c1.2-1.3,2.5-2.7,4.1-4.6c-1.8,0.3-3.4,0.6-5.3,1c-0.3,0-0.5,0.1-0.7,0.2c-0.1,0.1-0.3,0.1-0.4,0.1c-0.1,0-0.3-0.1-0.3-0.3
				c-0.2-0.4-0.3-0.8-0.5-1.5c0.7,0.1,1.3,0.1,1.9,0c1.7-0.2,3.4-0.4,5.3-0.8c0.3,0,0.5-0.1,0.7-0.2c0.1-0.1,0.2-0.1,0.3-0.1
				c0.1,0,0.2,0,0.4,0.2c0.4,0.3,0.7,0.6,0.9,0.9c0.1,0.1,0.1,0.3,0.1,0.4c0,0.2-0.1,0.3-0.3,0.4c-0.3,0.1-0.5,0.2-1,0.7
				C492.6,84.6,491.2,86.1,489.1,88.3L489.1,88.3z M490.5,93.4c-0.7,0-1.3,0.3-1.3,1c0,0.7,0.8,1.3,2.2,1.3c0.5,0,0.9,0,1.4-0.1
				C492.5,94.4,491.7,93.4,490.5,93.4z"/>
			<path class="st1" d="M505.7,86.9C506,87,506,87,506,87.2c-0.4,2.6-1.1,4.5-2.2,6.9c-0.1,0.1-0.2,0.2-0.4,0.1l-0.7-0.3
				c-0.3-0.1-0.3-0.2-0.3-0.4c1.3-2.3,1.9-4.2,2.3-6.7c0-0.2,0-0.1,0.4-0.1L505.7,86.9z M509.4,94.4c0,0.6,0.1,1,0.5,1.2
				c0.3,0.1,1,0.2,2.3,0.2c1.3,0,2.2-0.1,2.6-0.5c0.6-0.4,0.8-1,0.8-3.9c0.3,0.2,0.6,0.3,1,0.5C517,92,517,92,517,92.4
				c-0.1,2.5-0.4,3.5-1.1,4c-0.8,0.6-1.8,0.7-3.7,0.7c-1.8,0-2.6-0.1-3.1-0.4c-0.6-0.3-0.9-0.7-0.9-1.9v-8.3c0-0.8,0-1.3-0.1-1.9
				c0.5,0,1,0.1,1.4,0.2c0.2,0,0.3,0.1,0.3,0.2c0,0.1,0,0.2-0.1,0.3c-0.1,0.2-0.1,0.5-0.1,1.4V94.4z M508.9,79.4
				c0.1-0.2,0.2-0.3,0.3-0.2c1.9,0.7,3.7,1.6,5.6,2.9c0.1,0.1,0.1,0.1,0,0.4l-0.4,0.7c-0.2,0.3-0.2,0.3-0.4,0.2
				c-1.7-1.3-3.7-2.4-5.5-3c-0.1-0.1-0.1-0.1,0-0.4L508.9,79.4z M517.9,86.4c0.2-0.1,0.3-0.1,0.4,0.1c1.3,2.1,2.3,4.3,2.9,6.2
				c0.1,0.2,0,0.2-0.2,0.4l-0.7,0.3c-0.3,0.1-0.4,0.2-0.4,0c-0.6-2-1.5-4.3-2.8-6.4c-0.1-0.1-0.1-0.3,0.1-0.3L517.9,86.4z"/>
			<path class="st1" d="M534,93.2c0,0.2,0,0.2-0.2,0.3c-0.2,0-0.6,0.1-0.9,0.1c-0.1,0-0.2-0.1-0.2-0.3c0-0.9,0-2,0-3.1
				c-2.3,1.2-3.5,2.3-3.5,3.5c0,1.3,1.2,1.8,3.6,1.8c1.8,0,3.5-0.2,5.1-0.4c0.1,0,0.2,0,0.2,0.1c0.1,0.3,0.1,0.7,0.1,1
				c0,0.2-0.1,0.3-0.2,0.3c-1.5,0.2-3.3,0.3-5.2,0.3c-3,0-4.9-0.8-4.9-3c0-1.8,1.2-3.2,4.7-5c0-1.4-0.5-2-1.8-2
				c-0.9,0-2.1,0.6-3.5,1.7c-0.8,0.7-1.3,1.3-2,2.1c-0.1,0.1-0.2,0.1-0.3,0c-0.2-0.2-0.6-0.6-0.7-0.8c-0.1-0.1-0.1-0.2,0-0.3
				c1.9-1.7,3.7-3.7,4.9-5.9c-1.3,0.1-2.6,0.1-4,0c-0.2,0-0.2-0.1-0.2-0.2c0-0.3-0.1-0.7-0.1-1.1c1.6,0.1,3.2,0.1,4.9,0
				c0.3-0.6,0.6-1.3,0.8-2.1c0.1-0.4,0.2-0.7,0.2-1.1c0.6,0.1,1.2,0.3,1.6,0.5c0.2,0.1,0.2,0.3,0,0.5c-0.1,0.1-0.2,0.2-0.4,0.6
				c-0.3,0.5-0.4,1-0.7,1.6c1.5-0.1,3-0.4,4.5-0.7c0.2,0,0.2,0,0.3,0.1c0,0.3,0.1,0.6,0.1,0.9c0,0.1,0,0.2-0.3,0.3
				c-1.7,0.3-3.5,0.5-5.2,0.7c-0.7,1.3-1.4,2.3-2.2,3.2l0,0c0.9-0.6,1.8-0.9,2.7-0.9c1.6,0,2.5,0.8,2.7,2.5c1-0.5,2.3-1,3.3-1.5
				c0.6-0.3,1.2-0.6,1.6-1.1c0.5,0.4,0.9,1,1,1.2c0.2,0.3,0,0.4-0.2,0.5c-0.3,0-0.7,0.1-1.2,0.3c-1.6,0.7-3,1.2-4.5,1.8V93.2z"/>
			<path class="st1" d="M546.9,88.6c0.7-0.3,1.5-0.7,2.3-1.1c0,0.3,0,0.6,0,0.8c0,0.4,0,0.5-0.4,0.6c-0.6,0.3-1.3,0.6-1.9,0.8v2.5
				c0,1.4,0,2.4,0,3.2c0,1-0.2,1.4-0.6,1.7c-0.4,0.3-0.8,0.4-2.1,0.4c-0.4,0-0.5,0-0.6-0.4c-0.1-0.4-0.2-0.6-0.4-0.9
				c0.5,0.1,0.8,0.1,1.5,0.1c0.6,0,0.8-0.3,0.8-1v-5c-0.4,0.2-0.8,0.3-1.3,0.5c-0.5,0.2-0.7,0.3-0.8,0.4c-0.1,0.1-0.2,0.1-0.3,0.1
				c-0.1,0-0.1,0-0.2-0.2c-0.1-0.3-0.3-0.8-0.4-1.2c0.6-0.1,1.1-0.3,1.9-0.5c0.3-0.1,0.7-0.2,1-0.3v-4.8H545c-1.4,0-1.9,0-2,0
				c-0.1,0-0.2,0-0.2-0.2v-0.9c0-0.1,0-0.2,0.2-0.2c0.1,0,0.5,0,2,0h0.7v-1.7c0-1.3,0-1.9-0.1-2.6c0.5,0,1,0.1,1.4,0.1
				c0.2,0,0.3,0.1,0.3,0.2c0,0.2-0.1,0.3-0.1,0.4c-0.1,0.2-0.1,0.6-0.1,1.8v1.8h0.1c1.4,0,1.9,0,2,0c0.1,0,0.2,0,0.2,0.2v0.9
				c0,0.1,0,0.2-0.2,0.2c-0.1,0-0.5,0-2,0h-0.1V88.6z M561.8,86.4c0,0.1,0,0.2-0.2,0.2c-0.1,0-0.8,0-2.9,0h-6.2c-2.1,0-2.8,0-2.9,0
				c-0.1,0-0.2,0-0.2-0.2v-0.9c0-0.1,0-0.1,0.2-0.1c0.1,0,0.8,0,2.9,0h2.1v-2.8h-1.4c-2,0-2.6,0-2.7,0c-0.2,0-0.2,0-0.2-0.2v-0.9
				c0-0.1,0-0.2,0.2-0.2c0.1,0,0.7,0,2.7,0h1.4c0-1.5,0-2.1-0.2-2.7c0.6,0,1,0.1,1.4,0.1c0.1,0,0.3,0.1,0.3,0.2c0,0.1,0,0.2-0.1,0.4
				c-0.1,0.3-0.1,0.7-0.1,2h1.9c2,0,2.6,0,2.7,0c0.1,0,0.2,0,0.2,0.2v0.9c0,0.1,0,0.2-0.2,0.2c-0.1,0-0.7,0-2.7,0h-1.9v2.8h2.8
				c2.1,0,2.8,0,2.9,0c0.1,0,0.2,0,0.2,0.1V86.4z M561.8,90.1c0,0.1,0,0.2-0.2,0.2c-0.1,0-0.8,0-2.8,0v3c0,1,0,1.9,0,2.7
				c0,0.6-0.1,1.1-0.6,1.4c-0.4,0.3-1,0.4-2.5,0.4c-0.4,0-0.4,0-0.5-0.4c-0.1-0.4-0.2-0.7-0.4-1c0.7,0.1,1.4,0.1,2.1,0.1
				c0.4,0,0.7-0.2,0.7-0.8v-5.4h-4.9c-2.1,0-2.8,0-2.9,0c-0.1,0-0.2,0-0.2-0.2v-0.9c0-0.1,0-0.2,0.2-0.2c0.1,0,0.8,0,2.9,0h4.9
				c0-1.1,0-1.7-0.1-2.2c0.5,0,1,0.1,1.4,0.1c0.2,0,0.3,0.1,0.3,0.2c0,0.1-0.1,0.3-0.1,0.4c-0.1,0.2-0.1,0.5-0.1,1.4v0.1
				c2,0,2.7,0,2.8,0c0.1,0,0.2,0,0.2,0.2V90.1z M551.9,91.5c0.2-0.1,0.2-0.1,0.3,0c0.9,0.8,1.6,1.7,2.3,2.7c0.1,0.1,0.1,0.1-0.1,0.3
				l-0.6,0.5c-0.3,0.2-0.3,0.2-0.4,0c-0.6-1-1.3-1.9-2.1-2.7c-0.1-0.1-0.1-0.1,0.1-0.3L551.9,91.5z"/>
			<path class="st1" d="M568.4,84.3c2.8-1,5.5-1.6,7.2-1.6c3.5,0,5.7,2.1,5.7,5.2c0,2.6-1.2,4.3-3.5,5.5c-1.7,0.9-3.6,1.4-5.7,1.8
				c-0.3,0-0.4-0.1-0.5-0.3c-0.2-0.3-0.5-0.7-0.9-1c2.7-0.3,4.5-0.9,6-1.7c1.9-1,3-2.4,3-4.5c0-2.4-1.7-3.9-4.3-3.9
				c-2,0-4.6,0.8-8,2.3c-0.8,0.3-1.3,0.6-1.4,0.7c-0.2,0.1-0.3,0.2-0.4,0.2c-0.1,0-0.3-0.1-0.4-0.3c-0.3-0.3-0.7-0.9-0.9-1.5
				C565,85.4,566,85.2,568.4,84.3z"/>
			<path class="st1" d="M603.4,83.7c0,0.2-0.1,0.2-0.3,0.2c-2.3-0.1-4.4-0.1-6.8,0c0,1.3,0,2.8,0,4.2c0.2,0.7,0.3,1.4,0.3,2.2
				c0,2.7-1.1,5-4.1,6.6c-0.2,0.1-0.4,0.2-0.5,0.2c-0.1,0-0.3-0.1-0.4-0.2c-0.2-0.2-0.6-0.5-1-0.6c3-1.3,4.4-3.2,4.6-5.4
				c-0.5,0.8-1.4,1.2-2.3,1.2c-1.5,0-2.8-1-2.8-3c0-1.8,1.3-3,2.9-3c0.8,0,1.6,0.2,2,0.7c0-1,0-2,0-3c-3,0.2-5.9,0.4-7.9,0.6
				c-0.5,0.1-0.8,0.2-0.9,0.2c-0.1,0-0.2-0.1-0.3-0.2c-0.1-0.3-0.2-0.8-0.3-1.4c0.7,0,1.4,0,2.7-0.1c1.7-0.1,3.9-0.3,6.7-0.4
				c0-0.9,0-1.3,0-2c0-0.5-0.1-0.9-0.2-1.4c0.6,0,1.3,0.1,1.6,0.2c0.2,0.1,0.4,0.2,0.4,0.3c0,0.1-0.1,0.2-0.1,0.4
				c-0.1,0.1-0.1,0.3-0.1,0.6c0,0.5,0,0.9,0,1.8c2.4-0.1,4.4-0.1,6.8-0.1c0.2,0,0.2,0,0.2,0.2V83.7z M591.4,89.2
				c0,1.2,0.8,1.8,1.7,1.8c1.2,0,1.9-0.9,1.9-1.9c0-1.1-0.8-1.8-1.9-1.8C592.2,87.4,591.4,88.1,591.4,89.2z"/>
			<path class="st1" d="M607,88.6c1.1-0.9,2.4-2.1,3.8-3.4c0.6-0.6,1.1-0.8,1.6-0.8c0.7,0,1,0.2,1.6,0.7c1.7,1.4,3.2,2.6,4.9,3.9
				c1.6,1.1,3,2,4.7,2.9c0.1,0.1,0.2,0.2,0.1,0.3c-0.1,0.4-0.4,0.9-0.6,1.2c-0.1,0.1-0.2,0.2-0.4,0.1c-1.2-0.8-3.1-2-4.5-3.1
				c-1.6-1.2-3.2-2.6-4.7-3.8c-0.4-0.4-0.7-0.6-1.1-0.6c-0.3,0-0.6,0.2-0.9,0.5c-1.3,1.2-2.8,2.7-3.8,3.6c-0.3,0.3-0.5,0.5-0.7,0.8
				c-0.1,0.2-0.3,0.2-0.5,0c-0.3-0.3-0.8-0.9-1.1-1.3C605.9,89.3,606.4,89.1,607,88.6z M618.4,82.4c0.1,0,0.1,0,0.2,0
				c0.8,0.6,1.8,1.6,2.4,2.6c0.1,0.1,0,0.2,0,0.2l-0.6,0.5c-0.1,0.1-0.2,0.1-0.3,0c-0.6-1-1.5-2-2.5-2.7L618.4,82.4z M620.1,81
				c0.1-0.1,0.1-0.1,0.2,0c0.9,0.7,1.8,1.6,2.4,2.5c0.1,0.1,0,0.2-0.1,0.3l-0.6,0.5c-0.1,0.1-0.2,0.1-0.3,0
				c-0.5-0.9-1.4-1.9-2.4-2.7L620.1,81z"/>
			<path class="st1" d="M637.7,83c-3.2,0.5-6,1-8.6,1.5c-0.8,0.1-1,0.2-1.3,0.4c-0.1,0.1-0.3,0.1-0.4,0.1c-0.1,0-0.2-0.1-0.3-0.2
				c-0.2-0.4-0.4-0.9-0.6-1.5c0.8,0,1.3-0.1,2.6-0.3c3.2-0.5,7.5-1.1,13.2-1.8c0.2,0,0.3,0,0.4,0.2c0.1,0.3,0.1,0.8,0.1,1.1
				c0,0.2-0.1,0.2-0.3,0.3c-1.1,0.1-2,0.2-3.1,0.6c-3.1,1.2-5.5,3.8-5.5,6.7c0,3.5,3.1,4.6,6.2,4.8c0.3,0,0.3,0.1,0.3,0.2
				c0,0.2-0.1,0.7-0.1,1c0,0.2-0.1,0.3-0.3,0.3c-3.6-0.3-7.5-1.8-7.5-6.1C632.5,87.3,634.4,84.8,637.7,83L637.7,83z"/>
			<path class="st1" d="M655.9,82.9c-0.4,3.6-1.5,7.1-2.8,9.3c-0.9,1.6-1.9,2.2-3.1,2.2c-1.6,0-3.1-1.7-3.1-4.8c0-2,0.9-4,2.5-5.5
				c1.6-1.5,3.7-2.4,6.4-2.4c4.8,0,7.6,2.8,7.6,6.8c0,3.5-2.1,6.2-6.8,7.4c-0.3,0.1-0.4,0-0.6-0.2c-0.1-0.2-0.4-0.5-0.8-0.8
				c4.2-0.8,6.6-3.1,6.6-6.7c0-3.1-2.4-5.4-5.5-5.4H655.9z M650.2,84.9c-1.4,1.4-2,3.1-2,4.6c0,2.3,1,3.3,1.7,3.3
				c0.7,0,1.4-0.5,2-1.6c1.1-1.9,2.2-5.2,2.5-8.3C652.7,83.2,651.3,83.9,650.2,84.9z"/>
			<path class="st1" d="M684.9,97c-0.1,0.2-0.2,0.3-0.3,0.3s-0.2,0-0.3-0.1c-4.8-3.1-7.1-7.4-7.9-11.7c-0.9,5.3-3.8,9.2-8.1,11.7
				c-0.1,0.1-0.2,0.1-0.3,0.1s-0.1-0.1-0.3-0.3c-0.2-0.3-0.5-0.6-0.8-0.8c5.7-2.7,8.6-8.3,8.5-14.4c0-1.2,0-1.8-0.1-2.5
				c0.5,0,1.1,0.1,1.6,0.2c0.2,0,0.3,0.1,0.3,0.3c0,0.2-0.1,0.3-0.1,0.4c-0.1,0.2-0.2,0.7-0.2,1.2c0,0.4,0,0.7,0,1.1
				c0.9,5.7,3.2,10.6,8.8,13.7C685.3,96.4,685,96.7,684.9,97z"/>
			<path class="st1" d="M698.8,82.8c0.2,0,0.2,0,0.3,0.1c0,0.3,0.1,0.6,0.1,0.9c0,0.2,0,0.3-0.2,0.3c-1.4,0.4-2.6,0.7-3.8,0.9
				c-1.3,4.3-2.6,8-4.1,11.5c-0.1,0.2-0.2,0.2-0.3,0.1c-0.2-0.1-0.7-0.3-1-0.5c-0.1-0.1-0.1-0.2-0.1-0.3c1.8-3.7,3-7.1,4-10.6
				c-1.4,0.1-2.8,0.2-4.3,0.3c-0.3,0-0.3,0-0.3-0.2c0-0.3-0.1-0.7-0.2-1.2c0.4,0,0.8,0,1.3,0c1,0,2.5-0.1,3.8-0.3
				c0.3-1.1,0.5-1.9,0.6-2.7c0.1-0.6,0.2-1.3,0.2-2c0.6,0.1,1.3,0.3,1.7,0.5c0.1,0,0.2,0.1,0.2,0.2s-0.1,0.2-0.2,0.3
				c-0.1,0.2-0.2,0.4-0.3,0.8c-0.3,0.9-0.4,1.7-0.7,2.6C696.4,83.5,697.6,83.1,698.8,82.8z M697.7,92.5c0.2,0,0.2,0,0.2,0.2
				c0.1,1.9,1.3,2.5,4,2.5c1.1,0,2.3-0.1,3.1-0.3c0.2,0,0.2,0,0.3,0.1c0,0.3,0.1,0.7,0.1,1c0,0.2-0.1,0.3-0.2,0.3
				c-0.7,0.1-1.8,0.2-2.8,0.2c-2.3,0-3.7-0.3-4.7-1.2c-0.7-0.6-1-1.6-1-2.9C697.1,92.5,697.5,92.5,697.7,92.5z M698.3,87
				c0-0.2,0-0.3,0.3-0.3c1.2-0.3,2.5-0.4,3.7-0.4c0.9,0,1.8,0.1,2.6,0.2c0.3,0,0.3,0.1,0.3,0.2c0,0.2,0,0.7,0,0.9
				c0,0.3-0.1,0.3-0.3,0.3c-0.9-0.1-1.8-0.2-2.7-0.2c-1.3,0-2.6,0.2-3.9,0.5C698.3,87.8,698.3,87.3,698.3,87z"/>
			<path class="st1" d="M714.2,81.2c0.1-0.8,0.1-1.3,0-1.9c0.7,0.1,1.3,0.2,1.7,0.4c0.1,0.1,0.2,0.1,0.2,0.3c0,0.1-0.1,0.2-0.1,0.3
				c-0.1,0.1-0.2,0.4-0.3,0.7c-0.1,0.8-0.2,1.4-0.3,2.3c1.3-0.2,3.1-0.5,4.6-0.9c0.2-0.1,0.3,0,0.3,0.1c0,0.3,0.1,0.6,0.1,0.9
				c0,0.2,0,0.2-0.2,0.3c-1.7,0.4-3.3,0.7-5,0.9c-0.3,2.1-0.7,4-1.2,5.9c1.8-2,4.2-2.9,6.4-2.9c3,0,4.5,1.8,4.5,3.8
				c0,1.7-0.8,3-2.5,4c-1.3,0.7-3.1,1.2-5.4,1.5c-0.3,0.1-0.7,0.1-1,0.1c-0.1,0-0.2-0.1-0.3-0.3c-0.2-0.4-0.4-0.7-0.7-0.9
				c2.9-0.2,4.6-0.6,6.3-1.3c1.4-0.7,2.2-1.7,2.2-3.1c0-1.6-1.1-2.6-3.1-2.6c-2.4,0-4.8,1.3-6,3c-0.2,0.3-0.4,0.5-0.5,0.7
				c-0.1,0.2-0.2,0.3-0.4,0.3c-0.2,0-0.7-0.2-0.9-0.3c-0.2-0.1-0.3-0.2-0.3-0.3c0-0.1,0-0.2,0.1-0.4c0.1-0.3,0.2-0.6,0.2-0.8
				c0.5-1.9,0.9-3.9,1.3-6.2c-1.3,0.1-2.9,0.2-4.2,0.2c-0.2,0-0.3-0.1-0.3-0.2c0-0.2-0.1-0.7-0.2-1.1c1.6,0,3.3,0,4.9-0.2
				C714.1,82.7,714.1,82.2,714.2,81.2z"/>
			<path class="st1" d="M730.2,88c1.1-0.9,2.4-2.1,3.8-3.4c0.6-0.6,1.1-0.8,1.6-0.8c0.7,0,1,0.2,1.6,0.7c1.7,1.4,3.2,2.6,4.9,3.9
				c1.6,1.1,3,2,4.7,2.9c0.1,0.1,0.2,0.2,0.1,0.3c-0.1,0.4-0.4,0.9-0.6,1.2c-0.1,0.1-0.2,0.2-0.4,0.1c-1.2-0.8-3.1-2-4.5-3.1
				c-1.6-1.2-3.2-2.6-4.7-3.8c-0.4-0.4-0.7-0.6-1.1-0.6c-0.3,0-0.6,0.2-0.9,0.5c-1.3,1.2-2.8,2.7-3.8,3.6c-0.3,0.3-0.5,0.5-0.7,0.8
				c-0.1,0.2-0.3,0.2-0.5,0c-0.3-0.3-0.8-0.9-1.1-1.3C729.1,88.8,729.6,88.5,730.2,88z"/>
		</g>
		<g class="st0">
			<path class="st1" d="M768.7,95.2c0,1.6-1.4,3-3,3c-1.6,0-3-1.3-3-3s1.4-3,3-3C767.3,92.2,768.7,93.5,768.7,95.2z M763.8,95.2
				c0,1,0.9,1.9,1.9,1.9c1.1,0,1.9-0.8,1.9-1.9c0-1-0.8-1.9-1.9-1.9C764.6,93.3,763.8,94.1,763.8,95.2z"/>
		</g>
		<g class="st0">
			<path class="st1" d="M406.3,120.2c4,0,6.4,2.2,6.4,6.7c0,4.6-2.7,6.9-6.7,6.9h-3.9v-13.6H406.3z M403.7,132.4h2.3
				c3,0,5.1-1.7,5.1-5.5c0-3.8-1.9-5.4-4.9-5.4h-2.4V132.4z"/>
			<path class="st1" d="M417.3,122.5h-1.8v-1.8h1.8V122.5z M417.1,133.7h-1.5v-9.4h1.5V133.7z"/>
			<path class="st1" d="M424.9,125.6c-1.2,0-2.3,0.9-2.9,2.8v5.4h-1.5v-9.4h1.4v2.4c0.7-1.8,1.8-2.6,3.1-2.6L424.9,125.6z"/>
			<path class="st1" d="M428.1,129.2c0,2.3,1.1,3.6,2.8,3.6c1.3,0,2-0.6,2.4-1.9l1.4,0.5c-0.6,1.7-1.8,2.6-3.8,2.6
				c-2.5,0-4.2-1.8-4.2-4.9c0-3,1.7-5,4.1-5c2.3,0,4,1.8,4,4.8v0.3H428.1z M433.3,128.2c-0.1-1.9-1.1-2.9-2.5-2.9
				c-1.5,0-2.5,1.1-2.6,2.9H433.3z"/>
			<path class="st1" d="M443.1,127.3c-0.3-1.4-1.1-2-2.1-2c-1.6,0-2.5,1.3-2.5,3.7c0,2.4,1,3.8,2.5,3.8c1.2,0,1.9-0.7,2.2-2.1
				l1.4,0.4c-0.5,1.8-1.8,2.8-3.6,2.8c-2.5,0-4.1-1.8-4.1-4.9c0-3.1,1.6-5,4.1-5c1.8,0,3.1,1,3.6,2.8L443.1,127.3z"/>
			<path class="st1" d="M449,124.3h2.2v1.2H449v5.8c0,1.1,0.5,1.5,1.3,1.5c0.4,0,0.8,0,1.2-0.1l-0.1,1.2c-0.5,0.1-0.9,0.1-1.5,0.1
				c-1.6,0-2.4-0.8-2.4-2.4v-6.1H446v-1.2h1.5v-2.9l1.5-0.3V124.3z"/>
			<path class="st1" d="M461,129c0,3-1.7,5-4.1,5c-2.4,0-4-1.9-4-4.9c0-3,1.7-5,4.1-5C459.4,124.1,461,126,461,129z M454.5,129
				c0,2.4,0.9,3.8,2.5,3.8s2.5-1.3,2.5-3.8c0-2.4-0.9-3.8-2.5-3.8C455.4,125.3,454.5,126.6,454.5,129z"/>
			<path class="st1" d="M468.2,125.6c-1.2,0-2.3,0.9-2.9,2.8v5.4h-1.5v-9.4h1.4v2.4c0.7-1.8,1.8-2.6,3.1-2.6L468.2,125.6z"/>
			<path class="st1" d="M475.5,135.6h-1l7.2-17h1L475.5,135.6z"/>
			<path class="st1" d="M497.2,133.7h-1.5v-1.4c-0.7,1.1-1.6,1.6-2.7,1.6c-2.1,0-3.7-1.8-3.7-5c0-3.2,1.6-4.9,3.6-4.9
				c1.1,0,2.1,0.6,2.7,1.6v-5.8h1.5V133.7z M495.7,127.2c-0.6-1.2-1.5-1.8-2.4-1.8c-1.4,0-2.5,1.2-2.5,3.7c0,2.5,1.1,3.7,2.5,3.7
				c0.9,0,1.7-0.6,2.3-1.8V127.2z"/>
			<path class="st1" d="M507.9,133.7h-1.4V132c-0.8,1.2-2,2-3.3,2c-1.5,0-2.6-0.9-2.6-2.7v-7h1.5v6.5c0,1.3,0.6,1.8,1.6,1.8
				c1,0,2.1-0.8,2.7-1.9v-6.4h1.5V133.7z"/>
			<path class="st1" d="M516.9,127.3c-0.3-1.4-1.1-2-2.1-2c-1.6,0-2.5,1.3-2.5,3.7c0,2.4,1,3.8,2.5,3.8c1.2,0,1.9-0.7,2.2-2.1
				l1.4,0.4c-0.5,1.8-1.8,2.8-3.6,2.8c-2.5,0-4.1-1.8-4.1-4.9c0-3.1,1.6-5,4.1-5c1.8,0,3.1,1,3.6,2.8L516.9,127.3z"/>
			<path class="st1" d="M525,127.9l3.5,5.8h-1.7l-2.8-4.8l-1.7,1.8v3.1h-1.5v-13.8h1.5v9.1l4.1-4.7h1.8L525,127.9z"/>
			<path class="st1" d="M532.3,122.5h-1.8v-1.8h1.8V122.5z M532.1,133.7h-1.5v-9.4h1.5V133.7z"/>
			<path class="st1" d="M537,126c0.9-1.2,2.1-1.9,3.3-1.9c1.5,0,2.6,1,2.6,2.7v6.9h-1.5v-6.4c0-1.3-0.6-1.9-1.6-1.9
				c-0.9,0-1.9,0.7-2.7,1.9v6.5h-1.5v-9.4h1.4V126z"/>
			<path class="st1" d="M548.1,134.3c0,1.8-1,2.8-2.8,2.8c-0.1,0-0.3,0-0.6-0.1l-0.1-1.1c0.2,0,0.3,0,0.5,0c0.9,0,1.5-0.5,1.5-1.8
				v-9.8h1.5V134.3z M548.3,122.5h-1.8v-1.8h1.8V122.5z"/>
			<path class="st1" d="M551.4,126.6c0.5-1.6,1.9-2.5,3.7-2.5c2.3,0,3.4,1,3.4,3.1v3.4c0,1.3,0.1,2.4,0.2,3.1h-1.4
				c-0.1-0.4-0.1-0.8-0.2-1.5c-0.8,1.2-1.9,1.7-3.2,1.7c-1.8,0-2.9-1.1-2.9-2.7c0-1.6,0.9-2.7,3.1-3.1c0.8-0.1,1.9-0.2,2.9-0.3v-0.5
				c0-1.5-0.6-2.1-2-2.1c-1.1,0-2,0.6-2.3,1.8L551.4,126.6z M557.1,128.9c-1,0-1.9,0.1-2.6,0.3c-1.4,0.3-2,0.9-2,2
				c0,1,0.6,1.7,1.8,1.7c1,0,2-0.6,2.8-1.9V128.9z"/>
			<path class="st1" d="M565.2,134.2c-0.7,2.1-1.8,2.9-3.5,2.9c-0.3,0-0.6,0-0.9-0.1l-0.1-1.2c0.4,0.1,0.7,0.1,1,0.1
				c1,0,1.7-0.5,2.1-1.9l0.1-0.4l-3.3-9.2h1.6l1.7,5.3c0.2,0.8,0.4,1.5,0.6,2.3h0.2c0.2-0.8,0.4-1.5,0.7-2.3l1.6-5.3h1.5
				L565.2,134.2z"/>
		</g>
		<rect class="st2" width="1000" height="250"/>
	</g>
</g>
</svg>
