<?xml version="1.0" encoding="utf-8"?>
<!-- Generator: Adobe Illustrator 22.1.0, SVG Export Plug-In . SVG Version: 6.00 Build 0)  -->
<svg version="1.1" id="レイヤー_1" xmlns="http://www.w3.org/2000/svg" xmlns:xlink="http://www.w3.org/1999/xlink" x="0px"
	 y="0px" viewBox="0 0 259.5 165.9" style="enable-background:new 0 0 259.5 165.9;" xml:space="preserve">
<style type="text/css">
	.st0{enable-background:new    ;}
	.st1{fill:#FFFFFF;}
</style>
<title>bio_Img_Sentence</title>
<g id="レイヤー_2_1_">
	<g id="レイヤー_1-2">
		<g class="st0">
			<path class="st1" d="M8.1,8.1H6.9V4.5c0-0.9,0-1.7,0-2.5H6.8C6.6,2.8,6.4,3.5,6.2,4.4l-1,3.7H3.8l-1-3.6C2.6,3.6,2.4,2.9,2.2,2
				H2.1c0,0.8,0,1.7,0,2.5v3.6H1V1h2l0.9,3.7C4.1,5.4,4.3,6.2,4.5,7h0.1c0.2-0.8,0.3-1.5,0.6-2.3L6.1,1h2V8.1z"/>
			<path class="st1" d="M11.3,5.9c0,1,0.4,1.6,1.3,1.6c0.5,0,0.9-0.3,1.1-1l1.1,0.3c-0.3,1-1,1.5-2.1,1.5c-1.5,0-2.4-1-2.4-2.6
				C10.1,4,11,3,12.4,3c1.3,0,2.3,0.9,2.3,2.7v0.2C14.7,5.9,11.3,5.9,11.3,5.9z M13.5,5.1c-0.1-0.8-0.4-1.3-1.1-1.3
				c-0.7,0-1.1,0.5-1.2,1.3H13.5z"/>
			<path class="st1" d="M17.7,4c0.4-0.6,0.9-1,1.6-1s1.1,0.4,1.2,1c0.4-0.6,0.9-1,1.6-1c0.8,0,1.4,0.5,1.4,1.5v3.6h-1.2V4.8
				c0-0.6-0.2-0.8-0.7-0.8c-0.4,0-0.8,0.3-1.1,0.9v3.3h-1.1V4.8c0-0.6-0.2-0.8-0.6-0.8S18,4.3,17.7,4.9v3.3h-1.1V3.1h1.1
				C17.7,3.1,17.7,4,17.7,4z"/>
			<path class="st1" d="M26.9,3.8C27.2,3.3,27.7,3,28.2,3c1.1,0,1.9,0.9,1.9,2.6s-0.9,2.7-2,2.7c-0.7,0-1.1-0.3-1.4-0.9l-0.2,0.8
				h-0.8V0.8h1.2C26.9,0.8,26.9,3.8,26.9,3.8z M26.9,6.5c0.2,0.5,0.6,0.8,1,0.8c0.6,0,1.1-0.5,1.1-1.8c0-1.2-0.5-1.7-1-1.7
				c-0.4,0-0.8,0.3-1.1,0.9V6.5z"/>
			<path class="st1" d="M32.9,5.9c0,1,0.4,1.6,1.3,1.6c0.5,0,0.9-0.3,1.1-1l1.1,0.3c-0.3,1-1,1.5-2.1,1.5c-1.5,0-2.4-1-2.4-2.6
				C31.8,4,32.7,3,34.1,3c1.3,0,2.3,0.9,2.3,2.7v0.2C36.4,5.9,32.9,5.9,32.9,5.9z M35.2,5.1c-0.1-0.8-0.4-1.3-1.1-1.3
				c-0.7,0-1.1,0.5-1.2,1.3H35.2z"/>
			<path class="st1" d="M40.8,4c-0.6,0-1.1,0.4-1.4,1.3v2.8h-1.1v-5h1.1v1.2c0.4-1,0.9-1.4,1.6-1.4L40.8,4z"/>
		</g>
		<g class="st0">
			<path class="st1" d="M4.2,26.6c-0.2-0.8-0.7-1.1-1.3-1.1c-0.8,0-1.3,0.4-1.3,1c0,0.7,0.3,1,1.3,1.2l0.3,0.1
				C4.6,28.2,5,28.7,5,29.6c0,1.1-0.8,1.8-2.2,1.8c-1.2,0-2-0.5-2.3-1.6l0.7-0.3c0.2,0.8,0.8,1.2,1.5,1.2c1,0,1.4-0.5,1.4-1.1
				s-0.2-1-1.4-1.3l-0.2-0.1c-1.4-0.4-1.8-0.9-1.8-1.8s0.7-1.7,2-1.7c1,0,1.8,0.5,2.1,1.5L4.2,26.6z"/>
			<path class="st1" d="M7.3,27.7c0.4-0.5,0.9-0.9,1.5-0.9c0.7,0,1.2,0.5,1.2,1.3v3.2H9.3v-3c0-0.6-0.3-0.9-0.7-0.9
				s-0.9,0.3-1.3,0.9v3H6.7v-6.4h0.7L7.3,27.7L7.3,27.7z"/>
			<path class="st1" d="M15.4,29.1c0,1.4-0.8,2.3-1.9,2.3s-1.9-0.9-1.9-2.3s0.8-2.3,1.9-2.3C14.6,26.9,15.4,27.7,15.4,29.1z
				 M12.4,29.1c0,1.1,0.4,1.7,1.2,1.7s1.2-0.6,1.2-1.7s-0.4-1.7-1.2-1.7C12.8,27.4,12.4,28,12.4,29.1z"/>
			<path class="st1" d="M17.9,27h1v0.5h-1v2.7c0,0.5,0.2,0.7,0.6,0.7c0.2,0,0.3,0,0.5-0.1v0.5c-0.2,0-0.4,0-0.7,0
				c-0.7,0-1.1-0.4-1.1-1.1v-2.8h-0.7V27h0.7v-1.4l0.7-0.2V27z"/>
			<path class="st1" d="M20.3,28c0.2-0.8,0.9-1.1,1.7-1.1c1,0,1.6,0.5,1.6,1.5V30c0,0.6,0,1.1,0.1,1.4H23c0-0.2-0.1-0.4-0.1-0.7
				c-0.4,0.5-0.9,0.8-1.5,0.8c-0.8,0-1.3-0.5-1.3-1.3c0-0.7,0.4-1.3,1.4-1.4c0.4-0.1,0.9-0.1,1.4-0.1v-0.2c0-0.7-0.3-1-0.9-1
				c-0.5,0-0.9,0.3-1.1,0.8L20.3,28z M22.9,29.1c-0.5,0-0.9,0.1-1.2,0.1c-0.6,0.1-0.9,0.4-0.9,0.9s0.3,0.8,0.8,0.8s0.9-0.3,1.3-0.9
				C22.9,30,22.9,29.1,22.9,29.1z"/>
			<path class="st1" d="M32.9,31.3H32l-2-3.8c-0.4-0.7-0.6-1.2-0.9-1.8H29c0,0.7,0,1.3,0,2v3.6h-0.7V25h1.2l1.8,3.5
				c0.4,0.7,0.6,1.3,0.9,1.9h0.1c0-0.7-0.1-1.3-0.1-2.1V25h0.7V31.3z"/>
			<path class="st1" d="M35.4,29.2c0,1.1,0.5,1.7,1.3,1.7c0.6,0,0.9-0.3,1.1-0.9l0.6,0.2c-0.3,0.8-0.8,1.2-1.8,1.2
				c-1.2,0-1.9-0.9-1.9-2.3s0.8-2.3,1.9-2.3c1.1,0,1.8,0.8,1.8,2.2v0.2C38.4,29.2,35.4,29.2,35.4,29.2z M37.7,28.7
				c-0.1-0.9-0.5-1.4-1.2-1.4s-1.1,0.5-1.2,1.4H37.7z"/>
			<path class="st1" d="M40.7,27.8c0.4-0.6,0.9-0.9,1.4-0.9c0.6,0,1,0.4,1.1,0.9c0.4-0.5,0.9-0.9,1.5-0.9c0.7,0,1.2,0.5,1.2,1.2v3.2
				h-0.7v-3c0-0.6-0.3-0.9-0.7-0.9s-0.9,0.3-1.2,0.9v3h-0.7v-3c0-0.6-0.3-0.9-0.7-0.9s-0.9,0.3-1.2,0.9v3H40V27h0.7V27.8z"/>
			<path class="st1" d="M51.2,29.1c0,1.4-0.8,2.3-1.9,2.3s-1.9-0.9-1.9-2.3s0.8-2.3,1.9-2.3C50.4,26.9,51.2,27.7,51.2,29.1z
				 M48.2,29.1c0,1.1,0.4,1.7,1.2,1.7s1.2-0.6,1.2-1.7s-0.4-1.7-1.2-1.7C48.6,27.4,48.2,28,48.2,29.1z"/>
			<path class="st1" d="M53.7,27h1v0.5h-1v2.7c0,0.5,0.2,0.7,0.6,0.7c0.2,0,0.3,0,0.5-0.1v0.5c-0.2,0-0.4,0-0.7,0
				c-0.7,0-1.1-0.4-1.1-1.1v-2.8h-0.7V27H53v-1.4l0.7-0.2V27z"/>
			<path class="st1" d="M59.6,29.1c0,1.4-0.8,2.3-1.9,2.3s-1.9-0.9-1.9-2.3s0.8-2.3,1.9-2.3C58.9,26.9,59.6,27.7,59.6,29.1z
				 M56.6,29.1c0,1.1,0.4,1.7,1.2,1.7s1.2-0.6,1.2-1.7s-0.4-1.7-1.2-1.7S56.6,28,56.6,29.1z"/>
			<path class="st1" d="M63.9,32.2h-0.5l3.4-7.9h0.5L63.9,32.2z"/>
			<path class="st1" d="M75.2,26.8c-0.2-0.8-0.7-1.3-1.5-1.3c-1.1,0-1.9,0.9-1.9,2.6s0.7,2.6,1.9,2.6c1,0,1.6-0.9,1.6-2.1h-1.7V28
				H76v3.2h-0.5l-0.1-1c-0.3,0.7-1,1.1-1.8,1.1c-1.5,0-2.6-1.2-2.6-3.2c0-2.1,1.1-3.3,2.6-3.3c1.2,0,2,0.7,2.3,1.7L75.2,26.8z"/>
			<path class="st1" d="M79.8,27.5c-0.5,0-1.1,0.4-1.3,1.3v2.5h-0.7V27h0.7v1.1c0.3-0.8,0.8-1.2,1.4-1.2L79.8,27.5z"/>
			<path class="st1" d="M81.2,28c0.2-0.8,0.9-1.1,1.7-1.1c1,0,1.6,0.5,1.6,1.5V30c0,0.6,0,1.1,0.1,1.4H84c0-0.2-0.1-0.4-0.1-0.7
				c-0.4,0.5-0.9,0.8-1.5,0.8c-0.8,0-1.3-0.5-1.3-1.3c0-0.7,0.4-1.3,1.4-1.4c0.4-0.1,0.9-0.1,1.4-0.1v-0.2c0-0.7-0.3-1-0.9-1
				c-0.5,0-0.9,0.3-1.1,0.8L81.2,28z M83.8,29.1c-0.5,0-0.9,0.1-1.2,0.1c-0.6,0.1-0.9,0.4-0.9,0.9s0.3,0.8,0.8,0.8s0.9-0.3,1.3-0.9
				C83.8,30,83.8,29.1,83.8,29.1z"/>
			<path class="st1" d="M87,27.6c0.3-0.5,0.8-0.8,1.3-0.8c1,0,1.7,0.8,1.7,2.3s-0.8,2.3-1.7,2.3c-0.6,0-0.9-0.2-1.2-0.8v2.2h-0.7V27
				H87V27.6z M87,30c0.3,0.6,0.6,0.8,1.1,0.8c0.6,0,1.2-0.6,1.2-1.7s-0.5-1.7-1.1-1.7c-0.4,0-0.8,0.3-1.1,0.8L87,30L87,30z"/>
			<path class="st1" d="M92.3,27.7c0.4-0.5,0.9-0.9,1.5-0.9c0.7,0,1.2,0.5,1.2,1.3v3.2h-0.7v-3c0-0.6-0.3-0.9-0.7-0.9
				c-0.4,0-0.9,0.3-1.3,0.9v3h-0.7v-6.4h0.7V27.7z"/>
			<path class="st1" d="M97.7,26.1h-0.9v-0.8h0.9V26.1z M97.6,31.3h-0.7V27h0.7V31.3z"/>
			<path class="st1" d="M102.1,28.3c-0.1-0.6-0.5-0.9-1-0.9c-0.7,0-1.2,0.6-1.2,1.7s0.5,1.7,1.2,1.7c0.6,0,0.9-0.3,1-1l0.7,0.2
				c-0.2,0.8-0.8,1.3-1.7,1.3c-1.2,0-1.9-0.9-1.9-2.3s0.8-2.3,1.9-2.3c0.8,0,1.4,0.4,1.7,1.3L102.1,28.3z"/>
			<path class="st1" d="M109.1,25c1.9,0,3,1,3,3.1s-1.2,3.2-3.1,3.2h-1.8V25H109.1z M107.9,30.7h1.1c1.4,0,2.3-0.8,2.3-2.6
				c0-1.8-0.9-2.5-2.3-2.5h-1.1V30.7z"/>
			<path class="st1" d="M114.1,29.2c0,1.1,0.5,1.7,1.3,1.7c0.6,0,0.9-0.3,1.1-0.9l0.6,0.2c-0.3,0.8-0.8,1.2-1.8,1.2
				c-1.2,0-1.9-0.9-1.9-2.3s0.8-2.3,1.9-2.3s1.8,0.8,1.8,2.2v0.2C117.1,29.2,114.1,29.2,114.1,29.2z M116.5,28.7
				c-0.1-0.9-0.5-1.4-1.2-1.4s-1.1,0.5-1.2,1.4H116.5z"/>
			<path class="st1" d="M121.1,28.1c-0.1-0.5-0.5-0.8-0.9-0.8c-0.6,0-0.9,0.3-0.9,0.6c0,0.4,0.2,0.6,0.9,0.8l0.3,0.1
				c1,0.2,1.4,0.6,1.4,1.3c0,0.7-0.5,1.3-1.7,1.3c-0.9,0-1.5-0.3-1.7-1.1l0.7-0.2c0.2,0.6,0.6,0.8,1.1,0.8c0.7,0,1-0.3,1-0.7
				c0-0.5-0.2-0.6-1-0.8l-0.3-0.1c-1-0.2-1.3-0.6-1.3-1.3c0-0.7,0.5-1.2,1.5-1.2c0.8,0,1.4,0.4,1.6,1L121.1,28.1z"/>
			<path class="st1" d="M124.3,26.1h-0.9v-0.8h0.9V26.1z M124.2,31.3h-0.7V27h0.7V31.3z"/>
			<path class="st1" d="M129.6,27c-0.4,0-0.6,0.1-0.9,0.3c0.3,0.2,0.4,0.6,0.4,1c0,0.9-0.7,1.4-1.6,1.4c-0.2,0-0.5,0-0.7-0.1
				c-0.3,0.1-0.4,0.3-0.4,0.5s0.1,0.3,0.8,0.4l0.9,0.1c1.2,0.1,1.5,0.5,1.5,1.1c0,0.7-0.7,1.2-2.1,1.2c-1.2,0-1.9-0.4-1.9-1
				c0-0.4,0.3-0.7,0.9-0.9c-0.4-0.1-0.6-0.3-0.6-0.6c0-0.3,0.2-0.6,0.6-0.9c-0.4-0.2-0.6-0.6-0.6-1.1c0-0.8,0.7-1.4,1.6-1.4
				c0.3,0,0.6,0.1,0.9,0.2c0.3-0.5,0.6-0.7,1.2-0.7V27z M127,31c-0.5,0.1-0.8,0.4-0.8,0.7c0,0.5,0.5,0.7,1.3,0.7
				c0.9,0,1.4-0.3,1.4-0.7c0-0.3-0.2-0.5-1-0.6L127,31z M126.6,28.3c0,0.6,0.4,1,1,1s1-0.4,1-1s-0.4-1-1-1S126.6,27.7,126.6,28.3z"
				/>
			<path class="st1" d="M131.8,27.8c0.4-0.5,1-0.9,1.5-0.9c0.7,0,1.2,0.5,1.2,1.2v3.2h-0.7v-3c0-0.6-0.3-0.9-0.7-0.9
				s-0.9,0.3-1.3,0.9v3h-0.7V27h0.7V27.8z"/>
		</g>
		<g class="st0">
			<path class="st1" d="M3,41.4c1.9,0,3,1,3,3.1s-1.2,3.2-3.1,3.2H1.1v-6.3H3z M1.8,47.1h1.1c1.4,0,2.3-0.8,2.3-2.6S4.3,42,2.9,42
				H1.8V47.1z"/>
			<path class="st1" d="M7.5,44.4c0.2-0.8,0.9-1.1,1.7-1.1c1,0,1.6,0.5,1.6,1.5v1.6c0,0.6,0,1.1,0.1,1.4h-0.6c0-0.2-0.1-0.4-0.1-0.7
				c-0.4,0.5-0.9,0.8-1.5,0.8c-0.8,0-1.3-0.5-1.3-1.3c0-0.7,0.4-1.3,1.4-1.4c0.4-0.1,0.9-0.1,1.4-0.1v-0.2c0-0.7-0.3-1-0.9-1
				c-0.5,0-0.9,0.3-1.1,0.8L7.5,44.4z M10.2,45.5c-0.5,0-0.9,0.1-1.2,0.1c-0.7,0.1-1,0.4-1,0.9s0.3,0.8,0.8,0.8s0.9-0.3,1.3-0.9
				L10.2,45.5L10.2,45.5z"/>
			<path class="st1" d="M13.5,42.5h-0.9v-0.8h0.9V42.5z M13.4,47.7h-0.7v-4.4h0.7V47.7z"/>
			<path class="st1" d="M17.2,45l1.6,2.7H18l-1.3-2.2L16,46.3v1.4h-0.7v-6.4H16v4.2l1.9-2.2h0.8L17.2,45z"/>
			<path class="st1" d="M21,42.5h-0.9v-0.8H21V42.5z M20.9,47.7h-0.7v-4.4h0.7V47.7z"/>
			<path class="st1" d="M27.9,44l2.5,3.8h-0.9l-2.1-3.2l-1,1v2.2h-0.7v-6.3h0.7v3.2l2.9-3.2h0.9L27.9,44z"/>
			<path class="st1" d="M31.7,44.4c0.2-0.8,0.9-1.1,1.7-1.1c1,0,1.6,0.5,1.6,1.5v1.6c0,0.6,0,1.1,0.1,1.4h-0.6
				c0-0.2-0.1-0.4-0.1-0.7c-0.4,0.5-0.9,0.8-1.5,0.8c-0.8,0-1.3-0.5-1.3-1.3c0-0.7,0.4-1.3,1.4-1.4c0.4-0.1,0.9-0.1,1.4-0.1v-0.2
				c0-0.7-0.3-1-0.9-1c-0.5,0-0.9,0.3-1.1,0.8L31.7,44.4z M34.3,45.5c-0.5,0-0.9,0.1-1.2,0.1c-0.6,0.1-0.9,0.4-0.9,0.9
				s0.3,0.8,0.8,0.8s0.9-0.3,1.3-0.9C34.3,46.4,34.3,45.5,34.3,45.5z"/>
			<path class="st1" d="M37.5,44.2c0.4-0.6,0.9-0.9,1.4-0.9c0.6,0,1,0.4,1.1,0.9c0.4-0.5,0.9-0.9,1.5-0.9c0.7,0,1.2,0.5,1.2,1.2v3.2
				H42v-3c0-0.6-0.3-0.9-0.7-0.9s-0.9,0.3-1.2,0.9v3h-0.7v-3c0-0.6-0.3-0.9-0.7-0.9s-0.9,0.3-1.2,0.9v3h-0.7v-4.4h0.7
				C37.5,43.3,37.5,44.2,37.5,44.2z"/>
			<path class="st1" d="M48,45.5c0,1.4-0.8,2.3-1.9,2.3s-1.9-0.9-1.9-2.3c0-1.4,0.8-2.3,1.9-2.3C47.3,43.3,48,44.1,48,45.5z
				 M45,45.6c0,1.1,0.4,1.7,1.2,1.7s1.2-0.6,1.2-1.7c0-1.1-0.4-1.7-1.2-1.7C45.4,43.8,45,44.4,45,45.6z"/>
			<path class="st1" d="M51.9,44.5c-0.1-0.5-0.5-0.8-0.9-0.8c-0.6,0-0.9,0.3-0.9,0.6c0,0.4,0.2,0.6,0.9,0.8l0.3,0.1
				c1,0.2,1.4,0.6,1.4,1.3s-0.5,1.3-1.7,1.3c-0.9,0-1.5-0.3-1.7-1.1l0.7-0.2c0.2,0.6,0.6,0.8,1.1,0.8c0.7,0,1-0.3,1-0.7
				c0-0.5-0.2-0.6-1-0.8l-0.3-0.1c-1-0.2-1.3-0.6-1.3-1.3s0.5-1.2,1.5-1.2c0.8,0,1.4,0.4,1.6,1L51.9,44.5z"/>
			<path class="st1" d="M55,44.1c0.4-0.5,0.9-0.9,1.5-0.9c0.7,0,1.2,0.5,1.2,1.3v3.2H57v-3c0-0.6-0.3-0.9-0.7-0.9s-0.9,0.3-1.3,0.9
				v3h-0.7v-6.4H55V44.1z"/>
			<path class="st1" d="M60.4,42.5h-0.9v-0.8h0.9V42.5z M60.3,47.7h-0.7v-4.4h0.7V47.7z"/>
			<path class="st1" d="M63.1,43.4h1v0.5h-1v2.7c0,0.5,0.2,0.7,0.6,0.7c0.2,0,0.3,0,0.5-0.1v0.5c-0.2,0-0.4,0-0.7,0
				c-0.7,0-1.1-0.4-1.1-1.1v-2.8h-0.7v-0.5h0.7V42l0.7-0.2V43.4z"/>
			<path class="st1" d="M65.4,44.4c0.2-0.8,0.9-1.1,1.7-1.1c1,0,1.6,0.5,1.6,1.5v1.6c0,0.6,0,1.1,0.1,1.4h-0.6
				c0-0.2-0.1-0.4-0.1-0.7c-0.4,0.5-0.9,0.8-1.5,0.8c-0.8,0-1.3-0.5-1.3-1.3c0-0.7,0.4-1.3,1.4-1.4c0.4-0.1,0.9-0.1,1.4-0.1v-0.2
				c0-0.7-0.3-1-0.9-1c-0.5,0-0.9,0.3-1.1,0.8L65.4,44.4z M68.1,45.5c-0.5,0-0.9,0.1-1.2,0.1C66.2,45.7,66,46,66,46.5
				s0.3,0.8,0.8,0.8s0.9-0.3,1.3-0.9C68.1,46.4,68.1,45.5,68.1,45.5z"/>
			<path class="st1" d="M73.2,48.6h-0.5l3.4-7.9h0.5L73.2,48.6z"/>
			<path class="st1" d="M84.7,42.1h-3.2v2h2.4v0.6h-2.4v3h-0.7v-6.3h3.9C84.7,41.4,84.7,42.1,84.7,42.1z"/>
			<path class="st1" d="M86.9,42.5H86v-0.8h0.9V42.5z M86.8,47.7h-0.7v-4.4h0.7V47.7z"/>
			<path class="st1" d="M89.4,47.7h-0.7v-6.4h0.7V47.7z"/>
			<path class="st1" d="M92,44.2c0.4-0.6,0.9-0.9,1.4-0.9c0.6,0,1,0.4,1.1,0.9c0.4-0.5,0.9-0.9,1.5-0.9c0.7,0,1.2,0.5,1.2,1.2v3.2
				h-0.7v-3c0-0.6-0.3-0.9-0.7-0.9c-0.4,0-0.9,0.3-1.2,0.9v3h-0.7v-3c0-0.6-0.3-0.9-0.7-0.9c-0.4,0-0.9,0.3-1.2,0.9v3h-0.7v-4.4H92
				V44.2z"/>
			<path class="st1" d="M108,47.7h-0.7V44c0-0.7,0-1.3,0-2h-0.1c-0.2,0.7-0.3,1.2-0.6,1.9l-1.2,3.7h-0.9l-1.2-3.7
				c-0.2-0.7-0.4-1.3-0.6-1.9h-0.1c0,0.7,0,1.3,0,2v3.7h-0.7v-6.3h1.2l1.1,3.7c0.2,0.6,0.4,1.3,0.6,1.9h0.1c0.2-0.7,0.4-1.2,0.6-1.9
				l1.1-3.7h1.2v6.3H108z"/>
			<path class="st1" d="M113.5,45.5c0,1.4-0.8,2.3-1.9,2.3s-1.9-0.9-1.9-2.3c0-1.4,0.8-2.3,1.9-2.3
				C112.7,43.3,113.5,44.1,113.5,45.5z M110.4,45.6c0,1.1,0.4,1.7,1.2,1.7s1.2-0.6,1.2-1.7c0-1.1-0.4-1.7-1.2-1.7
				C110.9,43.8,110.4,44.4,110.4,45.6z"/>
			<path class="st1" d="M116,43.4h1v0.5h-1v2.7c0,0.5,0.2,0.7,0.6,0.7c0.2,0,0.3,0,0.5-0.1v0.5c-0.2,0-0.4,0-0.7,0
				c-0.7,0-1.1-0.4-1.1-1.1v-2.8h-0.7v-0.5h0.7V42l0.7-0.2V43.4z"/>
			<path class="st1" d="M119.2,42.5h-0.9v-0.8h0.9V42.5z M119.1,47.7h-0.7v-4.4h0.7V47.7z"/>
			<path class="st1" d="M124.5,45.5c0,1.4-0.8,2.3-1.9,2.3s-1.9-0.9-1.9-2.3c0-1.4,0.8-2.3,1.9-2.3
				C123.7,43.3,124.5,44.1,124.5,45.5z M121.5,45.6c0,1.1,0.4,1.7,1.2,1.7s1.2-0.6,1.2-1.7c0-1.1-0.4-1.7-1.2-1.7
				C121.9,43.8,121.5,44.4,121.5,45.6z"/>
			<path class="st1" d="M126.8,44.2c0.4-0.5,1-0.9,1.5-0.9c0.7,0,1.2,0.5,1.2,1.2v3.2h-0.7v-3c0-0.6-0.3-0.9-0.7-0.9
				c-0.4,0-0.9,0.3-1.3,0.9v3h-0.7v-4.4h0.7V44.2z"/>
		</g>
		<g class="st0">
			<path class="st1" d="M3.3,61.5v2.7H2.5v-2.7l-2.1-3.6h0.8l1.4,2.6c0.1,0.2,0.2,0.3,0.2,0.4c0.1-0.2,0.2-0.3,0.3-0.5l1.4-2.5h0.8
				L3.3,61.5z"/>
			<path class="st1" d="M9.7,62c0,1.4-0.8,2.3-1.9,2.3S5.9,63.4,5.9,62s0.8-2.3,1.9-2.3S9.7,60.5,9.7,62z M6.6,62
				c0,1.1,0.4,1.7,1.2,1.7S9,63.1,9,62s-0.4-1.7-1.2-1.7C7.1,60.2,6.6,60.8,6.6,62z"/>
			<path class="st1" d="M13.6,60.9c-0.1-0.5-0.5-0.8-0.9-0.8c-0.6,0-0.9,0.3-0.9,0.6c0,0.4,0.2,0.6,0.9,0.8l0.3,0.1
				c1,0.2,1.4,0.6,1.4,1.3s-0.5,1.3-1.7,1.3c-0.9,0-1.5-0.3-1.7-1.1l0.7-0.2c0.2,0.6,0.6,0.8,1.1,0.8c0.7,0,1-0.3,1-0.7
				c0-0.5-0.2-0.6-1-0.8l-0.3-0.1c-1-0.2-1.3-0.6-1.3-1.3s0.5-1.2,1.5-1.2c0.8,0,1.4,0.4,1.6,1L13.6,60.9z"/>
			<path class="st1" d="M16.7,60.6c0.4-0.5,0.9-0.9,1.5-0.9c0.7,0,1.2,0.5,1.2,1.3v3.2h-0.7v-3c0-0.6-0.3-0.9-0.7-0.9
				c-0.4,0-0.9,0.3-1.3,0.9v3H16v-6.4h0.7V60.6z"/>
			<path class="st1" d="M22,58.9h-0.9v-0.8H22V58.9z M22,64.1h-0.7v-4.4H22V64.1z"/>
			<path class="st1" d="M23.8,60.8c0.2-0.8,0.9-1.1,1.7-1.1c1,0,1.6,0.5,1.6,1.5v1.6c0,0.6,0,1.1,0.1,1.4h-0.6
				c0-0.2-0.1-0.4-0.1-0.7c-0.4,0.5-0.9,0.8-1.5,0.8c-0.8,0-1.3-0.5-1.3-1.3c0-0.7,0.4-1.3,1.4-1.4c0.4-0.1,0.9-0.1,1.4-0.1v-0.2
				c0-0.7-0.3-1-0.9-1c-0.5,0-0.9,0.3-1.1,0.8L23.8,60.8z M26.4,61.9c-0.5,0-0.9,0.1-1.2,0.1c-0.6,0.1-0.9,0.4-0.9,0.9
				s0.3,0.8,0.8,0.8s0.9-0.3,1.3-0.9C26.4,62.8,26.4,61.9,26.4,61.9z"/>
			<path class="st1" d="M30.9,61.4l1.6,2.7h-0.8l-1.3-2.2l-0.8,0.8v1.4h-0.7v-6.4h0.7V62l1.9-2.2h0.8L30.9,61.4z"/>
			<path class="st1" d="M34.6,58.9h-0.9v-0.8h0.9V58.9z M34.5,64.1h-0.7v-4.4h0.7V64.1z"/>
			<path class="st1" d="M43.9,64.1H43l-2-3.8c-0.4-0.7-0.6-1.2-0.9-1.8H40c0,0.7,0,1.3,0,2v3.6h-0.7v-6.3h1.2l1.8,3.5
				c0.4,0.7,0.6,1.3,0.9,1.9h0.1c0-0.7-0.1-1.3-0.1-2.1v-3.3h0.7V64.1z"/>
			<path class="st1" d="M45.8,60.8c0.2-0.8,0.9-1.1,1.7-1.1c1,0,1.6,0.5,1.6,1.5v1.6c0,0.6,0,1.1,0.1,1.4h-0.6
				c0-0.2-0.1-0.4-0.1-0.7c-0.4,0.5-0.9,0.8-1.5,0.8c-0.8,0-1.3-0.5-1.3-1.3c0-0.7,0.4-1.3,1.4-1.4c0.4-0.1,0.9-0.1,1.4-0.1v-0.2
				c0-0.7-0.3-1-0.9-1c-0.5,0-0.9,0.3-1.1,0.8L45.8,60.8z M48.4,61.9c-0.5,0-0.9,0.1-1.2,0.1c-0.6,0.1-0.9,0.4-0.9,0.9
				s0.3,0.8,0.8,0.8s0.9-0.3,1.3-0.9C48.4,62.8,48.4,61.9,48.4,61.9z"/>
			<path class="st1" d="M52.9,61.4l1.6,2.7h-0.8l-1.3-2.2l-0.8,0.8v1.4H51v-6.4h0.7V62l1.9-2.2h0.8L52.9,61.4z"/>
			<path class="st1" d="M55.7,60.8c0.2-0.8,0.9-1.1,1.7-1.1c1,0,1.6,0.5,1.6,1.5v1.6c0,0.6,0,1.1,0.1,1.4h-0.6
				c0-0.2-0.1-0.4-0.1-0.7c-0.4,0.5-0.9,0.8-1.5,0.8c-0.8,0-1.3-0.5-1.3-1.3c0-0.7,0.4-1.3,1.4-1.4c0.4-0.1,0.9-0.1,1.4-0.1v-0.2
				c0-0.7-0.3-1-0.9-1c-0.5,0-0.9,0.3-1.1,0.8L55.7,60.8z M58.4,61.9c-0.5,0-0.9,0.1-1.2,0.1c-0.6,0.1-0.9,0.4-0.9,0.9
				s0.3,0.8,0.8,0.8s0.9-0.3,1.3-0.9C58.4,62.8,58.4,61.9,58.4,61.9z"/>
			<path class="st1" d="M61.6,60.6c0.4-0.5,1-0.9,1.5-0.9c0.7,0,1.2,0.5,1.2,1.2v3.2h-0.7v-3c0-0.6-0.3-0.9-0.7-0.9
				s-0.9,0.3-1.3,0.9v3h-0.7v-4.4h0.7C61.6,59.7,61.6,60.6,61.6,60.6z"/>
			<path class="st1" d="M67,58.9h-0.9v-0.8H67V58.9z M66.9,64.1h-0.7v-4.4h0.7V64.1z"/>
			<path class="st1" d="M71.1,60.9c-0.1-0.5-0.5-0.8-0.9-0.8c-0.6,0-0.9,0.3-0.9,0.6c0,0.4,0.2,0.6,0.9,0.8l0.3,0.1
				c1,0.2,1.4,0.6,1.4,1.3s-0.5,1.3-1.7,1.3c-0.9,0-1.5-0.3-1.7-1.1l0.7-0.2c0.2,0.6,0.6,0.8,1.1,0.8c0.7,0,1-0.3,1-0.7
				c0-0.5-0.2-0.6-1-0.8L70,62.1c-1-0.2-1.3-0.6-1.3-1.3s0.5-1.2,1.5-1.2c0.8,0,1.4,0.4,1.6,1L71.1,60.9z"/>
			<path class="st1" d="M74.2,60.6c0.4-0.5,0.9-0.9,1.5-0.9c0.7,0,1.2,0.5,1.2,1.3v3.2h-0.7v-3c0-0.6-0.3-0.9-0.7-0.9
				c-0.4,0-0.9,0.3-1.3,0.9v3h-0.7v-6.4h0.7V60.6z"/>
			<path class="st1" d="M79.6,58.9h-0.9v-0.8h0.9V58.9z M79.5,64.1h-0.7v-4.4h0.7V64.1z"/>
			<path class="st1" d="M84,65h-0.5l3.4-7.9h0.5L84,65z"/>
			<path class="st1" d="M91.1,59.1c0.3-0.8,0.9-1.2,1.8-1.2c1,0,1.7,0.6,1.7,1.5c0,0.8-0.4,1.3-1.2,1.4v0.1c0.8,0.2,1.3,0.8,1.3,1.6
				c0,1.1-0.8,1.8-1.9,1.8c-1,0-1.6-0.4-1.9-1.2l0.7-0.3c0.2,0.7,0.6,0.9,1.2,0.9c0.7,0,1.1-0.5,1.1-1.2c0-0.8-0.5-1.3-1.4-1.3H92
				v-0.6h0.4c0.9,0,1.3-0.4,1.3-1.1c0-0.6-0.4-1-1-1c-0.5,0-0.9,0.3-1.1,0.9L91.1,59.1z"/>
			<path class="st1" d="M98.5,57.9c1.9,0,3,1,3,3.1s-1.2,3.2-3.1,3.2h-1.8v-6.3C96.6,57.9,98.5,57.9,98.5,57.9z M97.3,63.5h1.1
				c1.4,0,2.3-0.8,2.3-2.6s-0.9-2.5-2.3-2.5h-1.1V63.5z"/>
			<path class="st1" d="M110.4,64.1h-0.8l-0.6-2h-2.2l-0.6,2h-0.7l2-6.3h0.9L110.4,64.1z M108.4,60c-0.2-0.5-0.3-1-0.4-1.6h-0.1
				c-0.1,0.6-0.3,1.1-0.4,1.6l-0.5,1.5h1.9L108.4,60z"/>
			<path class="st1" d="M112.5,60.6c0.4-0.5,1-0.9,1.5-0.9c0.7,0,1.2,0.5,1.2,1.2v3.2h-0.7v-3c0-0.6-0.3-0.9-0.7-0.9
				c-0.4,0-0.9,0.3-1.3,0.9v3h-0.7v-4.4h0.7V60.6z"/>
			<path class="st1" d="M117.9,58.9H117v-0.8h0.9V58.9z M117.8,64.1h-0.7v-4.4h0.7V64.1z"/>
			<path class="st1" d="M120.4,60.6c0.4-0.6,0.9-0.9,1.4-0.9c0.6,0,1,0.4,1.1,0.9c0.4-0.5,0.9-0.9,1.5-0.9c0.7,0,1.2,0.5,1.2,1.2
				v3.2h-0.7v-3c0-0.6-0.3-0.9-0.7-0.9c-0.4,0-0.9,0.3-1.2,0.9v3h-0.7v-3c0-0.6-0.3-0.9-0.7-0.9c-0.4,0-0.9,0.3-1.2,0.9v3h-0.7v-4.4
				h0.7L120.4,60.6L120.4,60.6z"/>
			<path class="st1" d="M127.3,60.8c0.2-0.8,0.9-1.1,1.7-1.1c1,0,1.6,0.5,1.6,1.5v1.6c0,0.6,0,1.1,0.1,1.4H130
				c0-0.2-0.1-0.4-0.1-0.7c-0.4,0.5-0.9,0.8-1.5,0.8c-0.8,0-1.3-0.5-1.3-1.3c0-0.7,0.4-1.3,1.4-1.4c0.4-0.1,0.9-0.1,1.4-0.1v-0.2
				c0-0.7-0.3-1-0.9-1c-0.5,0-0.9,0.3-1.1,0.8L127.3,60.8z M129.9,61.9c-0.5,0-0.9,0.1-1.2,0.1c-0.6,0.1-0.9,0.4-0.9,0.9
				s0.3,0.8,0.8,0.8s0.9-0.3,1.3-0.9V61.9z"/>
			<path class="st1" d="M133.3,59.8h1v0.5h-1V63c0,0.5,0.2,0.7,0.6,0.7c0.2,0,0.3,0,0.5-0.1v0.5c-0.2,0-0.4,0-0.7,0
				c-0.7,0-1.1-0.4-1.1-1.1v-2.8h-0.7v-0.5h0.7v-1.4l0.7-0.2V59.8z"/>
			<path class="st1" d="M136.6,58.9h-0.9v-0.8h0.9V58.9z M136.5,64.1h-0.7v-4.4h0.7V64.1z"/>
			<path class="st1" d="M141.9,62c0,1.4-0.8,2.3-1.9,2.3c-1.1,0-1.9-0.9-1.9-2.3c0-1.4,0.8-2.3,1.9-2.3
				C141.1,59.7,141.9,60.5,141.9,62z M138.8,62c0,1.1,0.4,1.7,1.2,1.7c0.7,0,1.2-0.6,1.2-1.7c0-1.1-0.4-1.7-1.2-1.7
				C139.3,60.2,138.8,60.8,138.8,62z"/>
			<path class="st1" d="M144.2,60.6c0.4-0.5,1-0.9,1.5-0.9c0.7,0,1.2,0.5,1.2,1.2v3.2h-0.7v-3c0-0.6-0.3-0.9-0.7-0.9
				s-0.9,0.3-1.3,0.9v3h-0.7v-4.4h0.7V60.6z"/>
		</g>
		<g class="st0">
			<path class="st1" d="M7.1,80.5H6.4v-3.7c0-0.7,0-1.3,0-2H6.3C6.1,75.5,6,76,5.7,76.7l-1.2,3.7H3.6l-1.2-3.7
				C2.2,76,2,75.4,1.8,74.8H1.7c0,0.7,0,1.3,0,2v3.7H1.1v-6.3h1.2L3.4,78c0.2,0.6,0.4,1.3,0.6,1.9h0.1c0.2-0.7,0.4-1.2,0.6-1.9
				l1.1-3.7H7L7.1,80.5L7.1,80.5z"/>
			<path class="st1" d="M9,77.2c0.2-0.8,0.9-1.1,1.7-1.1c1,0,1.6,0.5,1.6,1.5v1.6c0,0.6,0,1.1,0.1,1.4h-0.6c0-0.2-0.1-0.4-0.1-0.7
				c-0.4,0.5-0.9,0.8-1.5,0.8c-0.8,0-1.3-0.5-1.3-1.3c0-0.7,0.4-1.3,1.4-1.4c0.4-0.1,0.9-0.1,1.4-0.1v-0.2c0-0.7-0.3-1-0.9-1
				c-0.5,0-0.9,0.3-1.1,0.8L9,77.2z M11.7,78.3c-0.5,0-0.9,0.1-1.2,0.1c-0.6,0.1-0.9,0.4-0.9,0.9s0.3,0.8,0.8,0.8s0.9-0.3,1.3-0.9
				C11.7,79.2,11.7,78.3,11.7,78.3z"/>
			<path class="st1" d="M16.1,77.8l1.6,2.7h-0.8l-1.3-2.2l-0.8,0.8v1.4h-0.7v-6.4h0.7v4.2l1.9-2.2h0.8L16.1,77.8z"/>
			<path class="st1" d="M22.5,78.4c0,1.4-0.8,2.3-1.9,2.3s-1.9-0.9-1.9-2.3s0.8-2.3,1.9-2.3C21.8,76.1,22.5,77,22.5,78.4z
				 M19.5,78.4c0,1.1,0.4,1.7,1.2,1.7s1.2-0.6,1.2-1.7s-0.4-1.7-1.2-1.7C19.9,76.6,19.5,77.3,19.5,78.4z"/>
			<path class="st1" d="M25.1,76.2h1v0.5h-1v2.7c0,0.5,0.2,0.7,0.6,0.7c0.2,0,0.3,0,0.5-0.1v0.5c-0.2,0-0.4,0-0.7,0
				c-0.7,0-1.1-0.4-1.1-1.1v-2.8h-0.7v-0.5h0.7v-1.4l0.7-0.2V76.2z"/>
			<path class="st1" d="M31,78.4c0,1.4-0.8,2.3-1.9,2.3s-1.9-0.9-1.9-2.3s0.8-2.3,1.9-2.3S31,77,31,78.4z M28,78.4
				c0,1.1,0.4,1.7,1.2,1.7s1.2-0.6,1.2-1.7s-0.4-1.7-1.2-1.7C28.4,76.6,28,77.3,28,78.4z"/>
			<path class="st1" d="M40.3,77.4c0,2.1-1.1,3.3-2.6,3.3s-2.6-1.2-2.6-3.2c0-2.1,1.1-3.3,2.6-3.3C39.2,74.1,40.3,75.3,40.3,77.4z
				 M35.9,77.4c0,1.7,0.7,2.6,1.8,2.6s1.8-0.9,1.8-2.6s-0.7-2.6-1.8-2.6C36.7,74.8,35.9,75.7,35.9,77.4z"/>
			<path class="st1" d="M42.9,76.2h1v0.5h-1v2.7c0,0.5,0.2,0.7,0.6,0.7c0.2,0,0.3,0,0.5-0.1v0.5c-0.2,0-0.4,0-0.7,0
				c-0.7,0-1.1-0.4-1.1-1.1v-2.8h-0.7v-0.5h0.7v-1.4l0.7-0.2V76.2z"/>
			<path class="st1" d="M45.2,77.2c0.2-0.8,0.9-1.1,1.7-1.1c1,0,1.6,0.5,1.6,1.5v1.6c0,0.6,0,1.1,0.1,1.4H48c0-0.2-0.1-0.4-0.1-0.7
				c-0.4,0.5-0.9,0.8-1.5,0.8c-0.8,0-1.3-0.5-1.3-1.3c0-0.7,0.4-1.3,1.4-1.4c0.4-0.1,0.9-0.1,1.4-0.1v-0.2c0-0.7-0.3-1-0.9-1
				c-0.5,0-0.9,0.3-1.1,0.8L45.2,77.2z M47.8,78.3c-0.5,0-0.9,0.1-1.2,0.1c-0.6,0.1-0.9,0.4-0.9,0.9s0.3,0.8,0.8,0.8
				s0.9-0.3,1.3-0.9C47.8,79.2,47.8,78.3,47.8,78.3z"/>
			<path class="st1" d="M53,81.4h-0.5l3.4-7.9h0.5L53,81.4z"/>
			<path class="st1" d="M62.6,74.3c1.5,0,2.2,0.6,2.2,1.7s-0.8,1.8-2.2,1.8h-1.3v2.7h-0.7v-6.3h2V74.3z M61.2,77.2h1.3
				c1,0,1.5-0.4,1.5-1.2c0-0.8-0.4-1.2-1.4-1.2h-1.3L61.2,77.2L61.2,77.2z"/>
			<path class="st1" d="M68.3,76.8c-0.5,0-1.1,0.4-1.3,1.3v2.5h-0.7v-4.4H67v1.1c0.3-0.8,0.8-1.2,1.4-1.2L68.3,76.8z"/>
			<path class="st1" d="M73.2,78.4c0,1.4-0.8,2.3-1.9,2.3s-1.9-0.9-1.9-2.3s0.8-2.3,1.9-2.3C72.4,76.1,73.2,77,73.2,78.4z
				 M70.1,78.4c0,1.1,0.4,1.7,1.2,1.7s1.2-0.6,1.2-1.7s-0.4-1.7-1.2-1.7C70.6,76.6,70.1,77.3,70.1,78.4z"/>
			<path class="st1" d="M78.2,80.5h-0.7v-0.6c-0.3,0.5-0.7,0.8-1.3,0.8c-1,0-1.7-0.9-1.7-2.3c0-1.5,0.7-2.3,1.7-2.3
				c0.5,0,1,0.3,1.3,0.7v-2.7h0.7V80.5z M77.5,77.5c-0.3-0.6-0.7-0.8-1.1-0.8c-0.6,0-1.1,0.6-1.1,1.7s0.5,1.7,1.2,1.7
				c0.4,0,0.8-0.3,1.1-0.8L77.5,77.5L77.5,77.5z"/>
			<path class="st1" d="M83.4,80.5h-0.7v-0.8c-0.3,0.6-0.9,0.9-1.5,0.9c-0.7,0-1.2-0.4-1.2-1.2v-3.2h0.7v3c0,0.6,0.3,0.8,0.8,0.8
				c0.4,0,1-0.4,1.3-0.9v-3h0.7v4.4H83.4z"/>
			<path class="st1" d="M87.9,77.6c-0.1-0.6-0.5-0.9-1-0.9c-0.7,0-1.2,0.6-1.2,1.7s0.5,1.7,1.2,1.7c0.6,0,0.9-0.3,1-1l0.7,0.2
				c-0.2,0.8-0.8,1.3-1.7,1.3c-1.2,0-1.9-0.9-1.9-2.3s0.8-2.3,1.9-2.3c0.8,0,1.4,0.4,1.7,1.3L87.9,77.6z"/>
			<path class="st1" d="M91,76.2h1v0.5h-1v2.7c0,0.5,0.2,0.7,0.6,0.7c0.2,0,0.3,0,0.5-0.1v0.5c-0.2,0-0.4,0-0.7,0
				c-0.7,0-1.1-0.4-1.1-1.1v-2.8h-0.7v-0.5h0.7v-1.4l0.7-0.2V76.2z"/>
			<path class="st1" d="M98.3,74.3c1.9,0,3,1,3,3.1s-1.2,3.2-3.1,3.2h-1.8v-6.3C96.4,74.3,98.3,74.3,98.3,74.3z M97.1,79.9h1.1
				c1.4,0,2.3-0.8,2.3-2.6c0-1.8-0.9-2.5-2.3-2.5h-1.1V79.9z"/>
			<path class="st1" d="M103.3,78.5c0,1.1,0.5,1.7,1.3,1.7c0.6,0,0.9-0.3,1.1-0.9l0.6,0.2c-0.3,0.8-0.8,1.2-1.8,1.2
				c-1.2,0-1.9-0.9-1.9-2.3s0.8-2.3,1.9-2.3s1.8,0.8,1.8,2.2v0.2L103.3,78.5L103.3,78.5z M105.7,78c-0.1-0.9-0.5-1.4-1.2-1.4
				s-1.1,0.5-1.2,1.4H105.7z"/>
			<path class="st1" d="M110.3,77.3c-0.1-0.5-0.5-0.8-0.9-0.8c-0.6,0-0.9,0.3-0.9,0.6c0,0.4,0.2,0.6,0.9,0.8l0.3,0.1
				c1,0.2,1.4,0.6,1.4,1.3c0,0.7-0.5,1.3-1.7,1.3c-0.9,0-1.5-0.3-1.7-1.1l0.7-0.2c0.2,0.6,0.6,0.8,1.1,0.8c0.7,0,1-0.3,1-0.7
				c0-0.5-0.2-0.6-1-0.8l-0.3-0.1c-1-0.2-1.3-0.6-1.3-1.3c0-0.7,0.5-1.2,1.5-1.2c0.8,0,1.4,0.4,1.6,1L110.3,77.3z"/>
			<path class="st1" d="M113.4,75.4h-0.9v-0.8h0.9V75.4z M113.4,80.5h-0.7v-4.4h0.7V80.5z"/>
			<path class="st1" d="M118.8,76.2c-0.4,0-0.6,0.1-0.9,0.3c0.3,0.2,0.4,0.6,0.4,1c0,0.9-0.7,1.4-1.6,1.4c-0.2,0-0.5,0-0.7-0.1
				c-0.3,0.1-0.4,0.3-0.4,0.5s0.1,0.3,0.8,0.4l0.9,0.1c1.2,0.1,1.5,0.5,1.5,1.1c0,0.7-0.7,1.2-2.1,1.2c-1.2,0-1.9-0.4-1.9-1
				c0-0.4,0.3-0.7,0.9-0.9c-0.4-0.1-0.6-0.3-0.6-0.6c0-0.3,0.2-0.6,0.6-0.9c-0.4-0.2-0.6-0.6-0.6-1.1c0-0.8,0.7-1.4,1.6-1.4
				c0.3,0,0.6,0.1,0.9,0.2c0.3-0.5,0.6-0.7,1.2-0.7L118.8,76.2z M116.2,80.2c-0.5,0.1-0.8,0.4-0.8,0.7c0,0.5,0.5,0.7,1.3,0.7
				c0.9,0,1.4-0.3,1.4-0.7c0-0.3-0.2-0.5-1-0.6L116.2,80.2z M115.8,77.5c0,0.6,0.4,1,1,1s1-0.4,1-1s-0.4-1-1-1
				S115.8,76.9,115.8,77.5z"/>
			<path class="st1" d="M120.9,77c0.4-0.5,1-0.9,1.5-0.9c0.7,0,1.2,0.5,1.2,1.2v3.2H123v-3c0-0.6-0.3-0.9-0.7-0.9
				c-0.4,0-0.9,0.3-1.3,0.9v3h-0.7v-4.4h0.7L120.9,77L120.9,77z"/>
		</g>
		<g class="st0">
			<path class="st1" d="M2.8,108.9c0,2.1,0,2.5,0,2.5c0,0.1,0,0.1-0.1,0.1H2.4c-0.1,0-0.1,0-0.1-0.1V111h-1v0.7c0,0.1,0,0.1-0.1,0.1
				H0.8c-0.1,0-0.1,0-0.1-0.1c0,0,0-0.4,0-2.7v-1.6c0-1.6,0-2,0-2c0-0.1,0-0.1,0.1-0.1c0,0,0.2,0,0.7,0h0.6c0.5,0,0.6,0,0.7,0
				c0.1,0,0.1,0,0.1,0.1s0,0.4,0,1.8L2.8,108.9L2.8,108.9z M2.3,105.9h-1v2.1h1.1v-2.1H2.3z M2.3,108.4h-1v2.2h1.1v-2.2H2.3z
				 M5.8,109.4c0.5,1.3,1.3,2,2.5,2.7c-0.1,0.1-0.2,0.2-0.3,0.3c0,0.1-0.1,0.1-0.1,0.1s-0.1,0-0.1-0.1c-1.1-0.7-1.9-1.6-2.3-2.7
				c-0.3,1.1-1,2.1-2.5,2.8c-0.1,0-0.1,0-0.1,0s-0.1,0-0.1-0.1c-0.1-0.1-0.2-0.2-0.3-0.3c1.6-0.6,2.3-1.6,2.6-2.7v-0.1H4.3
				c-0.9,0-1.1,0-1.1,0c-0.1,0-0.1,0-0.1-0.1V109c0-0.1,0-0.1,0.1-0.1c0,0,0.2,0,0.5,0v-1.6c0-0.5,0-0.8,0-0.8c0-0.1,0-0.1,0.1-0.1
				s0.3,0,1.1,0h0.5V106c0-0.5,0-0.8-0.1-1c0.2,0,0.4,0,0.6,0.1c0.1,0,0.1,0,0.1,0.1s0,0.1,0,0.2s-0.1,0.2-0.1,0.7v0.5h0.7
				c0.8,0,1,0,1.1,0s0.1,0,0.1,0.1c0,0,0,0.3,0,0.8v1.6c0.3,0,0.5,0,0.5,0c0.1,0,0.1,0,0.1,0.1v0.3c0,0.1,0,0.1-0.1,0.1
				s-0.3,0-1.2,0H5.8V109.4z M5.3,106.9H4.1v2h1.1C5.3,108.5,5.3,107.8,5.3,106.9L5.3,106.9z M7.1,106.9H5.8v0.1c0,0.7,0,1.4-0.1,2
				h1.4C7.1,109,7.1,106.9,7.1,106.9z"/>
			<path class="st1" d="M10.2,109c0-0.3,0-0.9,0-1.3c-0.2,0.4-0.5,0.7-0.8,1.1c0,0.1-0.1,0.1-0.1,0.1s-0.1,0-0.1-0.1
				c-0.1-0.1-0.1-0.2-0.2-0.3c0.8-0.9,1.3-1.9,1.7-3c0.1-0.2,0.1-0.4,0.1-0.6c0.2,0.1,0.3,0.1,0.5,0.2c0.1,0,0.1,0.1,0.1,0.1
				c0,0.1,0,0.1-0.1,0.1c-0.1,0.1-0.1,0.1-0.2,0.3c-0.2,0.4-0.3,0.8-0.5,1.3v4.3c0,0.9,0,1.3,0,1.3c0,0.1,0,0.1-0.1,0.1h-0.4
				c-0.1,0-0.1,0-0.1-0.1c0,0,0-0.4,0-1.3V109H10.2z M14.8,108.5c0.1,0.5,0.3,0.9,0.5,1.3c0.3-0.2,0.5-0.4,0.7-0.6
				c0.1-0.1,0.2-0.2,0.3-0.4c0.2,0.1,0.3,0.2,0.4,0.3c0.1,0,0.1,0.1,0.1,0.1s0,0.1-0.1,0.1s-0.2,0.1-0.3,0.2
				c-0.3,0.2-0.5,0.4-0.8,0.7c0.4,0.6,1,1.1,1.6,1.5c-0.1,0.1-0.2,0.2-0.2,0.3c0,0.1-0.1,0.1-0.1,0.1s-0.1,0-0.1-0.1
				c-1.1-0.9-1.9-1.9-2.3-3.5H14c-0.1,0.1-0.3,0.2-0.4,0.3c0.8,0.7,1,1.6,1,2.5c0,0.8-0.3,1.3-0.8,1.3c-0.2,0-0.4,0-0.5,0
				c-0.2,0-0.2,0-0.2-0.2c0-0.1-0.1-0.2-0.1-0.3c0.3,0,0.5,0.1,0.8,0.1s0.5-0.2,0.5-0.8c0-0.2,0-0.3,0-0.5c-0.8,0.6-1.6,1.1-2.7,1.5
				c-0.1,0-0.1,0-0.2-0.1c-0.1-0.1-0.1-0.2-0.2-0.3c1.2-0.3,2.2-0.9,3-1.5c-0.1-0.2-0.1-0.3-0.2-0.5c-0.7,0.5-1.4,0.9-2.3,1.2
				c-0.1,0.1-0.1,0.1-0.2-0.1c-0.1-0.1-0.1-0.2-0.2-0.3c1.1-0.3,1.9-0.7,2.5-1.2c-0.1-0.1-0.2-0.3-0.3-0.4c-0.5,0.4-1.1,0.6-1.7,0.8
				c-0.2,0.1-0.2,0.1-0.2-0.1c-0.1-0.1-0.1-0.2-0.2-0.3c0.9-0.2,1.7-0.6,2.3-1H13c-0.8,0-1.1,0-1.2,0c-0.1,0-0.1,0-0.1-0.1
				s0-0.2,0-0.6v-0.6c-0.1,0.1-0.2,0.2-0.4,0.3c-0.1,0.1-0.1,0.1-0.1,0.1s-0.1,0-0.1-0.1c-0.1-0.1-0.1-0.2-0.2-0.2
				c0.9-0.6,1.4-1.2,1.8-1.8c0.1-0.2,0.2-0.4,0.2-0.5c0.2,0.1,0.3,0.1,0.5,0.1c0.1,0,0.1,0.1,0.1,0.1s0,0.1-0.1,0.1
				s-0.1,0.1-0.2,0.3v0.1h1.4c0.1,0,0.1,0,0.2,0h0.1c0.1,0,0.1,0,0.2,0.1c0.1,0.1,0.2,0.1,0.2,0.2s0,0.1-0.1,0.1s-0.1,0.1-0.2,0.2
				c-0.1,0.2-0.3,0.3-0.4,0.5h0.7c0.8,0,1.1,0,1.2,0s0.1,0,0.1,0.1s0,0.2,0,0.6v0.4c0,0.4,0,0.5,0,0.5c0,0.1,0,0.1-0.1,0.1
				c0,0-0.4,0-1.2,0L14.8,108.5L14.8,108.5z M13.8,107.2h-1.6v0.9h1.6V107.2z M12.9,106.1c-0.2,0.2-0.4,0.5-0.6,0.7H14
				c0.2-0.2,0.4-0.5,0.6-0.7H12.9z M15.9,107.2h-1.7v0.9h1.7V107.2z"/>
			<path class="st1" d="M22.7,108.2L22.7,108.2c-0.1,0.1-0.4,0.1-1.2,0.1h-0.7v0.9h0.5c0.8,0,1,0,1,0c0.1,0,0.1,0,0.1,0.1
				c0,0,0,0.3,0,0.8v0.3c0,0.5,0,0.7,0,0.9c0,0.2,0,0.4-0.2,0.5c-0.1,0.1-0.3,0.1-0.7,0.1c-0.2,0-0.2,0-0.2-0.2
				c0-0.1-0.1-0.2-0.1-0.3c0.2,0,0.3,0,0.5,0s0.2-0.1,0.2-0.3v-1.6h-1.1v1.4c0,1.1,0,1.5,0,1.6s0,0.1-0.1,0.1h-0.4
				c-0.1,0-0.1,0-0.1-0.1c0,0,0-0.5,0-1.6v-1.4h-1.1v1.4c0,0.6,0,0.8,0,0.9s0,0.1-0.1,0.1h-0.4c-0.1,0-0.1,0-0.1-0.1s0-0.3,0-0.9v-1
				c0-0.6,0-0.7,0-0.8c0-0.1,0-0.1,0.1-0.1s0.3,0,1,0h0.5v-0.9h-0.9c-0.8,0-1.1,0-1.1,0c-0.1,0-0.1,0-0.1-0.1v-0.3
				c0-0.1,0-0.1,0.1-0.1c0,0,0.3,0,1.1,0h0.9v-1h-1c-0.1,0.2-0.2,0.5-0.4,0.7c0,0.1-0.1,0.1-0.1,0.1s-0.1,0-0.1-0.1
				c-0.1-0.1-0.2-0.1-0.3-0.1c0.4-0.5,0.7-1.1,0.8-1.6c0-0.1,0-0.2,0-0.3c0.2,0,0.3,0.1,0.5,0.1c0.1,0,0.1,0,0.1,0.1s0,0.1-0.1,0.1
				c0,0.1-0.1,0.1-0.1,0.2s-0.1,0.3-0.1,0.4h0.9v-0.5c0-0.3,0-0.5-0.1-0.8c0.2,0,0.4,0,0.6,0.1c0.1,0,0.1,0,0.1,0.1s0,0.1,0,0.1
				c0,0.1-0.1,0.2-0.1,0.5v0.5h0.5c0.7,0,0.9,0,0.9,0c0.1,0,0.1,0,0.1,0.1v0.3c0,0.1,0,0.1-0.1,0.1c0,0-0.3,0-0.9,0h-0.5v1h0.7
				c0.8,0,1.1,0,1.1,0c0.1,0,0.1,0,0.1,0.1v0.4H22.7z M23.2,106.9c0-0.6,0-0.9-0.1-1.2c0.2,0,0.4,0,0.5,0s0.1,0,0.1,0.1
				s0,0.1-0.1,0.1c0,0.1,0,0.3,0,0.9v2.3c0,0.7,0,1,0,1.1s0,0.1-0.1,0.1h-0.4c-0.1,0-0.1,0-0.1-0.1s0-0.4,0-1.1v-2.2H23.2z
				 M24.9,106.2c0-0.5,0-0.8-0.1-1c0.2,0,0.4,0,0.6,0.1c0.1,0,0.1,0,0.1,0.1s0,0.1-0.1,0.2c0,0.1,0,0.3,0,0.7v4.2c0,0.5,0,1,0,1.3
				c0,0.4-0.1,0.6-0.2,0.7c-0.2,0.1-0.4,0.2-1.1,0.2c-0.2,0-0.2,0-0.2-0.2s-0.1-0.3-0.2-0.4c0.3,0,0.5,0.1,0.8,0.1s0.4-0.1,0.4-0.4
				C24.9,111.8,24.9,106.2,24.9,106.2z"/>
			<path class="st1" d="M28.3,109c0-0.3,0-0.8,0-1.3c-0.3,0.4-0.6,0.8-0.9,1.2c-0.1,0.1-0.1,0.1-0.1,0.1s-0.1,0-0.1-0.1
				c-0.1-0.2-0.2-0.3-0.2-0.3c1-1,1.6-2.1,1.9-3.1c0.1-0.2,0.1-0.4,0.1-0.6c0.2,0.1,0.4,0.1,0.5,0.2c0.1,0,0.1,0.1,0.1,0.1
				s0,0.1-0.1,0.1s-0.1,0.1-0.2,0.3c-0.2,0.4-0.4,0.9-0.6,1.3v4.3c0,0.9,0,1.3,0,1.3c0,0.1,0,0.1-0.1,0.1h-0.4c-0.1,0-0.1,0-0.1-0.1
				c0,0,0-0.4,0-1.3V109H28.3z M34.7,106.9C34.7,107,34.7,107,34.7,106.9c-0.1,0.1-0.4,0.1-1.2,0.1H32v1.3h1.3c0.6,0,0.8,0,0.8,0
				c0.1,0,0.1,0,0.1,0.1v0.4c0,0.1,0,0.1-0.1,0.1c0,0-0.2,0-0.8,0H32v1.3h1.3c0.6,0,0.8,0,0.9,0c0.1,0,0.1,0,0.1,0.1v0.4
				c0,0.1,0,0.1-0.1,0.1s-0.2,0-0.9,0H32v0.7c0,0.9,0,1.3,0,1.3c0,0.1,0,0.1-0.1,0.1h-0.4c-0.1,0-0.1,0-0.1-0.1s0-0.4,0-1.3V107
				h-0.7c-0.3,0.6-0.7,1.2-1.1,1.6c-0.1,0.1-0.1,0.1-0.1,0.1s-0.1,0-0.1-0.1c-0.1-0.1-0.2-0.2-0.3-0.2c0.7-0.8,1.4-2.1,1.6-2.8
				c0.1-0.2,0.1-0.4,0.1-0.6c0.2,0.1,0.4,0.1,0.5,0.2c0.1,0,0.1,0.1,0.1,0.1c0,0.1,0,0.1-0.1,0.1s-0.1,0.2-0.2,0.3
				c-0.1,0.3-0.2,0.6-0.4,0.9h2.5c0.8,0,1,0,1.1,0s0.1,0,0.1,0.1v0.2H34.7z"/>
			<path class="st1" d="M40,107c0.6-0.2,1.1-0.3,1.6-0.3c1,0,1.6,0.5,1.6,1.4c0,1.1-0.9,1.6-2.1,1.6c-0.1,0-0.3,0-0.4,0
				c-0.1,0-0.1,0-0.1-0.1c-0.1-0.2-0.1-0.3-0.2-0.5c0.2,0,0.5,0.1,0.8,0.1c0.9,0,1.5-0.3,1.5-1.1c0-0.7-0.5-0.9-1-0.9
				c-0.6,0-1,0.1-1.4,0.2c-0.6,0.2-1.1,0.4-1.6,0.6c0.5,1.4,0.9,2.6,1.4,4c0,0.1,0,0.1-0.1,0.2s-0.3,0.1-0.4,0.2
				c-0.1,0-0.1,0-0.1-0.1c-0.4-1.4-0.8-2.6-1.3-4c-0.4,0.2-0.7,0.3-1,0.4c-0.2,0.1-0.4,0.2-0.5,0.3l-0.1,0.1c0,0-0.1,0-0.1-0.1
				c-0.1-0.1-0.3-0.3-0.4-0.5c0.4-0.1,0.6-0.1,0.9-0.2c0.3-0.1,0.6-0.2,1-0.4c-0.1-0.3-0.2-0.6-0.3-0.9s-0.2-0.5-0.4-0.8
				c0.2-0.1,0.5-0.1,0.7-0.1c0.1,0,0.1,0.1,0.1,0.1c0,0.1,0,0.1,0,0.2s0.1,0.2,0.2,0.6c0.1,0.3,0.2,0.4,0.2,0.6
				C39,107.4,39.5,107.2,40,107z M39.9,105.3C40,105.3,40,105.3,39.9,105.3c0.4,0.2,0.7,0.5,1,0.8v0.1c-0.1,0.1-0.2,0.2-0.3,0.3
				h-0.1c-0.3-0.4-0.6-0.7-1-0.9C39.6,105.5,39.8,105.4,39.9,105.3z"/>
			<path class="st1" d="M49.3,110.1c0.2,0.4,0.5,0.7,0.9,0.9c0.3-0.2,0.6-0.4,0.8-0.5c0.1-0.1,0.2-0.2,0.3-0.3
				c0.1,0.1,0.3,0.2,0.4,0.3l0.1,0.1c0,0,0,0.1-0.1,0.1s-0.1,0-0.3,0.2c-0.2,0.1-0.5,0.3-0.7,0.5c0.6,0.3,1.3,0.6,2.1,0.8
				c-0.1,0.1-0.2,0.2-0.2,0.3c-0.1,0.2-0.1,0.2-0.2,0.1c-1.6-0.5-2.7-1.2-3.4-2.4c-0.3,0.3-0.7,0.5-1.1,0.8v1
				c0.6-0.1,1.2-0.3,1.8-0.4c0,0.1,0,0.2,0,0.3c0,0.1,0,0.2-0.2,0.2c-0.9,0.2-1.7,0.4-2.7,0.6c-0.2,0-0.3,0.1-0.3,0.1h-0.1
				c0,0-0.1,0-0.1-0.1c-0.1-0.2-0.1-0.3-0.2-0.5c0.3,0,0.6,0,0.9-0.1l0.4-0.1v-0.8c-0.6,0.3-1.2,0.5-1.8,0.6c-0.2,0-0.2,0-0.3-0.1
				s-0.1-0.2-0.2-0.3c1.1-0.2,2.4-0.6,3.2-1.2h-1.9c-0.8,0-1.1,0-1.1,0c-0.1,0-0.1,0-0.1-0.1v-0.3c0-0.1,0-0.1,0.1-0.1
				c0,0,0.3,0,1.1,0h2.4v-0.1c0-0.2,0-0.3,0-0.5c-0.1,0-0.2,0-0.4,0c-0.1,0-0.1,0-0.2-0.1c0-0.1-0.1-0.2-0.1-0.3c0.2,0,0.3,0,0.4,0
				c0.2,0,0.2-0.1,0.2-0.3V108h-1.1v0.3c0,0.7,0,1,0,1.1s0,0.1-0.1,0.1h-0.4c-0.1,0-0.1,0-0.1-0.1c0,0,0-0.3,0-1.1V108h-1v0.6
				c0,0.3,0,0.4,0,0.5s0,0.1-0.1,0.1h-0.3c-0.1,0-0.1,0-0.1-0.1c0,0,0-0.1,0-0.5v-0.4c0-0.4,0-0.5,0-0.5s0-0.1,0.1-0.1s0.3,0,1,0H47
				V107h-0.7c-0.8,0-1.1,0-1.1,0c-0.1,0-0.1,0-0.1-0.1v-0.3c0-0.1,0-0.1,0.1-0.1c0,0,0.3,0,1.1,0H47v-0.6h-1.1
				c-0.1,0.1-0.2,0.2-0.3,0.3c-0.1,0.1-0.1,0.1-0.1,0.1s-0.1,0-0.1-0.1c-0.1-0.1-0.1-0.1-0.2-0.1c0.3-0.3,0.5-0.6,0.7-0.9
				c0.1-0.2,0.1-0.3,0.2-0.4c0.1,0,0.3,0.1,0.4,0.1c0.1,0,0.1,0,0.1,0.1c0,0,0,0.1-0.1,0.1c0,0-0.1,0.1-0.2,0.2l-0.1,0.2h0.9l0,0
				c0-0.4,0-0.6-0.1-0.8c0.2,0,0.3,0,0.5,0c0.1,0,0.1,0,0.1,0.1s0,0.1,0,0.1c0,0.1,0,0.2,0,0.5l0,0H48c0.7,0,0.9,0,1,0
				s0.1,0,0.1,0.1v0.3c0,0.1,0,0.1-0.1,0.1s-0.3,0-1,0h-0.5v0.6h0.7c0.8,0,1,0,1.1,0s0.1,0,0.1,0.1v0.3c0,0.1,0,0.1-0.1,0.1
				c0,0-0.3,0-1.1,0h-0.7v0.6H48c0.7,0,1,0,1,0c0.1,0,0.1,0,0.1,0.1s0,0.1,0,0.3v0.1c0,0.2,0,0.3,0,0.5c0,0.1,0,0.3-0.2,0.4
				c-0.1,0-0.1,0.1-0.2,0.1c0.2,0,0.3,0,0.5,0.1c0.1,0,0.1,0,0.1,0.1s0,0.1,0,0.1c0,0.1-0.1,0.1-0.1,0.3v0.1h2.3c0.8,0,1.1,0,1.1,0
				c0.1,0,0.1,0,0.1,0.1v0.3c0,0.1,0,0.1-0.1,0.1s-0.3,0-1.1,0h-2.2V110.1z M49.9,106.2c0-0.3,0-0.5-0.1-0.8c0.2,0,0.4,0,0.5,0
				s0.1,0,0.1,0.1s0,0.1,0,0.1c0,0.1-0.1,0.2-0.1,0.5v1c0,0.5,0,0.8,0,0.8c0,0.1,0,0.1-0.1,0.1h-0.4c-0.1,0-0.1,0-0.1-0.1
				c0,0,0-0.3,0-0.8v-0.9H49.9z M51.5,106c0-0.5,0-0.7-0.1-1c0.2,0,0.4,0,0.5,0s0.1,0,0.1,0.1s0,0.1-0.1,0.2c0,0.1,0,0.3,0,0.7v1.8
				c0,0.3,0,0.6,0,0.8c0,0.2-0.1,0.4-0.2,0.5c-0.1,0.1-0.4,0.1-1,0.2c-0.2,0-0.2,0-0.2-0.2c0-0.1-0.1-0.2-0.1-0.3c0.2,0,0.4,0,0.7,0
				s0.4-0.1,0.4-0.3C51.5,108.5,51.5,106,51.5,106z"/>
			<path class="st1" d="M57.1,110.9c0,1.3,0,1.5,0,1.5c0,0.1,0,0.1-0.1,0.1h-0.4c-0.1,0-0.1,0-0.1-0.1V112h-1.9v0.5
				c0,0.1,0,0.1-0.1,0.1h-0.4c-0.1,0-0.1,0-0.1-0.1c0,0,0-0.3,0-1.6v-0.8c0-0.8,0-1,0-1c0-0.1,0-0.1,0.1-0.1s0.3,0,0.9,0h1
				c0.6,0,0.8,0,0.9,0c0.1,0,0.1,0,0.1,0.1c0,0,0,0.3,0,0.9L57.1,110.9L57.1,110.9z M56.6,109.5h-1.9v2h1.9V109.5z M59.9,107.2
				c0,0.5,0,0.7,0,0.8c0,0.1,0,0.1-0.1,0.1c0,0-0.3,0-1.1,0h-2c-0.8,0-1.1,0-1.1,0c-0.1,0-0.1,0-0.1-0.1s0-0.2,0-0.8v-1
				c0-0.5,0-0.7,0-0.8c0-0.1,0-0.1,0.1-0.1s0.3,0,1.1,0h2c0.8,0,1.1,0,1.1,0c0.1,0,0.1,0,0.1,0.1s0,0.2,0,0.8V107.2z M59.4,105.8H56
				v1.7h3.4V105.8z M61.1,110.9c0,1.3,0,1.5,0,1.5c0,0.1,0,0.1-0.1,0.1h-0.4c-0.1,0-0.1,0-0.1-0.1V112h-2v0.5c0,0.1,0,0.1-0.1,0.1
				H58c-0.1,0-0.1,0-0.1-0.1s0-0.3,0-1.6v-0.8c0-0.8,0-1,0-1c0-0.1,0-0.1,0.1-0.1s0.3,0,0.9,0h1c0.7,0,0.9,0,0.9,0
				c0.1,0,0.1,0,0.1,0.1c0,0,0,0.3,0,0.9v0.9H61.1z M60.6,109.5h-2v2h2V109.5z"/>
			<path class="st1" d="M66.7,108.3c0,1-0.2,1.6-0.5,2.3c-0.4,0.7-0.9,1.2-1.5,1.6c-0.1,0.1-0.2,0.1-0.3,0c-0.1-0.1-0.3-0.2-0.5-0.3
				c0.9-0.4,1.3-0.9,1.7-1.6c0.3-0.6,0.4-1.2,0.4-2.1h-1.7c-0.4,0-0.9,0-1.2,0.1c-0.1,0-0.1,0-0.1-0.1s0-0.3-0.1-0.5
				c0.5,0,0.9,0,1.4,0H68c0.6,0,1,0,1.6,0c0.1,0,0.1,0,0.1,0.1v0.4c0,0.1,0,0.1-0.1,0.1c-0.5,0-1,0-1.5,0H66.7z M65.4,106.4
				c-0.4,0-0.8,0-1.2,0c-0.1,0-0.1,0-0.1-0.1s0-0.3,0-0.5c0.5,0,1,0,1.4,0H67c0.5,0,1,0,1.4,0c0.1,0,0.1,0,0.1,0.1s0,0.2,0,0.3
				c0,0.1,0,0.1-0.1,0.1c-0.5,0-1,0-1.4,0L65.4,106.4L65.4,106.4z M68.8,105.1C68.8,105.1,68.9,105.1,68.8,105.1
				c0.4,0.3,0.7,0.8,0.9,1.1v0.1l-0.3,0.2h-0.1c-0.2-0.4-0.5-0.9-0.9-1.2L68.8,105.1z M69.6,104.6L69.6,104.6
				c0.4,0.3,0.8,0.7,0.9,1.1v0.1l-0.2,0.2h-0.1c-0.2-0.4-0.5-0.8-0.9-1.2L69.6,104.6z"/>
			<path class="st1" d="M77,107.5c0.5,0,0.9,0,1.4,0c0.1,0,0.1,0,0.1,0.1s0,0.2,0,0.4c0,0.1,0,0.1-0.1,0.1c-0.4,0-0.9,0-1.4,0h-0.3
				c0,1.2-0.2,2-0.6,2.7s-1.2,1.3-2.1,1.6c-0.1,0.1-0.2,0.1-0.2,0c-0.1-0.2-0.3-0.2-0.4-0.3c1.1-0.4,1.9-0.9,2.3-1.6
				c0.3-0.6,0.5-1.3,0.5-2.4H74v0.4c0,0.5,0,0.9,0,1.4c0,0.1,0,0.1-0.1,0.1s-0.3,0-0.4,0s-0.1,0-0.1-0.1c0-0.4,0-0.9,0-1.4V108H73
				c-0.5,0-0.9,0-1.3,0c-0.1,0-0.1,0-0.1-0.1s0-0.3,0-0.5c0.4,0,0.9,0,1.4,0h0.4v-0.7c0-0.4,0-0.8-0.1-1.2c0.3,0,0.5,0.1,0.7,0.1
				c0.1,0,0.1,0.1,0,0.2s-0.1,0.5-0.1,0.9v0.7h2.2v-0.8c0-0.6,0-1-0.1-1.3c0.2,0,0.5,0.1,0.6,0.1s0.1,0.1,0.1,0.2s-0.1,0.3-0.1,0.9
				v0.8H77V107.5z M77.5,105.3C77.6,105.3,77.6,105.3,77.5,105.3c0.3,0.3,0.7,0.8,0.8,1.2v0.1l-0.3,0.2c-0.1,0-0.1,0-0.1,0
				c-0.2-0.4-0.5-0.9-0.8-1.2L77.5,105.3z M78.3,104.9C78.4,104.9,78.4,104.9,78.3,104.9c0.4,0.3,0.7,0.8,0.9,1.1c0,0.1,0,0.1,0,0.1
				l-0.3,0.2h-0.1c-0.2-0.4-0.5-0.8-0.8-1.2L78.3,104.9z"/>
			<path class="st1" d="M83.9,110.6c0,0.5,0,1,0,1.5c0,0.1,0,0.1-0.1,0.1c-0.2,0-0.3,0-0.5,0c-0.1,0-0.1,0-0.1-0.1c0-0.5,0-1,0-1.5
				v-2.5c-0.9,0.8-1.7,1.4-2.7,1.9c-0.1,0-0.1,0-0.2,0c-0.1-0.1-0.3-0.2-0.4-0.3c1.1-0.6,1.9-1.2,2.7-1.8c0.6-0.6,1.3-1.2,1.7-1.6
				c0.4-0.4,0.5-0.7,0.6-1c0.2,0.1,0.5,0.3,0.6,0.4s0.1,0.2,0,0.2c-0.1,0.1-0.3,0.2-0.5,0.5c-0.4,0.4-0.7,0.8-1.1,1.2V110.6z"/>
			<path class="st1" d="M88,106.2c0.1-0.1,0.1-0.1,0.2,0c0.5,0.3,1,0.7,1.5,1.1c0.1,0.1,0.1,0.1,0,0.2s-0.2,0.3-0.3,0.4
				c-0.1,0.1-0.1,0.1-0.1,0c-0.5-0.5-1.1-0.9-1.6-1.3C87.8,106.5,87.9,106.3,88,106.2z M88.8,110.8c0.9-0.5,1.7-0.9,2.5-1.6
				c0.9-0.7,1.6-1.3,2.3-2.3c0,0.2,0.1,0.4,0.1,0.6c0.1,0.1,0,0.2-0.1,0.3c-0.6,0.7-1.3,1.4-2.1,2c-0.7,0.6-1.6,1.1-2.6,1.7
				c-0.2,0.1-0.4,0.3-0.5,0.3c-0.1,0.1-0.2,0.1-0.2,0c-0.1-0.1-0.3-0.3-0.4-0.6C88.2,111,88.5,110.9,88.8,110.8z"/>
			<path class="st1" d="M99.1,106.6C99.2,106.6,99.2,106.6,99.1,106.6c0.1,0.2,0.1,0.4,0.1,0.5s0,0.1-0.1,0.1
				c-0.5,0.1-0.9,0.2-1.4,0.2c-0.5,1.3-1.1,2.6-1.7,3.6c0,0.1-0.1,0.1-0.1,0c-0.1-0.1-0.3-0.2-0.3-0.3c-0.1,0-0.1-0.1,0-0.1
				c0.7-1.1,1.2-2.1,1.6-3.2c-0.4,0-0.7,0.1-1.1,0.1c-0.1,0-0.3,0-0.5,0c-0.1,0-0.1,0-0.1-0.1s0-0.3-0.1-0.4c0.3,0,0.5,0,0.7,0
				c0.4,0,0.7,0,1.2-0.1c0.1-0.3,0.2-0.6,0.3-1c0.1-0.2,0.1-0.4,0.1-0.7c0.2,0,0.5,0.1,0.7,0.2c0.1,0,0.1,0.1,0.1,0.1s0,0.1-0.1,0.1
				c0,0.1-0.1,0.1-0.1,0.3c-0.1,0.3-0.2,0.6-0.3,0.9C98.3,106.7,98.6,106.7,99.1,106.6z M99.6,108.6c0-0.2,0-0.3-0.1-0.5
				c0.2,0,0.4,0.1,0.6,0.1c0.1,0,0.1,0.1,0.1,0.1s0,0.1-0.1,0.2c0,0.1,0,0.2,0,0.4c0,0.5,0,1,0.1,1.6c0.6,0.2,1.1,0.5,1.6,0.9
				c0.1,0,0.1,0.1,0,0.1c0,0.1-0.1,0.3-0.2,0.4c0,0.1-0.1,0.1-0.1,0c-0.4-0.3-0.8-0.6-1.3-0.8c0,0.9-0.4,1.3-1.5,1.3
				c-0.6,0-1.3-0.3-1.3-1c0-0.6,0.6-1.1,1.5-1.1c0.3,0,0.6,0,0.9,0.1C99.6,109.8,99.6,109.1,99.6,108.6z M98.9,110.7
				c-0.7,0-1,0.3-1,0.6c0,0.4,0.3,0.6,0.9,0.6c0.7,0,1-0.4,1-0.8c0-0.1,0-0.2,0-0.2C99.4,110.7,99.1,110.7,98.9,110.7z M100.3,106.8
				C100.3,106.7,100.4,106.7,100.3,106.8c0.7,0.1,1.3,0.4,1.8,0.7c0.1,0.1,0.1,0.1,0,0.2s-0.1,0.2-0.2,0.3c0,0.1-0.1,0.1-0.1,0
				c-0.5-0.4-1.1-0.7-1.7-0.9C100.2,107.1,100.2,107,100.3,106.8z"/>
			<path class="st1" d="M106.1,105.6C106.2,105.6,106.2,105.7,106.1,105.6c0.1,0.2,0.1,0.3,0.1,0.4c0,0.2,0,0.4,0.1,0.5
				c0.1,0.6,0.2,1.2,0.3,1.7c0.5-0.2,1-0.5,1.5-0.8c0.3-0.2,0.4-0.2,0.5-0.4c0.2,0.2,0.3,0.3,0.4,0.5c0.1,0.1,0.1,0.2-0.1,0.2
				s-0.5,0.2-0.8,0.3c-0.6,0.3-1.4,0.6-1.9,1c-0.9,0.5-1.3,0.9-1.3,1.5c0,0.8,0.7,0.9,2,0.9c0.8,0,1.6-0.1,2.2-0.2
				c0.1,0,0.1,0,0.1,0.1s0,0.3,0.1,0.4c0,0.1,0,0.1-0.1,0.1c-0.7,0.1-1.3,0.1-2.3,0.1c-1.5,0-2.5-0.3-2.5-1.5c0-0.8,0.6-1.5,1.7-2.1
				c-0.2-0.6-0.4-1.5-0.5-2.2c-0.1-0.4-0.1-0.6-0.2-0.8C105.6,105.5,105.9,105.5,106.1,105.6z M108.9,105.6
				C109,105.6,109,105.6,108.9,105.6c0.4,0.2,0.8,0.7,1.1,1v0.1l-0.2,0.2h-0.1c-0.2-0.4-0.6-0.8-1-1.1L108.9,105.6z M109.6,105.1
				C109.7,105,109.7,105,109.6,105.1c0.4,0.3,0.8,0.6,1.1,1v0.1l-0.2,0.2h-0.1c-0.2-0.3-0.6-0.8-1-1.1L109.6,105.1z"/>
			<path class="st1" d="M111.4,110.7C111.4,110.7,111.5,110.7,111.4,110.7c0.1-0.1,0.1,0,0.2,0c0.6,0.4,1.1,0.9,1.6,1.5
				c0,0.1,0,0.1,0,0.1s0,0.1-0.1,0.1l-0.3,0.3l-0.1,0.1c0,0-0.1,0-0.1-0.1c-0.4-0.6-1-1.2-1.6-1.6c0,0-0.1,0-0.1-0.1c0,0,0,0,0-0.1
				L111.4,110.7z"/>
			<path class="st1" d="M120.4,106.7c0.2-0.4,0.3-0.7,0.3-1c0.3,0.1,0.6,0.2,0.7,0.4c0.1,0.1,0.1,0.2,0,0.2
				c-0.1,0.1-0.2,0.2-0.4,0.5c-0.3,0.7-0.7,1.3-1.1,1.9c0.5,0.3,0.9,0.8,1.3,1.2c0.1,0.1,0.1,0.1,0,0.2s-0.2,0.2-0.3,0.3
				c-0.1,0.1-0.1,0.1-0.2,0c-0.4-0.5-0.8-0.9-1.2-1.2c-0.9,1.2-1.9,2.1-3.1,2.8c-0.1,0.1-0.2,0.1-0.2,0c-0.1-0.1-0.3-0.2-0.5-0.3
				c1.4-0.8,2.4-1.7,3.3-2.9c-0.5-0.4-1.1-0.7-1.7-1c0.1-0.2,0.2-0.3,0.3-0.4h0.1c0.5,0.3,1.1,0.6,1.6,1
				C119.8,107.7,120.2,107.2,120.4,106.7z"/>
			<path class="st1" d="M127.6,108.3c0,1-0.2,1.6-0.5,2.3c-0.4,0.7-0.9,1.2-1.5,1.6c-0.1,0.1-0.2,0.1-0.3,0
				c-0.1-0.1-0.3-0.2-0.5-0.3c0.9-0.4,1.3-0.9,1.7-1.6c0.3-0.6,0.4-1.2,0.4-2.1h-1.7c-0.4,0-0.9,0-1.2,0.1c-0.1,0-0.1,0-0.1-0.1
				s0-0.3-0.1-0.5c0.5,0,0.9,0,1.4,0h3.7c0.6,0,1,0,1.6,0c0.1,0,0.1,0,0.1,0.1v0.4c0,0.1,0,0.1-0.1,0.1c-0.5,0-1,0-1.5,0H127.6z
				 M126.2,106.4c-0.4,0-0.8,0-1.2,0c-0.1,0-0.1,0-0.1-0.1s0-0.3,0-0.5c0.5,0,1,0,1.4,0h1.5c0.5,0,1,0,1.4,0c0.1,0,0.1,0,0.1,0.1
				s0,0.2,0,0.3c0,0.1,0,0.1-0.1,0.1c-0.5,0-1,0-1.4,0L126.2,106.4L126.2,106.4z M129.7,105.1L129.7,105.1c0.4,0.3,0.7,0.8,0.9,1.1
				v0.1l-0.3,0.2h-0.1c-0.2-0.4-0.5-0.9-0.9-1.2L129.7,105.1z M130.4,104.6C130.5,104.6,130.5,104.6,130.4,104.6
				c0.4,0.3,0.8,0.7,0.9,1.1v0.1l-0.2,0.2H131c-0.2-0.4-0.5-0.8-0.9-1.2L130.4,104.6z"/>
			<path class="st1" d="M135,111c0,0.4,0,0.8,0,1.2c0,0.1,0,0.1-0.1,0.1s-0.3,0-0.4,0c-0.1,0-0.1,0-0.1-0.1c0-0.4,0-0.8,0-1.2v-2
				c-0.6,0.6-1.3,1.1-2.1,1.5c-0.1,0-0.1,0-0.2,0c-0.1-0.1-0.2-0.2-0.4-0.3c1.4-0.8,2.6-1.7,3.5-2.8c0.1-0.2,0.3-0.4,0.4-0.6
				c0.2,0.1,0.4,0.3,0.5,0.4s0.1,0.2,0,0.2s-0.2,0.2-0.4,0.3c-0.2,0.3-0.6,0.6-0.8,0.9v2.4H135z"/>
		</g>
		<g class="st0">
			<path class="st1" d="M140.2,106.6c-0.7,0-1.2,0-1.6,0.1c-0.1,0-0.1,0-0.1-0.1s-0.1-0.4-0.1-0.6c0.5,0.1,1,0.1,1.8,0.1h3.5
				c0.5,0,0.6,0,0.6-0.1h0.1c0,0,0.1,0,0.1,0.1c0.1,0.1,0.2,0.2,0.3,0.3c0.1,0.1,0.1,0.2,0,0.2s-0.1,0.1-0.2,0.2
				c-0.4,0.6-1,1.2-1.6,1.7c-0.1,0.1-0.2,0.1-0.2,0c-0.1-0.1-0.3-0.2-0.4-0.2c0.7-0.5,1.3-1,1.7-1.7H140.2z M140.8,110.1
				c0.3-0.7,0.4-1.3,0.4-2.1c0-0.3,0-0.5-0.1-0.7c0.2,0,0.5,0.1,0.7,0.1c0.1,0.1,0.1,0.1,0.1,0.2s-0.1,0.2-0.1,0.4
				c0,0.7-0.1,1.6-0.5,2.3c-0.3,0.7-0.9,1.3-1.6,1.7c-0.1,0.1-0.2,0.1-0.3,0s-0.3-0.2-0.5-0.3C139.8,111.3,140.4,110.8,140.8,110.1z
				"/>
			<path class="st1" d="M148.7,112.7h-0.5l3.4-7.9h0.5L148.7,112.7z"/>
		</g>
		<g class="st0">
			<path class="st1" d="M157.8,107c-0.5,0-1,0-1.4,0.1c-0.1,0-0.1,0-0.2-0.1c0-0.1,0-0.4,0-0.5c0.5,0.1,1,0.1,1.6,0.1h3
				c0.2,0,0.3,0,0.4-0.1c0.1,0,0.2,0,0.2,0c0.1,0.1,0.3,0.2,0.4,0.3c0.1,0.1,0.1,0.2,0,0.3c-0.1,0.1-0.1,0.2-0.2,0.3
				c-0.4,1.1-1,2-1.7,2.8s-1.5,1.5-2.5,2.1c-0.1,0.1-0.2,0.1-0.3,0s-0.3-0.2-0.4-0.3c1.3-0.6,2-1.3,2.8-2.1c0.6-0.7,1.2-1.7,1.6-2.7
				h-3.3V107z M163.4,105.6c0,0.5-0.4,0.9-0.9,0.9s-0.9-0.4-0.9-0.9s0.4-0.9,0.9-0.9S163.4,105.1,163.4,105.6z M162,105.6
				c0,0.3,0.2,0.5,0.5,0.5s0.5-0.2,0.5-0.5s-0.2-0.5-0.5-0.5C162.3,105.1,162,105.3,162,105.6z"/>
			<path class="st1" d="M165.9,110.8v0.6c0,0.1,0,0.1-0.1,0.1s-0.3,0-0.4,0c-0.1,0-0.1,0-0.1-0.1c0-0.5,0-1.1,0-1.8v-1.7
				c0-0.5,0-0.9,0-1.4c0-0.1,0-0.1,0.1-0.1c0.4,0,0.9,0,1.4,0h1.9c0.5,0,1.1,0,1.5,0c0.1,0,0.1,0,0.1,0.1c0,0.4,0,0.9,0,1.3v1.7
				c0,0.7,0,1.2,0,1.7c0,0.1,0,0.1-0.1,0.1h-0.4c-0.1,0-0.1,0-0.1-0.1v-0.5h-3.8V110.8z M169.6,107h-3.7v3.3h3.7V107z"/>
			<path class="st1" d="M177.4,106.6c0.3,0,0.4,0,0.5-0.1s0.1-0.1,0.2,0c0.1,0.1,0.3,0.2,0.4,0.3c0.1,0.1,0.1,0.2,0,0.2
				c-0.1,0.1-0.1,0.1-0.2,0.3c-0.4,0.8-0.8,1.6-1.4,2.3c0.3,0.3,0.7,0.6,1,0.9c0.1,0.1,0,0.1,0,0.2c-0.1,0.1-0.2,0.2-0.3,0.3
				c-0.1,0.1-0.1,0-0.1,0c-0.3-0.3-0.6-0.7-1-0.9c-0.9,1-1.8,1.7-3,2.3c-0.1,0.1-0.2,0.1-0.2,0c-0.1-0.1-0.3-0.2-0.5-0.3
				c1.3-0.6,2.3-1.4,3.2-2.4c-0.4-0.3-0.8-0.6-1.3-0.9c0.1-0.1,0.2-0.2,0.3-0.3c0,0,0.1-0.1,0.1,0c0.4,0.2,0.9,0.5,1.3,0.8
				c0.5-0.6,0.9-1.4,1.2-2.1l-2.5,0.1c-0.6,0.8-1,1.3-1.9,2c-0.1,0.1-0.1,0.1-0.2,0c-0.1-0.1-0.2-0.2-0.4-0.2
				c1.2-0.9,1.9-1.8,2.4-2.8c0.2-0.3,0.3-0.6,0.3-0.8c0.2,0.1,0.4,0.2,0.6,0.3c0.1,0.1,0.1,0.2,0,0.2c-0.1,0.1-0.2,0.2-0.2,0.3
				c-0.1,0.2-0.2,0.3-0.3,0.5L177.4,106.6z M178.2,105.3C178.3,105.3,178.3,105.3,178.2,105.3c0.4,0.2,0.8,0.7,1.1,1v0.1l-0.2,0.2
				H179c-0.2-0.4-0.6-0.8-1-1.1L178.2,105.3z M179,104.8C179,104.7,179,104.7,179,104.8c0.4,0.3,0.8,0.6,1.1,1v0.1l-0.2,0.2h-0.1
				c-0.2-0.3-0.6-0.8-1-1.1L179,104.8z"/>
			<path class="st1" d="M185.3,106.6c0.3,0,0.3,0,0.4-0.1c0.1,0,0.1,0,0.2,0c0.1,0.1,0.2,0.2,0.3,0.3c0.1,0.1,0.1,0.2,0,0.3
				c-0.1,0.1-0.2,0.2-0.2,0.3c-0.5,1.1-1.1,2-1.6,2.7c-0.8,0.9-1.7,1.6-2.7,2.2c-0.1,0-0.1,0-0.2,0c-0.1-0.1-0.3-0.2-0.5-0.2
				c1.3-0.7,2-1.3,2.8-2.3c0.6-0.7,1.1-1.5,1.6-2.6l-2.5,0.1c-0.6,0.8-1.1,1.3-1.7,1.8c-0.1,0.1-0.2,0.1-0.3,0s-0.3-0.1-0.4-0.2
				c1.1-0.9,1.7-1.6,2.2-2.5c0.3-0.5,0.4-0.7,0.4-1.1c0.3,0.1,0.5,0.2,0.6,0.3c0.1,0.1,0.1,0.2,0,0.2s-0.2,0.2-0.3,0.3
				c-0.1,0.2-0.2,0.4-0.3,0.5L185.3,106.6z"/>
			<path class="st1" d="M190.6,107.8c1,0.3,1.9,0.7,2.8,1.2c0.1,0,0.1,0.1,0.1,0.1c-0.1,0.2-0.1,0.3-0.2,0.4c-0.1,0.1-0.1,0.1-0.2,0
				c-0.8-0.5-1.7-0.9-2.5-1.1v2c0,0.5,0,1.2,0,1.7c0,0.1,0,0.1-0.1,0.1s-0.3,0-0.4,0c-0.1,0-0.1,0-0.1-0.1c0-0.5,0-1.2,0-1.7v-3.8
				c0-0.6,0-1.1-0.1-1.4c0.3,0,0.6,0.1,0.7,0.1c0.1,0,0.1,0.1,0.1,0.3c-0.1,0.1-0.1,0.4-0.1,0.9V107.8z"/>
			<path class="st1" d="M199.1,106.6c-0.2,1.4-0.6,2.9-1.1,3.7c-0.4,0.6-0.8,0.9-1.3,0.9c-0.6,0-1.2-0.7-1.2-1.9
				c0-0.8,0.4-1.6,1-2.2s1.5-0.9,2.6-0.9c1.9,0,3,1.1,3,2.7c0,1.4-0.9,2.5-2.7,3c-0.1,0-0.2,0-0.2-0.1c-0.1-0.1-0.2-0.2-0.3-0.3
				c1.7-0.3,2.7-1.2,2.7-2.7c0-1.3-1-2.2-2.2-2.2H199.1z M196.9,107.4c-0.6,0.6-0.8,1.3-0.8,1.8c0,0.9,0.4,1.3,0.7,1.3
				s0.5-0.2,0.8-0.6c0.4-0.8,0.9-2.1,1-3.3C197.9,106.7,197.3,107,196.9,107.4z"/>
			<path class="st1" d="M205.4,110.2c0.3-0.1,0.7-0.3,1-0.5c0,0.1,0,0.2,0,0.3c0,0.2,0,0.2-0.1,0.3c-0.5,0.3-1.2,0.5-1.8,0.8
				c-0.2,0.1-0.3,0.1-0.3,0.2s-0.1,0.1-0.1,0.1s-0.1,0-0.1-0.1c-0.1-0.1-0.1-0.3-0.2-0.5c0.2,0,0.5-0.1,0.8-0.2l0.3-0.1v-2.6h-0.2
				c-0.6,0-0.7,0-0.8,0s-0.1,0-0.1-0.1v-0.4c0-0.1,0-0.1,0.1-0.1s0.2,0,0.8,0h0.2v-1c0-0.6,0-0.8-0.1-1.2c0.2,0,0.4,0,0.5,0.1
				c0.1,0,0.1,0,0.1,0.1s0,0.1,0,0.2s-0.1,0.3-0.1,0.9v1h0.1c0.6,0,0.7,0,0.8,0s0.1,0,0.1,0.1v0.4c0,0.1,0,0.1-0.1,0.1s-0.2,0-0.8,0
				h-0.1v2.2H205.4z M211.5,112.1L211.5,112.1c-0.1,0.1-0.4,0.1-1.3,0.1h-3c-0.9,0-1.2,0-1.2,0c-0.1,0-0.1,0-0.1-0.1v-0.4
				c0-0.1,0-0.1,0.1-0.1c0,0,0.3,0,1.2,0h3c0.9,0,1.2,0,1.2,0c0.1,0,0.1,0,0.1,0.1V112.1z M211.3,106
				C211.3,106.1,211.3,106.1,211.3,106c-0.1,0.1-0.4,0.1-1.2,0.1h-2.4c-0.8,0-1.1,0-1.2,0c-0.1,0-0.1,0-0.1-0.1v-0.4
				c0-0.1,0-0.1,0.1-0.1c0,0,0.3,0,1.2,0h2.4c0.8,0,1.1,0,1.2,0c0.1,0,0.1,0,0.1,0.1v0.4H211.3z M210.7,109.7c0,0.6,0,0.9,0,0.9
				c0,0.1,0,0.1-0.1,0.1s-0.3,0-1,0h-1.5c-0.7,0-1,0-1,0c-0.1,0-0.1,0-0.1-0.1c0,0,0-0.3,0-0.9v-1.8c0-0.6,0-0.9,0-0.9
				c0-0.1,0-0.1,0.1-0.1c0,0,0.3,0,1,0h1.5c0.7,0,1,0,1,0c0.1,0,0.1,0,0.1,0.1s0,0.3,0,0.9V109.7z M210.2,107.4h-2.7v1.1h2.7V107.4z
				 M210.2,109h-2.7v1.2h2.7V109z"/>
			<path class="st1" d="M214.6,107.3c0.3,0.8,0.7,1.3,1.1,1.8c-0.1,0.1-0.2,0.2-0.2,0.3c0,0.1,0,0.1-0.1,0.1c0,0,0,0-0.1-0.1
				c-0.3-0.5-0.6-1-0.8-1.7c0,2.6,0.1,4.7,0.1,4.8c0,0.1,0,0.1-0.1,0.1h-0.4c-0.1,0-0.1,0-0.1-0.1s0.1-2.2,0.1-4.6
				c-0.3,1-0.7,2-1.2,2.8c0,0.1-0.1,0.1-0.1,0.1s0,0-0.1-0.1s-0.1-0.2-0.2-0.3c0.6-0.9,1.1-1.9,1.5-3.1h-0.4c-0.6,0-0.8,0-0.8,0
				c-0.1,0-0.1,0-0.1-0.1v-0.3c0-0.1,0-0.1,0.1-0.1c0,0,0.2,0,0.8,0h0.5V106c0-0.5,0-0.8-0.1-1c0.2,0,0.4,0,0.5,0s0.1,0,0.1,0.1
				s0,0.1,0,0.2s0,0.2,0,0.7v0.9h0.2c0.6,0,0.8,0,0.8,0c0.1,0,0.1,0,0.1,0.1v0.3c0,0.1,0,0.1-0.1,0.1s-0.2,0-0.8,0L214.6,107.3
				L214.6,107.3z M217.8,108.8c0.1,0.5,0.3,1,0.6,1.5c0.3-0.2,0.7-0.5,1-0.8c0.2-0.2,0.2-0.3,0.3-0.4c0.2,0.1,0.3,0.2,0.4,0.3
				c0.1,0.1,0.1,0.1,0.1,0.1s0,0.1-0.1,0.1s-0.2,0.1-0.3,0.2c-0.4,0.3-0.7,0.6-1.1,0.8c0.4,0.6,1,1.1,1.8,1.5
				c-0.1,0.1-0.2,0.2-0.3,0.3c-0.1,0.1-0.1,0.1-0.1,0.1s-0.1,0-0.1-0.1c-1.5-0.9-2.3-2.1-2.7-3.7h-0.8v2.9c0.5-0.1,1-0.3,1.5-0.5
				c0,0.1,0,0.2,0,0.3c0,0.2,0,0.2-0.2,0.2c-0.6,0.2-1.2,0.4-2,0.7c-0.2,0.1-0.3,0.1-0.3,0.1l-0.1,0.1c0,0-0.1,0-0.1-0.1
				c-0.1-0.1-0.1-0.3-0.2-0.5c0.2,0,0.4-0.1,0.7-0.1l0.2-0.1v-4.9c0-1,0-1.5,0-1.5c0-0.1,0-0.1,0.1-0.1s0.4,0,1.1,0h1.4
				c0.7,0,1,0,1,0c0.1,0,0.1,0,0.1,0.1c0,0,0,0.3,0,0.9v1.5c0,0.6,0,0.9,0,0.9c0,0.1,0,0.1-0.1,0.1s-0.3,0-1,0L217.8,108.8
				L217.8,108.8z M219.1,105.8h-2.6v1h2.6V105.8z M219.1,107.3h-2.6v1.1h2.6V107.3z"/>
			<path class="st1" d="M225.8,110.8c0,0.1,0,0.1-0.1,0.1s-0.3,0-0.4,0c-0.1,0-0.1,0-0.1-0.1c0-0.4,0-0.8,0-1.2
				c-0.9,0.5-1.4,0.9-1.4,1.4s0.5,0.7,1.5,0.7c0.7,0,1.4-0.1,2-0.2c0,0,0.1,0,0.1,0.1s0.1,0.3,0.1,0.4s0,0.1-0.1,0.1
				c-0.6,0.1-1.3,0.1-2.1,0.1c-1.2,0-2-0.3-2-1.2c0-0.7,0.5-1.3,1.9-2c0-0.6-0.2-0.8-0.7-0.8c-0.4,0-0.9,0.2-1.4,0.7
				c-0.3,0.3-0.5,0.5-0.8,0.8c-0.1,0.1-0.1,0.1-0.1,0c-0.1-0.1-0.2-0.2-0.3-0.3c0-0.1,0-0.1,0-0.1c0.8-0.7,1.5-1.5,2-2.4
				c-0.5,0-1,0-1.6,0c-0.1,0-0.1,0-0.1-0.1s0-0.3-0.1-0.4c0.6,0,1.3,0,2,0c0.1-0.3,0.2-0.5,0.3-0.9c0-0.1,0.1-0.3,0.1-0.5
				c0.2,0,0.5,0.1,0.6,0.2c0.1,0,0.1,0.1,0,0.2c0,0-0.1,0.1-0.2,0.2c-0.1,0.2-0.2,0.4-0.3,0.6c0.6-0.1,1.2-0.2,1.8-0.3
				c0.1,0,0.1,0,0.1,0c0,0.1,0,0.2,0.1,0.4c0,0.1,0,0.1-0.1,0.1c-0.7,0.1-1.4,0.2-2.1,0.3c-0.3,0.5-0.6,0.9-0.9,1.3l0,0
				c0.4-0.3,0.7-0.4,1.1-0.4c0.6,0,1,0.3,1.1,1c0.4-0.2,0.9-0.4,1.3-0.6c0.2-0.1,0.5-0.3,0.6-0.4c0.2,0.2,0.4,0.4,0.4,0.5
				c0.1,0.1,0,0.2-0.1,0.2s-0.3,0.1-0.5,0.1c-0.6,0.3-1.2,0.5-1.8,0.7v1.7H225.8z"/>
		</g>
		<g class="st0">
			<path class="st1" d="M2.9,126.4c0.5,0.3,1.2,0.5,2.5,0.5c1.1,0,2-0.1,3.1-0.2c-0.1,0.1-0.1,0.2-0.2,0.4c0,0.2,0,0.2-0.2,0.2
				c-0.9,0.1-1.7,0.1-2.6,0.1c-1.4,0-2.2-0.2-2.8-0.6c-0.5-0.3-0.8-0.7-1.1-1.2c-0.1,0.6-0.3,1.2-0.6,1.7c0,0.1-0.1,0.1-0.1,0.1
				s-0.1,0-0.1-0.1c-0.1-0.1-0.2-0.2-0.3-0.2c0.5-0.9,0.8-2,0.8-3.2c0-0.1,0-0.2,0-0.4c0.2,0,0.4,0.1,0.5,0.1s0.1,0,0.1,0.1
				s0,0.1,0,0.1s-0.1,0.2-0.1,0.3c0,0.2,0,0.5-0.1,0.7c0.2,0.4,0.4,0.8,0.8,1.1V123H1.8c-0.7,0-1,0-1,0c-0.1,0-0.1,0-0.1-0.1v-0.3
				c0-0.1,0-0.1,0.1-0.1c0,0,0.3,0,1,0h0.6v-1.1H2c-0.7,0-0.9,0-0.9,0c-0.1,0-0.1,0-0.1-0.1v-0.4c0-0.1,0-0.1,0.1-0.1
				c0,0,0.3,0,0.9,0h0.4v-0.2c0-0.6,0-0.8-0.1-1.1c0.2,0,0.4,0,0.5,0.1c0.1,0,0.1,0,0.1,0.1v0.1c0,0.1-0.1,0.3-0.1,0.8v0.2H3
				c0.7,0,0.9,0,0.9,0c0.1,0,0.1,0,0.1,0.1v0.4c0,0.1,0,0.1-0.1,0.1c0,0-0.2,0-0.9,0H2.9v1.1h0.3c0.7,0,1,0,1,0c0.1,0,0.1,0,0.1,0.1
				v0.3c0,0.1,0,0.1-0.1,0.1c0,0-0.3,0-1,0H2.9v1.2h0.6c0.4,0,0.5,0,0.5,0c0.1,0,0.1,0,0.1,0.1v0.4c0,0.1,0,0.1-0.1,0.1
				c0,0-0.1,0-0.5,0H2.9V126.4z M6.8,120.3c0.7,0,1,0,1,0c0.1,0,0.1,0,0.1,0.1s0,0.3,0,0.4c0,0.8-0.1,1.5-0.2,1.9
				c-0.1,0.3-0.3,0.4-0.6,0.5c-0.2,0-0.4,0-0.6,0s-0.2,0-0.2-0.2c0-0.1-0.1-0.3-0.1-0.3c0.3,0.1,0.5,0.1,0.7,0.1s0.3-0.1,0.4-0.2
				c0.1-0.3,0.2-1,0.2-1.6H6.1c-0.1,1.2-0.4,1.9-1.4,2.5c-0.1,0-0.1,0.1-0.1,0.1s-0.1,0-0.1-0.1c-0.1-0.1-0.2-0.2-0.3-0.3
				c0.9-0.5,1.4-1.1,1.4-2.2H5.4c-0.7,0-1,0-1,0c-0.1,0-0.1,0-0.1-0.1v-0.3c0-0.1,0-0.1,0.1-0.1c0,0,0.3,0,1,0h1.4V120.3z
				 M7.7,125.4c0,0.5,0,0.7,0,0.7c0,0.1,0,0.1-0.1,0.1s-0.3,0-0.9,0H5.6c-0.7,0-0.9,0-0.9,0c-0.1,0-0.1,0-0.1-0.1c0,0,0-0.2,0-0.7
				v-0.9c0-0.5,0-0.7,0-0.7c0-0.1,0-0.1,0.1-0.1c0,0,0.3,0,0.9,0h1.1c0.7,0,0.9,0,0.9,0c0.1,0,0.1,0,0.1,0.1c0,0,0,0.2,0,0.7V125.4z
				 M7.3,124.1H5.1v1.6h2.1v-1.6H7.3z"/>
			<path class="st1" d="M12.1,122.5c0.7-0.1,1.2-0.2,1.6-0.3c0.1,0,0.2-0.1,0.3-0.1h0.1h0.1c0.1,0.1,0.2,0.2,0.3,0.3l0.1,0.1
				c0,0.1,0,0.1-0.1,0.1c-0.1,0.1-0.2,0.1-0.3,0.2c-0.6,0.6-1.2,1.2-1.8,1.9c0.2-0.1,0.3-0.1,0.5-0.1c0.4,0,0.8,0.3,0.9,0.9
				c0.2,0.8,0.3,0.9,1.2,0.9c0.4,0,0.8-0.1,1.3-0.1c0.1,0,0.1,0,0.1,0.1s0,0.3,0,0.4s0,0.1-0.1,0.1c-0.4,0.1-0.8,0.1-1.2,0.1
				c-1.2,0-1.6-0.3-1.8-1.1c-0.1-0.6-0.3-0.9-0.7-0.9c-0.3,0-0.6,0.2-1,0.5c-0.4,0.4-0.9,1-1.3,1.5h-0.1c-0.1-0.1-0.2-0.2-0.3-0.3
				c0,0,0-0.1,0-0.2c0.6-0.6,1.2-1.3,1.6-1.7c0.5-0.6,1.2-1.3,2-2.2c-0.9,0.2-1.6,0.3-2.4,0.5c-0.2,0-0.3,0.1-0.3,0.1
				c-0.1,0-0.1,0-0.2,0c0,0-0.1,0-0.1-0.1c-0.1-0.1-0.2-0.3-0.2-0.6C10.9,122.7,11.3,122.6,12.1,122.5z M14.2,120.8
				c0.1,0,0.1,0,0.1,0.1s-0.1,0.3-0.1,0.4l-0.1,0.1c-0.7-0.2-1.6-0.4-2.2-0.7l-0.1-0.1c0-0.1,0.1-0.3,0.2-0.5
				C12.7,120.4,13.4,120.6,14.2,120.8z"/>
			<path class="st1" d="M21.6,121.6c-1.3,0.2-2.4,0.4-3.5,0.6c-0.3,0.1-0.4,0.1-0.5,0.1s-0.1,0.1-0.2,0.1s-0.1,0-0.1-0.1
				c-0.1-0.2-0.2-0.4-0.2-0.6c0.3,0,0.5,0,1.1-0.1c1.3-0.2,3-0.5,5.3-0.7c0.1,0,0.1,0,0.1,0.1s0.1,0.3,0.1,0.4s0,0.1-0.1,0.1
				c-0.5,0-0.8,0.1-1.2,0.3c-1.2,0.5-2.2,1.5-2.2,2.7c0,1.4,1.2,1.8,2.5,1.9c0.1,0,0.1,0,0.1,0.1s0,0.3-0.1,0.4c0,0.1,0,0.1-0.1,0.1
				c-1.4-0.1-3-0.7-3-2.5C19.6,123.3,20.3,122.3,21.6,121.6L21.6,121.6z"/>
			<path class="st1" d="M29.7,123.1C29.7,123.1,29.7,123.2,29.7,123.1c-0.1,0.1-0.4,0.1-1.2,0.1h-0.7v0.9h0.5c0.8,0,1,0,1,0
				c0.1,0,0.1,0,0.1,0.1c0,0,0,0.3,0,0.8v0.3c0,0.5,0,0.7,0,0.9c0,0.2,0,0.4-0.2,0.5c-0.1,0.1-0.3,0.1-0.7,0.1c-0.2,0-0.2,0-0.2-0.2
				c0-0.1-0.1-0.2-0.1-0.3c0.2,0,0.3,0,0.5,0s0.2-0.1,0.2-0.3v-1.6h-1.1v1.4c0,1.1,0,1.5,0,1.6s0,0.1-0.1,0.1h-0.4
				c-0.1,0-0.1,0-0.1-0.1c0,0,0-0.5,0-1.6v-1.4h-1.1v1.4c0,0.6,0,0.8,0,0.9s0,0.1-0.1,0.1h-0.4c-0.1,0-0.1,0-0.1-0.1s0-0.3,0-0.9v-1
				c0-0.6,0-0.7,0-0.8c0-0.1,0-0.1,0.1-0.1s0.3,0,1,0h0.5V123h-0.9c-0.8,0-1.1,0-1.1,0c-0.1,0-0.1,0-0.1-0.1v-0.3
				c0-0.1,0-0.1,0.1-0.1c0,0,0.3,0,1.1,0h0.9v-1h-1c-0.1,0.2-0.2,0.5-0.4,0.7c0,0.1-0.1,0.1-0.1,0.1s-0.1,0-0.1-0.1
				c-0.1-0.1-0.2-0.1-0.3-0.1c0.4-0.5,0.7-1.1,0.8-1.6c0-0.1,0-0.2,0-0.3c0.2,0,0.3,0.1,0.5,0.1c0.1,0,0.1,0,0.1,0.1s0,0.1-0.1,0.1
				c0,0.1-0.1,0.1-0.1,0.2s-0.1,0.3-0.1,0.4h0.9v-0.5c0-0.3,0-0.5-0.1-0.8c0.2,0,0.4,0,0.6,0.1c0.1,0,0.1,0,0.1,0.1s0,0.1,0,0.1
				c0,0.1-0.1,0.2-0.1,0.5v0.5h0.5c0.7,0,0.9,0,0.9,0c0.1,0,0.1,0,0.1,0.1v0.3c0,0.1,0,0.1-0.1,0.1c0,0-0.3,0-0.9,0h-0.5v1h0.7
				c0.8,0,1.1,0,1.1,0c0.1,0,0.1,0,0.1,0.1v0.4H29.7z M30.2,121.8c0-0.6,0-0.9-0.1-1.2c0.2,0,0.4,0,0.5,0s0.1,0,0.1,0.1
				s0,0.1-0.1,0.1c0,0.1,0,0.3,0,0.9v2.3c0,0.7,0,1,0,1.1s0,0.1-0.1,0.1h-0.4c-0.1,0-0.1,0-0.1-0.1s0-0.4,0-1.1v-2.2H30.2z
				 M31.9,121.1c0-0.5,0-0.8-0.1-1c0.2,0,0.4,0,0.6,0.1c0.1,0,0.1,0,0.1,0.1s0,0.1-0.1,0.2c0,0.1,0,0.3,0,0.7v4.2c0,0.5,0,1,0,1.3
				c0,0.4-0.1,0.6-0.2,0.7c-0.2,0.1-0.4,0.2-1.1,0.2c-0.2,0-0.2,0-0.2-0.2s-0.1-0.3-0.2-0.4c0.3,0,0.5,0.1,0.8,0.1s0.4-0.1,0.4-0.4
				C31.9,126.7,31.9,121.1,31.9,121.1z"/>
			<path class="st1" d="M35.3,123.9c0-0.3,0-0.8,0-1.3c-0.3,0.4-0.6,0.8-0.9,1.2c-0.1,0.1-0.1,0.1-0.1,0.1s-0.1,0-0.1-0.1
				c-0.1-0.2-0.2-0.3-0.2-0.3c1-1,1.6-2.1,1.9-3.1c0.1-0.2,0.1-0.4,0.1-0.6c0.2,0.1,0.4,0.1,0.5,0.2c0.1,0,0.1,0.1,0.1,0.1
				s0,0.1-0.1,0.1s-0.1,0.1-0.2,0.3c-0.2,0.4-0.4,0.9-0.6,1.3v4.3c0,0.9,0,1.3,0,1.3c0,0.1,0,0.1-0.1,0.1h-0.4c-0.1,0-0.1,0-0.1-0.1
				c0,0,0-0.4,0-1.3v-2.2H35.3z M41.6,121.9L41.6,121.9c-0.1,0.1-0.4,0.1-1.2,0.1H39v1.3h1.3c0.6,0,0.8,0,0.8,0c0.1,0,0.1,0,0.1,0.1
				v0.4c0,0.1,0,0.1-0.1,0.1c0,0-0.2,0-0.8,0H39v1.3h1.3c0.6,0,0.8,0,0.9,0c0.1,0,0.1,0,0.1,0.1v0.4c0,0.1,0,0.1-0.1,0.1
				s-0.2,0-0.9,0H39v0.7c0,0.9,0,1.3,0,1.3c0,0.1,0,0.1-0.1,0.1h-0.4c-0.1,0-0.1,0-0.1-0.1s0-0.4,0-1.3v-4.2h-0.7
				c-0.3,0.6-0.7,1.2-1.1,1.6c-0.1,0.1-0.1,0.1-0.1,0.1s-0.1,0-0.1-0.1c-0.1-0.1-0.2-0.2-0.3-0.2c0.7-0.8,1.4-2.1,1.6-2.8
				c0.1-0.2,0.1-0.4,0.1-0.6c0.2,0.1,0.4,0.1,0.5,0.2c0.1,0,0.1,0.1,0.1,0.1c0,0.1,0,0.1-0.1,0.1s-0.1,0.2-0.2,0.3
				c-0.1,0.3-0.2,0.6-0.4,0.9h2.5c0.8,0,1,0,1.1,0s0.1,0,0.1,0.1v-0.1H41.6z"/>
			<path class="st1" d="M43.2,122.2C43.3,122.1,43.3,122.1,43.2,122.2c0.5,0.2,0.9,0.6,1.3,0.9v0.1l-0.2,0.2c-0.1,0.1-0.1,0.1-0.1,0
				c-0.4-0.4-0.8-0.7-1.2-1c-0.1,0-0.1-0.1,0-0.1L43.2,122.2z M43.9,127c-0.1,0.2-0.2,0.3-0.2,0.4s-0.1,0.1-0.1,0.1s-0.1,0-0.1-0.1
				c-0.1-0.1-0.2-0.2-0.4-0.3c0.2-0.2,0.3-0.4,0.5-0.7c0.2-0.4,0.5-1,0.9-1.9c0.1,0.1,0.2,0.2,0.2,0.3c0.1,0.1,0.1,0.1,0.1,0.1v0.1
				C44.5,125.7,44.2,126.4,43.9,127z M43.7,120.1C43.8,120,43.8,120,43.7,120.1c0.5,0.3,0.9,0.6,1.2,0.9c0,0.1,0,0.1,0,0.1l-0.2,0.2
				c-0.1,0.1-0.1,0.1-0.1,0c-0.3-0.4-0.8-0.7-1.1-1c-0.1,0-0.1-0.1,0-0.1L43.7,120.1z M50.5,123L50.5,123c-0.1,0.1-0.4,0.1-1.3,0.1
				H48v1.4h0.7c0.8,0,1.1,0,1.1,0c0.1,0,0.1,0,0.1,0.1c0,0,0,0.2,0,0.8v0.7c0,1.2,0,1.4,0,1.4c0,0.1,0,0.1-0.1,0.1h-0.4
				c-0.1,0-0.1,0-0.1-0.1v-0.4h-3.1v0.4c0,0.1,0,0.1-0.1,0.1h-0.4c-0.1,0-0.1,0-0.1-0.1c0,0,0-0.2,0-1.4v-0.6c0-0.6,0-0.9,0-0.9
				c0-0.1,0-0.1,0.1-0.1c0,0,0.3,0,1.1,0h0.6V123h-1.2c-0.9,0-1.2,0-1.2,0c-0.1,0-0.1,0-0.1-0.1v-0.4c0-0.1,0-0.1,0.1-0.1
				c0,0,0.3,0,1.2,0h1.2V121c-0.6,0.1-1.1,0.2-1.7,0.3c-0.2,0-0.2,0-0.2-0.1s-0.1-0.2-0.2-0.3c1.4-0.2,3-0.5,3.8-0.8
				c0.2-0.1,0.3-0.1,0.4-0.2c0.1,0.1,0.3,0.2,0.4,0.3c0.1,0.1,0.1,0.1,0.1,0.1s0,0.1-0.1,0.1s-0.2,0-0.3,0.1c-0.5,0.2-1,0.3-1.6,0.5
				v1.5h1.3c0.9,0,1.2,0,1.2,0s0.1,0,0.1,0.1L50.5,123L50.5,123z M49.4,124.9h-3.1v1.7h3.1V124.9z"/>
			<path class="st1" d="M55.9,121.8C55.9,121.9,55.9,121.9,55.9,121.8c-0.1,0.1-0.4,0.1-1.1,0.1h-0.6v0.5h0.5c0.7,0,1,0,1,0
				c0.1,0,0.1,0,0.1,0.1c0,0,0,0.2,0,0.7v0.8c0,0.5,0,0.7,0,0.7c0,0.1,0,0.1-0.1,0.1s-0.2,0-1,0h-0.5v0.5h0.5c0.8,0,1,0,1,0
				c0.1,0,0.1,0,0.1,0.1v0.3c0,0.1,0,0.1-0.1,0.1s-0.3,0-1,0h-0.5v0.6c0.5-0.1,1.1-0.2,1.6-0.3c0,0.1-0.1,0.2-0.1,0.3
				c0,0.2,0,0.2-0.2,0.2c-1,0.2-2,0.3-3,0.5c-0.2,0-0.3,0.1-0.3,0.1h-0.1c0,0-0.1,0-0.1-0.1s-0.1-0.3-0.1-0.5c0.3,0,0.5,0,0.9,0
				c0.3,0,0.7-0.1,1-0.1v-0.7h-0.6c-0.8,0-1,0-1,0c-0.1,0-0.1,0-0.1-0.1v-0.3c0-0.1,0-0.1,0.1-0.1s0.3,0,1,0h0.6v-0.5h-0.4
				c-0.7,0-1,0-1,0c-0.1,0-0.1,0-0.1-0.1s0-0.2,0-0.7v-0.8c0-0.5,0-0.7,0-0.7c0-0.1,0-0.1,0.1-0.1s0.3,0,1,0h0.4v-0.5H53
				c-0.8,0-1,0-1.1,0s-0.1,0-0.1-0.1v-0.3c0-0.1,0-0.1,0.1-0.1c0,0,0.3,0,1.1,0h0.7v-0.6c-0.4,0.1-0.8,0.1-1.3,0.2
				c-0.2,0-0.2,0-0.2-0.1c-0.1-0.1-0.1-0.2-0.2-0.3c1.2-0.1,2.1-0.2,2.9-0.4c0.2,0,0.3-0.1,0.4-0.2c0.1,0.1,0.2,0.2,0.3,0.3
				c0.1,0.1,0.1,0.1,0.1,0.1c0,0.1-0.1,0.1-0.1,0.1s-0.2,0-0.3,0.1c-0.4,0.1-0.7,0.2-1.1,0.2v0.6h0.6c0.8,0,1,0,1.1,0s0.1,0,0.1,0.1
				L55.9,121.8L55.9,121.8z M53.7,122.8h-1v0.6h1V122.8z M53.7,123.7h-1v0.6h1V123.7z M55.2,122.8h-1.1v0.6h1.1V122.8z M55.2,123.7
				h-1.1v0.6h1.1V123.7z M58.1,121.9c0.7,0,0.9,0,0.9,0c0.1,0,0.1,0,0.1,0.1c0,0.3,0,0.5,0,0.8c0,1.4-0.1,2.7-0.2,3.8
				c-0.1,0.6-0.4,0.9-0.9,0.9c-0.2,0-0.4,0-0.6,0c-0.1,0-0.1-0.1-0.2-0.1c0-0.2-0.1-0.3-0.1-0.4c0.3,0.1,0.5,0.1,0.8,0.1
				s0.4-0.2,0.5-0.6c0.2-0.9,0.2-2.4,0.2-3.9h-1c0,0.9-0.1,1.7-0.3,2.4c-0.3,1.1-0.7,1.9-1.6,2.6c-0.1,0.1-0.1,0.1-0.1,0.1
				s-0.1,0-0.1-0.1c-0.1-0.1-0.2-0.2-0.3-0.2c1-0.6,1.4-1.5,1.7-2.6c0.2-0.6,0.2-1.4,0.3-2.2H57c-0.7,0-0.9,0-0.9,0
				c-0.1,0-0.1,0-0.1-0.1v-0.4c0-0.1,0-0.1,0.1-0.1c0,0,0.2,0,0.9,0h0.1c0-0.3,0-0.6,0-1c0-0.5,0-0.7-0.1-1c0.2,0,0.4,0,0.6,0.1
				c0.1,0,0.1,0,0.1,0.1s0,0.1,0,0.2s-0.1,0.3-0.1,0.8c0,0.3,0,0.6,0,0.9h0.5V121.9z"/>
			<path class="st1" d="M62.5,120.4C62.6,120.4,62.6,120.5,62.5,120.4c0.1,0.2,0.1,0.2,0,0.3c0,0.1-0.1,0.4-0.1,0.9
				c-0.1,1.3-0.1,2.5-0.1,3.6c0,1,0.3,1.2,1,1.2c1.1,0,2.2-0.7,3.1-1.6c0,0.2,0.1,0.4,0.1,0.5s0,0.1,0,0.1c0,0.1,0,0.1-0.1,0.2
				c-0.9,0.9-2,1.4-3.2,1.4c-1,0-1.5-0.5-1.5-1.7s0.1-2.6,0.1-3.8c0-0.5,0-0.9-0.1-1.3C62,120.3,62.3,120.4,62.5,120.4z"/>
			<path class="st1" d="M71.5,121.6c-1.3,0.2-2.4,0.4-3.5,0.6c-0.3,0.1-0.4,0.1-0.5,0.1s-0.1,0.1-0.2,0.1s-0.1,0-0.1-0.1
				c-0.1-0.2-0.2-0.4-0.2-0.6c0.3,0,0.5,0,1.1-0.1c1.3-0.2,3-0.5,5.3-0.7c0.1,0,0.1,0,0.1,0.1s0.1,0.3,0.1,0.4s0,0.1-0.1,0.1
				c-0.5,0-0.8,0.1-1.2,0.3c-1.2,0.5-2.2,1.5-2.2,2.7c0,1.4,1.2,1.8,2.5,1.9c0.1,0,0.1,0,0.1,0.1s0,0.3-0.1,0.4c0,0.1,0,0.1-0.1,0.1
				c-1.4-0.1-3-0.7-3-2.5C69.4,123.3,70.2,122.3,71.5,121.6L71.5,121.6z"/>
			<path class="st1" d="M76.5,121.3L76.5,121.3c0.1,0.1,0.1,0.2,0,0.2c0,0.1-0.1,0.3-0.1,0.8s0,1.1,0.1,1.9c0.1,1,0.5,1.7,0.9,1.7
				c0.3,0,0.7-0.5,0.9-1.3c0.1,0.2,0.2,0.3,0.3,0.4c0.1,0.1,0.1,0.1,0.1,0.2c-0.2,0.7-0.7,1.3-1.3,1.3c-0.7,0-1.3-1-1.4-2.3
				c-0.1-0.9-0.2-1.8-0.2-2.4c0-0.3,0-0.5-0.1-0.8C76,121.1,76.3,121.2,76.5,121.3z M80.5,121.9C80.6,121.9,80.6,121.9,80.5,121.9
				c1,0.8,1.5,1.8,1.8,3c0,0.1,0,0.1-0.1,0.1c-0.1,0.1-0.2,0.1-0.4,0.2c-0.1,0-0.1,0-0.1-0.1c-0.2-1.3-0.8-2.2-1.6-3
				C80.3,122.1,80.4,122,80.5,121.9z"/>
			<path class="st1" d="M86,123.7c0.6-0.4,1.2-0.6,1.8-0.6c1.2,0,2,0.8,2,1.9c0,1.3-1,2.2-2.8,2.2c-1,0-1.5-0.5-1.5-1
				c0-0.4,0.4-0.9,1-0.9c0.8,0,1.3,0.5,1.5,1.2c0.7-0.2,1.2-0.7,1.2-1.6s-0.7-1.4-1.5-1.4s-1.7,0.4-2.3,1c-0.3,0.2-0.5,0.4-0.8,0.7
				c-0.1,0.1-0.1,0.1-0.2,0s-0.2-0.2-0.3-0.3v-0.1c0.7-0.6,1.1-1,1.9-1.9c0.5-0.5,1-1.1,1.7-1.9c-0.7,0.1-1.4,0.2-2.1,0.4
				c-0.1,0-0.2,0-0.3,0.1c-0.1,0-0.1,0-0.2,0s-0.1,0-0.1-0.1c-0.1-0.2-0.1-0.3-0.2-0.6c0.3,0,0.5,0,0.8,0c0.7-0.1,1.4-0.2,2.1-0.3
				c0.1,0,0.2,0,0.3-0.1l0.1-0.1c0,0,0.1,0,0.2,0.1c0.2,0.1,0.3,0.3,0.4,0.4c0,0.1,0.1,0.1,0.1,0.1c0,0.1,0,0.1-0.1,0.2
				c-0.1,0-0.2,0.1-0.4,0.3C87.4,122.2,86.8,122.8,86,123.7L86,123.7z M86.5,125.8c-0.3,0-0.5,0.1-0.5,0.4s0.3,0.5,0.9,0.5
				c0.2,0,0.4,0,0.6,0C87.3,126.2,87,125.8,86.5,125.8z"/>
		</g>
		<g class="st0">
			<path class="st1" d="M100.6,126.5c0,0.7-0.5,1.2-1.2,1.2s-1.2-0.5-1.2-1.2s0.5-1.2,1.2-1.2C100,125.3,100.6,125.8,100.6,126.5z
				 M98.6,126.5c0,0.4,0.3,0.8,0.8,0.8c0.4,0,0.8-0.3,0.8-0.8s-0.3-0.8-0.8-0.8S98.6,126.1,98.6,126.5z"/>
		</g>
		<g class="st0">
			<path class="st1" d="M6.1,148.2h-1l-0.8-3.6c-0.2-0.7-0.3-1.3-0.4-2.1h0c-0.1,0.7-0.2,1.3-0.4,2l-0.8,3.6h-1L0.3,142h0.8l0.7,3.5
				c0.1,0.7,0.2,1.4,0.3,2.1h0.1c0.1-0.7,0.2-1.4,0.4-2l0.8-3.5h1l0.8,3.6c0.1,0.7,0.2,1.2,0.4,2h0.1c0.1-0.8,0.2-1.3,0.4-2l0.8-3.6
				h0.7L6.1,148.2z"/>
			<path class="st1" d="M9.2,146.2c0,1.1,0.5,1.7,1.3,1.7c0.6,0,0.9-0.3,1.1-0.9l0.6,0.2c-0.3,0.8-0.8,1.2-1.8,1.2
				c-1.2,0-1.9-0.9-1.9-2.3c0-1.4,0.8-2.3,1.9-2.3s1.8,0.8,1.8,2.2v0.2L9.2,146.2L9.2,146.2z M11.5,145.7c-0.1-0.9-0.5-1.4-1.2-1.4
				s-1.1,0.5-1.2,1.4H11.5z"/>
			<path class="st1" d="M19.2,145.3c-0.1-0.6-0.5-0.9-1-0.9c-0.7,0-1.2,0.6-1.2,1.7c0,1.1,0.5,1.7,1.2,1.7c0.6,0,0.9-0.3,1-1
				l0.7,0.2c-0.2,0.8-0.8,1.3-1.7,1.3c-1.2,0-1.9-0.9-1.9-2.3s0.8-2.3,1.9-2.3c0.8,0,1.4,0.4,1.7,1.3L19.2,145.3z"/>
			<path class="st1" d="M23.4,144.5c-0.5,0-1.1,0.4-1.3,1.3v2.5h-0.7v-4.4H22v1.1c0.3-0.8,0.8-1.2,1.4-1.2V144.5z"/>
			<path class="st1" d="M25.2,146.2c0,1.1,0.5,1.7,1.3,1.7c0.6,0,0.9-0.3,1.1-0.9l0.6,0.2c-0.3,0.8-0.8,1.2-1.8,1.2
				c-1.2,0-1.9-0.9-1.9-2.3c0-1.4,0.8-2.3,1.9-2.3s1.8,0.8,1.8,2.2v0.2L25.2,146.2L25.2,146.2z M27.6,145.7
				c-0.1-0.9-0.5-1.4-1.2-1.4s-1.1,0.5-1.2,1.4H27.6z"/>
			<path class="st1" d="M29.8,144.9c0.2-0.8,0.9-1.1,1.7-1.1c1,0,1.6,0.5,1.6,1.5v1.6c0,0.6,0,1.1,0.1,1.4h-0.6
				c0-0.2-0.1-0.4-0.1-0.7c-0.4,0.5-0.9,0.8-1.5,0.8c-0.8,0-1.3-0.5-1.3-1.3c0-0.7,0.4-1.3,1.4-1.4c0.4-0.1,0.9-0.1,1.4-0.1v-0.2
				c0-0.7-0.3-1-0.9-1c-0.5,0-0.9,0.3-1.1,0.8L29.8,144.9z M32.4,146c-0.5,0-0.9,0.1-1.2,0.1c-0.6,0.1-0.9,0.4-0.9,0.9
				s0.3,0.8,0.8,0.8s0.9-0.3,1.3-0.9V146z"/>
			<path class="st1" d="M35.9,143.9h1v0.5h-1v2.7c0,0.5,0.2,0.7,0.6,0.7c0.2,0,0.3,0,0.5-0.1v0.5c-0.2,0-0.4,0-0.7,0
				c-0.7,0-1.1-0.4-1.1-1.1v-2.8h-0.7v-0.5h0.7v-1.4l0.7-0.2V143.9z"/>
			<path class="st1" d="M38.7,146.2c0,1.1,0.5,1.7,1.3,1.7c0.6,0,0.9-0.3,1.1-0.9l0.6,0.2c-0.3,0.8-0.8,1.2-1.8,1.2
				c-1.2,0-1.9-0.9-1.9-2.3c0-1.4,0.8-2.3,1.9-2.3c1.1,0,1.8,0.8,1.8,2.2v0.2L38.7,146.2L38.7,146.2z M41.1,145.7
				c-0.1-0.9-0.5-1.4-1.2-1.4s-1.1,0.5-1.2,1.4H41.1z"/>
			<path class="st1" d="M47.1,143.9h1v0.5h-1v2.7c0,0.5,0.2,0.7,0.6,0.7c0.2,0,0.3,0,0.5-0.1v0.5c-0.2,0-0.4,0-0.7,0
				c-0.7,0-1.1-0.4-1.1-1.1v-2.8h-0.7v-0.5h0.7v-1.4l0.7-0.2V143.9z"/>
			<path class="st1" d="M50.2,144.7c0.4-0.5,0.9-0.9,1.5-0.9c0.7,0,1.2,0.5,1.2,1.3v3.2h-0.7v-3c0-0.6-0.3-0.9-0.7-0.9
				s-0.9,0.3-1.3,0.9v3h-0.7v-6.4h0.7V144.7z"/>
			<path class="st1" d="M55.2,146.2c0,1.1,0.5,1.7,1.3,1.7c0.6,0,0.9-0.3,1.1-0.9l0.6,0.2c-0.3,0.8-0.8,1.2-1.8,1.2
				c-1.2,0-1.9-0.9-1.9-2.3c0-1.4,0.8-2.3,1.9-2.3c1.1,0,1.8,0.8,1.8,2.2v0.2L55.2,146.2L55.2,146.2z M57.6,145.7
				c-0.1-0.9-0.5-1.4-1.2-1.4s-1.1,0.5-1.2,1.4H57.6z"/>
			<path class="st1" d="M63.3,144.5c0.3-0.5,0.8-0.8,1.3-0.8c1,0,1.7,0.8,1.7,2.3c0,1.4-0.8,2.3-1.7,2.3c-0.6,0-1-0.3-1.3-0.8
				l-0.1,0.7h-0.5v-6.4h0.7v2.7H63.3z M63.3,147c0.3,0.6,0.6,0.8,1.1,0.8c0.6,0,1.2-0.6,1.2-1.7c0-1.1-0.5-1.7-1.1-1.7
				c-0.4,0-0.8,0.3-1.1,0.8v1.8H63.3z"/>
			<path class="st1" d="M71.4,146.1c0,1.4-0.8,2.3-1.9,2.3s-1.9-0.9-1.9-2.3c0-1.4,0.8-2.3,1.9-2.3S71.4,144.6,71.4,146.1z
				 M68.3,146.1c0,1.1,0.4,1.7,1.2,1.7s1.2-0.6,1.2-1.7c0-1.1-0.4-1.7-1.2-1.7C68.8,144.3,68.3,144.9,68.3,146.1z"/>
			<path class="st1" d="M76.4,148.2h-0.7v-0.8c-0.3,0.6-0.9,0.9-1.5,0.9c-0.7,0-1.2-0.4-1.2-1.2v-3.2h0.7v3c0,0.6,0.3,0.8,0.8,0.8
				c0.4,0,1-0.4,1.3-0.9v-3h0.7v4.4H76.4z"/>
			<path class="st1" d="M79,144.7c0.4-0.5,1-0.9,1.5-0.9c0.7,0,1.2,0.5,1.2,1.2v3.2H81v-3c0-0.6-0.3-0.9-0.7-0.9
				c-0.4,0-0.9,0.3-1.3,0.9v3h-0.7v-4.4H79V144.7z"/>
			<path class="st1" d="M87,148.2h-0.7v-0.6c-0.3,0.5-0.7,0.8-1.3,0.8c-1,0-1.7-0.9-1.7-2.3c0-1.5,0.7-2.3,1.7-2.3
				c0.5,0,1,0.3,1.3,0.7v-2.7H87V148.2z M86.3,145.2c-0.3-0.6-0.7-0.8-1.1-0.8c-0.6,0-1.1,0.6-1.1,1.7c0,1.1,0.5,1.7,1.2,1.7
				c0.4,0,0.8-0.3,1.1-0.8L86.3,145.2L86.3,145.2z"/>
			<path class="st1" d="M88.7,144.9c0.2-0.8,0.9-1.1,1.7-1.1c1,0,1.6,0.5,1.6,1.5v1.6c0,0.6,0,1.1,0.1,1.4h-0.6
				c0-0.2-0.1-0.4-0.1-0.7c-0.4,0.5-0.9,0.8-1.5,0.8c-0.8,0-1.3-0.5-1.3-1.3c0-0.7,0.4-1.3,1.4-1.4c0.4-0.1,0.9-0.1,1.4-0.1v-0.2
				c0-0.7-0.3-1-0.9-1c-0.5,0-0.9,0.3-1.1,0.8L88.7,144.9z M91.4,146c-0.5,0-0.9,0.1-1.2,0.1c-0.6,0.1-0.9,0.4-0.9,0.9
				s0.3,0.8,0.8,0.8s0.9-0.3,1.3-0.9C91.4,146.9,91.4,146,91.4,146z"/>
			<path class="st1" d="M96,144.5c-0.5,0-1.1,0.4-1.3,1.3v2.5H94v-4.4h0.7v1.1c0.3-0.8,0.8-1.2,1.4-1.2L96,144.5z"/>
			<path class="st1" d="M98.2,143h-0.9v-0.8h0.9V143z M98.1,148.2h-0.7v-4.4h0.7V148.2z"/>
			<path class="st1" d="M100.4,146.2c0,1.1,0.5,1.7,1.3,1.7c0.6,0,0.9-0.3,1.1-0.9l0.6,0.2c-0.3,0.8-0.8,1.2-1.8,1.2
				c-1.2,0-1.9-0.9-1.9-2.3c0-1.4,0.8-2.3,1.9-2.3s1.8,0.8,1.8,2.2v0.2L100.4,146.2L100.4,146.2z M102.8,145.7
				c-0.1-0.9-0.5-1.4-1.2-1.4s-1.1,0.5-1.2,1.4H102.8z"/>
			<path class="st1" d="M107.3,145c-0.1-0.5-0.5-0.8-0.9-0.8c-0.6,0-0.9,0.3-0.9,0.6c0,0.4,0.2,0.6,0.9,0.8l0.3,0.1
				c1,0.2,1.4,0.6,1.4,1.3s-0.5,1.3-1.7,1.3c-0.9,0-1.5-0.3-1.7-1.1l0.7-0.2c0.2,0.6,0.6,0.8,1.1,0.8c0.7,0,1-0.3,1-0.7
				c0-0.5-0.2-0.6-1-0.8l-0.3-0.1c-1-0.2-1.3-0.6-1.3-1.3s0.5-1.2,1.5-1.2c0.8,0,1.4,0.4,1.6,1L107.3,145z"/>
			<path class="st1" d="M116,146.1c0,1.4-0.8,2.3-1.9,2.3s-1.9-0.9-1.9-2.3c0-1.4,0.8-2.3,1.9-2.3S116,144.6,116,146.1z
				 M112.9,146.1c0,1.1,0.4,1.7,1.2,1.7s1.2-0.6,1.2-1.7c0-1.1-0.4-1.7-1.2-1.7C113.4,144.3,112.9,144.9,112.9,146.1z"/>
			<path class="st1" d="M119.6,142.4c-0.1,0-0.3,0-0.4,0c-0.4,0-0.6,0.2-0.6,0.7v0.8h1v0.5h-1v3.8h-0.7v-3.8h-0.8v-0.5h0.8V143
				c0-0.8,0.4-1.2,1.2-1.2c0.2,0,0.4,0,0.6,0L119.6,142.4z"/>
			<path class="st1" d="M124.3,144.7c0.4-0.6,0.9-0.9,1.4-0.9c0.6,0,1,0.4,1.1,0.9c0.4-0.5,0.9-0.9,1.5-0.9c0.7,0,1.2,0.5,1.2,1.2
				v3.2h-0.7v-3c0-0.6-0.3-0.9-0.7-0.9c-0.4,0-0.9,0.3-1.2,0.9v3h-0.7v-3c0-0.6-0.3-0.9-0.7-0.9c-0.4,0-0.9,0.3-1.2,0.9v3h-0.7v-4.4
				h0.7L124.3,144.7L124.3,144.7z"/>
			<path class="st1" d="M131.7,146.2c0,1.1,0.5,1.7,1.3,1.7c0.6,0,0.9-0.3,1.1-0.9l0.6,0.2c-0.3,0.8-0.8,1.2-1.8,1.2
				c-1.2,0-1.9-0.9-1.9-2.3c0-1.4,0.8-2.3,1.9-2.3c1.1,0,1.8,0.8,1.8,2.2v0.2L131.7,146.2L131.7,146.2z M134.1,145.7
				c-0.1-0.9-0.5-1.4-1.2-1.4s-1.1,0.5-1.2,1.4H134.1z"/>
			<path class="st1" d="M139.8,148.2h-0.7v-0.6c-0.3,0.5-0.7,0.8-1.3,0.8c-1,0-1.7-0.9-1.7-2.3c0-1.5,0.7-2.3,1.7-2.3
				c0.5,0,1,0.3,1.3,0.7v-2.7h0.7V148.2z M139.1,145.2c-0.3-0.6-0.7-0.8-1.1-0.8c-0.6,0-1.1,0.6-1.1,1.7c0,1.1,0.5,1.7,1.2,1.7
				c0.4,0,0.8-0.3,1.1-0.8L139.1,145.2L139.1,145.2z"/>
			<path class="st1" d="M142.5,143h-0.9v-0.8h0.9V143z M142.4,148.2h-0.7v-4.4h0.7V148.2z"/>
			<path class="st1" d="M144.2,144.9c0.2-0.8,0.9-1.1,1.7-1.1c1,0,1.6,0.5,1.6,1.5v1.6c0,0.6,0,1.1,0.1,1.4H147
				c0-0.2-0.1-0.4-0.1-0.7c-0.4,0.5-0.9,0.8-1.5,0.8c-0.8,0-1.3-0.5-1.3-1.3c0-0.7,0.4-1.3,1.4-1.4c0.4-0.1,0.9-0.1,1.4-0.1v-0.2
				c0-0.7-0.3-1-0.9-1c-0.5,0-0.9,0.3-1.1,0.8L144.2,144.9z M146.8,146c-0.5,0-0.9,0.1-1.2,0.1c-0.6,0.1-0.9,0.4-0.9,0.9
				s0.3,0.8,0.8,0.8s0.9-0.3,1.3-0.9L146.8,146L146.8,146z"/>
			<path class="st1" d="M152,149.1h-0.5l3.4-7.9h0.5L152,149.1z"/>
			<path class="st1" d="M160,144.6c0.3-0.5,0.8-0.8,1.3-0.8c1,0,1.7,0.8,1.7,2.3s-0.8,2.3-1.7,2.3c-0.6,0-0.9-0.2-1.2-0.8v2.2h-0.7
				v-5.9h0.7v0.7H160z M160,147c0.3,0.6,0.6,0.8,1.1,0.8c0.6,0,1.2-0.6,1.2-1.7c0-1.1-0.5-1.7-1.1-1.7c-0.4,0-0.8,0.3-1.1,0.8
				L160,147L160,147z"/>
			<path class="st1" d="M166.6,144.5c-0.5,0-1.1,0.4-1.3,1.3v2.5h-0.7v-4.4h0.7v1.1c0.3-0.8,0.8-1.2,1.4-1.2L166.6,144.5z"/>
			<path class="st1" d="M171.6,146.1c0,1.4-0.8,2.3-1.9,2.3s-1.9-0.9-1.9-2.3c0-1.4,0.8-2.3,1.9-2.3S171.6,144.6,171.6,146.1z
				 M168.5,146.1c0,1.1,0.4,1.7,1.2,1.7s1.2-0.6,1.2-1.7c0-1.1-0.4-1.7-1.2-1.7C169,144.3,168.5,144.9,168.5,146.1z"/>
			<path class="st1" d="M176.6,148.2h-0.7v-0.6c-0.3,0.5-0.7,0.8-1.3,0.8c-1,0-1.7-0.9-1.7-2.3c0-1.5,0.7-2.3,1.7-2.3
				c0.5,0,1,0.3,1.3,0.7v-2.7h0.7V148.2z M175.9,145.2c-0.3-0.6-0.7-0.8-1.1-0.8c-0.6,0-1.1,0.6-1.1,1.7c0,1.1,0.5,1.7,1.2,1.7
				c0.4,0,0.8-0.3,1.1-0.8L175.9,145.2L175.9,145.2z"/>
			<path class="st1" d="M181.8,148.2h-0.7v-0.8c-0.3,0.6-0.9,0.9-1.5,0.9c-0.7,0-1.2-0.4-1.2-1.2v-3.2h0.7v3c0,0.6,0.3,0.8,0.8,0.8
				c0.4,0,1-0.4,1.3-0.9v-3h0.7v4.4H181.8z"/>
			<path class="st1" d="M186.3,145.3c-0.1-0.6-0.5-0.9-1-0.9c-0.7,0-1.2,0.6-1.2,1.7c0,1.1,0.5,1.7,1.2,1.7c0.6,0,0.9-0.3,1-1
				l0.7,0.2c-0.2,0.8-0.8,1.3-1.7,1.3c-1.2,0-1.9-0.9-1.9-2.3s0.8-2.3,1.9-2.3c0.8,0,1.4,0.4,1.7,1.3L186.3,145.3z"/>
			<path class="st1" d="M189.4,143.9h1v0.5h-1v2.7c0,0.5,0.2,0.7,0.6,0.7c0.2,0,0.3,0,0.5-0.1v0.5c-0.2,0-0.4,0-0.7,0
				c-0.7,0-1.1-0.4-1.1-1.1v-2.8H188v-0.5h0.7v-1.4l0.7-0.2V143.9z"/>
			<path class="st1" d="M194.1,145c-0.1-0.5-0.5-0.8-0.9-0.8c-0.6,0-0.9,0.3-0.9,0.6c0,0.4,0.2,0.6,0.9,0.8l0.3,0.1
				c1,0.2,1.4,0.6,1.4,1.3s-0.5,1.3-1.7,1.3c-0.9,0-1.5-0.3-1.7-1.1l0.7-0.2c0.2,0.6,0.6,0.8,1.1,0.8c0.7,0,1-0.3,1-0.7
				c0-0.5-0.2-0.6-1-0.8l-0.3-0.1c-1-0.2-1.3-0.6-1.3-1.3s0.5-1.2,1.5-1.2c0.8,0,1.4,0.4,1.6,1L194.1,145z"/>
			<path class="st1" d="M201.6,145c-0.1-0.5-0.5-0.8-0.9-0.8c-0.6,0-0.9,0.3-0.9,0.6c0,0.4,0.2,0.6,0.9,0.8l0.3,0.1
				c1,0.2,1.4,0.6,1.4,1.3s-0.5,1.3-1.7,1.3c-0.9,0-1.5-0.3-1.7-1.1l0.7-0.2c0.2,0.6,0.6,0.8,1.1,0.8c0.7,0,1-0.3,1-0.7
				c0-0.5-0.2-0.6-1-0.8l-0.3-0.1c-1-0.2-1.3-0.6-1.3-1.3s0.5-1.2,1.5-1.2c0.8,0,1.4,0.4,1.6,1L201.6,145z"/>
			<path class="st1" d="M207.3,148.2h-0.7v-0.8c-0.3,0.6-0.9,0.9-1.5,0.9c-0.7,0-1.2-0.4-1.2-1.2v-3.2h0.7v3c0,0.6,0.3,0.8,0.8,0.8
				c0.4,0,1-0.4,1.3-0.9v-3h0.7v4.4H207.3z"/>
			<path class="st1" d="M211.8,145.3c-0.1-0.6-0.5-0.9-1-0.9c-0.7,0-1.2,0.6-1.2,1.7c0,1.1,0.5,1.7,1.2,1.7c0.6,0,0.9-0.3,1-1
				l0.7,0.2c-0.2,0.8-0.8,1.3-1.7,1.3c-1.2,0-1.9-0.9-1.9-2.3s0.8-2.3,1.9-2.3c0.8,0,1.4,0.4,1.7,1.3L211.8,145.3z"/>
			<path class="st1" d="M214.7,144.7c0.4-0.5,0.9-0.9,1.5-0.9c0.7,0,1.2,0.5,1.2,1.3v3.2h-0.7v-3c0-0.6-0.3-0.9-0.7-0.9
				s-0.9,0.3-1.3,0.9v3H214v-6.4h0.7V144.7z"/>
			<path class="st1" d="M221.9,144.9c0.2-0.8,0.9-1.1,1.7-1.1c1,0,1.6,0.5,1.6,1.5v1.6c0,0.6,0,1.1,0.1,1.4h-0.6
				c0-0.2-0.1-0.4-0.1-0.7c-0.4,0.5-0.9,0.8-1.5,0.8c-0.8,0-1.3-0.5-1.3-1.3c0-0.7,0.4-1.3,1.4-1.4c0.4-0.1,0.9-0.1,1.4-0.1v-0.2
				c0-0.7-0.3-1-0.9-1c-0.5,0-0.9,0.3-1.1,0.8L221.9,144.9z M224.6,146c-0.5,0-0.9,0.1-1.2,0.1c-0.6,0.1-0.9,0.4-0.9,0.9
				s0.3,0.8,0.8,0.8s0.9-0.3,1.3-0.9L224.6,146L224.6,146z"/>
			<path class="st1" d="M229.4,145c-0.1-0.5-0.5-0.8-0.9-0.8c-0.6,0-0.9,0.3-0.9,0.6c0,0.4,0.2,0.6,0.9,0.8l0.3,0.1
				c1,0.2,1.4,0.6,1.4,1.3s-0.5,1.3-1.7,1.3c-0.9,0-1.5-0.3-1.7-1.1l0.7-0.2c0.2,0.6,0.6,0.8,1.1,0.8c0.7,0,1-0.3,1-0.7
				c0-0.5-0.2-0.6-1-0.8l-0.3-0.1c-1-0.2-1.3-0.6-1.3-1.3s0.5-1.2,1.5-1.2c0.8,0,1.4,0.4,1.6,1L229.4,145z"/>
			<path class="st1" d="M235.3,143h-0.9v-0.8h0.9V143z M235.3,148.2h-0.7v-4.4h0.7V148.2z"/>
			<path class="st1" d="M237.8,144.7c0.4-0.6,0.9-0.9,1.4-0.9c0.6,0,1,0.4,1.1,0.9c0.4-0.5,0.9-0.9,1.5-0.9c0.7,0,1.2,0.5,1.2,1.2
				v3.2h-0.7v-3c0-0.6-0.3-0.9-0.7-0.9s-0.9,0.3-1.2,0.9v3h-0.7v-3c0-0.6-0.3-0.9-0.7-0.9s-0.9,0.3-1.2,0.9v3h-0.7v-4.4h0.7
				L237.8,144.7L237.8,144.7z"/>
			<path class="st1" d="M244.7,144.9c0.2-0.8,0.9-1.1,1.7-1.1c1,0,1.6,0.5,1.6,1.5v1.6c0,0.6,0,1.1,0.1,1.4h-0.6
				c0-0.2-0.1-0.4-0.1-0.7c-0.4,0.5-0.9,0.8-1.5,0.8c-0.8,0-1.3-0.5-1.3-1.3c0-0.7,0.4-1.3,1.4-1.4c0.4-0.1,0.9-0.1,1.4-0.1v-0.2
				c0-0.7-0.3-1-0.9-1c-0.5,0-0.9,0.3-1.1,0.8L244.7,144.9z M247.4,146c-0.5,0-0.9,0.1-1.2,0.1c-0.6,0.1-0.9,0.4-0.9,0.9
				s0.3,0.8,0.8,0.8s0.9-0.3,1.3-0.9L247.4,146L247.4,146z"/>
			<path class="st1" d="M253.4,143.9c-0.4,0-0.6,0.1-0.9,0.3c0.3,0.2,0.4,0.6,0.4,1c0,0.9-0.7,1.4-1.6,1.4c-0.2,0-0.5,0-0.7-0.1
				c-0.3,0.1-0.4,0.3-0.4,0.5s0.1,0.3,0.8,0.4l0.9,0.1c1.2,0.1,1.5,0.5,1.5,1.1c0,0.7-0.7,1.2-2.1,1.2c-1.2,0-1.9-0.4-1.9-1
				c0-0.4,0.3-0.7,0.9-0.9c-0.4-0.1-0.6-0.3-0.6-0.6s0.2-0.6,0.6-0.9c-0.4-0.2-0.6-0.6-0.6-1.1c0-0.8,0.7-1.4,1.6-1.4
				c0.3,0,0.6,0.1,0.9,0.2c0.3-0.5,0.6-0.7,1.2-0.7L253.4,143.9z M250.9,147.9c-0.5,0.1-0.8,0.4-0.8,0.7c0,0.5,0.5,0.7,1.3,0.7
				c0.9,0,1.4-0.3,1.4-0.7c0-0.3-0.2-0.5-1-0.6L250.9,147.9z M250.4,145.2c0,0.6,0.4,1,1,1c0.5,0,1-0.4,1-1s-0.4-1-1-1
				C250.9,144.3,250.4,144.6,250.4,145.2z"/>
			<path class="st1" d="M255.3,146.2c0,1.1,0.5,1.7,1.3,1.7c0.6,0,0.9-0.3,1.1-0.9l0.6,0.2c-0.3,0.8-0.8,1.2-1.8,1.2
				c-1.2,0-1.9-0.9-1.9-2.3c0-1.4,0.8-2.3,1.9-2.3c1.1,0,1.8,0.8,1.8,2.2v0.2L255.3,146.2L255.3,146.2z M257.7,145.7
				c-0.1-0.9-0.5-1.4-1.2-1.4c-0.7,0-1.1,0.5-1.2,1.4H257.7z"/>
		</g>
		<g class="st0">
			<path class="st1" d="M1.6,159.5c0.3-0.5,0.8-0.8,1.3-0.8c1,0,1.7,0.8,1.7,2.3s-0.8,2.3-1.7,2.3c-0.6,0-0.9-0.2-1.2-0.8v2.2H1
				v-5.9h0.7v0.7H1.6z M1.6,161.9c0.3,0.6,0.6,0.8,1.1,0.8c0.6,0,1.2-0.6,1.2-1.7c0-1.1-0.5-1.7-1.1-1.7c-0.4,0-0.8,0.3-1.1,0.8v1.8
				H1.6z"/>
			<path class="st1" d="M8.3,159.4c-0.5,0-1.1,0.4-1.3,1.3v2.5H6.2v-4.4h0.7v1.1c0.3-0.8,0.8-1.2,1.4-1.2L8.3,159.4z"/>
			<path class="st1" d="M13.2,161c0,1.4-0.8,2.3-1.9,2.3s-1.9-0.9-1.9-2.3c0-1.4,0.8-2.3,1.9-2.3S13.2,159.6,13.2,161z M10.1,161
				c0,1.1,0.4,1.7,1.2,1.7s1.2-0.6,1.2-1.7c0-1.1-0.4-1.7-1.2-1.7C10.6,159.2,10.1,159.9,10.1,161z"/>
			<path class="st1" d="M18.2,163.2h-0.7v-0.6c-0.3,0.5-0.7,0.8-1.3,0.8c-1,0-1.7-0.9-1.7-2.3c0-1.5,0.7-2.3,1.7-2.3
				c0.5,0,1,0.3,1.3,0.7v-2.7h0.7V163.2z M17.5,160.1c-0.3-0.6-0.7-0.8-1.1-0.8c-0.6,0-1.1,0.6-1.1,1.7c0,1.1,0.5,1.7,1.2,1.7
				c0.4,0,0.8-0.3,1.1-0.8v-1.8H17.5z"/>
			<path class="st1" d="M23.4,163.2h-0.7v-0.8c-0.3,0.6-0.9,0.9-1.5,0.9c-0.7,0-1.2-0.4-1.2-1.2v-3.2h0.7v3c0,0.6,0.3,0.8,0.8,0.8
				c0.4,0,1-0.4,1.3-0.9v-3h0.7L23.4,163.2L23.4,163.2z"/>
			<path class="st1" d="M27.9,160.2c-0.1-0.6-0.5-0.9-1-0.9c-0.7,0-1.2,0.6-1.2,1.7c0,1.1,0.5,1.7,1.2,1.7c0.6,0,0.9-0.3,1-1
				l0.7,0.2c-0.2,0.8-0.8,1.3-1.7,1.3c-1.2,0-1.9-0.9-1.9-2.3s0.8-2.3,1.9-2.3c0.8,0,1.4,0.4,1.7,1.3L27.9,160.2z"/>
			<path class="st1" d="M31,158.8h1v0.5h-1v2.7c0,0.5,0.2,0.7,0.6,0.7c0.2,0,0.3,0,0.5-0.1v0.5c-0.2,0-0.4,0-0.7,0
				c-0.7,0-1.1-0.4-1.1-1.1v-2.8h-0.7v-0.5h0.7v-1.4l0.7-0.2C31,157.1,31,158.8,31,158.8z"/>
			<path class="st1" d="M34.2,158h-0.9v-0.8h0.9V158z M34.2,163.2h-0.7v-4.4h0.7V163.2z"/>
			<path class="st1" d="M39.5,161c0,1.4-0.8,2.3-1.9,2.3s-1.9-0.9-1.9-2.3c0-1.4,0.8-2.3,1.9-2.3C38.8,158.7,39.5,159.6,39.5,161z
				 M36.5,161c0,1.1,0.4,1.7,1.2,1.7s1.2-0.6,1.2-1.7c0-1.1-0.4-1.7-1.2-1.7C36.9,159.2,36.5,159.9,36.5,161z"/>
			<path class="st1" d="M41.8,159.6c0.4-0.5,1-0.9,1.5-0.9c0.7,0,1.2,0.5,1.2,1.2v3.2h-0.7v-3c0-0.6-0.3-0.9-0.7-0.9
				s-0.9,0.3-1.3,0.9v3h-0.7v-4.4h0.7V159.6z"/>
			<path class="st1" d="M49.1,159.8c0.2-0.8,0.9-1.1,1.7-1.1c1,0,1.6,0.5,1.6,1.5v1.6c0,0.6,0,1.1,0.1,1.4h-0.6
				c0-0.2-0.1-0.4-0.1-0.7c-0.4,0.5-0.9,0.8-1.5,0.8c-0.8,0-1.3-0.5-1.3-1.3c0-0.7,0.4-1.3,1.4-1.4c0.4-0.1,0.9-0.1,1.4-0.1v-0.2
				c0-0.7-0.3-1-0.9-1c-0.5,0-0.9,0.3-1.1,0.8L49.1,159.8z M51.7,160.9c-0.5,0-0.9,0.1-1.2,0.1c-0.6,0.1-0.9,0.4-0.9,0.9
				s0.3,0.8,0.8,0.8s0.9-0.3,1.3-0.9C51.7,161.8,51.7,160.9,51.7,160.9z"/>
			<path class="st1" d="M55,159.6c0.4-0.5,1-0.9,1.5-0.9c0.7,0,1.2,0.5,1.2,1.2v3.2H57v-3c0-0.6-0.3-0.9-0.7-0.9s-0.9,0.3-1.3,0.9v3
				h-0.7v-4.4H55V159.6z"/>
			<path class="st1" d="M63,163.2h-0.7v-0.6c-0.3,0.5-0.7,0.8-1.3,0.8c-1,0-1.7-0.9-1.7-2.3c0-1.5,0.7-2.3,1.7-2.3
				c0.5,0,1,0.3,1.3,0.7v-2.7H63V163.2z M62.3,160.1c-0.3-0.6-0.7-0.8-1.1-0.8c-0.6,0-1.1,0.6-1.1,1.7c0,1.1,0.5,1.7,1.2,1.7
				c0.4,0,0.8-0.3,1.1-0.8v-1.8H62.3z"/>
			<path class="st1" d="M68.3,159.5c0.3-0.5,0.8-0.8,1.3-0.8c1,0,1.7,0.8,1.7,2.3s-0.8,2.3-1.7,2.3c-0.6,0-0.9-0.2-1.2-0.8v2.2h-0.7
				v-5.9h0.7v0.7H68.3z M68.3,161.9c0.3,0.6,0.6,0.8,1.1,0.8c0.6,0,1.2-0.6,1.2-1.7c0-1.1-0.5-1.7-1.1-1.7c-0.4,0-0.8,0.3-1.1,0.8
				L68.3,161.9L68.3,161.9z"/>
			<path class="st1" d="M74.9,159.4c-0.5,0-1.1,0.4-1.3,1.3v2.5h-0.7v-4.4h0.7v1.1c0.3-0.8,0.8-1.2,1.4-1.2L74.9,159.4z"/>
			<path class="st1" d="M79.8,161c0,1.4-0.8,2.3-1.9,2.3S76,162.4,76,161c0-1.4,0.8-2.3,1.9-2.3C79.1,158.7,79.8,159.6,79.8,161z
				 M76.8,161c0,1.1,0.4,1.7,1.2,1.7s1.2-0.6,1.2-1.7c0-1.1-0.4-1.7-1.2-1.7C77.2,159.2,76.8,159.9,76.8,161z"/>
			<path class="st1" d="M84.8,163.2h-0.7v-0.6c-0.3,0.5-0.7,0.8-1.3,0.8c-1,0-1.7-0.9-1.7-2.3c0-1.5,0.7-2.3,1.7-2.3
				c0.5,0,1,0.3,1.3,0.7v-2.7h0.7V163.2z M84.1,160.1c-0.3-0.6-0.7-0.8-1.1-0.8c-0.6,0-1.1,0.6-1.1,1.7c0,1.1,0.5,1.7,1.2,1.7
				c0.4,0,0.8-0.3,1.1-0.8L84.1,160.1L84.1,160.1z"/>
			<path class="st1" d="M90.1,163.2h-0.7v-0.8c-0.3,0.6-0.9,0.9-1.5,0.9c-0.7,0-1.2-0.4-1.2-1.2v-3.2h0.7v3c0,0.6,0.3,0.8,0.8,0.8
				c0.4,0,1-0.4,1.3-0.9v-3h0.7v4.4H90.1z"/>
			<path class="st1" d="M94.6,160.2c-0.1-0.6-0.5-0.9-1-0.9c-0.7,0-1.2,0.6-1.2,1.7c0,1.1,0.5,1.7,1.2,1.7c0.6,0,0.9-0.3,1-1
				l0.7,0.2c-0.2,0.8-0.8,1.3-1.7,1.3c-1.2,0-1.9-0.9-1.9-2.3s0.8-2.3,1.9-2.3c0.8,0,1.4,0.4,1.7,1.3L94.6,160.2z"/>
			<path class="st1" d="M97.7,158.8h1v0.5h-1v2.7c0,0.5,0.2,0.7,0.6,0.7c0.2,0,0.3,0,0.5-0.1v0.5c-0.2,0-0.4,0-0.7,0
				c-0.7,0-1.1-0.4-1.1-1.1v-2.8h-0.7v-0.5H97v-1.4l0.7-0.2V158.8z"/>
			<path class="st1" d="M106.3,163.2h-0.7v-0.6c-0.3,0.5-0.7,0.8-1.3,0.8c-1,0-1.7-0.9-1.7-2.3c0-1.5,0.7-2.3,1.7-2.3
				c0.5,0,1,0.3,1.3,0.7v-2.7h0.7V163.2z M105.6,160.1c-0.3-0.6-0.7-0.8-1.1-0.8c-0.6,0-1.1,0.6-1.1,1.7c0,1.1,0.5,1.7,1.2,1.7
				c0.4,0,0.8-0.3,1.1-0.8L105.6,160.1L105.6,160.1z"/>
			<path class="st1" d="M108.6,161.1c0,1.1,0.5,1.7,1.3,1.7c0.6,0,0.9-0.3,1.1-0.9l0.6,0.2c-0.3,0.8-0.8,1.2-1.8,1.2
				c-1.2,0-1.9-0.9-1.9-2.3c0-1.4,0.8-2.3,1.9-2.3s1.8,0.8,1.8,2.2v0.2L108.6,161.1L108.6,161.1z M110.9,160.6
				c-0.1-0.9-0.5-1.4-1.2-1.4s-1.1,0.5-1.2,1.4H110.9z"/>
			<path class="st1" d="M115.5,160c-0.1-0.5-0.5-0.8-0.9-0.8c-0.6,0-0.9,0.3-0.9,0.6c0,0.4,0.2,0.6,0.9,0.8l0.3,0.1
				c1,0.2,1.4,0.6,1.4,1.3s-0.5,1.3-1.7,1.3c-0.9,0-1.5-0.3-1.7-1.1l0.7-0.2c0.2,0.6,0.6,0.8,1.1,0.8c0.7,0,1-0.3,1-0.7
				c0-0.5-0.2-0.6-1-0.8l-0.3-0.1c-1-0.2-1.3-0.6-1.3-1.3s0.5-1.2,1.5-1.2c0.8,0,1.4,0.4,1.6,1L115.5,160z"/>
			<path class="st1" d="M118.7,158h-0.9v-0.8h0.9V158z M118.6,163.2h-0.7v-4.4h0.7V163.2z"/>
			<path class="st1" d="M124,158.8c-0.4,0-0.6,0.1-0.9,0.3c0.3,0.2,0.4,0.6,0.4,1c0,0.9-0.7,1.4-1.6,1.4c-0.2,0-0.5,0-0.7-0.1
				c-0.3,0.1-0.4,0.3-0.4,0.5s0.1,0.3,0.8,0.4l0.9,0.1c1.2,0.1,1.5,0.5,1.5,1.1c0,0.7-0.7,1.2-2.1,1.2c-1.2,0-1.9-0.4-1.9-1
				c0-0.4,0.3-0.7,0.9-0.9c-0.4-0.1-0.6-0.3-0.6-0.6s0.2-0.6,0.6-0.9c-0.4-0.2-0.6-0.6-0.6-1.1c0-0.8,0.7-1.4,1.6-1.4
				c0.3,0,0.6,0.1,0.9,0.2c0.3-0.5,0.6-0.7,1.2-0.7L124,158.8z M121.5,162.9c-0.5,0.1-0.8,0.4-0.8,0.7c0,0.5,0.5,0.7,1.3,0.7
				c0.9,0,1.4-0.3,1.4-0.7c0-0.3-0.2-0.5-1-0.6L121.5,162.9z M121,160.1c0,0.6,0.4,1,1,1s1-0.4,1-1s-0.4-1-1-1S121,159.5,121,160.1z
				"/>
			<path class="st1" d="M126.2,159.6c0.4-0.5,1-0.9,1.5-0.9c0.7,0,1.2,0.5,1.2,1.2v3.2h-0.7v-3c0-0.6-0.3-0.9-0.7-0.9
				c-0.4,0-0.9,0.3-1.3,0.9v3h-0.7v-4.4h0.7V159.6z"/>
			<path class="st1" d="M134.3,159.5c0.3-0.5,0.8-0.8,1.3-0.8c1,0,1.7,0.8,1.7,2.3c0,1.4-0.8,2.3-1.7,2.3c-0.6,0-1-0.3-1.3-0.8
				l-0.1,0.7h-0.5v-6.4h0.7L134.3,159.5L134.3,159.5z M134.3,161.9c0.3,0.6,0.6,0.8,1.1,0.8c0.6,0,1.2-0.6,1.2-1.7
				c0-1.1-0.5-1.7-1.1-1.7c-0.4,0-0.8,0.3-1.1,0.8L134.3,161.9L134.3,161.9z"/>
			<path class="st1" d="M139.2,161.1c0,1.1,0.5,1.7,1.3,1.7c0.6,0,0.9-0.3,1.1-0.9l0.6,0.2c-0.3,0.8-0.8,1.2-1.8,1.2
				c-1.2,0-1.9-0.9-1.9-2.3c0-1.4,0.8-2.3,1.9-2.3c1.1,0,1.8,0.8,1.8,2.2v0.2L139.2,161.1L139.2,161.1z M141.6,160.6
				c-0.1-0.9-0.5-1.4-1.2-1.4s-1.1,0.5-1.2,1.4H141.6z"/>
			<path class="st1" d="M145.5,163.4c-0.3,1-0.8,1.3-1.6,1.3c-0.1,0-0.3,0-0.4,0v-0.6c0.2,0,0.3,0.1,0.5,0.1c0.5,0,0.8-0.2,1-0.9
				l0.1-0.2l-1.5-4.3h0.7l0.8,2.5c0.1,0.4,0.2,0.7,0.3,1.1h0.1c0.1-0.4,0.2-0.7,0.3-1.1l0.8-2.5h0.7L145.5,163.4z"/>
			<path class="st1" d="M151.9,161c0,1.4-0.8,2.3-1.9,2.3c-1.1,0-1.9-0.9-1.9-2.3c0-1.4,0.8-2.3,1.9-2.3
				C151.1,158.7,151.9,159.6,151.9,161z M148.9,161c0,1.1,0.4,1.7,1.2,1.7c0.7,0,1.2-0.6,1.2-1.7c0-1.1-0.4-1.7-1.2-1.7
				C149.3,159.2,148.9,159.9,148.9,161z"/>
			<path class="st1" d="M154.2,159.6c0.4-0.5,1-0.9,1.5-0.9c0.7,0,1.2,0.5,1.2,1.2v3.2h-0.7v-3c0-0.6-0.3-0.9-0.7-0.9
				s-0.9,0.3-1.3,0.9v3h-0.7v-4.4h0.7V159.6z"/>
			<path class="st1" d="M162.2,163.2h-0.7v-0.6c-0.3,0.5-0.7,0.8-1.3,0.8c-1,0-1.7-0.9-1.7-2.3c0-1.5,0.7-2.3,1.7-2.3
				c0.5,0,1,0.3,1.3,0.7v-2.7h0.7V163.2z M161.5,160.1c-0.3-0.6-0.7-0.8-1.1-0.8c-0.6,0-1.1,0.6-1.1,1.7c0,1.1,0.5,1.7,1.2,1.7
				c0.4,0,0.8-0.3,1.1-0.8L161.5,160.1L161.5,160.1z"/>
			<path class="st1" d="M167.5,159.6c0.4-0.6,0.9-0.9,1.4-0.9c0.6,0,1,0.4,1.1,0.9c0.4-0.5,0.9-0.9,1.5-0.9c0.7,0,1.2,0.5,1.2,1.2
				v3.2H172v-3c0-0.6-0.3-0.9-0.7-0.9s-0.9,0.3-1.2,0.9v3h-0.7v-3c0-0.6-0.3-0.9-0.7-0.9s-0.9,0.3-1.2,0.9v3h-0.7v-4.4h0.7
				L167.5,159.6L167.5,159.6z"/>
			<path class="st1" d="M174.4,159.8c0.2-0.8,0.9-1.1,1.7-1.1c1,0,1.6,0.5,1.6,1.5v1.6c0,0.6,0,1.1,0.1,1.4h-0.6
				c0-0.2-0.1-0.4-0.1-0.7c-0.4,0.5-0.9,0.8-1.5,0.8c-0.8,0-1.3-0.5-1.3-1.3c0-0.7,0.4-1.3,1.4-1.4c0.4-0.1,0.9-0.1,1.4-0.1v-0.2
				c0-0.7-0.3-1-0.9-1c-0.5,0-0.9,0.3-1.1,0.8L174.4,159.8z M177.1,160.9c-0.5,0-0.9,0.1-1.2,0.1c-0.6,0.1-0.9,0.4-0.9,0.9
				s0.3,0.8,0.8,0.8s0.9-0.3,1.3-0.9L177.1,160.9L177.1,160.9z"/>
			<path class="st1" d="M181.5,160.5l1.6,2.7h-0.8L181,161l-0.8,0.8v1.4h-0.7v-6.4h0.7v4.2l1.9-2.2h0.8L181.5,160.5z"/>
			<path class="st1" d="M185.3,158h-0.9v-0.8h0.9V158z M185.2,163.2h-0.7v-4.4h0.7V163.2z"/>
			<path class="st1" d="M187.8,159.6c0.4-0.5,1-0.9,1.5-0.9c0.7,0,1.2,0.5,1.2,1.2v3.2h-0.7v-3c0-0.6-0.3-0.9-0.7-0.9
				s-0.9,0.3-1.3,0.9v3h-0.7v-4.4h0.7V159.6z"/>
			<path class="st1" d="M195.9,158.8c-0.4,0-0.6,0.1-0.9,0.3c0.3,0.2,0.4,0.6,0.4,1c0,0.9-0.7,1.4-1.6,1.4c-0.2,0-0.5,0-0.7-0.1
				c-0.3,0.1-0.4,0.3-0.4,0.5s0.1,0.3,0.8,0.4l0.9,0.1c1.2,0.1,1.5,0.5,1.5,1.1c0,0.7-0.7,1.2-2.1,1.2c-1.2,0-1.9-0.4-1.9-1
				c0-0.4,0.3-0.7,0.9-0.9c-0.4-0.1-0.6-0.3-0.6-0.6s0.2-0.6,0.6-0.9c-0.4-0.2-0.6-0.6-0.6-1.1c0-0.8,0.7-1.4,1.6-1.4
				c0.3,0,0.6,0.1,0.9,0.2c0.3-0.5,0.6-0.7,1.2-0.7L195.9,158.8z M193.3,162.9c-0.5,0.1-0.8,0.4-0.8,0.7c0,0.5,0.5,0.7,1.3,0.7
				c0.9,0,1.4-0.3,1.4-0.7c0-0.3-0.2-0.5-1-0.6L193.3,162.9z M192.9,160.1c0,0.6,0.4,1,1,1c0.5,0,1-0.4,1-1s-0.4-1-1-1
				C193.3,159.2,192.9,159.5,192.9,160.1z"/>
			<path class="st1" d="M204.5,163.2h-0.9l-0.6-2.4c-0.1-0.5-0.2-0.9-0.3-1.3h-0.1c-0.1,0.5-0.2,0.9-0.3,1.4l-0.6,2.4h-0.9l-1.2-4.4
				h0.7l0.6,2.4c0.1,0.5,0.2,0.9,0.3,1.3h0.1c0.1-0.4,0.2-0.9,0.3-1.3l0.6-2.5h0.9l0.6,2.4c0.1,0.5,0.2,0.9,0.3,1.4h0.1
				c0.1-0.5,0.2-0.9,0.3-1.4l0.6-2.4h0.7L204.5,163.2z"/>
			<path class="st1" d="M210.6,161c0,1.4-0.8,2.3-1.9,2.3c-1.1,0-1.9-0.9-1.9-2.3c0-1.4,0.8-2.3,1.9-2.3S210.6,159.6,210.6,161z
				 M207.5,161c0,1.1,0.4,1.7,1.2,1.7c0.7,0,1.2-0.6,1.2-1.7c0-1.1-0.4-1.7-1.2-1.7C208,159.2,207.5,159.9,207.5,161z"/>
			<path class="st1" d="M214.3,159.4c-0.5,0-1.1,0.4-1.3,1.3v2.5h-0.7v-4.4h0.7v1.1c0.3-0.8,0.8-1.2,1.4-1.2L214.3,159.4z"/>
			<path class="st1" d="M217.6,160.5l1.6,2.7h-0.8l-1.3-2.2l-0.8,0.8v1.4h-0.7v-6.4h0.7v4.2l1.9-2.2h0.8L217.6,160.5z"/>
			<path class="st1" d="M221.3,163.2h-0.9v-0.9h0.9V163.2z"/>
		</g>
	</g>
</g>
</svg>
