<svg xmlns="http://www.w3.org/2000/svg" viewBox="0 0 647.02 92.44"><defs><style>.cls-1{fill:#231815;}</style></defs><title>Hikyo_Logo</title><g id="レイヤー_2" data-name="レイヤー 2"><g id="レイヤー_1-2" data-name="レイヤー 1"><path class="cls-1" d="M0,21H19.37V46.57H40.55V21H59.92V91.24H40.55V63H19.37V91.24H0Z"/><path class="cls-1" d="M183.36,21h19.38V44.76L221.4,21h23.69L218,54.1,247.1,91.24H222.51l-19.77-26.1v26.1H183.36Z"/><path class="cls-1" d="M534.94,56.11c0-20.78,13.75-36.34,36.43-36.34S608,35.33,608,56.11c0,20.47-14.46,36.33-36.64,36.33S534.94,76.58,534.94,56.11Zm53.7,0c0-13.55-8.84-19.88-17.17-19.88s-17.16,6.33-17.16,19.88S563.14,76,571.47,76,588.64,69.66,588.64,56.11Z"/><polygon class="cls-1" points="378.47 20.98 358.5 20.98 376.16 57.01 385.59 35.4 378.47 20.98"/><polygon class="cls-1" points="399.55 20.98 389.01 45.17 388.97 45.07 379.27 67.07 379.27 91.24 398.65 91.24 398.65 63.43 419.52 20.98 399.55 20.98"/><polygon class="cls-1" points="609.47 3.27 614.7 3.27 614.7 20.11 618.2 20.11 618.2 3.27 623.86 3.27 623.86 0 609.47 0 609.47 3.27"/><polygon class="cls-1" points="642.45 0 636.93 15.25 631.36 0 626.79 0 626.79 20.11 630.3 20.11 630.3 6.75 635.3 20.11 638.51 20.11 643.51 6.75 643.51 20.11 647.02 20.11 647.02 0 642.45 0"/></g></g></svg>