<?xml version="1.0" encoding="utf-8"?>
<!-- Generator: Adobe Illustrator 22.1.0, SVG Export Plug-In . SVG Version: 6.00 Build 0)  -->
<svg version="1.1" id="レイヤー_1" xmlns="http://www.w3.org/2000/svg" xmlns:xlink="http://www.w3.org/1999/xlink" x="0px"
	 y="0px" viewBox="0 0 1000 250" style="enable-background:new 0 0 1000 250;" xml:space="preserve">
<style type="text/css">
	.st0{enable-background:new    ;}
	.st1{fill:#231815;}
	.st2{fill:none;}
</style>
<title>KoiYuu_Sentence_yoko3</title>
<g id="レイヤー_2_1_">
	<g id="レイヤー_1-2">
		<g class="st0">
			<path class="st1" d="M53.7,50.6c-0.4,0.3-0.6,0.6-1,1.2c-1.5,2.2-3.2,4-5.9,6c-0.3,0.2-0.5,0.3-0.6,0.3c-0.2,0-0.4-0.2-0.7-0.5
				c-0.4-0.4-0.9-0.8-1.3-1c3.2-1.9,4.9-3.7,6.4-6c0.5-0.7,0.8-1.4,0.9-2.1c0.8,0.3,1.7,0.7,2.2,1c0.2,0.1,0.4,0.3,0.4,0.5
				C54.1,50.3,54,50.4,53.7,50.6z M50.9,64.4c0.5,0.2,0.5,0.3,0.4,0.6c-1,3.2-2.4,6-4.3,8.5c-0.2,0.3-0.3,0.3-0.7,0L45,72.7
				c-0.6-0.4-0.6-0.5-0.3-0.8c2-2.3,3.4-4.8,4.1-7.8c0.1-0.3,0.2-0.3,0.8-0.2L50.9,64.4z M81,45.8c0,0.3,0,0.3-0.3,0.3
				c-0.2,0-1.6-0.1-5.7-0.1h-6.3v5.8c0,2.1,0,3.5,0,4.3c0,1.2-0.4,2.3-1.3,2.8c-0.9,0.4-1.5,0.6-3.9,0.6c-0.9,0-0.9,0-1.1-0.8
				c-0.1-0.6-0.4-1.2-0.7-1.6c1,0.1,1.8,0.1,2.7,0.1c1.4,0,1.8-0.5,1.8-1.7v-9.3h-5.6c-0.2,8-2.5,11.7-8,14.4
				c-0.3,0.2-0.5,0.3-0.6,0.3c-0.2,0-0.3-0.2-0.6-0.5c-0.5-0.5-1-0.8-1.5-1c5.9-2.8,8.2-5.4,8.3-13.2h-7.4c-4.1,0-5.4,0.1-5.7,0.1
				c-0.3,0-0.3,0-0.3-0.3V44c0-0.3,0-0.3,0.3-0.3c0.3,0,1.6,0.1,5.7,0.1h10.6v-0.9c0-2.2,0-3.3-0.3-4.3c1,0,2,0.1,2.9,0.2
				c0.3,0,0.5,0.2,0.5,0.3c0,0.3-0.1,0.5-0.3,0.8c-0.2,0.4-0.2,1.1-0.2,3v0.9H75c4.1,0,5.5-0.1,5.7-0.1c0.3,0,0.3,0,0.3,0.3V45.8z
				 M57.6,70.8c0,1.1,0.2,1.8,0.9,2.2c0.7,0.3,2,0.6,4.7,0.6c3.4,0,5.1-0.2,6.1-0.9c0.9-0.6,1.4-2.3,1.5-4.8c0.5,0.4,1.1,0.8,1.8,1
				c0.7,0.3,0.7,0.3,0.6,1.1c-0.5,2.7-1.2,4.1-2.3,4.8c-1.6,0.9-3.9,1.1-7.8,1.1c-3.5,0-5.2-0.2-6.4-0.7c-1-0.5-1.7-1.3-1.7-3.7
				v-5.8c0-1.2,0-2.3-0.3-3.5c0.9,0,2.1,0.2,2.7,0.3c0.4,0.1,0.6,0.2,0.6,0.3c0,0.3-0.1,0.4-0.2,0.6c-0.1,0.3-0.3,1-0.3,2.3V70.8z
				 M62.5,61.5c0.3-0.2,0.4-0.3,0.6,0c1.8,1.4,3.2,2.9,4.9,5.1c0.2,0.3,0.2,0.4-0.1,0.6l-1.1,0.9c-0.5,0.4-0.6,0.4-0.8,0.1
				c-1.4-2.1-2.8-3.8-4.7-5.3c-0.3-0.3-0.3-0.3,0.2-0.6L62.5,61.5z M73.3,48.7c0.4-0.3,0.5-0.3,0.8,0c2.4,2.1,4.5,4.7,6.3,7.6
				c0.2,0.3,0.1,0.3-0.3,0.6l-1.1,0.7c-0.3,0.2-0.4,0.3-0.5,0.3c-0.1,0-0.2-0.1-0.3-0.3c-1.7-3.2-3.7-5.6-6-7.6
				c-0.3-0.3-0.2-0.3,0.2-0.6L73.3,48.7z M75.6,63.7c0.4-0.2,0.5-0.2,0.7,0c2.2,2.5,3.7,4.8,5.2,7.5c0.1,0.3,0,0.4-0.3,0.6l-1.3,0.9
				c-0.2,0.2-0.4,0.2-0.5,0.2s-0.2-0.1-0.3-0.3c-1.3-2.8-2.9-5.3-4.9-7.6c-0.2-0.3-0.2-0.3,0.3-0.6L75.6,63.7z"/>
			<path class="st1" d="M123.4,48.9c0,0.4-0.1,0.4-0.6,0.4c-4.6-0.1-8.7-0.2-13.5,0c0,2.7,0,5.6,0,8.5c0.3,1.3,0.5,2.9,0.5,4.5
				c0,5.4-2.3,9.9-8.3,13.2c-0.4,0.3-0.8,0.4-1,0.4c-0.3,0-0.5-0.1-0.8-0.3c-0.5-0.4-1.2-0.9-2-1.2c6.1-2.5,8.9-6.4,9.3-10.7
				c-0.9,1.6-2.8,2.4-4.7,2.4c-2.9,0-5.6-2-5.6-6c0-3.6,2.7-5.9,5.8-5.9c1.6,0,3.1,0.5,4,1.4c0-2.1,0-4-0.1-6
				c-6.1,0.3-11.8,0.8-15.9,1.3c-1,0.1-1.5,0.4-1.9,0.4c-0.3,0-0.4-0.1-0.5-0.4c-0.3-0.6-0.5-1.6-0.7-2.7c1.4,0.1,2.9,0,5.4-0.3
				c3.4-0.3,7.8-0.6,13.5-0.9c0-1.7,0-2.6-0.1-4c0-1.1-0.1-1.7-0.4-2.9c1.3,0.1,2.5,0.3,3.2,0.5c0.5,0.1,0.8,0.3,0.8,0.6
				c0,0.3-0.1,0.5-0.3,0.8c-0.2,0.3-0.3,0.6-0.3,1.1c-0.1,0.9-0.1,1.7-0.1,3.6c4.7-0.1,8.9-0.1,13.6-0.1c0.4,0,0.5,0,0.5,0.5V48.9z
				 M99.3,59.9c0,2.3,1.5,3.7,3.4,3.7c2.4,0,3.9-1.8,3.9-3.7c0-2.1-1.6-3.6-3.8-3.6C101,56.2,99.3,57.6,99.3,59.9z"/>
			<path class="st1" d="M137.9,58.1c3.1-2,6.1-3,9.2-3c6.1,0,9.9,3.8,9.9,9.3c0,6.3-5,10.9-14.1,10.9c-5.1,0-7.4-2.3-7.4-5
				c0-2.2,2-4.3,5-4.3c3.8,0,6.4,2.5,7.2,6.1c3.7-1.2,6.2-3.6,6.2-7.8c0-4.3-3.3-7-7.4-7c-4.2,0-8.4,2.2-11.7,4.8
				c-1.4,1.1-2.5,2.2-3.7,3.5c-0.3,0.3-0.6,0.4-0.9,0.1c-0.5-0.5-1.1-1.2-1.6-1.7c-0.2-0.2-0.1-0.4,0.2-0.6c3.4-2.9,5.5-5.1,9.6-9.5
				c2.5-2.7,5-5.4,8.3-9.3c-3.5,0.6-6.9,1.2-10.6,1.9c-0.6,0.1-1.1,0.2-1.5,0.4c-0.3,0.1-0.6,0.2-0.8,0.2c-0.3,0-0.5-0.2-0.7-0.5
				c-0.4-0.8-0.7-1.6-1-2.9c1.4,0.2,2.6,0.2,3.7,0c3.4-0.3,6.9-0.8,10.6-1.5c0.5-0.1,1-0.2,1.3-0.4c0.2-0.1,0.4-0.3,0.6-0.3
				c0.2,0,0.4,0.1,0.8,0.3c0.8,0.6,1.4,1.3,1.8,1.8c0.2,0.3,0.3,0.5,0.3,0.7c0,0.3-0.2,0.6-0.6,0.8c-0.6,0.2-1,0.5-2,1.5
				c-3.8,4-6.6,7-10.9,11.3L137.9,58.1z M140.6,68.3c-1.4,0-2.6,0.7-2.6,2c0,1.4,1.5,2.6,4.4,2.6c0.9,0,1.8,0,2.8-0.2
				C144.6,70.3,143,68.3,140.6,68.3z"/>
			<path class="st1" d="M198.2,47.1c0-2.8,0-3.8-0.3-5.2c1.1,0,2,0.1,2.7,0.3c0.3,0,0.4,0.2,0.4,0.3c0,0.3-0.1,0.4-0.2,0.7
				c-0.1,0.4-0.3,1.4-0.3,3.8v18.3c0,7.5,0.1,10.9,0.1,11.1c0,0.3,0,0.3-0.3,0.3h-1.8c-0.3,0-0.3,0-0.3-0.3V74h-30.5v2.4
				c0,0.3,0,0.3-0.3,0.3h-1.8c-0.3,0-0.3,0-0.3-0.3c0-0.2,0.1-3.6,0.1-10.9V47.1c0-2.8,0-3.8-0.3-5.2c1.1,0,2,0.1,2.7,0.3
				c0.3,0,0.4,0.2,0.4,0.4s-0.1,0.4-0.2,0.7c-0.1,0.5-0.3,1.4-0.3,3.8v24.8h13.8V44.9c0-2.8,0-3.8-0.3-5.2c1.1,0,1.9,0.1,2.7,0.3
				c0.3,0,0.4,0.2,0.4,0.4c0,0.2-0.1,0.4-0.2,0.7c-0.1,0.4-0.3,1.4-0.3,3.8v27h14.2V47.1z M177.8,60.7c0.3-0.1,0.3-0.2,0.5,0.1
				c1.2,2.4,1.9,4.2,2.6,6.6c0.1,0.3,0,0.4-0.3,0.6l-0.9,0.4c-0.5,0.2-0.6,0.2-0.7-0.1c-0.2-0.8-0.4-1.4-0.6-2.1
				c-2.7,0.5-4.9,0.9-7.2,1.2c-0.9,0.1-1.2,0.3-1.4,0.4c-0.1,0-0.3,0.2-0.5,0.2c-0.2,0-0.3-0.2-0.4-0.6c-0.2-0.7-0.3-1.2-0.5-2
				c0.5,0,1,0,1.7,0c1.4-2.2,2.6-4.3,3.7-6.2c-1.8-2.7-3.2-4.6-5.1-6.6c-0.3-0.3-0.2-0.3,0.2-0.7l0.7-0.9c0.3-0.3,0.4-0.3,0.6-0.1
				l1.1,1.3c1.1-2.1,1.7-3.7,2.4-5.8c0.6-1.7,0.7-2.4,0.8-3.3c0.9,0.3,1.5,0.6,2.1,0.9c0.3,0.2,0.6,0.3,0.6,0.5s-0.1,0.3-0.3,0.5
				c-0.2,0.2-0.5,0.7-0.7,1.2c-1.1,2.9-2,5.1-3.4,7.9c0.8,1,1.4,2,2.3,3.1l1.2-2.5c1-2.2,1.3-3.1,1.5-4c0.9,0.3,1.5,0.7,2.1,1
				c0.3,0.2,0.5,0.4,0.5,0.6c0,0.3-0.2,0.4-0.4,0.6c-0.3,0.2-0.6,0.8-1.3,2c-1.9,3.8-3.6,6.9-5.9,10.4c1.6-0.2,3.4-0.4,5.3-0.7
				c-0.3-0.9-0.7-1.8-1.2-2.8c-0.1-0.3-0.1-0.3,0.3-0.5L177.8,60.7z M194.3,60.3c0.3-0.2,0.4-0.2,0.6,0.1c1.1,2.2,2,4.3,2.8,6.9
				c0.1,0.3,0,0.3-0.4,0.6l-0.9,0.5c-0.5,0.3-0.6,0.2-0.6-0.2c-0.2-0.8-0.4-1.5-0.7-2.3c-2.6,0.6-4.9,1-7.3,1.4
				c-0.9,0.1-1.1,0.3-1.4,0.4c-0.2,0.1-0.3,0.3-0.6,0.3s-0.3-0.3-0.5-0.6c-0.2-0.6-0.4-1.2-0.5-2.1c0.4,0,0.9,0,1.4,0
				c1.4-2.1,2.7-4.3,3.7-6.2c-1.7-2.7-3.1-4.4-4.9-6.5c-0.3-0.3-0.2-0.3,0.1-0.7l0.7-0.8c0.3-0.3,0.4-0.3,0.6-0.1l1.1,1.3
				c1.1-2.1,1.8-3.8,2.4-5.7c0.5-1.4,0.7-2.3,0.8-3.3c0.9,0.3,1.5,0.6,2.1,0.9c0.4,0.2,0.6,0.3,0.6,0.5c0,0.2-0.2,0.4-0.3,0.5
				c-0.3,0.2-0.5,0.7-0.7,1.2c-1,2.7-2,4.9-3.5,7.6c0.7,0.9,1.4,1.9,2.2,2.9c0.6-1.1,1.1-2,1.5-3c0.7-1.6,1.1-2.6,1.3-3.7
				c0.8,0.4,1.5,0.7,2.1,1.1c0.3,0.2,0.5,0.4,0.5,0.6c0,0.2-0.1,0.3-0.4,0.5c-0.3,0.2-0.7,0.9-1.3,2.1c-1.8,3.5-3.7,6.9-6,10.6
				c1.7-0.2,3.6-0.5,5.7-0.9c-0.4-1-0.8-1.9-1.2-2.9c-0.1-0.3-0.1-0.3,0.4-0.6L194.3,60.3z"/>
			<path class="st1" d="M244.2,75.5c0,0.3,0,0.3-0.3,0.3c-0.2,0-1.6-0.1-5.5-0.1h-25.6c-4,0-5.3,0.1-5.5,0.1c-0.3,0-0.3,0-0.3-0.3
				v-1.7c0-0.3,0-0.3,0.3-0.3c0.2,0,1.6,0.1,5.5,0.1h7.7v-8.1h-5.1c-4.2,0-5.6,0.1-5.9,0.1c-0.3,0-0.3,0-0.3-0.3v-1.6
				c0-0.3,0-0.3,0.3-0.3c0.3,0,1.7,0.1,5.9,0.1h20.5c4.3,0,5.7-0.1,5.9-0.1c0.3,0,0.3,0,0.3,0.3v1.6c0,0.3,0,0.3-0.3,0.3
				c-0.2,0-1.6-0.1-5.9-0.1h-6v8.1h2.7c1.1-1.6,1.8-3,2.6-4.9c0.3-0.6,0.4-1.2,0.6-2c1,0.3,1.8,0.6,2.3,0.9c0.3,0.1,0.4,0.3,0.4,0.5
				c0,0.2-0.1,0.3-0.5,0.6c-0.4,0.3-0.4,0.5-0.8,1.1c-0.7,1.3-1.4,2.6-2.2,3.8h3.2c4,0,5.3-0.1,5.5-0.1c0.3,0,0.3,0,0.3,0.3V75.5z
				 M243.2,49.5c0,3.7,0.1,4.3,0.1,4.5c0,0.3,0,0.3-0.3,0.3h-1.9c-0.3,0-0.3,0-0.3-0.3v-6.4h-14.3v4.9c0,3,0.1,4.1,0.1,4.3
				c0,0.3,0,0.3-0.3,0.3h-2c-0.3,0-0.3,0-0.3-0.3c0-0.2,0.1-1.4,0.1-4.3v-4.9h-13.7v6.4c0,0.3,0,0.3-0.3,0.3H208
				c-0.3,0-0.3,0-0.3-0.3c0-0.3,0.1-0.8,0.1-4.5v-1.6c0-1.4-0.1-2-0.1-2.2c0-0.3,0-0.3,0.3-0.3c0.3,0,1.7,0.1,5.8,0.1h10.1v-2.9
				h-7.1c-4.3,0-5.8,0.1-6,0.1c-0.3,0-0.3,0-0.3-0.3v-1.6c0-0.3,0-0.3,0.3-0.3c0.2,0,1.7,0.1,6,0.1h17.3c4.3,0,5.8-0.1,6-0.1
				c0.3,0,0.3,0,0.3,0.3v1.6c0,0.3,0,0.3-0.3,0.3c-0.2,0-1.7-0.1-6-0.1h-7.8v2.9h10.7c4.1,0,5.6-0.1,5.8-0.1c0.3,0,0.3,0,0.3,0.3
				c0,0.2-0.1,0.9-0.1,2V49.5z M238.6,60.4c0,0.3,0,0.3-0.3,0.3c-0.2,0-1.7-0.1-6-0.1h-13.7c-4.3,0-5.7,0.1-6,0.1
				c-0.3,0-0.3,0-0.3-0.3v-1.5c0-0.3,0-0.3,0.3-0.3c0.3,0,1.7,0.1,6,0.1h13.7c4.3,0,5.7-0.1,6-0.1c0.3,0,0.3,0,0.3,0.3V60.4z
				 M213.9,67c0.4-0.2,0.5-0.2,0.7,0c1,1.2,2,2.8,2.7,4.5c0.1,0.3,0.1,0.4-0.4,0.6l-1,0.5c-0.5,0.3-0.7,0.3-0.8,0
				c-0.7-1.9-1.5-3.3-2.6-4.6c-0.2-0.3-0.2-0.3,0.3-0.6L213.9,67z M221.2,51.5c0,0.3,0,0.3-0.3,0.3c-0.3,0-0.7-0.1-2.7-0.1h-2.1
				c-2,0-2.4,0.1-2.6,0.1c-0.3,0-0.3,0-0.3-0.3v-1.3c0-0.3,0-0.3,0.3-0.3c0.2,0,0.7,0,2.6,0h2.1c2,0,2.4,0,2.7,0
				c0.3,0,0.3,0,0.3,0.3V51.5z M221.2,55.5c0,0.3,0,0.3-0.3,0.3c-0.3,0-0.7-0.1-2.7-0.1h-2.1c-2,0-2.4,0.1-2.6,0.1
				c-0.3,0-0.3,0-0.3-0.3v-1.3c0-0.3,0-0.3,0.3-0.3c0.2,0,0.7,0.1,2.6,0.1h2.1c2,0,2.4-0.1,2.7-0.1c0.3,0,0.3,0,0.3,0.3V55.5z
				 M227.4,65.6h-4.6v8.1h4.6V65.6z M237.8,51.5c0,0.3,0,0.3-0.3,0.3c-0.2,0-0.7-0.1-2.8-0.1h-2.3c-2.1,0-2.6,0.1-2.8,0.1
				c-0.3,0-0.3,0-0.3-0.3v-1.3c0-0.3,0-0.3,0.3-0.3c0.2,0,0.7,0,2.8,0h2.3c2.1,0,2.6,0,2.8,0c0.3,0,0.3,0,0.3,0.3V51.5z M237.8,55.5
				c0,0.3,0,0.3-0.3,0.3c-0.2,0-0.7-0.1-2.8-0.1h-2.3c-2.1,0-2.6,0.1-2.8,0.1c-0.3,0-0.3,0-0.3-0.3v-1.3c0-0.3,0-0.3,0.3-0.3
				c0.2,0,0.7,0.1,2.8,0.1h2.3c2.1,0,2.6-0.1,2.8-0.1c0.3,0,0.3,0,0.3,0.3V55.5z"/>
		</g>
		<g class="st0">
			<path class="st1" d="M56.2,120.5c-0.6-2.2-1.9-3.1-3.7-3.1c-2.2,0-3.5,1.1-3.5,2.8c0,1.8,0.9,2.7,3.7,3.4l0.8,0.2
				c4.2,1.1,5.3,2.6,5.3,5.1c0,3-2.2,5-6.1,5c-3.3,0-5.5-1.5-6.4-4.4l2.1-0.7c0.6,2.3,2.2,3.4,4.3,3.4c2.8,0,4-1.3,4-3.1
				c0-1.8-0.7-2.7-3.9-3.6l-0.7-0.2c-3.8-1-5-2.5-5-5.1c0-2.4,1.9-4.6,5.6-4.6c2.8,0,4.9,1.3,5.9,4.2L56.2,120.5z"/>
			<path class="st1" d="M75.3,127.8c0,4.2-2.7,6.2-6.4,6.2c-3.7,0-6.4-1.9-6.4-6.2V116h2.1v11.7c0,3.2,1.7,4.6,4.4,4.6
				c2.7,0,4.4-1.4,4.4-4.6V116h2V127.8z"/>
			<path class="st1" d="M86.3,123.1l7.1,10.5H91l-6-9.1l-2.7,2.8v6.3h-2.1V116h2.1v9l8-9h2.5L86.3,123.1z"/>
			<path class="st1" d="M98.8,133.6h-2.1V116h2.1V133.6z"/>
			<path class="st1" d="M112.5,120.5c-0.6-2.2-1.9-3.1-3.7-3.1c-2.2,0-3.5,1.1-3.5,2.8c0,1.8,0.9,2.7,3.7,3.4l0.8,0.2
				c4.2,1.1,5.3,2.6,5.3,5.1c0,3-2.2,5-6.1,5c-3.3,0-5.5-1.5-6.4-4.4l2.1-0.7c0.6,2.3,2.2,3.4,4.3,3.4c2.8,0,4-1.3,4-3.1
				c0-1.8-0.7-2.7-3.9-3.6l-0.7-0.2c-3.8-1-5-2.5-5-5.1c0-2.4,1.9-4.6,5.6-4.6c2.8,0,4.9,1.3,5.9,4.2L112.5,120.5z"/>
			<path class="st1" d="M131.7,133.6h-2.1v-8.4h-8.7v8.4h-2.1V116h2.1v7.5h8.7V116h2.1V133.6z"/>
			<path class="st1" d="M148.9,133.6h-2.2l-1.7-5.6h-6.3l-1.8,5.6h-2l5.7-17.6h2.6L148.9,133.6z M143.3,122.1
				c-0.5-1.5-0.8-2.8-1.2-4.5h-0.4c-0.4,1.7-0.8,3-1.2,4.5l-1.3,4.3h5.4L143.3,122.1z"/>
		</g>
		<g class="st0">
			<path class="st1" d="M337.5,62.3h2.9v1.4h-7.7v-1.4h3.1V50c-0.8,0.6-1.9,1.1-3.1,1.5l-0.3-1.6c1.3-0.4,2.5-1.1,3.6-1.8h1.4V62.3z
				"/>
			<path class="st1" d="M349.9,55.7c-0.4-1.2-1.2-1.9-2.4-1.9c-1.4,0-2.2,0.6-2.2,1.6c0,1,0.5,1.5,2.2,1.9l0.9,0.2
				c2.5,0.6,3.4,1.4,3.4,3.2c0,1.8-1.4,3.2-4.2,3.2c-2.1,0-3.7-0.8-4.3-2.6l1.7-0.6c0.4,1.4,1.5,2,2.7,2c1.8,0,2.5-0.8,2.5-1.8
				c0-1.1-0.4-1.5-2.4-2l-0.9-0.2c-2.4-0.6-3.2-1.5-3.2-3.1c0-1.7,1.3-3,3.8-3c2,0,3.4,0.9,4,2.6L349.9,55.7z"/>
		</g>
		<g class="st0">
			<path class="st1" d="M357.2,52.8h2.6v1.3h-2.6v6.7c0,1.2,0.5,1.8,1.5,1.8c0.5,0,0.9,0,1.4-0.1l-0.1,1.3c-0.6,0.1-1.1,0.1-1.7,0.1
				c-1.8,0-2.8-0.9-2.8-2.8v-7h-1.8v-1.3h1.8v-3.4l1.7-0.4V52.8z"/>
		</g>
		<g class="st0">
			<path class="st1" d="M371.9,50.5c-1.7,0-2.9,0.1-4,0.2c-0.2,0-0.3-0.1-0.4-0.2c-0.1-0.4-0.2-1-0.2-1.5c1.3,0.1,2.6,0.1,4.4,0.1
				h8.8c1.2,0,1.4-0.1,1.6-0.1c0.1,0,0.2-0.1,0.3-0.1c0.1,0,0.2,0.1,0.3,0.1c0.3,0.3,0.6,0.5,0.8,0.8c0.2,0.2,0.1,0.4-0.1,0.6
				c-0.2,0.1-0.3,0.3-0.5,0.5c-1,1.5-2.4,3-4.1,4.2c-0.2,0.1-0.4,0.1-0.6,0c-0.3-0.3-0.7-0.4-1.1-0.5c1.8-1.2,3.3-2.6,4.3-4.2H371.9
				z M373.3,59.3c0.8-1.6,1.1-3.3,1.1-5.2c0-0.7-0.1-1.2-0.2-1.8c0.6,0,1.3,0.1,1.7,0.3c0.3,0.1,0.3,0.4,0.2,0.6
				c-0.1,0.2-0.2,0.4-0.2,1c0,1.8-0.3,3.9-1.2,5.7c-0.8,1.7-2.3,3.1-4,4.2c-0.2,0.1-0.4,0.2-0.6,0c-0.3-0.3-0.7-0.5-1.1-0.7
				C371,62.4,372.5,61,373.3,59.3z"/>
			<path class="st1" d="M392,50.8c0.2,0.1,0.3,0.3,0.1,0.5c-0.1,0.3-0.2,0.8-0.2,1.7c-0.1,2.4-0.5,4.3-1.3,5.8
				c-0.8,1.6-1.8,2.7-3,3.8c-0.2,0.2-0.4,0.2-0.6,0.1c-0.3-0.3-0.7-0.4-1.1-0.5c1.4-1,2.7-2.3,3.4-4c0.7-1.5,1.1-3.2,1.1-5.5
				c0-0.9,0-1.5-0.2-2.2C391,50.5,391.7,50.7,392,50.8z M396.4,60.4c1.4-0.7,2.5-1.4,3.6-2.3c1.2-0.9,2.5-2,3.8-3.5
				c0,0.5,0.1,0.9,0.4,1.3c0.1,0.2,0.1,0.3-0.1,0.6c-1.1,1.1-2.2,2.1-3.4,3c-1.1,0.8-2.3,1.6-3.7,2.4c-0.4,0.2-0.5,0.3-0.7,0.5
				c-0.2,0.2-0.4,0.2-0.6,0c-0.3-0.2-0.6-0.5-0.8-0.8c-0.1-0.2-0.1-0.3,0-0.5c0.1-0.3,0.1-0.7,0.1-2.1v-6c0-2-0.1-3-0.2-3.7
				c0.6,0.1,1.4,0.2,1.8,0.3c0.3,0.1,0.3,0.3,0.1,0.6c-0.1,0.3-0.2,1.1-0.2,2.8V60.4z"/>
			<path class="st1" d="M412.5,54c0.4-1.1,0.7-1.7,0.7-2.4c0.7,0.2,1.3,0.5,1.7,0.7c0.3,0.2,0.2,0.4,0,0.6c-0.2,0.2-0.4,0.5-0.7,1.2
				c-1,2.3-2.5,4.7-4.8,7c-0.2,0.2-0.5,0.3-0.7,0.1c-0.2-0.2-0.7-0.4-1.2-0.6C410,58.5,411.6,56,412.5,54z M419.4,51.8
				c0.2-0.1,0.3-0.1,0.4,0c2.3,2.3,4.1,5,5.3,7.6c0.1,0.2,0.1,0.3-0.1,0.4c-0.2,0.2-0.6,0.5-1,0.7c-0.2,0.1-0.3,0.1-0.3-0.1
				c-1.3-3-3-5.7-5.3-8C418.8,52.2,419.2,52,419.4,51.8z M421.8,49.2c0.1-0.1,0.1-0.1,0.2,0c0.9,0.6,1.8,1.6,2.4,2.6
				c0.1,0.1,0,0.2,0,0.2l-0.6,0.5c-0.1,0.1-0.2,0.1-0.3,0c-0.6-1-1.5-2-2.5-2.7L421.8,49.2z M423.5,47.8c0.1-0.1,0.1-0.1,0.2,0
				c0.9,0.7,1.8,1.6,2.4,2.5c0.1,0.1,0,0.2-0.1,0.3l-0.6,0.5c-0.1,0.1-0.2,0.1-0.3,0c-0.5-0.9-1.4-1.9-2.4-2.7L423.5,47.8z"/>
		</g>
		<g class="st0">
			<path class="st1" d="M440.2,48.6c0.2,0.1,0.2,0.4,0,0.6c-0.3,0.3-0.5,0.8-0.8,1.6c-1,3.1-2.5,7-4,10.3c2.9-0.2,6.2-0.5,9.1-1
				c-0.7-1.3-1.6-2.6-2.6-3.7c0.3-0.2,0.7-0.4,1-0.6c0.2-0.1,0.3-0.1,0.4,0.1c1.6,1.8,3,4.3,4.1,6.6c0.1,0.2,0,0.3-0.1,0.4
				c-0.3,0.2-0.6,0.4-0.9,0.5c-0.2,0.1-0.3,0-0.4-0.2c-0.3-0.6-0.6-1.2-0.9-1.8c-3.3,0.5-6.7,0.9-10.5,1.3c-1.6,0.2-1.9,0.3-2.2,0.4
				c-0.3,0.2-0.6,0.2-0.7-0.1c-0.1-0.3-0.3-1-0.5-1.8c0.8,0.1,1.5,0,2.5,0c1.5-3.6,3.1-7.8,3.8-10.1c0.5-1.6,0.6-2.5,0.7-3.3
				C439.1,48.1,439.8,48.4,440.2,48.6z"/>
		</g>
		<g class="st0">
			<path class="st1" d="M459,53.5h-1l-0.4-5.5h1.9L459,53.5z M463.1,53.5h-1l-0.4-5.5h1.9L463.1,53.5z"/>
			<path class="st1" d="M474.9,52c-0.6-1.9-1.7-2.8-3.3-2.8c-2,0-3.1,1-3.1,2.5c0,1.6,0.8,2.4,3.3,3l0.7,0.2c3.7,1,4.7,2.3,4.7,4.5
				c0,2.7-1.9,4.5-5.4,4.5c-2.9,0-4.9-1.3-5.7-3.9l1.8-0.6c0.5,2,2,3.1,3.8,3.1c2.4,0,3.5-1.1,3.5-2.7c0-1.6-0.6-2.4-3.5-3.2
				l-0.6-0.2c-3.4-0.9-4.4-2.2-4.4-4.5c0-2.2,1.7-4.1,5-4.1c2.5,0,4.4,1.2,5.2,3.7L474.9,52z"/>
			<path class="st1" d="M481.2,58.5c0,2.7,1.3,4.1,3.2,4.1c1.5,0,2.3-0.7,2.8-2.2l1.6,0.5c-0.7,2-2.1,3-4.4,3
				c-2.9,0-4.8-2.1-4.8-5.7c0-3.5,2-5.7,4.7-5.7c2.7,0,4.6,2.1,4.6,5.5v0.4H481.2z M487.2,57.3c-0.2-2.2-1.2-3.4-2.9-3.4
				c-1.7,0-2.8,1.3-3,3.4H487.2z"/>
			<path class="st1" d="M500.8,53c-1.1,0-1.6,0.2-2.2,0.8c0.7,0.6,1.1,1.4,1.1,2.4c0,2.2-1.7,3.5-4,3.5c-0.6,0-1.1-0.1-1.6-0.3
				c-0.6,0.4-1,0.8-1,1.2c0,0.6,0.3,0.8,2,1l2.2,0.2c2.9,0.3,3.7,1.2,3.7,2.6c0,1.7-1.8,3.1-5.2,3.1c-3.1,0-4.8-1-4.8-2.6
				c0-1,0.8-1.8,2.1-2.3c-1.1-0.3-1.6-0.8-1.6-1.6c0-0.8,0.5-1.5,1.6-2.2c-0.9-0.6-1.4-1.6-1.4-2.8c0-2.1,1.8-3.5,4-3.5
				c0.8,0,1.6,0.2,2.1,0.5c0.8-1.2,1.6-1.7,3.1-1.7L500.8,53z M494.4,63c-1.3,0.4-1.9,1-1.9,1.7c0,1.1,1.4,1.7,3.3,1.7
				c2.3,0,3.5-0.8,3.5-1.7c0-0.8-0.4-1.3-2.5-1.5L494.4,63z M493.3,56.2c0,1.5,1.1,2.4,2.4,2.4s2.4-0.9,2.4-2.4
				c0-1.5-1.1-2.4-2.4-2.4S493.3,54.7,493.3,56.2z"/>
			<path class="st1" d="M505.3,54.8c1-1.4,2.1-2.2,3.5-2.2c1.5,0,2.5,0.9,2.7,2.2c1-1.3,2.2-2.2,3.6-2.2c1.7,0,2.9,1.1,2.9,3.1v8
				h-1.7v-7.4c0-1.5-0.7-2.2-1.8-2.2c-1,0-2.1,0.9-2.9,2.1v7.4H510v-7.4c0-1.6-0.6-2.2-1.7-2.2c-1,0-2.1,0.8-2.9,2.1v7.4h-1.7V52.8
				h1.7V54.8z"/>
			<path class="st1" d="M523,58.5c0,2.7,1.3,4.1,3.2,4.1c1.5,0,2.3-0.7,2.8-2.2l1.6,0.5c-0.7,2-2.1,3-4.4,3c-2.9,0-4.8-2.1-4.8-5.7
				c0-3.5,2-5.7,4.7-5.7c2.7,0,4.6,2.1,4.6,5.5v0.4H523z M528.9,57.3c-0.2-2.2-1.2-3.4-2.9-3.4c-1.7,0-2.8,1.3-3,3.4H528.9z"/>
			<path class="st1" d="M535.4,54.8c1.1-1.4,2.4-2.2,3.8-2.2c1.8,0,3,1.1,3,3.1v8h-1.8v-7.4c0-1.6-0.7-2.2-1.8-2.2
				c-1,0-2.2,0.8-3.2,2.1v7.4h-1.7V52.8h1.7V54.8z"/>
			<path class="st1" d="M548.3,52.8h2.6v1.3h-2.6v6.7c0,1.2,0.5,1.8,1.5,1.8c0.5,0,0.9,0,1.4-0.1l-0.1,1.3c-0.6,0.1-1.1,0.1-1.7,0.1
				c-1.8,0-2.8-0.9-2.8-2.8v-7h-1.8v-1.3h1.8v-3.4l1.7-0.4V52.8z"/>
			<path class="st1" d="M568.3,58.3c0,3.5-1.9,5.7-4.7,5.7c-2.8,0-4.7-2.2-4.7-5.7c0-3.5,1.9-5.7,4.7-5.7
				C566.3,52.6,568.3,54.7,568.3,58.3z M560.7,58.3c0,2.8,1.1,4.4,2.9,4.4s2.9-1.5,2.9-4.4c0-2.8-1.1-4.3-2.9-4.3
				C561.8,53.9,560.7,55.5,560.7,58.3z"/>
			<path class="st1" d="M576.3,49.2c-0.3,0-0.7-0.1-0.9-0.1c-1.1,0-1.6,0.5-1.6,1.7v2.1h2.4v1.3h-2.4v9.5h-1.7v-9.5h-1.9v-1.3h1.9
				v-2.1c0-2,1-3,3-3c0.4,0,0.9,0,1.4,0.1L576.3,49.2z"/>
			<path class="st1" d="M594.6,52.7c-0.5-2.3-1.8-3.4-3.8-3.4c-2.7,0-4.6,2.3-4.6,6.6c0,4.3,2,6.6,4.6,6.6c2.1,0,3.4-1,4-3.5
				l1.8,0.6c-0.9,3.1-2.9,4.4-5.8,4.4c-3.8,0-6.5-3-6.5-8.1c0-5.2,2.8-8.1,6.5-8.1c3,0,5,1.7,5.7,4.5L594.6,52.7z"/>
			<path class="st1" d="M599.1,55.4c0.6-1.9,2.1-2.8,4.3-2.8c2.6,0,3.9,1.1,3.9,3.6v4c0,1.6,0.1,2.7,0.2,3.5H606
				c-0.1-0.5-0.2-1-0.2-1.7c-0.9,1.3-2.2,2-3.7,2c-2.1,0-3.3-1.3-3.3-3.2c0-1.8,1.1-3.1,3.6-3.6c1-0.2,2.2-0.3,3.4-0.3v-0.6
				c0-1.7-0.7-2.4-2.3-2.4c-1.3,0-2.3,0.7-2.6,2.1L599.1,55.4z M605.6,58.1c-1.2,0-2.2,0.2-3,0.3c-1.6,0.3-2.3,1.1-2.3,2.3
				c0,1.2,0.7,2,2.1,2c1.2,0,2.3-0.7,3.2-2.1V58.1z"/>
			<path class="st1" d="M615.9,57l4,6.7h-2l-3.2-5.6l-1.9,2v3.5h-1.7V47.8h1.7v10.5l4.8-5.4h2L615.9,57z"/>
			<path class="st1" d="M623.4,58.5c0,2.7,1.3,4.1,3.2,4.1c1.5,0,2.3-0.7,2.8-2.2L631,61c-0.7,2-2.1,3-4.4,3c-2.9,0-4.8-2.1-4.8-5.7
				c0-3.5,2-5.7,4.7-5.7c2.7,0,4.6,2.1,4.6,5.5v0.4H623.4z M629.4,57.3c-0.2-2.2-1.2-3.4-2.9-3.4c-1.7,0-2.8,1.3-3,3.4H629.4z"/>
			<path class="st1" d="M639.9,55.7c-0.4-1.2-1.2-1.9-2.4-1.9c-1.4,0-2.2,0.6-2.2,1.6c0,1,0.5,1.5,2.2,1.9l0.9,0.2
				c2.5,0.6,3.4,1.4,3.4,3.2c0,1.8-1.4,3.2-4.2,3.2c-2.1,0-3.7-0.8-4.3-2.6l1.7-0.6c0.4,1.4,1.5,2,2.7,2c1.8,0,2.5-0.8,2.5-1.8
				c0-1.1-0.4-1.5-2.4-2l-0.9-0.2c-2.4-0.6-3.2-1.5-3.2-3.1c0-1.7,1.3-3,3.8-3c2,0,3.4,0.9,4,2.6L639.9,55.7z"/>
		</g>
		<g class="st0">
			<path class="st1" d="M645.9,53.5h-1l-0.4-5.5h1.9L645.9,53.5z M649.9,53.5h-1l-0.4-5.5h1.9L649.9,53.5z"/>
		</g>
		<g class="st0">
			<path class="st1" d="M671.8,51.4c0.1,0,0.1,0,0.2,0.1c0.1,0.3,0.3,0.8,0.3,1.1c0,0.1,0,0.2-0.1,0.2c-2,0.6-3.7,0.9-5.6,1
				c0,2.1,0.2,3.9,0.4,5.8c2,0.6,4.2,1.5,6.1,2.7c0.1,0.1,0.1,0.1,0.1,0.3c-0.1,0.3-0.4,0.8-0.6,1c-0.1,0.1-0.1,0.1-0.2,0
				c-1.9-1.3-3.5-2.1-5.2-2.7c0,0.1,0,0.3,0,0.6c0,1.8-1.4,3.1-3.8,3.1c-2.6,0-4.1-1.1-4.1-2.7c0-1.7,1.9-2.8,4.1-2.8
				c0.8,0,1.6,0,2.3,0.1c-0.2-2-0.4-4.5-0.4-6.9c0-0.9,0-2.3,0-3.3c0-0.6,0-1.2-0.2-1.7c0.6,0,1.1,0.1,1.7,0.3
				c0.3,0.1,0.3,0.3,0.2,0.5c-0.1,0.3-0.2,0.5-0.2,1.1c0,0.7,0,1.8,0,3.2C668.4,52.3,670.1,51.9,671.8,51.4z M663.3,60.4
				c-1.8,0-2.8,0.7-2.8,1.6c0,0.9,1,1.4,2.6,1.4c1.6,0,2.6-0.8,2.6-2.2c0-0.2,0-0.3,0-0.5C664.8,60.5,664,60.4,663.3,60.4z"/>
			<path class="st1" d="M681.3,48c0.2,0.1,0.3,0.2,0.3,0.3c0,0.1,0,0.2-0.1,0.3c-0.2,0.2-0.3,0.4-0.4,0.8c-0.4,2-0.6,3.7-0.6,4.9
				c0,0.8,0,1.7,0.1,2.4c0.4-0.9,1.1-2.1,1.6-3.1c0.1,0.4,0.3,0.7,0.4,0.9c0.1,0.2,0.1,0.4,0,0.6c-0.6,1-1,2-1.3,2.8
				c-0.1,0.3-0.1,0.5-0.1,0.7c0,0.2,0,0.3-0.1,0.3c-0.2,0-0.7,0.1-1,0.1c-0.1,0-0.2-0.1-0.2-0.2c-0.3-0.9-0.5-2.3-0.5-4
				c0-1.3,0.2-3.3,0.5-5c0.1-0.9,0.2-1.6,0.2-2.4C680.4,47.6,680.9,47.8,681.3,48z M688,47.8c0.3,0.1,0.4,0.2,0.3,0.4
				c-0.1,0.2-0.1,0.6,0,1c0.2,2.4,0.3,4.1,0.3,5.6c0,3-0.5,5.3-1.7,7c-0.9,1.2-2,2.2-3.5,3.1c-0.2,0.1-0.4,0.1-0.6,0
				c-0.3-0.2-0.7-0.5-1.1-0.6c1.7-0.9,2.8-1.7,3.7-2.9c1.2-1.6,1.7-3.4,1.7-6.4c0-1.5-0.1-3.5-0.2-5.1c-0.1-1-0.2-1.6-0.4-2.2
				C687,47.7,687.6,47.7,688,47.8z"/>
		</g>
		<g class="st0">
			<path class="st1" d="M706.7,63c0,1.6-1.4,3-3,3s-3-1.3-3-3s1.4-3,3-3S706.7,61.3,706.7,63z M701.8,63c0,1,0.8,1.9,1.9,1.9
				c1.1,0,1.9-0.8,1.9-1.9c0-1-0.8-1.9-1.9-1.9C702.6,61.1,701.8,61.9,701.8,63z"/>
		</g>
		<g class="st0">
			<path class="st1" d="M350.7,98.4c-0.1,0.2-0.1,0.3-0.3,0.3c-0.1,0-0.2,0-0.3-0.1c-3.7-1.6-6.7-4-9-7.2c-2.3,3.3-5,5.6-8.7,7.4
				c-0.1,0.1-0.3,0.1-0.3,0.1c-0.1,0-0.2-0.1-0.3-0.3c-0.2-0.3-0.4-0.5-0.6-0.7c4.1-1.8,7-4.4,8.7-7.2c0.3-0.5,0.5-0.8,0.6-1.3
				c0.5,0.1,0.9,0.2,1.3,0.3c0.2,0.1,0.3,0.1,0.3,0.2c0,0.1,0,0.1-0.1,0.2c-0.1,0.1-0.1,0.1-0.2,0.2c2.3,3.3,5.8,5.8,9.5,7.2
				C351,97.7,350.8,98,350.7,98.4z M350.1,107.6c0,0.1,0,0.2-0.2,0.2c-0.1,0-0.8,0-2.8,0h-11.8c-2.1,0-2.7,0-2.9,0
				c-0.1,0-0.2,0-0.2-0.2v-0.9c0-0.1,0-0.2,0.2-0.2c0.1,0,0.8,0,2.9,0h5.1V103h-2.3c-2.1,0-2.8,0-2.9,0c-0.1,0-0.2,0-0.2-0.2v-0.9
				c0-0.1,0-0.2,0.2-0.2c0.1,0,0.8,0,2.9,0h2.3v-3.2h-1.8c-2,0-2.7,0-2.8,0c-0.1,0-0.2,0-0.2-0.2v-0.9c0-0.1,0-0.2,0.2-0.2
				c0.1,0,0.8,0,2.8,0h5.1c2,0,2.7,0,2.8,0s0.1,0,0.1,0.2v0.9c0,0.1,0,0.2-0.1,0.2s-0.8,0-2.8,0h-2v3.2h2.6c2.1,0,2.8,0,2.9,0
				c0.2,0,0.2,0,0.2,0.2v0.9c0,0.1,0,0.2-0.2,0.2c-0.1,0-0.8,0-2.9,0h-2.6v3.5h5.4c2,0,2.7,0,2.8,0c0.1,0,0.2,0,0.2,0.2V107.6z"/>
			<path class="st1" d="M364.4,94c-3.2,0.5-6,1-8.6,1.5c-0.8,0.1-1,0.2-1.3,0.4c-0.1,0.1-0.3,0.1-0.4,0.1c-0.1,0-0.2-0.1-0.3-0.2
				c-0.2-0.4-0.4-0.9-0.6-1.5c0.8,0,1.3-0.1,2.6-0.3c3.2-0.5,7.5-1.1,13.2-1.8c0.2,0,0.3,0,0.4,0.2c0.1,0.3,0.1,0.8,0.1,1.1
				c0,0.2-0.1,0.2-0.3,0.3c-1.1,0.1-2,0.2-3.1,0.6c-3.1,1.2-5.5,3.8-5.5,6.7c0,3.5,3.1,4.6,6.2,4.8c0.3,0,0.3,0.1,0.3,0.2
				c0,0.2-0.1,0.7-0.1,1c0,0.2-0.1,0.3-0.3,0.3c-3.6-0.3-7.5-1.8-7.5-6.1C359.3,98.3,361.1,95.8,364.4,94L364.4,94z"/>
			<path class="st1" d="M382.6,93.9c-0.4,3.6-1.5,7.1-2.8,9.3c-0.9,1.6-1.9,2.2-3.1,2.2c-1.6,0-3.1-1.7-3.1-4.8c0-2,0.9-4,2.5-5.5
				c1.6-1.5,3.7-2.4,6.4-2.4c4.8,0,7.6,2.8,7.6,6.8c0,3.5-2.1,6.2-6.8,7.4c-0.3,0.1-0.4,0-0.6-0.2c-0.1-0.2-0.4-0.5-0.8-0.8
				c4.2-0.8,6.6-3.1,6.6-6.7c0-3.1-2.4-5.4-5.5-5.4H382.6z M377,95.9c-1.4,1.4-2,3.1-2,4.6c0,2.3,1,3.3,1.7,3.3c0.7,0,1.4-0.5,2-1.6
				c1.1-1.9,2.2-5.2,2.5-8.3C379.5,94.2,378,94.9,377,95.9z"/>
			<path class="st1" d="M398.4,95.6c-0.2,0.1-0.3,0.3-0.5,0.6c-0.8,1.1-1.6,2-2.9,3c-0.1,0.1-0.2,0.2-0.3,0.2
				c-0.1,0-0.2-0.1-0.4-0.3c-0.2-0.2-0.4-0.4-0.6-0.5c1.6-0.9,2.4-1.9,3.2-3c0.2-0.4,0.4-0.7,0.5-1.1c0.4,0.1,0.8,0.3,1.1,0.5
				c0.1,0.1,0.2,0.1,0.2,0.2C398.6,95.4,398.6,95.5,398.4,95.6z M397,102.5c0.2,0.1,0.3,0.2,0.2,0.3c-0.5,1.6-1.2,3-2.2,4.2
				c-0.1,0.1-0.1,0.1-0.4,0l-0.6-0.4c-0.3-0.2-0.3-0.2-0.1-0.4c1-1.1,1.7-2.4,2.1-3.9c0-0.2,0.1-0.2,0.4-0.1L397,102.5z M412,93.2
				c0,0.1,0,0.2-0.2,0.2c-0.1,0-0.8,0-2.8,0h-3.1v2.9c0,1.1,0,1.7,0,2.1c0,0.6-0.2,1.1-0.7,1.4c-0.4,0.2-0.8,0.3-1.9,0.3
				c-0.4,0-0.5,0-0.6-0.4c-0.1-0.3-0.2-0.6-0.4-0.8c0.5,0,0.9,0.1,1.3,0.1c0.7,0,0.9-0.2,0.9-0.9v-4.7h-2.8c-0.1,4-1.3,5.8-4,7.2
				c-0.1,0.1-0.3,0.1-0.3,0.1c-0.1,0-0.2-0.1-0.3-0.3c-0.2-0.2-0.5-0.4-0.8-0.5c2.9-1.4,4.1-2.7,4.1-6.6H397c-2,0-2.7,0-2.8,0
				c-0.1,0-0.2,0-0.2-0.2v-0.9c0-0.1,0-0.2,0.2-0.2c0.1,0,0.8,0,2.8,0h5.3v-0.4c0-1.1,0-1.7-0.1-2.2c0.5,0,1,0.1,1.4,0.1
				c0.1,0,0.3,0.1,0.3,0.2c0,0.1-0.1,0.3-0.1,0.4c-0.1,0.2-0.1,0.5-0.1,1.5v0.4h5.5c2,0,2.7,0,2.8,0c0.1,0,0.2,0,0.2,0.2V93.2z
				 M400.4,105.7c0,0.6,0.1,0.9,0.4,1.1c0.3,0.2,1,0.3,2.4,0.3c1.7,0,2.5-0.1,3.1-0.4c0.4-0.3,0.7-1.1,0.7-2.4
				c0.2,0.2,0.6,0.4,0.9,0.5c0.4,0.1,0.4,0.1,0.3,0.6c-0.2,1.3-0.6,2.1-1.1,2.4c-0.8,0.5-2,0.6-3.9,0.6c-1.7,0-2.6-0.1-3.2-0.4
				c-0.5-0.3-0.9-0.7-0.9-1.8v-2.9c0-0.6,0-1.1-0.1-1.7c0.5,0,1.1,0.1,1.3,0.2c0.2,0,0.3,0.1,0.3,0.2c0,0.1,0,0.2-0.1,0.3
				c-0.1,0.2-0.1,0.5-0.1,1.1V105.7z M402.8,101c0.1-0.1,0.2-0.1,0.3,0c0.9,0.7,1.6,1.4,2.4,2.5c0.1,0.1,0.1,0.2-0.1,0.3l-0.6,0.4
				c-0.3,0.2-0.3,0.2-0.4,0.1c-0.7-1-1.4-1.9-2.3-2.7c-0.1-0.1-0.1-0.1,0.1-0.3L402.8,101z M408.2,94.6c0.2-0.1,0.3-0.1,0.4,0
				c1.2,1.1,2.2,2.4,3.1,3.8c0.1,0.1,0.1,0.2-0.2,0.3l-0.6,0.4c-0.1,0.1-0.2,0.1-0.3,0.1c-0.1,0-0.1-0.1-0.1-0.1
				c-0.9-1.6-1.8-2.8-3-3.8c-0.1-0.1-0.1-0.1,0.1-0.3L408.2,94.6z M409.3,102.1c0.2-0.1,0.2-0.1,0.3,0c1.1,1.2,1.8,2.4,2.6,3.8
				c0.1,0.1,0,0.2-0.1,0.3l-0.7,0.4c-0.1,0.1-0.2,0.1-0.3,0.1c-0.1,0-0.1,0-0.2-0.2c-0.6-1.4-1.4-2.6-2.4-3.8
				c-0.1-0.1-0.1-0.2,0.1-0.3L409.3,102.1z"/>
			<path class="st1" d="M432.9,108c-0.1,0.2-0.2,0.3-0.3,0.3s-0.2,0-0.3-0.1c-4.8-3.1-7.1-7.4-7.9-11.7c-0.9,5.3-3.8,9.2-8.1,11.7
				c-0.1,0.1-0.2,0.1-0.3,0.1s-0.1-0.1-0.3-0.3c-0.2-0.3-0.5-0.6-0.8-0.8c5.7-2.7,8.6-8.3,8.5-14.4c0-1.2,0-1.8-0.1-2.5
				c0.5,0,1.1,0.1,1.6,0.2c0.2,0,0.3,0.1,0.3,0.3c0,0.2-0.1,0.3-0.1,0.4c-0.1,0.2-0.2,0.7-0.2,1.2c0,0.4,0,0.7,0,1.1
				c0.9,5.7,3.2,10.6,8.8,13.7C433.3,107.4,433.1,107.7,432.9,108z"/>
			<path class="st1" d="M446.8,93.8c0.2,0,0.2,0,0.3,0.1c0,0.3,0.1,0.6,0.1,0.9c0,0.2,0,0.3-0.2,0.3c-1.4,0.4-2.6,0.7-3.8,0.9
				c-1.3,4.3-2.6,8-4.1,11.5c-0.1,0.2-0.2,0.2-0.3,0.1c-0.2-0.1-0.7-0.3-1-0.5c-0.1-0.1-0.1-0.2-0.1-0.3c1.8-3.7,3-7.1,4-10.6
				c-1.4,0.1-2.8,0.2-4.3,0.3c-0.3,0-0.3,0-0.3-0.2c0-0.3-0.1-0.7-0.2-1.2c0.4,0,0.8,0,1.3,0c1,0,2.5-0.1,3.8-0.3
				c0.3-1.1,0.5-1.9,0.6-2.7c0.1-0.6,0.2-1.3,0.2-2c0.6,0.1,1.3,0.3,1.7,0.5c0.1,0,0.2,0.1,0.2,0.2s-0.1,0.2-0.2,0.3
				c-0.1,0.2-0.2,0.4-0.3,0.8c-0.3,0.9-0.4,1.7-0.7,2.6C444.4,94.5,445.6,94.1,446.8,93.8z M445.7,103.5c0.2,0,0.2,0,0.2,0.2
				c0.1,1.9,1.3,2.5,4,2.5c1.1,0,2.3-0.1,3.1-0.3c0.2,0,0.2,0,0.3,0.1c0,0.3,0.1,0.7,0.1,1c0,0.2-0.1,0.3-0.2,0.3
				c-0.7,0.1-1.8,0.2-2.8,0.2c-2.3,0-3.7-0.3-4.7-1.2c-0.7-0.6-1-1.6-1-2.9C445.1,103.5,445.5,103.5,445.7,103.5z M446.3,98
				c0-0.2,0-0.3,0.3-0.3c1.2-0.3,2.5-0.4,3.7-0.4c0.9,0,1.8,0.1,2.6,0.2c0.3,0,0.3,0.1,0.3,0.2c0,0.2,0,0.7,0,0.9
				c0,0.3-0.1,0.3-0.3,0.3c-0.9-0.1-1.8-0.2-2.7-0.2c-1.3,0-2.6,0.2-3.9,0.5C446.3,98.8,446.3,98.3,446.3,98z"/>
			<path class="st1" d="M462.2,92.2c0.1-0.8,0.1-1.3,0-1.9c0.7,0.1,1.3,0.2,1.7,0.4c0.1,0.1,0.2,0.1,0.2,0.3c0,0.1-0.1,0.2-0.1,0.3
				c-0.1,0.1-0.2,0.4-0.3,0.7c-0.1,0.8-0.2,1.4-0.3,2.3c1.3-0.2,3.1-0.5,4.6-0.9c0.2-0.1,0.3,0,0.3,0.1c0,0.3,0.1,0.6,0.1,0.9
				c0,0.2,0,0.2-0.2,0.3c-1.7,0.4-3.3,0.7-5,0.9c-0.3,2.1-0.7,4-1.2,5.9c1.8-2,4.2-2.9,6.4-2.9c3,0,4.5,1.8,4.5,3.8
				c0,1.7-0.8,3-2.5,4c-1.3,0.7-3.1,1.2-5.4,1.5c-0.3,0.1-0.7,0.1-1,0.1c-0.1,0-0.2-0.1-0.3-0.3c-0.2-0.4-0.4-0.7-0.7-0.9
				c2.9-0.2,4.6-0.6,6.3-1.3c1.4-0.7,2.2-1.7,2.2-3.1c0-1.6-1.1-2.6-3.1-2.6c-2.4,0-4.8,1.3-6,3c-0.2,0.3-0.4,0.5-0.5,0.7
				c-0.1,0.2-0.2,0.3-0.4,0.3c-0.2,0-0.7-0.2-0.9-0.3c-0.2-0.1-0.3-0.2-0.3-0.3c0-0.1,0-0.2,0.1-0.4c0.1-0.3,0.2-0.6,0.2-0.8
				c0.5-1.9,0.9-3.9,1.3-6.2c-1.3,0.1-2.9,0.2-4.2,0.2c-0.2,0-0.3-0.1-0.3-0.2c0-0.2-0.1-0.7-0.2-1.1c1.6,0,3.3,0,4.9-0.2
				C462.1,93.7,462.1,93.2,462.2,92.2z"/>
			<path class="st1" d="M483.2,92.9c0.2-0.7,0.2-1.3,0.2-2c0.7,0.2,1.1,0.3,1.7,0.6c0.2,0.1,0.3,0.4,0.1,0.6
				c-0.2,0.2-0.3,0.3-0.4,0.7c-0.3,1-0.6,2-0.9,3.1c0.7-0.1,1.6-0.1,2.1-0.1c1.8,0,2.8,0.9,2.8,3.5c0,2.7-0.5,5.3-1.2,6.8
				c-0.5,1.2-1.4,1.7-2.4,1.7c-0.9,0-1.6-0.1-2.2-0.4c-0.2-0.1-0.3-0.2-0.3-0.4c0-0.4-0.1-0.8-0.3-1.3c0.9,0.4,1.7,0.6,2.5,0.6
				c0.6,0,1-0.2,1.4-1.1c0.5-1.2,1-3.4,1-6c0-1.7-0.3-2.3-1.5-2.3c-0.7,0-1.6,0.1-2.3,0.2c-1.2,3.7-2.6,7-4.3,10.1
				c-0.1,0.1-0.2,0.2-0.4,0.1c-0.2-0.1-0.6-0.4-0.9-0.6c-0.1-0.1-0.1-0.2,0-0.3c1.8-3,3-5.9,4.1-9.1c-0.9,0.1-1.7,0.3-2.8,0.5
				c-0.4,0.1-0.8,0.2-0.9,0.3c-0.2,0.1-0.4,0.1-0.6-0.1c-0.2-0.4-0.3-0.9-0.5-1.4c0.8,0,1.6,0,2.2-0.1c1.2-0.1,2-0.3,3-0.4
				C482.7,94.9,482.9,94.1,483.2,92.9z M490.9,94.6c0.1,0,0.2,0,0.3,0.1c1.5,1.3,2.7,3.1,3.4,5.1c0,0.1,0.1,0.3-0.1,0.4
				c-0.2,0.2-0.6,0.4-0.9,0.6c-0.2,0.1-0.3,0.1-0.4-0.1c-0.7-2.2-1.8-4-3.4-5.4C490.2,95,490.5,94.8,490.9,94.6z M491.3,91.3
				c0.1-0.1,0.1,0,0.2,0c0.9,0.6,1.8,1.6,2.4,2.6c0.1,0.1,0,0.2,0,0.2l-0.6,0.5c-0.1,0.1-0.2,0.1-0.3,0c-0.6-1-1.5-2-2.5-2.7
				L491.3,91.3z M493.1,90c0.1-0.1,0.1-0.1,0.2,0c0.9,0.7,1.8,1.6,2.4,2.5c0.1,0.1,0,0.2-0.1,0.3l-0.6,0.5c-0.1,0.1-0.2,0.1-0.3,0
				c-0.5-0.9-1.4-1.9-2.4-2.7L493.1,90z"/>
			<path class="st1" d="M496.5,104.1c0.1-0.1,0.2-0.1,0.2-0.1s0.1,0,0.2,0.1c1.6,1,2.8,2.2,4.1,3.8c0.1,0.1,0.1,0.2,0.1,0.3
				c0,0.1,0,0.1-0.1,0.3l-0.8,0.6c-0.1,0.1-0.2,0.1-0.2,0.1c-0.1,0-0.1,0-0.2-0.2c-1.1-1.6-2.5-3-3.9-4c-0.1-0.1-0.1-0.1-0.1-0.1
				c0-0.1,0-0.1,0.1-0.2L496.5,104.1z"/>
			<path class="st1" d="M525.3,101.3c0,0.1,0,0.2-0.2,0.2c-0.1,0-0.8,0-2.8,0h-5.9v2.4h4.3c2.1,0,2.8,0,3,0c0.1,0,0.2,0,0.2,0.2v0.9
				c0,0.1,0,0.2-0.2,0.2c-0.1,0-0.8,0-3,0h-4.3v1.5c0,1.5,0,2.1,0,2.2c0,0.1,0,0.1-0.2,0.1h-1c-0.2,0-0.2,0-0.2-0.1
				c0-0.1,0-0.7,0-2.2v-1.5h-4.1c-2.2,0-2.8,0-3,0c-0.1,0-0.2,0-0.2-0.2v-0.9c0-0.1,0-0.2,0.2-0.2c0.1,0,0.8,0,3,0h4.1v-2.4h-5.5
				c-2,0-2.7,0-2.8,0c-0.1,0-0.2,0-0.2-0.2v-0.9c0-0.1,0-0.2,0.2-0.2c0.1,0,0.8,0,2.8,0h8.1c0.5-0.7,1-1.5,1.4-2.2
				c0.1-0.3,0.3-0.6,0.4-1c0.4,0.1,0.8,0.2,1.2,0.4c0.1,0,0.2,0.1,0.2,0.2s-0.1,0.2-0.2,0.3c-0.1,0.1-0.3,0.3-0.4,0.5
				c-0.3,0.5-0.7,1.1-1.2,1.8h3.2c2,0,2.7,0,2.8,0c0.1,0,0.2,0,0.2,0.2V101.3z M525.1,96.6c0,0.1,0,0.2-0.2,0.2c-0.1,0-0.8,0-2.8,0
				h-12.3c-2,0-2.7,0-2.8,0c-0.1,0-0.2,0-0.2-0.2v-0.9c0-0.1,0-0.2,0.2-0.2c0.1,0,0.8,0,2.8,0h5.4v-2.3h-3.5c-2.2,0-2.9,0-3,0
				c-0.1,0-0.1,0-0.1-0.2v-0.9c0-0.1,0-0.2,0.1-0.2c0.1,0,0.8,0,3,0h3.5c0-1.3,0-1.8-0.1-2.5c0.5,0,1,0.1,1.4,0.1
				c0.1,0,0.2,0.1,0.2,0.2s-0.1,0.3-0.1,0.4c-0.1,0.3-0.1,0.7-0.1,1.8h3.7c2.2,0,2.9,0,3,0s0.1,0,0.1,0.2v0.9c0,0.1,0,0.2-0.1,0.2
				s-0.9,0-3,0h-3.7v2.3h5.6c2,0,2.7,0,2.8,0c0.1,0,0.2,0,0.2,0.2V96.6z M511.8,97.2c0.2-0.1,0.2-0.1,0.3,0c0.5,0.6,0.9,1.4,1.3,2.2
				c0.1,0.2,0,0.2-0.2,0.3l-0.6,0.3c-0.3,0.1-0.3,0.1-0.4,0c-0.4-0.9-0.8-1.6-1.3-2.3c-0.1-0.1-0.1-0.2,0.2-0.3L511.8,97.2z"/>
			<path class="st1" d="M540.7,92.3c0-0.7,0-1.2-0.2-1.8c0.8,0.1,1.3,0.2,1.7,0.3c0.2,0.1,0.3,0.1,0.3,0.3c0,0.1-0.1,0.3-0.1,0.3
				c-0.1,0.2-0.1,0.4-0.2,0.8c0,1.3,0,2.4-0.1,3.6c1.6-0.1,3-0.2,4.4-0.3c0.2,0,0.2,0,0.2,0.2c0,0.3,0,0.7,0,0.9
				c0,0.2,0,0.3-0.2,0.3c-1.5,0-2.9,0.1-4.4,0.2c-0.1,1.4-0.1,2.7-0.3,3.5c-0.2,1.6-1,2.1-2.2,2.1c-0.6,0-1.1-0.1-1.6-0.1
				c-0.2,0-0.2-0.1-0.3-0.4c0-0.4-0.2-0.8-0.3-1.2c0.7,0.2,1.4,0.3,2.1,0.3c0.6,0,0.9-0.3,1-1.2c0.1-0.8,0.2-1.9,0.2-2.9
				c-2,0.2-4.1,0.4-6.1,0.7c0,2.3-0.1,4.3,0,5.5c0.1,1.8,0.7,2.2,3.8,2.2c1.8,0,3.6-0.1,5.1-0.4c0.3,0,0.3,0,0.3,0.2
				c0,0.3,0.1,0.8,0.1,1c0,0.2,0,0.3-0.2,0.3c-1.2,0.2-3.2,0.3-5.1,0.3c-4.1,0-5.1-0.8-5.4-3.4c-0.1-0.9-0.1-3.3-0.1-5.5
				c-1.1,0.2-2,0.3-3,0.5c-0.3,0.1-0.6,0.1-1,0.3c-0.2,0.1-0.3,0-0.4-0.2c-0.1-0.3-0.3-0.8-0.4-1.3c0.5,0,1,0,1.6-0.1
				c1.1-0.1,2.2-0.4,3.2-0.5c0-0.8,0-1.6,0-2.4c0-0.9,0-1.3-0.3-2.1c0.6,0,1.3,0.1,1.7,0.3c0.2,0,0.3,0.2,0.3,0.3
				c0,0.1-0.1,0.3-0.1,0.4c-0.1,0.3-0.1,0.6-0.1,0.9c0,0.9,0,1.5-0.1,2.3c1.8-0.2,4.2-0.5,6.1-0.7C540.7,94.7,540.7,93.4,540.7,92.3
				z"/>
			<path class="st1" d="M561.1,94.1c-3.2,0.5-6,1-8.6,1.5c-0.8,0.1-1,0.2-1.3,0.4c-0.1,0.1-0.3,0.1-0.4,0.1s-0.2-0.1-0.3-0.2
				c-0.2-0.4-0.4-0.9-0.6-1.5c0.8,0,1.3-0.1,2.6-0.3c3.2-0.5,7.5-1.1,13.2-1.8c0.2,0,0.3,0,0.4,0.2c0.1,0.3,0.1,0.8,0.1,1.1
				c0,0.2-0.1,0.2-0.3,0.3c-1.1,0.1-2,0.2-3.1,0.6c-3.1,1.2-5.5,3.8-5.5,6.7c0,3.5,3.1,4.6,6.2,4.8c0.3,0,0.3,0.1,0.3,0.2
				c0,0.2-0.1,0.7-0.1,1c0,0.2-0.1,0.3-0.3,0.3c-3.6-0.3-7.5-1.8-7.5-6.1C555.9,98.4,557.8,95.9,561.1,94.1L561.1,94.1z M563.7,97.1
				c0.1,0,0.1,0,0.2,0c0.8,0.6,1.8,1.6,2.4,2.6c0.1,0.1,0,0.2,0,0.2l-0.6,0.5c-0.1,0.1-0.2,0.1-0.3,0c-0.6-1-1.5-2-2.5-2.7
				L563.7,97.1z M565.4,95.7c0.1-0.1,0.1-0.1,0.2,0c0.8,0.7,1.8,1.6,2.4,2.5c0.1,0.1,0,0.2-0.1,0.3l-0.6,0.5c-0.1,0.1-0.2,0.1-0.3,0
				c-0.5-0.9-1.4-1.9-2.4-2.7L565.4,95.7z"/>
			<path class="st1" d="M578.4,90.8c0.1,0.1,0.2,0.1,0.2,0.3c0,0.1,0,0.2-0.1,0.3c-0.1,0.2-0.2,0.4-0.3,0.9
				c-0.1,0.5-0.1,0.9-0.2,1.4c1.9-0.1,3.7-0.4,5.9-0.9c0.1,0,0.2,0,0.3,0.1c0.1,0.2,0.1,0.6,0.1,0.8c0,0.1-0.1,0.2-0.2,0.3
				c-2.6,0.6-4.3,0.8-6.2,0.9c-0.1,1.1-0.2,2-0.2,3c1.1-0.3,2.6-0.6,3.9-0.6c0.2-0.6,0.4-1.1,0.4-1.8c0.5,0.2,0.9,0.4,1.2,0.6
				c0.2,0.1,0.3,0.2,0.3,0.3c0,0.1-0.1,0.3-0.2,0.4c-0.1,0.2-0.2,0.4-0.3,0.6c3,0.4,4.7,2.4,4.7,4.9c0,3.3-3,5-6.2,5.8
				c-0.2,0.1-0.4,0-0.5-0.2c-0.1-0.2-0.4-0.6-0.7-0.8c1.5-0.3,3.1-0.9,4.1-1.6c0.9-0.6,1.8-1.6,1.8-3.4c0-2.3-1.8-3.5-3.7-3.7
				c-1.2,2.3-2.6,4.3-4.1,5.8c0.1,0.4,0.3,0.8,0.4,1.2c0.1,0.1,0,0.2-0.1,0.3c-0.3,0.2-0.6,0.3-0.8,0.4c-0.1,0-0.2,0-0.3-0.1
				c-0.1-0.3-0.3-0.6-0.4-1c-1.7,1.3-3,1.8-4,1.8c-1.4,0-1.9-1-1.9-2.2c0-2.2,1.8-4.8,5-6.3c0-1.2,0.1-2.3,0.2-3.4
				c-1.2,0.1-2,0.1-2.6,0.1c-0.5,0-0.8,0-1-0.1c-0.2,0-0.3-0.1-0.3-0.3c0-0.3-0.1-0.6-0.1-1c1.3,0.1,2.6,0.1,4.1,0
				c0.1-0.7,0.1-1.3,0.2-1.8c0-0.6,0-1-0.1-1.4C577.5,90.5,578.1,90.7,578.4,90.8z M572.6,104.5c0,0.6,0.3,1,0.9,1
				c0.7,0,1.9-0.5,3.3-1.7c-0.3-1.4-0.4-2.7-0.5-4.3C573.8,101,572.6,103,572.6,104.5z M581.1,98.3c-1.1,0-2.5,0.3-3.6,0.7
				c0,1.5,0.1,2.7,0.4,3.9C578.9,101.9,580.4,99.8,581.1,98.3z"/>
			<path class="st1" d="M595.7,91.2c0.2,0.1,0.3,0.2,0.3,0.3c0,0.1,0,0.2-0.1,0.3c-0.2,0.2-0.3,0.4-0.4,0.8c-0.4,2-0.6,3.7-0.6,4.9
				c0,0.8,0,1.7,0.1,2.4c0.4-0.9,1.1-2.1,1.6-3.1c0.1,0.4,0.3,0.7,0.4,0.9c0.1,0.2,0.1,0.4,0,0.6c-0.6,1-1,2-1.3,2.8
				c-0.1,0.3-0.1,0.5-0.1,0.7c0,0.2,0,0.3-0.1,0.3c-0.2,0-0.7,0.1-1,0.1c-0.1,0-0.2-0.1-0.2-0.2c-0.3-0.9-0.5-2.3-0.5-4
				c0-1.3,0.2-3.3,0.5-5c0.1-0.9,0.2-1.6,0.2-2.4C594.8,90.9,595.3,91.1,595.7,91.2z M602.4,91c0.3,0.1,0.4,0.2,0.3,0.4
				c-0.1,0.2-0.1,0.6,0,1c0.2,2.4,0.3,4.1,0.3,5.6c0,3-0.5,5.3-1.7,7c-0.9,1.2-2,2.2-3.5,3.1c-0.2,0.1-0.4,0.1-0.6,0
				c-0.3-0.2-0.7-0.5-1.1-0.6c1.7-0.9,2.8-1.7,3.7-2.9c1.2-1.6,1.7-3.4,1.7-6.4c0-1.5-0.1-3.5-0.2-5.1c-0.1-1-0.2-1.6-0.4-2.2
				C601.5,90.9,602,90.9,602.4,91z"/>
			<path class="st1" d="M615.3,99.7c-1.6,0.1-3.4,0.1-4.9-0.1c-0.2,0-0.2-0.1-0.2-0.3c0-0.3-0.1-0.8-0.1-1.1
				c1.6,0.2,3.5,0.2,5.1,0.1c0-1,0-2.1,0-3.2c-2.1,0.1-3.9,0.1-5.6-0.1c-0.1,0-0.2-0.1-0.2-0.2c0-0.3-0.1-0.6-0.1-1.1
				c1.9,0.2,3.9,0.3,5.9,0.2c0-0.9,0-1.5,0-2.3c0-0.6-0.1-1-0.2-1.4c0.7,0.1,1.3,0.1,1.7,0.3c0.2,0.1,0.3,0.3,0.2,0.5
				c-0.1,0.2-0.2,0.6-0.3,1c0,0.7,0,1.1-0.1,1.9c1.9-0.1,3.7-0.4,5.2-0.7c0.2,0,0.2,0,0.2,0.1c0,0.3,0.1,0.7,0.1,0.9
				c0,0.2-0.1,0.2-0.1,0.2c-1.7,0.3-3.4,0.5-5.3,0.6c0,1,0,2.1,0,3.1c1.6-0.1,3.1-0.3,4.7-0.6c0.1,0,0.2,0,0.2,0.1c0,0.3,0,0.7,0,1
				c0,0.1-0.1,0.2-0.2,0.2c-1.5,0.3-3,0.5-4.7,0.6c0,1.3,0.1,2.4,0.1,3.7c1.9,0.5,3.9,1.4,5.7,2.7c0.1,0.1,0.1,0.2,0.1,0.4
				c-0.1,0.3-0.3,0.7-0.5,0.9c-0.1,0.1-0.2,0.1-0.3,0.1c-1.7-1.3-3.1-2.1-4.8-2.7c0,2.4-1.2,3.3-3.8,3.3c-2.5,0-3.8-1-3.8-2.5
				c0-1.4,1.4-2.6,3.9-2.6c0.9,0,1.6,0.1,2.2,0.2C615.4,101.9,615.4,101,615.3,99.7z M613.2,104.1c-1.8,0-2.7,0.6-2.7,1.3
				c0,0.9,0.8,1.3,2.4,1.3c1,0,1.8-0.2,2.2-0.7c0.3-0.3,0.4-0.9,0.4-1.7C614.7,104.2,614,104.1,613.2,104.1z"/>
			<path class="st1" d="M644.3,94.7c0,0.2-0.1,0.2-0.3,0.2c-2.3-0.1-4.4-0.1-6.8,0c0,1.3,0,2.8,0,4.2c0.2,0.7,0.3,1.4,0.3,2.2
				c0,2.7-1.1,5-4.1,6.6c-0.2,0.1-0.4,0.2-0.5,0.2c-0.1,0-0.3-0.1-0.4-0.2c-0.2-0.2-0.6-0.5-1-0.6c3-1.3,4.4-3.2,4.6-5.4
				c-0.5,0.8-1.4,1.2-2.3,1.2c-1.5,0-2.8-1-2.8-3c0-1.8,1.3-3,2.9-3c0.8,0,1.6,0.2,2,0.7c0-1,0-2,0-3c-3,0.2-5.9,0.4-7.9,0.6
				c-0.5,0.1-0.8,0.2-0.9,0.2c-0.1,0-0.2-0.1-0.3-0.2c-0.1-0.3-0.2-0.8-0.3-1.4c0.7,0,1.4,0,2.7-0.1c1.7-0.1,3.9-0.3,6.7-0.4
				c0-0.9,0-1.3,0-2c0-0.5-0.1-0.9-0.2-1.4c0.6,0,1.3,0.1,1.6,0.2c0.2,0.1,0.4,0.2,0.4,0.3c0,0.1-0.1,0.2-0.1,0.4
				c-0.1,0.1-0.1,0.3-0.1,0.6c0,0.5,0,0.9,0,1.8c2.4-0.1,4.4-0.1,6.8-0.1c0.2,0,0.2,0,0.2,0.2V94.7z M632.3,100.2
				c0,1.2,0.8,1.8,1.7,1.8c1.2,0,1.9-0.9,1.9-1.9c0-1.1-0.8-1.8-1.9-1.8C633.2,98.4,632.3,99.1,632.3,100.2z"/>
			<path class="st1" d="M659.3,94.6c0.1,0,0.1,0,0.2,0.1c0.1,0.3,0.3,0.8,0.3,1.1c0,0.1,0,0.2-0.1,0.2c-2,0.6-3.7,0.9-5.6,1
				c0,2.1,0.2,3.9,0.4,5.8c2,0.6,4.2,1.5,6.1,2.7c0.1,0.1,0.1,0.1,0.1,0.3c-0.1,0.3-0.4,0.8-0.6,1c-0.1,0.1-0.1,0.1-0.2,0
				c-1.9-1.3-3.5-2.1-5.2-2.7c0,0.1,0,0.3,0,0.6c0,1.8-1.4,3.1-3.8,3.1c-2.6,0-4.1-1.1-4.1-2.7c0-1.7,1.9-2.8,4.1-2.8
				c0.8,0,1.6,0,2.3,0.1c-0.2-2-0.4-4.5-0.4-6.9c0-0.9,0-2.3,0-3.3c0-0.6,0-1.2-0.2-1.7c0.6,0,1.1,0.1,1.7,0.3
				c0.3,0.1,0.3,0.3,0.2,0.5c-0.1,0.3-0.2,0.5-0.2,1.1c0,0.7,0,1.8,0,3.2C655.8,95.5,657.6,95.2,659.3,94.6z M650.8,103.6
				c-1.8,0-2.8,0.7-2.8,1.6c0,0.9,1,1.4,2.6,1.4c1.6,0,2.6-0.8,2.6-2.2c0-0.2,0-0.3,0-0.5C652.3,103.7,651.5,103.6,650.8,103.6z"/>
			<path class="st1" d="M667.4,96.4c2-0.6,3.2-1,4.6-1c2.1,0,3.9,1.4,3.9,4.8c0,2-0.7,3.7-1.7,4.9c-1.1,1.3-2.4,2.2-3.8,3
				c-0.4,0.2-0.6,0.2-0.7,0c-0.3-0.3-0.6-0.5-1.1-0.7c2.1-1,3.5-2.1,4.5-3.5c0.7-0.9,1.2-2.1,1.2-3.9c0-2.6-1.3-3.3-2.6-3.3
				c-0.7,0-1.7,0.3-3.1,0.7c-1,0.4-1.5,0.6-1.9,0.9c-0.3,0.2-0.5,0.3-0.7,0.3c-0.1,0-0.3-0.2-0.4-0.3c-0.2-0.3-0.5-0.9-0.7-1.4
				C665.8,96.9,666.4,96.7,667.4,96.4z M674.5,91.8c0.2,0,0.2,0.1,0.2,0.3c0,0.3-0.2,0.8-0.3,1c-0.1,0.2-0.1,0.3-0.2,0.2
				c-2.1-0.4-3.7-0.7-5.8-1.6c-0.1,0-0.1-0.1-0.1-0.3c0.1-0.4,0.2-0.8,0.3-1.2C670.5,91.1,672.4,91.5,674.5,91.8z"/>
		</g>
		<g class="st0">
			<path class="st1" d="M718.8,92.1c0.2,0.1,0.3,0.2,0.3,0.3c0,0.1,0,0.2-0.1,0.4c-0.2,0.3-0.3,0.6-0.4,1.1c-0.6,2.5-1,5.3-1,7.3
				c0,1.6,0.1,2.6,0.3,3.7c0.5-1.2,1-2.1,1.6-3.6c0.1,0.3,0.3,0.6,0.5,0.8c0.1,0.1,0.1,0.1,0.1,0.2c0,0.1,0,0.2-0.1,0.3
				c-0.5,1.1-0.9,2.1-1.4,3.4c-0.1,0.1-0.1,0.3-0.1,0.5c0,0.2,0,0.3,0,0.5c0,0.1,0,0.2-0.1,0.2c-0.3,0.1-0.7,0.2-1,0.2
				c-0.1,0-0.2-0.1-0.2-0.2c-0.6-1.4-1-4.1-1-6.2c0-2.3,0.4-4.8,0.9-7.2c0.2-1,0.3-1.6,0.3-2.4C718,91.7,718.5,91.9,718.8,92.1z
				 M723.2,102.2c0.1,0,0.1,0,0.1,0.2c0.1,1.6,1.4,2.3,3.9,2.3c1.5,0,2.9-0.1,4.2-0.3c0.2,0,0.2,0,0.2,0.2c0,0.3,0.1,0.7,0.1,1
				c0,0.2,0,0.2-0.3,0.3c-1.3,0.1-2.5,0.2-3.8,0.2c-2.4,0-3.7-0.3-4.7-1.3c-0.6-0.6-0.9-1.5-0.9-2.5L723.2,102.2z M722.9,94.3
				c0-0.2,0-0.3,0.3-0.3c1.3-0.2,3.4-0.4,4.5-0.4c1.2,0,2.4,0,3,0.1c0.3,0,0.3,0,0.3,0.2c0,0.3,0,0.7,0,1c0,0.2,0,0.2-0.2,0.2
				c-0.8-0.1-2.2-0.1-3.4-0.1c-1.2,0-2.7,0.1-4.4,0.4C722.8,94.9,722.8,94.6,722.9,94.3z"/>
		</g>
		<g class="st0">
			<path class="st1" d="M742.8,106.2c0,1.6-1.4,3-3,3s-3-1.3-3-3s1.4-3,3-3S742.8,104.5,742.8,106.2z M737.9,106.2
				c0,1,0.9,1.9,1.9,1.9c1.1,0,1.9-0.8,1.9-1.9c0-1-0.8-1.9-1.9-1.9C738.7,104.3,737.9,105.1,737.9,106.2z"/>
		</g>
		<g class="st0">
			<path class="st1" d="M792.2,40.6c4,0,6.4,2.2,6.4,6.7s-2.7,6.9-6.7,6.9H788V40.6H792.2z M789.6,52.9h2.3c3,0,5-1.7,5-5.5
				s-1.9-5.4-4.9-5.4h-2.4V52.9z"/>
			<path class="st1" d="M803.2,43h-1.8v-1.8h1.8V43z M803,54.2h-1.5v-9.4h1.5V54.2z"/>
			<path class="st1" d="M810.8,46.1c-1.2,0-2.3,0.9-2.9,2.8v5.4h-1.5v-9.4h1.4v2.4c0.7-1.8,1.8-2.6,3.1-2.6L810.8,46.1z"/>
			<path class="st1" d="M814,49.7c0,2.3,1.1,3.6,2.8,3.6c1.3,0,2-0.6,2.4-1.9l1.4,0.5c-0.6,1.7-1.8,2.6-3.8,2.6
				c-2.5,0-4.2-1.8-4.2-4.9c0-3,1.7-5,4.1-5c2.3,0,4,1.8,4,4.8v0.3H814z M819.2,48.7c-0.1-1.9-1.1-2.9-2.5-2.9
				c-1.5,0-2.5,1.1-2.6,2.9H819.2z"/>
			<path class="st1" d="M829,47.8c-0.3-1.4-1.1-2-2.1-2c-1.6,0-2.5,1.3-2.5,3.7c0,2.4,1,3.8,2.5,3.8c1.2,0,1.9-0.7,2.2-2.1l1.4,0.4
				c-0.5,1.8-1.8,2.8-3.6,2.8c-2.5,0-4.1-1.8-4.1-4.9s1.6-5,4.1-5c1.8,0,3.1,1,3.6,2.8L829,47.8z"/>
			<path class="st1" d="M834.9,44.8h2.2V46h-2.2v5.8c0,1.1,0.5,1.5,1.3,1.5c0.4,0,0.8,0,1.2-0.1l-0.1,1.2c-0.5,0.1-0.9,0.1-1.5,0.1
				c-1.6,0-2.4-0.8-2.4-2.4V46h-1.5v-1.2h1.5v-2.9l1.5-0.3V44.8z"/>
			<path class="st1" d="M846.9,49.5c0,3-1.7,5-4.1,5s-4-1.9-4-4.9c0-3,1.7-5,4.1-5C845.2,44.6,846.9,46.5,846.9,49.5z M840.4,49.5
				c0,2.4,0.9,3.8,2.5,3.8c1.6,0,2.5-1.3,2.5-3.8c0-2.4-0.9-3.8-2.5-3.8C841.3,45.8,840.4,47.1,840.4,49.5z"/>
			<path class="st1" d="M854.1,46.1c-1.2,0-2.3,0.9-2.9,2.8v5.4h-1.5v-9.4h1.4v2.4c0.7-1.8,1.8-2.6,3.1-2.6L854.1,46.1z"/>
			<path class="st1" d="M861.3,56.1h-1l7.2-17h1L861.3,56.1z"/>
			<path class="st1" d="M883.1,54.2h-1.5v-1.4c-0.7,1.1-1.6,1.6-2.7,1.6c-2.1,0-3.7-1.8-3.7-5c0-3.2,1.6-4.9,3.6-4.9
				c1.1,0,2.1,0.6,2.7,1.6v-5.8h1.5V54.2z M881.6,47.6c-0.6-1.2-1.5-1.8-2.4-1.8c-1.4,0-2.5,1.2-2.5,3.7c0,2.5,1.1,3.7,2.5,3.7
				c0.9,0,1.7-0.6,2.3-1.8V47.6z"/>
			<path class="st1" d="M893.8,54.2h-1.4v-1.7c-0.8,1.2-2,2-3.3,2c-1.5,0-2.6-0.9-2.6-2.7v-7h1.5v6.5c0,1.3,0.6,1.8,1.6,1.8
				c1,0,2.1-0.8,2.7-1.9v-6.4h1.5V54.2z"/>
			<path class="st1" d="M902.7,47.8c-0.3-1.4-1.1-2-2.1-2c-1.6,0-2.5,1.3-2.5,3.7c0,2.4,1,3.8,2.5,3.8c1.2,0,1.9-0.7,2.2-2.1
				l1.4,0.4c-0.5,1.8-1.8,2.8-3.6,2.8c-2.5,0-4.1-1.8-4.1-4.9s1.6-5,4.1-5c1.8,0,3.1,1,3.6,2.8L902.7,47.8z"/>
			<path class="st1" d="M910.9,48.4l3.5,5.8h-1.7l-2.8-4.8l-1.7,1.8v3.1h-1.5V40.4h1.5v9.1l4.1-4.7h1.8L910.9,48.4z"/>
			<path class="st1" d="M918.2,43h-1.8v-1.8h1.8V43z M918,54.2h-1.5v-9.4h1.5V54.2z"/>
			<path class="st1" d="M922.8,46.5c0.9-1.2,2.1-1.9,3.3-1.9c1.5,0,2.6,1,2.6,2.7v6.9h-1.5v-6.4c0-1.3-0.6-1.9-1.6-1.9
				c-0.9,0-1.9,0.7-2.7,1.9v6.5h-1.5v-9.4h1.4V46.5z"/>
			<path class="st1" d="M934,54.8c0,1.8-1,2.8-2.8,2.8c-0.1,0-0.3,0-0.6-0.1l-0.1-1.1c0.2,0,0.3,0,0.5,0c0.9,0,1.5-0.5,1.5-1.8v-9.8
				h1.5V54.8z M934.2,43h-1.8v-1.8h1.8V43z"/>
			<path class="st1" d="M937.3,47c0.5-1.6,1.9-2.5,3.7-2.5c2.3,0,3.4,1,3.4,3.1v3.4c0,1.3,0.1,2.4,0.2,3.1h-1.4
				c-0.1-0.4-0.1-0.8-0.2-1.5c-0.8,1.2-1.9,1.7-3.2,1.7c-1.8,0-2.9-1.1-2.9-2.7c0-1.6,0.9-2.7,3.1-3.1c0.8-0.1,1.9-0.2,2.9-0.3v-0.5
				c0-1.5-0.6-2.1-2-2.1c-1.1,0-2,0.6-2.3,1.8L937.3,47z M943,49.3c-1,0-1.9,0.1-2.6,0.3c-1.4,0.3-2,0.9-2,2c0,1,0.6,1.7,1.8,1.7
				c1,0,2-0.6,2.8-1.9V49.3z"/>
			<path class="st1" d="M951.1,54.7c-0.7,2.1-1.8,2.9-3.5,2.9c-0.3,0-0.6,0-0.9-0.1l-0.1-1.2c0.4,0.1,0.7,0.1,1,0.1
				c1,0,1.7-0.5,2.1-1.9l0.1-0.4l-3.3-9.2h1.6l1.7,5.3c0.2,0.8,0.4,1.5,0.6,2.3h0.2c0.2-0.8,0.4-1.5,0.7-2.3l1.6-5.3h1.5L951.1,54.7
				z"/>
		</g>
		<g class="st0">
			<path class="st1" d="M797.5,82.5h-1.7l-1.3-4.3h-4.8l-1.4,4.3h-1.6l4.4-13.6h2L797.5,82.5z M793.1,73.6c-0.4-1.1-0.6-2.2-1-3.5
				h-0.3c-0.3,1.3-0.6,2.3-0.9,3.5l-1,3.3h4.2L793.1,73.6z"/>
			<path class="st1" d="M805.4,76c-0.3-1.4-1.1-2-2.1-2c-1.6,0-2.5,1.3-2.5,3.7c0,2.4,1,3.8,2.5,3.8c1.2,0,1.9-0.7,2.2-2.1l1.4,0.4
				c-0.5,1.8-1.8,2.8-3.6,2.8c-2.5,0-4.1-1.8-4.1-4.9s1.6-5,4.1-5c1.8,0,3.1,1,3.6,2.8L805.4,76z"/>
			<path class="st1" d="M811.3,73h2.2v1.2h-2.2V80c0,1.1,0.5,1.5,1.3,1.5c0.4,0,0.8,0,1.2-0.1l-0.1,1.2c-0.5,0.1-0.9,0.1-1.5,0.1
				c-1.6,0-2.4-0.8-2.4-2.4v-6.1h-1.5V73h1.5v-2.9l1.5-0.3V73z"/>
			<path class="st1" d="M823.3,77.7c0,3-1.7,5-4.1,5s-4-1.9-4-4.9c0-3,1.7-5,4.1-5C821.6,72.8,823.3,74.7,823.3,77.7z M816.7,77.8
				c0,2.4,0.9,3.8,2.5,3.8c1.6,0,2.5-1.3,2.5-3.8c0-2.4-0.9-3.8-2.5-3.8C817.7,74,816.7,75.3,816.7,77.8z"/>
			<path class="st1" d="M830.5,74.3c-1.2,0-2.3,0.9-2.9,2.8v5.4h-1.5V73h1.4v2.4c0.7-1.8,1.8-2.6,3.1-2.6L830.5,74.3z"/>
			<path class="st1" d="M837.7,84.4h-1l7.2-17h1L837.7,84.4z"/>
			<path class="st1" d="M858.8,68.5c0.1,0.1,0.2,0.1,0.2,0.2c0,0.1,0,0.2-0.1,0.3c-0.1,0.2-0.2,0.4-0.2,0.7
				c-0.1,0.4-0.1,0.8-0.2,1.2c1.7-0.1,3.2-0.4,5.1-0.8c0.1,0,0.2,0,0.2,0.1c0.1,0.2,0.1,0.5,0.1,0.7c0,0.1-0.1,0.2-0.2,0.2
				c-2.2,0.5-3.7,0.7-5.4,0.8c-0.1,1-0.2,1.8-0.2,2.6c0.9-0.3,2.3-0.5,3.4-0.5c0.2-0.5,0.3-1,0.3-1.5c0.4,0.2,0.8,0.3,1,0.5
				c0.1,0.1,0.2,0.2,0.2,0.3c0,0.1-0.1,0.2-0.2,0.4c-0.1,0.2-0.2,0.3-0.3,0.5c2.6,0.4,4.1,2.1,4.1,4.2c0,2.9-2.6,4.4-5.3,5
				c-0.2,0.1-0.3,0-0.4-0.2c-0.1-0.2-0.3-0.5-0.6-0.7c1.3-0.2,2.7-0.8,3.6-1.4c0.8-0.6,1.6-1.4,1.6-2.9c0-2-1.5-3-3.2-3.2
				c-1,2-2.3,3.8-3.6,5.1c0.1,0.4,0.2,0.7,0.4,1c0.1,0.1,0,0.2-0.1,0.3c-0.2,0.2-0.5,0.3-0.7,0.4c-0.1,0-0.2,0-0.2-0.1
				c-0.1-0.3-0.2-0.6-0.3-0.9c-1.4,1.1-2.6,1.6-3.5,1.6c-1.2,0-1.7-0.9-1.7-1.9c0-1.9,1.5-4.1,4.4-5.5c0-1.1,0.1-2,0.1-2.9
				c-1.1,0.1-1.8,0.1-2.3,0.1c-0.4,0-0.7,0-0.9-0.1c-0.2,0-0.2-0.1-0.2-0.2c0-0.2-0.1-0.5-0.1-0.8c1.2,0.1,2.3,0.1,3.6,0
				c0.1-0.6,0.1-1.1,0.2-1.6c0-0.6,0-0.9-0.1-1.2C857.9,68.3,858.5,68.4,858.8,68.5z M853.7,80.4c0,0.5,0.2,0.9,0.8,0.9
				c0.6,0,1.6-0.5,2.8-1.4c-0.2-1.2-0.4-2.4-0.4-3.7C854.8,77.3,853.7,79,853.7,80.4z M861.1,75c-1,0-2.1,0.2-3.1,0.6
				c0,1.3,0.1,2.3,0.3,3.4C859.2,78.1,860.5,76.3,861.1,75z"/>
			<path class="st1" d="M872.6,75.1c2-0.6,3.6-1.1,5-1.1c2.3,0,3.8,1.4,3.8,3.6c0,1.8-0.8,2.9-2.4,3.8c-1,0.6-2.3,1-3.8,1.2
				c-0.2,0-0.3,0-0.4-0.2c-0.1-0.2-0.4-0.5-0.7-0.8c1.8-0.2,3.1-0.6,4.2-1.2c1.2-0.6,1.8-1.5,1.8-2.9c0-1.6-1.1-2.5-2.7-2.5
				c-1.4,0-3.4,0.6-5.4,1.5c-0.5,0.2-0.7,0.3-0.9,0.5c-0.1,0.1-0.3,0.2-0.4,0.2c-0.1,0-0.2-0.1-0.3-0.2c-0.2-0.3-0.5-0.8-0.7-1.2
				C870.5,75.7,871.1,75.6,872.6,75.1z"/>
			<path class="st1" d="M894,69.1c0.1,0.1,0.1,0.2,0.1,0.2c0,0.1-0.1,0.2-0.2,0.2c-0.2,0.1-0.4,0.2-0.7,0.5
				c-1.8,1.6-4.1,3.7-5.4,5.2c-0.2,0.2-0.3,0.3-0.3,0.5s0.1,0.2,0.2,0.3c2.3,1.7,4.7,3.6,7.1,6.1c0.1,0.1,0.2,0.2,0,0.4
				c-0.2,0.3-0.5,0.5-0.7,0.7c-0.1,0.1-0.2,0.1-0.4,0c-2.4-2.6-4.8-4.6-6.9-6.2c-0.5-0.4-0.7-0.7-0.7-1.2s0.2-0.8,0.6-1.2
				c1.5-1.6,3.5-3.5,5.1-5.2c0.4-0.4,0.6-0.7,0.8-1.1C893.2,68.5,893.7,68.8,894,69.1z"/>
			<path class="st1" d="M902.4,77.3c0.8-0.8,1.7-1.3,2.6-1.3c1.8,0,2.4,1.3,2.6,3.2c0.1,1.6,0.4,2.5,1.5,2.5c1.1,0,1.8-0.6,2.4-1.3
				c0.5-0.7,1.1-1.6,1.5-3c0.2,0.5,0.4,0.8,0.7,1c0.1,0.1,0.2,0.3,0.1,0.5c-0.4,1-0.8,1.8-1.5,2.5c-0.8,1-1.8,1.6-3.2,1.6
				c-1.8,0-2.4-1.1-2.6-3.3c-0.2-1.9-0.6-2.6-1.6-2.6c-0.8,0-1.6,0.5-2.5,1.6c-0.6,0.8-1.4,2.1-2.3,4.1c-0.1,0.2-0.2,0.2-0.3,0.1
				c-0.3-0.1-0.6-0.3-0.8-0.5c-0.1-0.1-0.1-0.2,0-0.3c2.4-4.6,4.3-8.5,5.6-11.2c0.4-1,0.6-1.5,0.7-2.1c0.5,0.2,1,0.5,1.3,0.7
				c0.2,0.1,0.2,0.3,0,0.5c-0.2,0.1-0.3,0.3-0.6,0.8C904.7,73,903.4,75.3,902.4,77.3L902.4,77.3z"/>
		</g>
		<g class="st0">
			<path class="st1" d="M797.5,110.7h-1.7l-1.3-4.3h-4.8l-1.4,4.3h-1.6l4.4-13.6h2L797.5,110.7z M793.1,101.8
				c-0.4-1.1-0.6-2.2-1-3.5h-0.3c-0.3,1.3-0.6,2.3-0.9,3.5l-1,3.3h4.2L793.1,101.8z"/>
			<path class="st1" d="M805.4,104.3c-0.3-1.4-1.1-2-2.1-2c-1.6,0-2.5,1.3-2.5,3.7c0,2.4,1,3.8,2.5,3.8c1.2,0,1.9-0.7,2.2-2.1
				l1.4,0.4c-0.5,1.8-1.8,2.8-3.6,2.8c-2.5,0-4.1-1.8-4.1-4.9s1.6-5,4.1-5c1.8,0,3.1,1,3.6,2.8L805.4,104.3z"/>
			<path class="st1" d="M811.3,101.3h2.2v1.2h-2.2v5.8c0,1.1,0.5,1.5,1.3,1.5c0.4,0,0.8,0,1.2-0.1l-0.1,1.2
				c-0.5,0.1-0.9,0.1-1.5,0.1c-1.6,0-2.4-0.8-2.4-2.4v-6.1h-1.5v-1.2h1.5v-2.9l1.5-0.3V101.3z"/>
			<path class="st1" d="M820.2,102.5c-1.2,0-2.3,0.9-2.9,2.8v5.4h-1.5v-9.4h1.4v2.4c0.7-1.8,1.8-2.6,3.1-2.6L820.2,102.5z"/>
			<path class="st1" d="M823.4,106.2c0,2.3,1.1,3.6,2.8,3.6c1.3,0,2-0.6,2.4-1.9l1.4,0.5c-0.6,1.7-1.8,2.6-3.8,2.6
				c-2.5,0-4.2-1.8-4.2-4.9c0-3,1.7-5,4.1-5c2.3,0,4,1.8,4,4.8v0.3H823.4z M828.6,105.1c-0.1-1.9-1.1-2.9-2.5-2.9
				c-1.5,0-2.5,1.1-2.6,2.9H828.6z"/>
			<path class="st1" d="M837.7,103.8c-0.3-1.1-1-1.6-2-1.6c-1.2,0-1.9,0.6-1.9,1.3c0,0.9,0.4,1.3,1.9,1.6l0.8,0.2
				c2.2,0.5,2.9,1.2,2.9,2.8c0,1.6-1.2,2.8-3.6,2.8c-1.8,0-3.2-0.7-3.7-2.3l1.5-0.5c0.4,1.2,1.3,1.7,2.3,1.7c1.5,0,2.1-0.7,2.1-1.5
				c0-1-0.4-1.3-2.1-1.8l-0.8-0.2c-2.1-0.5-2.8-1.3-2.8-2.7c0-1.4,1.1-2.6,3.3-2.6c1.8,0,2.9,0.8,3.5,2.3L837.7,103.8z"/>
			<path class="st1" d="M847,103.8c-0.3-1.1-1-1.6-2-1.6c-1.2,0-1.9,0.6-1.9,1.3c0,0.9,0.4,1.3,1.9,1.6l0.8,0.2
				c2.2,0.5,2.9,1.2,2.9,2.8c0,1.6-1.2,2.8-3.6,2.8c-1.8,0-3.2-0.7-3.7-2.3l1.5-0.5c0.4,1.2,1.3,1.7,2.3,1.7c1.5,0,2.1-0.7,2.1-1.5
				c0-1-0.4-1.3-2.1-1.8l-0.8-0.2c-2.1-0.5-2.8-1.3-2.8-2.7c0-1.4,1.1-2.6,3.3-2.6c1.8,0,2.9,0.8,3.5,2.3L847,103.8z"/>
			<path class="st1" d="M856.4,112.6h-1l7.2-17h1L856.4,112.6z"/>
			<path class="st1" d="M876.6,104.5c-1.4,0.1-2.9,0.1-4.2-0.1c-0.1,0-0.2-0.1-0.2-0.2c0-0.2-0.1-0.7-0.1-0.9c1.4,0.2,3,0.2,4.5,0.1
				c0-0.9,0-1.9,0-2.7c-1.8,0.1-3.4,0.1-4.9-0.1c-0.1,0-0.1-0.1-0.2-0.2c0-0.3-0.1-0.6-0.1-1c1.6,0.2,3.4,0.2,5.1,0.1
				c0-0.8,0-1.3,0-2c0-0.5-0.1-0.8-0.2-1.2c0.6,0.1,1.1,0.1,1.5,0.2c0.2,0.1,0.3,0.3,0.2,0.4c-0.1,0.2-0.2,0.5-0.2,0.8
				c0,0.6,0,1-0.1,1.6c1.7-0.1,3.2-0.4,4.5-0.6c0.1,0,0.2,0,0.2,0.1c0,0.3,0.1,0.6,0.1,0.8c0,0.1-0.1,0.2-0.1,0.2
				c-1.4,0.2-2.9,0.4-4.6,0.5c0,0.9,0,1.9,0,2.7c1.4-0.1,2.7-0.3,4.1-0.5c0.1,0,0.2,0,0.2,0.1c0,0.2,0,0.6,0,0.9
				c0,0.1-0.1,0.2-0.2,0.2c-1.3,0.2-2.6,0.4-4.1,0.5c0,1.1,0.1,2.1,0.1,3.2c1.7,0.5,3.4,1.2,4.9,2.4c0.1,0.1,0.1,0.1,0.1,0.3
				c-0.1,0.2-0.3,0.6-0.5,0.8c-0.1,0.1-0.2,0.1-0.3,0.1c-1.5-1.2-2.7-1.8-4.2-2.3c0,2.1-1.1,2.9-3.3,2.9c-2.2,0-3.3-0.8-3.3-2.2
				c0-1.2,1.3-2.2,3.4-2.2c0.7,0,1.4,0.1,1.9,0.1C876.6,106.4,876.6,105.6,876.6,104.5z M874.7,108.3c-1.5,0-2.3,0.5-2.3,1.2
				c0,0.8,0.7,1.1,2.1,1.1c0.8,0,1.5-0.2,1.9-0.6c0.2-0.3,0.4-0.7,0.3-1.5C876.1,108.4,875.4,108.3,874.7,108.3z"/>
			<path class="st1" d="M891.2,97.1c0.1,0,0.2,0.1,0.2,0.2c0,0.2-0.1,0.3-0.1,0.6c0,0.4,0.1,0.8,0.1,1.2c0.2,1.3,0.4,2.6,0.7,3.7
				c1.1-0.5,2.2-1.1,3.3-1.7c0.6-0.3,0.8-0.5,1.1-0.8c0.4,0.4,0.7,0.7,0.9,1c0.1,0.2,0.1,0.5-0.2,0.5c-0.5,0.1-1.1,0.3-1.6,0.6
				c-1.3,0.6-2.9,1.4-4.2,2.1c-1.9,1.1-2.7,2-2.7,3.3c0,1.6,1.5,2,4.3,2c1.7,0,3.4-0.2,4.7-0.4c0.2,0,0.2,0,0.3,0.2
				c0.1,0.3,0.1,0.6,0.1,1c0,0.2-0.1,0.2-0.3,0.3c-1.5,0.2-2.8,0.3-4.9,0.3c-3.2,0-5.5-0.7-5.5-3.2c0-1.8,1.3-3.1,3.6-4.6
				c-0.4-1.4-0.8-3.3-1-4.7c-0.1-0.8-0.2-1.3-0.4-1.8C890.2,97,890.8,97,891.2,97.1z M897.3,97.2c0.1-0.1,0.1,0,0.2,0
				c0.7,0.5,1.5,1.4,2.1,2.2c0.1,0.1,0,0.1,0,0.2l-0.5,0.4c-0.1,0.1-0.2,0.1-0.2,0c-0.5-0.9-1.3-1.8-2.1-2.4L897.3,97.2z M898.9,96
				c0.1-0.1,0.1-0.1,0.2,0c0.7,0.6,1.6,1.4,2.1,2.2c0.1,0.1,0,0.1-0.1,0.2l-0.5,0.4c-0.1,0.1-0.1,0.1-0.2,0
				c-0.5-0.8-1.3-1.7-2.1-2.3L898.9,96z"/>
			<path class="st1" d="M908.1,98.4c0.1-0.6,0.2-1.1,0.2-1.8c0.6,0.1,1,0.3,1.4,0.5c0.2,0.1,0.3,0.3,0.1,0.5
				c-0.1,0.1-0.2,0.3-0.3,0.6c-0.3,0.9-0.5,1.8-0.8,2.7c0.6-0.1,1.3-0.1,1.8-0.1c1.6,0,2.4,0.8,2.4,3c0,2.4-0.4,4.6-1,6
				c-0.5,1-1.2,1.5-2.1,1.5c-0.8,0-1.4-0.1-1.9-0.3c-0.1-0.1-0.2-0.1-0.2-0.3c0-0.3-0.1-0.7-0.2-1.1c0.8,0.4,1.5,0.5,2.1,0.5
				c0.5,0,0.9-0.2,1.2-1c0.5-1.1,0.8-2.9,0.8-5.2c0-1.4-0.3-2-1.3-2c-0.6,0-1.3,0.1-2,0.2c-1.1,3.2-2.3,6.1-3.8,8.7
				c-0.1,0.1-0.2,0.1-0.3,0.1c-0.2-0.1-0.5-0.3-0.7-0.5c-0.1-0.1-0.1-0.2,0-0.3c1.5-2.6,2.6-5.1,3.5-7.9c-0.8,0.1-1.5,0.2-2.4,0.4
				c-0.3,0.1-0.7,0.1-0.8,0.2c-0.2,0.1-0.4,0.1-0.5-0.1c-0.1-0.3-0.3-0.7-0.4-1.3c0.7,0,1.4,0,1.9-0.1c1-0.1,1.7-0.2,2.6-0.3
				C907.7,100.2,907.9,99.5,908.1,98.4z M914.9,99.9c0.1,0,0.2,0,0.3,0.1c1.3,1.1,2.4,2.7,3,4.5c0,0.1,0.1,0.2-0.1,0.3
				c-0.2,0.2-0.5,0.4-0.8,0.5c-0.1,0.1-0.3,0.1-0.3-0.1c-0.6-1.9-1.5-3.4-2.9-4.7C914.3,100.3,914.6,100.1,914.9,99.9z"/>
		</g>
		<rect class="st2" width="1000" height="250"/>
	</g>
</g>
</svg>
