<?xml version="1.0" encoding="utf-8"?>
<!-- Generator: Adobe Illustrator 22.1.0, SVG Export Plug-In . SVG Version: 6.00 Build 0)  -->
<svg version="1.1" id="レイヤー_1" xmlns="http://www.w3.org/2000/svg" xmlns:xlink="http://www.w3.org/1999/xlink" x="0px"
	 y="0px" viewBox="0 0 1000 1000" style="enable-background:new 0 0 1000 1000;" xml:space="preserve">
<style type="text/css">
	.st0{fill:none;}
	.st1{enable-background:new    ;}
	.st2{fill:#231815;}
</style>
<title>KoiYuu_Sentence_4</title>
<g id="レイヤー_2_1_">
	<g id="レイヤー_1-2">
		<rect class="st0" width="1000" height="1000"/>
		<g class="st1">
			<path class="st2" d="M62.5,63.8c-0.7,0.4-1,1.1-1.7,2.1c-2.7,3.8-5.5,7-10.2,10.4c-0.5,0.4-0.8,0.6-1.1,0.6
				c-0.4,0-0.7-0.3-1.3-0.9c-0.7-0.7-1.6-1.3-2.2-1.7c5.5-3.3,8.5-6.5,11.1-10.5c0.8-1.3,1.3-2.5,1.6-3.7c1.3,0.4,2.9,1.2,3.8,1.8
				c0.4,0.2,0.7,0.5,0.7,0.8C63.4,63.1,63.1,63.4,62.5,63.8z M57.7,87.8c0.8,0.3,0.9,0.6,0.7,1c-1.7,5.6-4.2,10.3-7.5,14.7
				c-0.4,0.4-0.5,0.4-1.3-0.1l-2.1-1.3c-1-0.7-1-0.8-0.5-1.3c3.4-4,5.9-8.3,7.2-13.5c0.1-0.6,0.4-0.6,1.3-0.3L57.7,87.8z M110,55.5
				c0,0.5-0.1,0.6-0.6,0.6c-0.4,0-2.7-0.1-9.8-0.1H88.7V66c0,3.7,0.1,6.1,0.1,7.4c0,2.1-0.7,3.9-2.3,4.8c-1.5,0.7-2.7,1-6.7,1
				c-1.5,0.1-1.6,0.1-1.9-1.4c-0.2-1.1-0.7-2.1-1.3-2.8c1.8,0.1,3.2,0.2,4.7,0.2c2.4,0,3.2-0.8,3.2-3V55.9h-9.7
				C74.4,69.7,70.4,76.2,60.8,81c-0.5,0.3-0.9,0.4-1.1,0.4c-0.4,0-0.6-0.3-1.1-0.9c-0.8-0.8-1.8-1.4-2.7-1.8
				c10.2-4.8,14.2-9.4,14.4-22.8H57.6c-7.1,0-9.4,0.1-9.8,0.1c-0.5,0-0.6-0.1-0.6-0.6v-3.1c0-0.5,0.1-0.6,0.6-0.6
				c0.4,0,2.7,0.1,9.8,0.1h18.5v-1.5c0-3.8-0.1-5.8-0.5-7.5c1.7,0.1,3.5,0.2,5,0.4c0.5,0.1,0.9,0.3,0.9,0.6c0,0.5-0.2,0.9-0.4,1.4
				c-0.3,0.7-0.4,1.8-0.4,5.2v1.5h19c7.1,0,9.5-0.1,9.8-0.1c0.5,0,0.6,0.1,0.6,0.6V55.5z M69.4,98.8c0,1.9,0.3,3.2,1.6,3.8
				c1.2,0.6,3.4,1,8.2,1c5.8,0,8.8-0.4,10.6-1.6c1.6-1,2.4-3.9,2.6-8.4c0.8,0.7,2,1.3,3.2,1.8c1.3,0.4,1.3,0.5,1.1,1.9
				c-0.8,4.7-2.1,7.2-4,8.4c-2.8,1.6-6.8,2-13.6,2c-6.1,0-9-0.3-11.1-1.3c-1.8-0.9-3-2.3-3-6.4V90.1c0-2.1,0-3.9-0.4-6
				c1.6,0.1,3.7,0.4,4.7,0.6c0.7,0.1,1,0.4,1,0.6c0,0.4-0.1,0.7-0.3,1.1c-0.2,0.6-0.4,1.8-0.4,3.9V98.8z M77.9,82.7
				c0.5-0.4,0.7-0.4,1.1-0.1c3.2,2.5,5.5,5,8.5,8.8c0.4,0.4,0.4,0.7-0.2,1.1l-2,1.6c-0.9,0.7-1,0.7-1.3,0.2
				c-2.4-3.6-4.9-6.7-8.1-9.2c-0.4-0.4-0.4-0.5,0.4-1.1L77.9,82.7z M96.7,60.5c0.7-0.5,0.9-0.5,1.4-0.1c4.1,3.7,7.8,8.2,10.9,13.2
				c0.3,0.4,0.2,0.6-0.6,1.1l-2,1.3c-0.4,0.3-0.7,0.4-0.9,0.4c-0.2,0-0.4-0.2-0.5-0.5c-3-5.5-6.4-9.7-10.3-13.2
				c-0.4-0.4-0.4-0.5,0.4-1L96.7,60.5z M100.6,86.5c0.7-0.4,0.8-0.4,1.2,0c3.8,4.3,6.4,8.3,9.1,13.1c0.2,0.4,0.1,0.7-0.5,1l-2.3,1.6
				c-0.4,0.3-0.7,0.4-0.9,0.4s-0.4-0.1-0.6-0.6c-2.2-4.8-5-9.2-8.5-13.2c-0.4-0.4-0.4-0.6,0.5-1.1L100.6,86.5z"/>
			<path class="st2" d="M183.5,60.9c0,0.7-0.2,0.7-1,0.7c-7.9-0.2-15.2-0.3-23.5,0c0,4.7,0,9.8,0.1,14.7c0.6,2.3,0.9,5,0.9,7.8
				c0,9.3-4,17.2-14.4,22.8c-0.7,0.4-1.3,0.7-1.7,0.7c-0.4,0-0.9-0.2-1.3-0.6c-0.8-0.7-2.1-1.6-3.4-2.1
				c10.6-4.4,15.4-11.2,16.1-18.6c-1.6,2.8-4.8,4.2-8.1,4.2c-5.1,0-9.8-3.4-9.8-10.4c0-6.3,4.7-10.3,10.1-10.3
				c2.8,0,5.4,0.8,6.9,2.5c-0.1-3.6-0.1-6.9-0.1-10.4c-10.6,0.6-20.5,1.3-27.6,2.2c-1.8,0.2-2.7,0.7-3.3,0.7c-0.4,0-0.7-0.2-0.9-0.7
				c-0.4-1-0.8-2.7-1.2-4.7c2.5,0.1,5-0.1,9.3-0.4c6-0.4,13.6-1,23.4-1.6c-0.1-3-0.1-4.5-0.1-6.9c-0.1-1.8-0.2-3-0.7-5
				c2.2,0.1,4.4,0.5,5.6,0.8c0.8,0.2,1.3,0.6,1.3,1.1c0,0.4-0.2,0.8-0.5,1.3c-0.3,0.5-0.4,1-0.5,2c-0.1,1.6-0.1,3-0.1,6.3
				c8.2-0.2,15.4-0.2,23.7-0.2c0.7,0,0.8,0.1,0.8,0.8V60.9z M141.8,79.9c0,4.1,2.7,6.4,6,6.4c4.1,0,6.7-3.2,6.7-6.5
				c0-3.7-2.7-6.3-6.6-6.3C144.7,73.5,141.8,75.9,141.8,79.9z"/>
			<path class="st2" d="M208.7,76.8c5.3-3.5,10.6-5.2,15.9-5.2c10.6,0,17.2,6.6,17.2,16.2c0,11-8.7,19-24.4,19
				c-8.9,0-12.9-4-12.9-8.7c0-3.8,3.4-7.5,8.6-7.5c6.7,0,11.2,4.3,12.6,10.6c6.4-2.1,10.8-6.2,10.8-13.5c0-7.5-5.8-12.1-12.8-12.1
				c-7.3,0-14.6,3.8-20.3,8.4c-2.4,1.8-4.3,3.8-6.5,6.1c-0.6,0.6-1,0.7-1.5,0.1c-0.9-0.9-2-2-2.7-3c-0.3-0.4-0.2-0.7,0.3-1.1
				c5.8-5.1,9.6-8.9,16.7-16.5c4.3-4.7,8.7-9.4,14.4-16.1c-6.1,1-11.9,2.1-18.5,3.3c-1,0.1-1.8,0.4-2.6,0.7
				c-0.5,0.2-1.1,0.4-1.4,0.4c-0.5,0-0.9-0.3-1.2-0.9c-0.7-1.3-1.2-2.7-1.8-5.1c2.4,0.3,4.5,0.3,6.5,0.1c5.8-0.6,11.9-1.4,18.4-2.7
				c0.9-0.1,1.8-0.4,2.3-0.7c0.3-0.2,0.7-0.5,1-0.5c0.4,0,0.7,0.1,1.3,0.6c1.4,1.1,2.5,2.2,3.2,3.1c0.4,0.4,0.5,0.9,0.5,1.3
				c0,0.6-0.4,1.1-1.1,1.4c-1,0.3-1.8,0.8-3.5,2.6c-6.6,6.9-11.5,12.1-18.9,19.7L208.7,76.8z M213.3,94.5c-2.4,0-4.5,1.2-4.5,3.5
				c0,2.4,2.7,4.5,7.6,4.5c1.6,0,3.1-0.1,4.8-0.4C220.3,97.9,217.5,94.5,213.3,94.5z"/>
			<path class="st2" d="M313.4,57.6c0-4.9-0.1-6.7-0.5-9.1c1.8,0.1,3.4,0.2,4.7,0.4c0.4,0.1,0.7,0.3,0.7,0.6c0,0.4-0.1,0.7-0.3,1.3
				c-0.2,0.7-0.4,2.4-0.4,6.7v31.8c0,13,0.1,18.9,0.1,19.3c0,0.5-0.1,0.6-0.6,0.6H314c-0.5,0-0.6-0.1-0.6-0.6v-4.2h-52.8v4.2
				c0,0.5-0.1,0.6-0.6,0.6h-3.2c-0.5,0-0.6-0.1-0.6-0.6c0-0.4,0.1-6.2,0.1-18.8V57.6c0-4.9-0.1-6.7-0.5-9.1c1.9,0.1,3.4,0.2,4.7,0.4
				c0.4,0.1,0.7,0.3,0.7,0.7c0,0.4-0.1,0.7-0.3,1.2c-0.2,0.8-0.4,2.4-0.4,6.7v43h24V53.8c0-4.8-0.1-6.6-0.5-9.1
				c1.8,0.1,3.3,0.2,4.7,0.4c0.4,0.1,0.7,0.3,0.7,0.7c0,0.4-0.1,0.7-0.3,1.3c-0.2,0.7-0.4,2.4-0.4,6.7v46.8h24.7V57.6z M278,81.3
				c0.5-0.2,0.6-0.3,0.9,0.2c2.1,4.2,3.3,7.2,4.6,11.5c0.1,0.5,0.1,0.7-0.5,1l-1.6,0.7c-0.8,0.4-1,0.4-1.2-0.1
				c-0.4-1.3-0.7-2.5-1-3.7c-4.7,0.9-8.4,1.5-12.4,2.1c-1.5,0.2-2.1,0.4-2.5,0.7c-0.1,0.1-0.5,0.4-0.9,0.4c-0.3,0-0.5-0.4-0.7-1
				c-0.4-1.2-0.6-2.1-0.9-3.5c0.8,0,1.8,0.1,2.9,0c2.4-3.8,4.5-7.4,6.4-10.8c-3.1-4.7-5.6-8.1-8.9-11.5c-0.4-0.4-0.4-0.5,0.3-1.3
				l1.2-1.5c0.4-0.6,0.7-0.5,1-0.1l1.9,2.3c1.8-3.7,2.9-6.4,4.1-10.1c1-3,1.3-4.1,1.4-5.8c1.6,0.5,2.7,1,3.6,1.5
				c0.6,0.3,1,0.5,1,0.9c0,0.4-0.1,0.5-0.4,0.8c-0.4,0.4-0.9,1.3-1.2,2.1c-1.9,5.1-3.5,8.9-6,13.7c1.3,1.7,2.5,3.4,3.9,5.4l2.1-4.4
				c1.7-3.8,2.3-5.3,2.6-6.9c1.5,0.6,2.6,1.2,3.6,1.8c0.6,0.4,0.8,0.7,0.8,1c0,0.4-0.4,0.7-0.7,1c-0.6,0.4-1.1,1.3-2.2,3.5
				c-3.3,6.6-6.3,11.9-10.3,18.1c2.8-0.3,5.8-0.7,9.2-1.3c-0.6-1.6-1.3-3.1-2.1-4.8c-0.2-0.4-0.1-0.6,0.5-0.9L278,81.3z M306.5,80.6
				c0.6-0.3,0.7-0.3,1,0.2c2,3.8,3.4,7.5,4.8,11.9c0.1,0.5,0.1,0.6-0.7,1l-1.6,0.8c-0.9,0.4-1,0.3-1.1-0.3c-0.4-1.4-0.7-2.7-1.2-3.9
				c-4.5,1-8.6,1.8-12.7,2.4c-1.5,0.2-2,0.5-2.4,0.7c-0.3,0.1-0.6,0.4-1,0.4s-0.6-0.4-0.8-1c-0.4-1-0.7-2.1-0.9-3.6
				c0.7,0,1.6,0,2.4-0.1c2.4-3.7,4.7-7.4,6.5-10.8c-3-4.7-5.4-7.7-8.6-11.2c-0.4-0.4-0.4-0.5,0.2-1.3l1.2-1.4c0.4-0.5,0.7-0.5,1-0.1
				l1.9,2.2c1.9-3.7,3.1-6.7,4.2-9.9c0.9-2.5,1.3-4,1.4-5.7c1.6,0.5,2.6,1,3.7,1.6c0.7,0.4,1,0.6,1,0.9c0,0.4-0.3,0.7-0.6,0.9
				c-0.4,0.4-0.8,1.2-1.2,2.1c-1.8,4.7-3.5,8.4-6.1,13.2c1.3,1.6,2.5,3.3,3.8,5.1c1-1.8,1.8-3.5,2.6-5.2c1.3-2.8,1.9-4.5,2.3-6.5
				c1.4,0.7,2.6,1.3,3.6,1.8c0.6,0.4,0.8,0.7,0.8,1c0,0.3-0.2,0.5-0.7,0.8c-0.6,0.4-1.2,1.5-2.3,3.7c-3.1,6.1-6.4,12-10.5,18.3
				c3-0.4,6.3-0.8,9.9-1.5c-0.7-1.7-1.3-3.3-2.1-5c-0.2-0.5-0.1-0.6,0.7-1L306.5,80.6z"/>
			<path class="st2" d="M393.2,107c0,0.5-0.1,0.6-0.6,0.6c-0.4,0-2.7-0.1-9.6-0.1h-44.4c-6.9,0-9.2,0.1-9.6,0.1
				c-0.5,0-0.6-0.1-0.6-0.6v-2.9c0-0.4,0.1-0.5,0.6-0.5c0.4,0,2.7,0.1,9.6,0.1h13.4v-14h-8.8c-7.3,0-9.8,0.1-10.2,0.1
				c-0.5,0-0.6-0.1-0.6-0.6v-2.8c0-0.5,0.1-0.6,0.6-0.6c0.4,0,2.9,0.1,10.2,0.1h35.6c7.4,0,9.8-0.1,10.2-0.1c0.5,0,0.6,0.1,0.6,0.6
				v2.8c0,0.5-0.1,0.6-0.6,0.6c-0.4,0-2.8-0.1-10.2-0.1h-10.3v14h4.7c1.8-2.8,3.1-5.2,4.5-8.6c0.4-1,0.7-2.1,1-3.5
				c1.7,0.5,3.2,1.1,4.1,1.6c0.4,0.2,0.7,0.4,0.7,0.8c0,0.4-0.1,0.5-0.8,1.1c-0.7,0.6-0.7,0.8-1.3,1.9c-1.3,2.3-2.4,4.4-3.8,6.7h5.6
				c6.9,0,9.2-0.1,9.6-0.1c0.5,0,0.6,0.1,0.6,0.5V107z M391.6,61.7c0,6.4,0.1,7.4,0.1,7.8c0,0.5-0.1,0.6-0.6,0.6h-3.3
				c-0.5,0-0.6-0.1-0.6-0.6V58.3h-24.8v8.4c0,5.2,0.1,7.2,0.1,7.5c0,0.5-0.1,0.6-0.6,0.6h-3.4c-0.5,0-0.6-0.1-0.6-0.6
				c0-0.4,0.1-2.4,0.1-7.5v-8.4h-23.7v11.2c0,0.5-0.1,0.6-0.6,0.6h-3.3c-0.5,0-0.6-0.1-0.6-0.6c0-0.4,0.1-1.3,0.1-7.8V59
				c0-2.4-0.1-3.5-0.1-3.8c0-0.5,0.1-0.6,0.6-0.6c0.4,0,3,0.1,10.1,0.1h17.5v-5h-12.3c-7.5,0-10.1,0.1-10.4,0.1
				c-0.5,0-0.6-0.1-0.6-0.6v-2.8c0-0.5,0.1-0.6,0.6-0.6c0.4,0,3,0.1,10.4,0.1h30.1c7.5,0,10.1-0.1,10.4-0.1c0.5,0,0.6,0.1,0.6,0.6
				v2.8c0,0.5-0.1,0.6-0.6,0.6c-0.4,0-2.9-0.1-10.4-0.1h-13.5v5H381c7.2,0,9.7-0.1,10.1-0.1c0.5,0,0.6,0.1,0.6,0.6
				c0,0.4-0.1,1.5-0.1,3.4V61.7z M383.5,80.8c0,0.5-0.1,0.6-0.6,0.6c-0.4,0-2.9-0.1-10.3-0.1h-23.7c-7.4,0-9.9,0.1-10.3,0.1
				c-0.5,0-0.6-0.1-0.6-0.6v-2.7c0-0.5,0.1-0.6,0.6-0.6c0.4,0,3,0.1,10.3,0.1h23.7c7.5,0,10-0.1,10.3-0.1c0.5,0,0.6,0.1,0.6,0.6
				V80.8z M340.6,92.2c0.7-0.4,0.8-0.4,1.3,0.1c1.8,2.1,3.5,4.9,4.7,7.8c0.2,0.6,0.1,0.7-0.7,1.1l-1.8,0.9c-0.9,0.4-1.2,0.4-1.3-0.1
				c-1.2-3.3-2.7-5.7-4.4-8c-0.4-0.4-0.3-0.5,0.6-1L340.6,92.2z M353.3,65.3c0,0.4-0.1,0.5-0.6,0.5c-0.4,0-1.3-0.1-4.7-0.1h-3.6
				c-3.4,0-4.2,0.1-4.6,0.1c-0.5,0-0.6-0.1-0.6-0.5V63c0-0.4,0.1-0.5,0.6-0.5c0.4,0,1.2,0.1,4.6,0.1h3.6c3.4,0,4.2-0.1,4.7-0.1
				c0.5,0,0.6,0.1,0.6,0.5V65.3z M353.3,72.2c0,0.4-0.1,0.5-0.6,0.5c-0.4,0-1.3-0.1-4.7-0.1h-3.6c-3.4,0-4.2,0.1-4.6,0.1
				c-0.5,0-0.6-0.1-0.6-0.5v-2.3c0-0.4,0.1-0.5,0.6-0.5c0.4,0,1.2,0.1,4.6,0.1h3.6c3.4,0,4.2-0.1,4.7-0.1c0.5,0,0.6,0.1,0.6,0.5
				V72.2z M364.1,89.7h-8v14h8V89.7z M382.1,65.3c0,0.4-0.1,0.5-0.6,0.5c-0.4,0-1.3-0.1-4.9-0.1h-3.9c-3.6,0-4.5,0.1-4.9,0.1
				c-0.5,0-0.6-0.1-0.6-0.5V63c0-0.4,0.1-0.5,0.6-0.5c0.4,0,1.3,0.1,4.9,0.1h3.9c3.6,0,4.5-0.1,4.9-0.1c0.5,0,0.6,0.1,0.6,0.5V65.3z
				 M382.1,72.2c0,0.4-0.1,0.5-0.6,0.5c-0.4,0-1.3-0.1-4.9-0.1h-3.9c-3.6,0-4.5,0.1-4.9,0.1c-0.5,0-0.6-0.1-0.6-0.5v-2.3
				c0-0.4,0.1-0.5,0.6-0.5c0.4,0,1.3,0.1,4.9,0.1h3.9c3.6,0,4.5-0.1,4.9-0.1c0.5,0,0.6,0.1,0.6,0.5V72.2z"/>
		</g>
		<g class="st1">
			<path class="st2" d="M66.9,185.1c-1.1-3.7-3.4-5.4-6.5-5.4c-3.8,0-6.1,2-6.1,4.9c0,3.2,1.5,4.6,6.3,5.8l1.3,0.4
				c7.3,1.9,9.1,4.5,9.1,8.9c0,5.2-3.7,8.7-10.5,8.7c-5.6,0-9.5-2.6-11-7.7l3.6-1.2c1,4,3.9,6,7.4,6c4.8,0,6.9-2.2,6.9-5.4
				c0-3.2-1.2-4.7-6.8-6.2l-1.2-0.4c-6.6-1.8-8.7-4.3-8.7-8.8c0-4.2,3.3-8,9.7-8c4.9,0,8.5,2.3,10.2,7.3L66.9,185.1z"/>
			<path class="st2" d="M100,197.6c0,7.3-4.7,10.8-11,10.8c-6.4,0-11.1-3.4-11.1-10.8v-20.4h3.6v20.2c0,5.6,2.9,7.9,7.6,7.9
				c4.6,0,7.6-2.4,7.6-7.9v-20.2h3.4V197.6z"/>
			<path class="st2" d="M119.2,189.6l12.3,18.3h-4.2L116.9,192l-4.7,4.9v10.9h-3.6v-30.6h3.6v15.6l13.9-15.6h4.3L119.2,189.6z"/>
			<path class="st2" d="M140.9,207.9h-3.6v-30.6h3.6V207.9z"/>
			<path class="st2" d="M164.7,185.1c-1.1-3.7-3.4-5.4-6.5-5.4c-3.8,0-6.1,2-6.1,4.9c0,3.2,1.5,4.6,6.3,5.8l1.3,0.4
				c7.3,1.9,9.1,4.5,9.1,8.9c0,5.2-3.7,8.7-10.5,8.7c-5.6,0-9.5-2.6-11-7.7l3.6-1.2c1,4,3.9,6,7.4,6c4.8,0,6.9-2.2,6.9-5.4
				c0-3.2-1.2-4.7-6.8-6.2l-1.2-0.4c-6.6-1.8-8.7-4.3-8.7-8.8c0-4.2,3.3-8,9.7-8c4.9,0,8.5,2.3,10.2,7.3L164.7,185.1z"/>
			<path class="st2" d="M197.9,207.9h-3.6v-14.5h-15v14.5h-3.6v-30.6h3.6v13h15v-13h3.6V207.9z"/>
			<path class="st2" d="M227.8,207.9h-3.8l-2.9-9.7h-10.9l-3.1,9.7h-3.5l9.8-30.6h4.6L227.8,207.9z M218.1,187.9
				c-0.8-2.6-1.4-4.9-2.2-7.8h-0.6c-0.7,2.9-1.3,5.2-2.1,7.8l-2.2,7.5h9.4L218.1,187.9z"/>
		</g>
		<g class="st1">
			<path class="st2" d="M57.8,341.7h4.2v2.1H50.8v-2.1h4.5v-18c-1.2,0.8-2.7,1.6-4.5,2.2l-0.4-2.3c1.9-0.6,3.7-1.6,5.3-2.7h2.1
				V341.7z"/>
			<path class="st2" d="M76,332.1c-0.5-1.8-1.7-2.7-3.5-2.7c-2.1,0-3.2,0.9-3.2,2.3c0,1.5,0.7,2.2,3.3,2.8l1.3,0.3
				c3.6,0.9,5,2.1,5,4.7c0,2.7-2,4.7-6.1,4.7c-3.1,0-5.4-1.2-6.3-3.9l2.5-0.9c0.7,2,2.2,2.9,3.9,2.9c2.6,0,3.6-1.2,3.6-2.6
				c0-1.7-0.6-2.2-3.5-3l-1.3-0.3c-3.6-0.9-4.7-2.2-4.7-4.6c0-2.4,1.9-4.3,5.6-4.3c3,0,5,1.3,5.9,3.8L76,332.1z"/>
		</g>
		<g class="st1">
			<path class="st2" d="M86.8,327.9h3.8v2h-3.8v9.8c0,1.8,0.8,2.6,2.2,2.6c0.7,0,1.3,0,2-0.2l-0.1,2c-0.9,0.1-1.6,0.2-2.5,0.2
				c-2.7,0-4.1-1.3-4.1-4.1v-10.3h-2.6v-2h2.6v-5l2.5-0.6V327.9z"/>
		</g>
		<g class="st1">
			<path class="st2" d="M108.2,324.5c-2.5,0-4.3,0.1-5.8,0.3c-0.3,0-0.5-0.1-0.5-0.3c-0.1-0.5-0.3-1.5-0.3-2.2
				c1.9,0.2,3.7,0.2,6.4,0.2h13c1.7,0,2.1-0.1,2.3-0.2c0.2-0.1,0.3-0.1,0.5-0.1c0.2,0,0.3,0.1,0.5,0.2c0.4,0.4,0.8,0.7,1.2,1.2
				c0.2,0.3,0.2,0.7-0.2,0.9c-0.3,0.2-0.5,0.5-0.7,0.8c-1.4,2.2-3.6,4.3-6,6.1c-0.2,0.2-0.6,0.2-0.8,0c-0.5-0.4-1-0.6-1.6-0.8
				c2.7-1.7,4.8-3.8,6.3-6.1H108.2z M110.3,337.4c1.2-2.4,1.6-4.9,1.6-7.7c0-1-0.1-1.7-0.3-2.6c0.9,0.1,1.9,0.2,2.5,0.4
				c0.5,0.2,0.5,0.5,0.3,0.9c-0.2,0.3-0.2,0.7-0.2,1.5c0,2.6-0.5,5.7-1.8,8.3c-1.2,2.4-3.4,4.6-5.9,6.2c-0.3,0.2-0.7,0.2-0.9,0
				c-0.4-0.4-1-0.7-1.7-1C106.9,341.9,109.1,339.9,110.3,337.4z"/>
			<path class="st2" d="M137.8,324.9c0.3,0.1,0.4,0.4,0.2,0.8c-0.2,0.4-0.3,1.2-0.3,2.4c-0.1,3.6-0.8,6.2-1.9,8.5
				c-1.1,2.3-2.6,4-4.5,5.5c-0.3,0.3-0.6,0.3-0.9,0.1c-0.5-0.4-1-0.6-1.7-0.8c2.1-1.5,3.9-3.4,5-5.8c1-2.2,1.7-4.7,1.7-8.1
				c0-1.4,0-2.2-0.3-3.2C136.3,324.5,137.2,324.7,137.8,324.9z M144.2,339c2.1-1.1,3.6-2.1,5.3-3.3c1.8-1.3,3.7-3,5.5-5.2
				c0.1,0.7,0.2,1.4,0.5,2c0.1,0.3,0.2,0.5-0.2,0.8c-1.6,1.6-3.2,3.1-4.9,4.4c-1.7,1.2-3.4,2.4-5.4,3.5c-0.6,0.3-0.8,0.4-1,0.7
				c-0.3,0.2-0.6,0.2-0.8,0c-0.4-0.3-0.9-0.8-1.2-1.2c-0.2-0.3-0.1-0.5-0.1-0.8c0.1-0.4,0.1-1,0.1-3.1v-8.9c0-3-0.1-4.5-0.3-5.5
				c0.8,0.1,2,0.2,2.6,0.4c0.5,0.2,0.4,0.5,0.2,0.9c-0.2,0.4-0.3,1.6-0.3,4.1V339z"/>
			<path class="st2" d="M167.7,329.6c0.7-1.6,1-2.5,1-3.5c1,0.3,1.9,0.7,2.5,1c0.4,0.2,0.3,0.6,0.1,0.9c-0.3,0.3-0.7,0.8-1.1,1.8
				c-1.5,3.4-3.6,6.9-7,10.3c-0.3,0.3-0.7,0.4-1,0.1c-0.3-0.3-1-0.6-1.7-0.8C164.1,336.2,166.5,332.5,167.7,329.6z M177.9,326.4
				c0.3-0.2,0.4-0.2,0.7,0.1c3.3,3.3,6,7.4,7.8,11.2c0.2,0.3,0.2,0.5-0.1,0.7c-0.3,0.2-0.9,0.7-1.5,1c-0.3,0.2-0.4,0.1-0.5-0.2
				c-1.9-4.3-4.4-8.3-7.7-11.8C177,327,177.6,326.6,177.9,326.4z M181.4,322.5c0.1-0.1,0.2-0.1,0.3,0c1.2,0.9,2.6,2.4,3.5,3.8
				c0.1,0.1,0.1,0.2-0.1,0.3l-0.9,0.7c-0.2,0.1-0.3,0.1-0.4-0.1c-0.9-1.5-2.2-3-3.6-4L181.4,322.5z M184,320.5
				c0.1-0.1,0.2-0.1,0.3,0c1.2,1,2.6,2.3,3.6,3.6c0.1,0.2,0.1,0.2-0.1,0.4l-0.8,0.7c-0.1,0.1-0.2,0.1-0.4-0.1
				c-0.8-1.3-2.1-2.8-3.6-3.9L184,320.5z"/>
		</g>
		<g class="st1">
			<path class="st2" d="M208.4,321.7c0.3,0.2,0.3,0.5,0,0.9c-0.4,0.4-0.7,1.1-1.1,2.3c-1.5,4.6-3.6,10.2-5.8,15.2
				c4.2-0.3,9.2-0.8,13.3-1.4c-1-1.8-2.3-3.7-3.8-5.5c0.5-0.3,1-0.6,1.5-0.9c0.3-0.2,0.4-0.1,0.6,0.2c2.3,2.7,4.5,6.3,6,9.6
				c0.2,0.3,0.1,0.5-0.2,0.6c-0.5,0.3-0.9,0.5-1.4,0.7c-0.2,0.1-0.4,0.1-0.6-0.3c-0.4-0.9-0.8-1.8-1.3-2.6
				c-4.9,0.7-9.8,1.3-15.3,1.9c-2.3,0.2-2.8,0.4-3.2,0.6c-0.4,0.3-0.8,0.3-1-0.1s-0.5-1.4-0.7-2.6c1.1,0.1,2.2,0.1,3.7,0
				c2.2-5.3,4.5-11.4,5.6-14.9c0.7-2.3,0.9-3.6,1-4.8C206.8,320.9,207.9,321.3,208.4,321.7z"/>
		</g>
		<g class="st1">
			<path class="st2" d="M236,328.9h-1.5l-0.6-8h2.8L236,328.9z M241.9,328.9h-1.5l-0.7-8h2.8L241.9,328.9z"/>
			<path class="st2" d="M259.3,326.7c-0.8-2.8-2.5-4.1-4.9-4.1c-2.9,0-4.6,1.5-4.6,3.7c0,2.4,1.2,3.5,4.8,4.4l1,0.3
				c5.5,1.4,6.9,3.4,6.9,6.7c0,3.9-2.8,6.5-7.9,6.5c-4.2,0-7.2-2-8.3-5.8l2.7-0.9c0.7,3,2.9,4.5,5.5,4.5c3.6,0,5.2-1.7,5.2-4
				c0-2.4-0.9-3.5-5.1-4.6l-0.9-0.3c-5-1.3-6.5-3.2-6.5-6.6c0-3.2,2.5-6,7.3-6c3.7,0,6.4,1.7,7.6,5.5L259.3,326.7z"/>
			<path class="st2" d="M268.6,336.2c0,3.9,1.8,6.1,4.7,6.1c2.2,0,3.4-1,4.1-3.2l2.3,0.8c-1,2.9-3.1,4.4-6.4,4.4
				c-4.3,0-7.1-3.1-7.1-8.3c0-5.1,2.9-8.4,6.9-8.4c3.9,0,6.7,3,6.7,8.1v0.6H268.6z M277.3,334.4c-0.2-3.2-1.8-5-4.2-5
				c-2.5,0-4.2,1.9-4.4,5H277.3z"/>
			<path class="st2" d="M297.3,328.1c-1.6,0-2.3,0.3-3.2,1.2c1,0.9,1.6,2.1,1.6,3.5c0,3.2-2.4,5.2-5.9,5.2c-0.8,0-1.7-0.2-2.4-0.5
				c-0.9,0.5-1.4,1.2-1.4,1.8c0,0.8,0.4,1.2,3,1.5l3.2,0.3c4.2,0.4,5.4,1.8,5.4,3.9c0,2.5-2.6,4.5-7.6,4.5c-4.5,0-7-1.5-7-3.8
				c0-1.4,1.2-2.6,3.1-3.3c-1.6-0.4-2.4-1.2-2.4-2.4c0-1.1,0.7-2.2,2.3-3.2c-1.3-0.9-2.1-2.4-2.1-4.1c0-3.1,2.6-5.2,5.9-5.2
				c1.2,0,2.3,0.3,3.1,0.8c1.1-1.7,2.4-2.4,4.6-2.4L297.3,328.1z M287.9,342.7c-1.9,0.5-2.8,1.4-2.8,2.6c0,1.7,2,2.5,4.9,2.5
				c3.4,0,5.2-1.2,5.2-2.6c0-1.1-0.6-1.8-3.6-2.2L287.9,342.7z M286.2,332.7c0,2.2,1.6,3.5,3.5,3.5s3.5-1.3,3.5-3.5
				c0-2.2-1.6-3.5-3.5-3.5S286.2,330.6,286.2,332.7z"/>
			<path class="st2" d="M303.9,330.8c1.5-2.1,3.1-3.2,5.2-3.2c2.2,0,3.7,1.3,4,3.2c1.4-2,3.2-3.2,5.3-3.2c2.5,0,4.3,1.7,4.3,4.6
				v11.7h-2.6V333c0-2.2-1-3.2-2.6-3.2c-1.5,0-3.1,1.2-4.2,3.1v10.9h-2.5V333c0-2.3-0.9-3.2-2.5-3.2c-1.5,0-3.1,1.2-4.3,3.1v10.9
				h-2.5v-15.9h2.4V330.8z"/>
			<path class="st2" d="M329.8,336.2c0,3.9,1.8,6.1,4.7,6.1c2.2,0,3.4-1,4.1-3.2l2.3,0.8c-1,2.9-3.1,4.4-6.4,4.4
				c-4.3,0-7.1-3.1-7.1-8.3c0-5.1,2.9-8.4,6.9-8.4c3.9,0,6.7,3,6.7,8.1v0.6H329.8z M338.5,334.4c-0.2-3.2-1.8-5-4.2-5
				c-2.5,0-4.2,1.9-4.4,5H338.5z"/>
			<path class="st2" d="M348.1,330.8c1.6-2,3.5-3.2,5.6-3.2c2.6,0,4.4,1.7,4.4,4.6v11.7h-2.6V333c0-2.3-1-3.2-2.7-3.2
				c-1.5,0-3.2,1.1-4.6,3.1v10.9h-2.5v-15.9h2.4V330.8z"/>
			<path class="st2" d="M367,327.9h3.8v2H367v9.8c0,1.8,0.8,2.6,2.2,2.6c0.7,0,1.3,0,2-0.2l-0.1,2c-0.9,0.1-1.6,0.2-2.5,0.2
				c-2.7,0-4.1-1.3-4.1-4.1v-10.3h-2.6v-2h2.6v-5l2.5-0.6V327.9z"/>
			<path class="st2" d="M396.2,335.8c0,5.1-2.8,8.4-6.9,8.4c-4.1,0-6.8-3.2-6.8-8.3c0-5.1,2.8-8.4,6.9-8.4
				C393.4,327.5,396.2,330.7,396.2,335.8z M385.1,335.9c0,4.1,1.6,6.4,4.2,6.4c2.6,0,4.3-2.2,4.3-6.4c0-4.1-1.6-6.4-4.2-6.4
				C386.7,329.5,385.1,331.8,385.1,335.9z"/>
			<path class="st2" d="M408.1,322.5c-0.5-0.1-1-0.1-1.4-0.1c-1.6,0-2.3,0.7-2.3,2.5v3h3.6v2h-3.6v14h-2.5v-14h-2.8v-2h2.8v-3.1
				c0-2.9,1.5-4.3,4.4-4.3c0.6,0,1.3,0.1,2.1,0.2L408.1,322.5z"/>
			<path class="st2" d="M434.8,327.7c-0.8-3.4-2.7-5.1-5.6-5.1c-3.9,0-6.8,3.3-6.8,9.7c0,6.3,2.9,9.7,6.8,9.7c3.1,0,5-1.5,5.8-5.1
				l2.6,0.9c-1.3,4.6-4.2,6.5-8.4,6.5c-5.5,0-9.6-4.3-9.6-11.9c0-7.6,4.1-11.9,9.6-11.9c4.3,0,7.3,2.5,8.3,6.6L434.8,327.7z"/>
			<path class="st2" d="M441.4,331.7c0.9-2.8,3.1-4.2,6.3-4.2c3.8,0,5.8,1.7,5.8,5.3v5.8c0,2.3,0.2,4,0.3,5.2h-2.3
				c-0.2-0.7-0.2-1.4-0.3-2.5c-1.3,2-3.3,2.9-5.5,2.9c-3.1,0-4.9-1.9-4.9-4.6c0-2.7,1.6-4.6,5.2-5.2c1.4-0.2,3.2-0.4,5-0.5V333
				c0-2.6-1-3.6-3.4-3.6c-1.9,0-3.3,1-3.9,3L441.4,331.7z M451.1,335.5c-1.7,0-3.2,0.2-4.4,0.5c-2.3,0.5-3.3,1.6-3.3,3.4
				c0,1.7,1.1,2.9,3.1,2.9c1.7,0,3.4-1,4.7-3.1V335.5z"/>
			<path class="st2" d="M466.1,333.9l5.9,9.9h-2.9l-4.7-8.2l-2.8,3v5.2h-2.5v-23.4h2.5v15.4l7-7.9h3L466.1,333.9z"/>
			<path class="st2" d="M477.2,336.2c0,3.9,1.8,6.1,4.7,6.1c2.2,0,3.4-1,4.1-3.2l2.3,0.8c-1,2.9-3.1,4.4-6.4,4.4
				c-4.3,0-7.1-3.1-7.1-8.3c0-5.1,2.9-8.4,6.9-8.4c3.9,0,6.7,3,6.7,8.1v0.6H477.2z M485.9,334.4c-0.2-3.2-1.8-5-4.2-5
				c-2.5,0-4.2,1.9-4.4,5H485.9z"/>
			<path class="st2" d="M501.3,332.1c-0.5-1.8-1.7-2.7-3.5-2.7c-2.1,0-3.2,0.9-3.2,2.3c0,1.5,0.7,2.2,3.3,2.8l1.3,0.3
				c3.6,0.9,5,2.1,5,4.7c0,2.7-2,4.7-6.1,4.7c-3.1,0-5.4-1.2-6.3-3.9l2.5-0.9c0.7,2,2.2,2.9,3.9,2.9c2.6,0,3.6-1.2,3.6-2.6
				c0-1.7-0.6-2.2-3.5-3l-1.3-0.3c-3.6-0.9-4.7-2.2-4.7-4.6c0-2.4,1.9-4.3,5.6-4.3c3,0,5,1.3,5.9,3.8L501.3,332.1z"/>
		</g>
		<g class="st1">
			<path class="st2" d="M510.1,328.9h-1.5l-0.6-8h2.8L510.1,328.9z M516,328.9h-1.5l-0.7-8h2.8L516,328.9z"/>
		</g>
		<g class="st1">
			<path class="st2" d="M548.2,325.8c0.1,0,0.2,0,0.3,0.1c0.2,0.4,0.4,1.2,0.5,1.6c0,0.2-0.1,0.3-0.2,0.3c-2.9,0.9-5.5,1.3-8.2,1.5
				c0,3.1,0.3,5.7,0.6,8.4c2.9,0.8,6.1,2.2,8.9,4c0.2,0.1,0.2,0.2,0.2,0.4c-0.2,0.4-0.6,1.2-0.9,1.5c-0.1,0.1-0.2,0.2-0.3,0.1
				c-2.8-2-5.1-3.1-7.7-4c0,0.2,0,0.5,0,0.9c0,2.6-2.1,4.5-5.6,4.5c-3.8,0-6-1.6-6-3.9c0-2.5,2.7-4.1,6-4.1c1.2,0,2.4,0.1,3.4,0.2
				c-0.3-2.9-0.5-6.5-0.6-10.1c0-1.4,0-3.3,0-4.8c0-0.9-0.1-1.8-0.3-2.6c0.8,0.1,1.7,0.2,2.5,0.4c0.4,0.1,0.4,0.4,0.2,0.7
				c-0.2,0.4-0.2,0.7-0.3,1.6c-0.1,1-0.1,2.7-0.1,4.6C543.1,327.1,545.7,326.6,548.2,325.8z M535.6,338.9c-2.6,0-4.1,1-4.1,2.3
				c0,1.4,1.5,2,3.9,2c2.4,0,3.8-1.2,3.8-3.2c0-0.3,0-0.5,0-0.7C537.9,339.1,536.7,338.9,535.6,338.9z"/>
			<path class="st2" d="M562,320.8c0.3,0.2,0.4,0.3,0.4,0.5c0,0.2-0.1,0.3-0.1,0.4c-0.2,0.3-0.4,0.7-0.6,1.2
				c-0.6,2.9-0.9,5.5-0.9,7.2c0,1.2,0,2.5,0.1,3.5c0.7-1.3,1.6-3.1,2.3-4.5c0.2,0.6,0.4,1,0.6,1.3c0.2,0.3,0.2,0.5,0,0.8
				c-0.8,1.4-1.5,3-2,4.1c-0.2,0.5-0.2,0.7-0.2,1c0,0.3,0,0.4-0.2,0.4c-0.3,0.1-1,0.2-1.5,0.2c-0.2,0-0.2-0.1-0.3-0.3
				c-0.5-1.3-0.8-3.4-0.8-5.8c0-1.9,0.3-4.8,0.7-7.3c0.2-1.3,0.3-2.3,0.3-3.5C560.7,320.3,561.5,320.6,562,320.8z M571.9,320.5
				c0.5,0.1,0.5,0.3,0.5,0.6c-0.1,0.3-0.1,0.9-0.1,1.5c0.2,3.5,0.4,6,0.4,8.3c0,4.5-0.8,7.8-2.6,10.2c-1.2,1.7-2.9,3.2-5.1,4.5
				c-0.3,0.2-0.5,0.2-0.8-0.1c-0.4-0.3-1-0.7-1.6-0.9c2.5-1.3,4.1-2.5,5.4-4.3c1.7-2.3,2.6-5,2.6-9.4c0-2.2-0.1-5.1-0.3-7.4
				c-0.1-1.5-0.3-2.3-0.6-3.3C570.5,320.3,571.3,320.4,571.9,320.5z"/>
		</g>
		<g class="st1">
			<path class="st2" d="M599.2,342.7c0,2.4-2,4.3-4.4,4.3s-4.4-1.9-4.4-4.3s2-4.3,4.4-4.3S599.2,340.3,599.2,342.7z M592.1,342.7
				c0,1.5,1.2,2.8,2.8,2.8c1.6,0,2.8-1.2,2.8-2.8s-1.2-2.8-2.8-2.8C593.3,340,592.1,341.2,592.1,342.7z"/>
		</g>
		<g class="st1">
			<path class="st2" d="M77.1,385.8c-0.2,0.3-0.2,0.5-0.4,0.5c-0.1,0-0.2-0.1-0.5-0.2c-5.4-2.3-9.9-5.8-13.2-10.6
				c-3.3,4.9-7.4,8.2-12.7,10.8c-0.2,0.1-0.4,0.2-0.5,0.2c-0.2,0-0.2-0.2-0.4-0.5c-0.3-0.5-0.6-0.8-0.9-1.1
				c6-2.7,10.3-6.5,12.8-10.5c0.5-0.7,0.7-1.2,0.8-1.8c0.7,0.1,1.3,0.2,2,0.4c0.3,0.1,0.4,0.2,0.4,0.3c0,0.1-0.1,0.2-0.2,0.3
				c-0.1,0.1-0.2,0.2-0.3,0.2c3.4,4.9,8.4,8.5,13.9,10.5C77.6,384.9,77.3,385.4,77.1,385.8z M76.3,399.3c0,0.2,0,0.2-0.2,0.2
				c-0.2,0-1.2-0.1-4.2-0.1H54.5c-3,0-4,0.1-4.2,0.1c-0.2,0-0.2,0-0.2-0.2V398c0-0.2,0-0.2,0.2-0.2c0.2,0,1.2,0.1,4.2,0.1H62v-5.2
				h-3.3c-3.1,0-4.1,0.1-4.3,0.1c-0.2,0-0.2,0-0.2-0.2v-1.3c0-0.2,0-0.2,0.2-0.2c0.2,0,1.2,0.1,4.3,0.1H62v-4.6h-2.7
				c-3,0-4,0.1-4.1,0.1c-0.2,0-0.2,0-0.2-0.2v-1.3c0-0.2,0-0.2,0.2-0.2c0.2,0,1.1,0.1,4.1,0.1h7.5c3,0,4-0.1,4.1-0.1s0.2,0,0.2,0.2
				v1.3c0,0.2,0,0.2-0.2,0.2s-1.2-0.1-4.1-0.1h-2.9v4.6h3.8c3.1,0,4.1-0.1,4.2-0.1c0.2,0,0.3,0,0.3,0.2v1.3c0,0.2,0,0.2-0.3,0.2
				c-0.2,0-1.2-0.1-4.2-0.1h-3.8v5.2h8c3,0,4-0.1,4.2-0.1c0.2,0,0.2,0,0.2,0.2V399.3z"/>
			<path class="st2" d="M97.3,379.5c-4.7,0.7-8.7,1.4-12.7,2.2c-1.1,0.2-1.5,0.3-1.9,0.5c-0.2,0.1-0.4,0.2-0.6,0.2s-0.3-0.1-0.4-0.3
				c-0.3-0.6-0.6-1.4-0.9-2.2c1.1,0,1.9-0.1,3.9-0.4c4.6-0.7,11-1.7,19.3-2.7c0.3,0,0.5,0.1,0.5,0.2c0.1,0.4,0.2,1.2,0.2,1.6
				c0,0.3-0.1,0.3-0.4,0.4c-1.7,0.1-2.9,0.3-4.6,0.9c-4.6,1.8-8,5.6-8,9.8c0,5.2,4.5,6.7,9.1,7.1c0.4,0,0.5,0.1,0.5,0.3
				c0,0.3-0.1,1.1-0.2,1.5c-0.1,0.3-0.2,0.5-0.5,0.4c-5.3-0.5-10.9-2.7-10.9-9C89.7,385.7,92.5,382.1,97.3,379.5L97.3,379.5z"/>
			<path class="st2" d="M124,379.3c-0.6,5.3-2.2,10.4-4.1,13.6c-1.3,2.3-2.7,3.2-4.6,3.2c-2.3,0-4.6-2.6-4.6-7.1
				c0-2.9,1.3-5.9,3.6-8.1c2.3-2.2,5.4-3.5,9.4-3.5c7,0,11.1,4.1,11.1,10c0,5.1-3.1,9.2-9.9,10.9c-0.4,0.1-0.6,0-0.8-0.3
				c-0.2-0.3-0.6-0.8-1.2-1.2c6.2-1.2,9.7-4.6,9.7-9.8c0-4.6-3.6-7.9-8-7.9H124z M115.7,382.3c-2.1,2.1-3,4.6-3,6.7
				c0,3.4,1.4,4.9,2.5,4.9c1.1,0,2-0.7,2.9-2.3c1.6-2.8,3.2-7.6,3.6-12.2C119.4,379.7,117.2,380.8,115.7,382.3z"/>
			<path class="st2" d="M147.1,381.8c-0.3,0.2-0.4,0.5-0.7,0.9c-1.1,1.6-2.3,3-4.3,4.4c-0.2,0.2-0.3,0.2-0.5,0.2
				c-0.2,0-0.3-0.1-0.5-0.4c-0.3-0.3-0.7-0.6-0.9-0.7c2.3-1.4,3.6-2.7,4.7-4.4c0.3-0.5,0.6-1.1,0.7-1.6c0.6,0.2,1.2,0.5,1.6,0.7
				c0.2,0.1,0.3,0.2,0.3,0.3C147.4,381.5,147.3,381.6,147.1,381.8z M145,391.9c0.3,0.1,0.4,0.2,0.3,0.4c-0.7,2.4-1.8,4.4-3.2,6.2
				c-0.2,0.2-0.2,0.2-0.5,0l-0.9-0.6c-0.4-0.3-0.4-0.3-0.2-0.6c1.4-1.7,2.5-3.5,3-5.7c0.1-0.2,0.2-0.2,0.6-0.1L145,391.9z
				 M167.1,378.2c0,0.2,0,0.2-0.2,0.2c-0.2,0-1.2-0.1-4.1-0.1h-4.6v4.2c0,1.6,0,2.6,0,3.1c0,0.9-0.3,1.7-1,2
				c-0.6,0.3-1.1,0.4-2.8,0.4c-0.6,0-0.7,0-0.8-0.6c-0.1-0.5-0.3-0.9-0.5-1.2c0.7,0.1,1.3,0.1,2,0.1c1,0,1.3-0.3,1.3-1.3v-6.8h-4.1
				c-0.2,5.8-1.8,8.5-5.9,10.6c-0.2,0.1-0.4,0.2-0.5,0.2c-0.2,0-0.2-0.1-0.5-0.4c-0.3-0.3-0.7-0.6-1.1-0.7c4.3-2,6-4,6.1-9.6H145
				c-3,0-4,0.1-4.1,0.1c-0.2,0-0.2,0-0.2-0.2v-1.3c0-0.2,0-0.2,0.2-0.2c0.2,0,1.2,0.1,4.1,0.1h7.8v-0.6c0-1.6,0-2.4-0.2-3.2
				c0.7,0,1.5,0.1,2.1,0.2c0.2,0,0.4,0.1,0.4,0.2c0,0.2-0.1,0.4-0.2,0.6c-0.1,0.3-0.2,0.8-0.2,2.2v0.6h8c3,0,4-0.1,4.1-0.1
				c0.2,0,0.2,0,0.2,0.2V378.2z M150,396.5c0,0.8,0.1,1.3,0.7,1.6c0.5,0.2,1.4,0.4,3.5,0.4c2.5,0,3.7-0.2,4.5-0.7
				c0.7-0.4,1-1.7,1.1-3.5c0.3,0.3,0.8,0.6,1.3,0.7c0.5,0.2,0.5,0.2,0.5,0.8c-0.3,2-0.9,3-1.7,3.5c-1.2,0.7-2.9,0.8-5.7,0.8
				c-2.6,0-3.8-0.1-4.7-0.5c-0.7-0.4-1.3-1-1.3-2.7v-4.2c0-0.9,0-1.7-0.2-2.5c0.7,0,1.6,0.2,2,0.2c0.3,0.1,0.4,0.2,0.4,0.2
				c0,0.2-0.1,0.3-0.1,0.5c-0.1,0.2-0.2,0.7-0.2,1.7V396.5z M153.6,389.7c0.2-0.2,0.3-0.2,0.5,0c1.3,1.1,2.3,2.1,3.6,3.7
				c0.2,0.2,0.2,0.3-0.1,0.5l-0.8,0.7c-0.4,0.3-0.4,0.3-0.6,0.1c-1-1.5-2.1-2.8-3.4-3.9c-0.2-0.2-0.2-0.2,0.2-0.5L153.6,389.7z
				 M161.5,380.4c0.3-0.2,0.4-0.2,0.6,0c1.7,1.6,3.3,3.5,4.6,5.5c0.1,0.2,0.1,0.2-0.2,0.5l-0.8,0.5c-0.2,0.1-0.3,0.2-0.4,0.2
				c-0.1,0-0.2-0.1-0.2-0.2c-1.3-2.3-2.7-4.1-4.4-5.6c-0.2-0.2-0.2-0.2,0.2-0.4L161.5,380.4z M163.1,391.3c0.3-0.2,0.3-0.2,0.5,0
				c1.6,1.8,2.7,3.5,3.8,5.5c0.1,0.2,0,0.3-0.2,0.4l-1,0.7c-0.2,0.1-0.3,0.2-0.4,0.2c-0.1,0-0.2-0.1-0.2-0.2c-0.9-2-2.1-3.9-3.6-5.6
				c-0.2-0.2-0.2-0.2,0.2-0.5L163.1,391.3z"/>
			<path class="st2" d="M197.7,400c-0.2,0.3-0.3,0.4-0.4,0.4c-0.1,0-0.2-0.1-0.5-0.2c-7.1-4.5-10.4-10.9-11.6-17.2
				c-1.3,7.8-5.5,13.6-11.9,17.1c-0.2,0.1-0.3,0.2-0.5,0.2s-0.2-0.2-0.4-0.5c-0.3-0.5-0.7-0.8-1.2-1.1c8.4-4,12.7-12.2,12.5-21.1
				c0-1.7-0.1-2.6-0.2-3.7c0.7,0,1.7,0.1,2.3,0.2c0.2,0.1,0.4,0.2,0.4,0.4c0,0.2-0.1,0.4-0.2,0.6c-0.2,0.3-0.3,1-0.3,1.7
				c0,0.6,0,1.1,0,1.6c1.2,8.4,4.7,15.5,12.9,20.1C198.3,399.1,197.9,399.5,197.7,400z"/>
			<path class="st2" d="M218.1,379.1c0.2-0.1,0.3,0,0.4,0.2c0.1,0.4,0.1,0.9,0.2,1.3c0,0.3,0,0.4-0.3,0.5c-2,0.6-3.7,1-5.6,1.3
				c-1.9,6.3-3.8,11.8-6,16.8c-0.1,0.3-0.2,0.3-0.5,0.2c-0.2-0.1-1.1-0.5-1.5-0.7c-0.2-0.1-0.2-0.2-0.1-0.4
				c2.6-5.5,4.4-10.3,5.8-15.6c-2,0.2-4.2,0.3-6.3,0.4c-0.4,0-0.4,0-0.5-0.3c-0.1-0.4-0.2-1.1-0.2-1.7c0.6,0.1,1.1,0.1,2,0.1
				c1.5,0,3.6-0.1,5.6-0.4c0.4-1.7,0.7-2.8,0.9-3.9c0.2-0.9,0.3-1.9,0.2-2.9c0.9,0.2,1.8,0.4,2.5,0.7c0.2,0.1,0.2,0.2,0.2,0.3
				c0,0.2-0.1,0.3-0.2,0.5c-0.2,0.3-0.3,0.6-0.5,1.2c-0.4,1.3-0.7,2.6-1,3.7C214.6,380.1,216.4,379.6,218.1,379.1z M216.6,393.4
				c0.2,0,0.3,0.1,0.3,0.3c0.2,2.8,2,3.7,5.9,3.7c1.6,0,3.3-0.2,4.6-0.4c0.2,0,0.3,0,0.4,0.2c0.1,0.4,0.1,1.1,0.1,1.5
				c0,0.3-0.1,0.4-0.3,0.4c-1,0.2-2.6,0.3-4.1,0.3c-3.4,0-5.5-0.4-6.9-1.7c-1.1-0.9-1.5-2.3-1.5-4.2
				C215.6,393.4,216.2,393.4,216.6,393.4z M217.3,385.3c0-0.3,0.1-0.4,0.4-0.5c1.8-0.4,3.6-0.7,5.5-0.7c1.3,0,2.6,0.2,3.9,0.3
				c0.4,0.1,0.4,0.2,0.5,0.3c0,0.3,0.1,1,0,1.4c0,0.4-0.1,0.5-0.4,0.4c-1.3-0.2-2.7-0.3-4-0.3c-1.9,0-3.9,0.3-5.7,0.7
				C217.4,386.5,217.3,385.7,217.3,385.3z"/>
			<path class="st2" d="M240.7,376.9c0.1-1.1,0.1-1.9-0.1-2.8c1.1,0.1,1.9,0.3,2.5,0.5c0.2,0.1,0.3,0.2,0.3,0.4
				c0,0.2-0.1,0.3-0.2,0.4c-0.2,0.2-0.3,0.6-0.4,1c-0.2,1.2-0.3,2-0.5,3.3c1.9-0.2,4.5-0.7,6.7-1.3c0.3-0.1,0.4-0.1,0.4,0.2
				c0.1,0.4,0.1,0.9,0.1,1.3c0,0.2-0.1,0.3-0.3,0.4c-2.5,0.6-4.8,1-7.3,1.3c-0.5,3.1-1,5.8-1.7,8.7c2.6-2.9,6.2-4.3,9.4-4.3
				c4.4,0,6.6,2.6,6.6,5.6c0,2.5-1.1,4.5-3.7,5.9c-1.9,1-4.6,1.7-7.9,2.2c-0.5,0.1-1,0.2-1.5,0.2c-0.2,0-0.3-0.1-0.5-0.4
				c-0.3-0.6-0.6-1-1.1-1.4c4.3-0.3,6.7-0.8,9.2-2c2.1-1,3.2-2.5,3.2-4.6c0-2.3-1.7-3.7-4.5-3.7c-3.5,0-7,1.9-8.8,4.4
				c-0.3,0.4-0.5,0.7-0.7,1c-0.2,0.3-0.3,0.4-0.5,0.4c-0.3,0-1-0.3-1.4-0.4c-0.3-0.1-0.4-0.2-0.4-0.4c0-0.1,0.1-0.3,0.1-0.5
				c0.2-0.5,0.2-0.9,0.3-1.2c0.7-2.8,1.3-5.7,1.8-9.2c-1.9,0.2-4.2,0.3-6.2,0.3c-0.3,0-0.4-0.1-0.4-0.3c-0.1-0.3-0.2-1-0.2-1.6
				c2.3,0,4.8-0.1,7.1-0.3C240.5,379.1,240.6,378.2,240.7,376.9z"/>
			<path class="st2" d="M271.4,377.8c0.2-1.1,0.3-1.9,0.3-3c1,0.2,1.6,0.5,2.4,0.8c0.3,0.2,0.4,0.5,0.1,0.8c-0.2,0.2-0.4,0.5-0.5,1
				c-0.5,1.5-0.9,3-1.3,4.5c1-0.1,2.3-0.2,3-0.2c2.7,0,4.1,1.4,4.1,5.1c0,4-0.7,7.7-1.7,10c-0.8,1.7-2,2.5-3.6,2.5
				c-1.3,0-2.4-0.2-3.2-0.6c-0.2-0.1-0.4-0.2-0.4-0.5c0-0.5-0.1-1.2-0.4-1.9c1.4,0.6,2.5,0.9,3.6,0.9c0.9,0,1.5-0.3,2.1-1.6
				c0.8-1.8,1.4-4.9,1.4-8.8c0-2.4-0.5-3.3-2.2-3.3c-1,0-2.3,0.2-3.4,0.3c-1.8,5.4-3.8,10.3-6.4,14.7c-0.1,0.2-0.3,0.2-0.5,0.2
				c-0.3-0.2-0.9-0.6-1.2-0.8c-0.2-0.2-0.2-0.3-0.1-0.5c2.6-4.4,4.5-8.7,6-13.3c-1.3,0.2-2.6,0.4-4.1,0.7c-0.6,0.1-1.1,0.2-1.4,0.4
				c-0.3,0.2-0.6,0.2-0.8-0.2c-0.2-0.5-0.5-1.2-0.7-2.1c1.1,0,2.3,0,3.2-0.2c1.7-0.2,2.9-0.4,4.4-0.6
				C270.7,380.8,271,379.6,271.4,377.8z M282.7,380.4c0.2-0.1,0.3,0,0.5,0.1c2.2,1.9,4,4.6,5,7.5c0.1,0.2,0.1,0.4-0.1,0.5
				c-0.3,0.3-0.9,0.7-1.3,0.8c-0.2,0.2-0.5,0.1-0.5-0.2c-1.1-3.2-2.6-5.8-5-7.9C281.8,381,282.2,380.6,282.7,380.4z M283.4,375.6
				c0.1-0.1,0.2-0.1,0.3,0c1.2,0.9,2.6,2.4,3.5,3.8c0.1,0.1,0.1,0.2-0.1,0.3l-0.9,0.7c-0.2,0.1-0.3,0.1-0.4-0.1
				c-0.9-1.5-2.2-3-3.6-4L283.4,375.6z M286,373.5c0.1-0.1,0.2-0.1,0.3,0c1.2,1,2.6,2.3,3.6,3.6c0.1,0.2,0.1,0.2-0.1,0.4l-0.8,0.7
				c-0.1,0.1-0.2,0.1-0.4-0.1c-0.8-1.3-2.1-2.8-3.6-3.9L286,373.5z"/>
			<path class="st2" d="M291,394.2c0.1-0.1,0.2-0.2,0.3-0.2c0.1,0,0.2,0.1,0.3,0.2c2.3,1.4,4.2,3.2,6,5.6c0.1,0.2,0.2,0.3,0.2,0.4
				c0,0.1,0,0.2-0.2,0.4l-1.1,0.9c-0.2,0.1-0.2,0.2-0.3,0.2c-0.1,0-0.2,0-0.3-0.2c-1.6-2.3-3.6-4.4-5.7-5.8
				c-0.2-0.1-0.2-0.2-0.2-0.2c0-0.1,0-0.2,0.2-0.3L291,394.2z"/>
			<path class="st2" d="M333.3,390.1c0,0.2,0,0.2-0.2,0.2c-0.2,0-1.2-0.1-4.1-0.1h-8.6v3.5h6.3c3.1,0,4.2-0.1,4.4-0.1
				c0.2,0,0.2,0,0.2,0.2v1.3c0,0.2,0,0.2-0.2,0.2c-0.2,0-1.2-0.1-4.4-0.1h-6.3v2.2c0,2.2,0.1,3.1,0.1,3.3c0,0.2,0,0.2-0.2,0.2h-1.5
				c-0.2,0-0.3,0-0.3-0.2c0-0.2,0.1-1.1,0.1-3.3v-2.2h-6c-3.2,0-4.2,0.1-4.4,0.1c-0.2,0-0.2,0-0.2-0.2V394c0-0.2,0-0.2,0.2-0.2
				c0.2,0,1.2,0.1,4.4,0.1h6v-3.5h-8.1c-2.9,0-3.9,0.1-4.1,0.1c-0.2,0-0.2,0-0.2-0.2v-1.3c0-0.2,0-0.2,0.2-0.2
				c0.2,0,1.2,0.1,4.1,0.1h11.9c0.7-1,1.5-2.2,2-3.2c0.2-0.4,0.4-0.9,0.5-1.4c0.7,0.2,1.2,0.3,1.8,0.6c0.2,0.1,0.3,0.2,0.3,0.3
				c0,0.2-0.2,0.3-0.3,0.4c-0.2,0.1-0.4,0.4-0.6,0.8c-0.4,0.7-1.1,1.7-1.7,2.6h4.7c2.9,0,3.9-0.1,4.1-0.1c0.2,0,0.2,0,0.2,0.2V390.1
				z M332.9,383.2c0,0.2,0,0.2-0.2,0.2c-0.2,0-1.2-0.1-4.1-0.1h-18c-3,0-4,0.1-4.1,0.1c-0.2,0-0.2,0-0.2-0.2v-1.3
				c0-0.2,0-0.2,0.2-0.2c0.2,0,1.2,0.1,4.1,0.1h7.9v-3.4h-5.2c-3.2,0-4.3,0.1-4.4,0.1c-0.2,0-0.2,0-0.2-0.2v-1.3
				c0-0.2,0-0.2,0.2-0.2c0.2,0,1.2,0.1,4.4,0.1h5.2c0-1.9,0-2.7-0.2-3.6c0.8,0,1.5,0.1,2.1,0.2c0.2,0,0.3,0.1,0.3,0.3
				c0,0.2-0.1,0.4-0.2,0.6c-0.1,0.4-0.2,1-0.2,2.6h5.4c3.2,0,4.2-0.1,4.4-0.1s0.2,0,0.2,0.2v1.3c0,0.2,0,0.2-0.2,0.2
				s-1.2-0.1-4.4-0.1h-5.4v3.4h8.2c3,0,4-0.1,4.1-0.1c0.2,0,0.2,0,0.2,0.2V383.2z M313.4,384.1c0.3-0.1,0.3-0.1,0.5,0.1
				c0.7,0.9,1.4,2,1.9,3.3c0.1,0.2,0,0.3-0.2,0.4l-0.9,0.4c-0.4,0.2-0.5,0.2-0.6-0.1c-0.5-1.3-1.2-2.4-1.8-3.3
				c-0.2-0.2-0.1-0.3,0.2-0.4L313.4,384.1z"/>
			<path class="st2" d="M355.8,376.9c0-1-0.1-1.7-0.3-2.6c1.2,0.2,1.9,0.3,2.4,0.5c0.3,0.1,0.4,0.2,0.4,0.4c0,0.2-0.1,0.4-0.2,0.5
				c-0.2,0.2-0.2,0.7-0.2,1.1c0,1.9-0.1,3.5-0.1,5.3c2.4-0.2,4.4-0.3,6.4-0.4c0.2,0,0.3,0.1,0.3,0.3c0,0.4,0,1,0,1.4
				c0,0.3-0.1,0.4-0.3,0.4c-2.2,0-4.2,0.1-6.5,0.3c-0.1,2-0.2,4-0.4,5.1c-0.3,2.3-1.4,3.1-3.3,3.1c-0.8,0-1.6-0.1-2.3-0.2
				c-0.3-0.1-0.3-0.2-0.4-0.6c-0.1-0.6-0.2-1.1-0.5-1.7c1.1,0.3,2.1,0.5,3,0.5c0.9,0,1.3-0.5,1.5-1.8c0.2-1.2,0.3-2.8,0.3-4.3
				c-2.9,0.2-6,0.6-8.9,1.1c-0.1,3.3-0.1,6.2,0.1,8c0.2,2.6,1,3.3,5.6,3.3c2.6,0,5.2-0.2,7.5-0.6c0.4,0,0.5,0,0.5,0.3
				c0.1,0.4,0.1,1.1,0.1,1.5c0,0.3-0.1,0.4-0.3,0.4c-1.8,0.2-4.7,0.4-7.5,0.4c-6,0-7.5-1.2-7.9-5c-0.2-1.4-0.2-4.8-0.2-8.1
				c-1.7,0.2-3,0.5-4.4,0.8c-0.4,0.1-0.9,0.2-1.4,0.4c-0.3,0.1-0.5,0-0.6-0.2c-0.2-0.5-0.4-1.2-0.6-1.9c0.7,0,1.5-0.1,2.3-0.2
				c1.7-0.2,3.2-0.5,4.7-0.8c0-1.2,0-2.4,0-3.5c0-1.3-0.1-1.9-0.4-3.1c0.9,0.1,1.8,0.2,2.5,0.4c0.2,0.1,0.4,0.3,0.4,0.5
				c0,0.2-0.1,0.4-0.2,0.7c-0.2,0.4-0.2,0.8-0.2,1.4c-0.1,1.3-0.1,2.2-0.1,3.4c2.7-0.3,6.1-0.7,9-1
				C355.8,380.4,355.8,378.6,355.8,376.9z"/>
			<path class="st2" d="M385.7,379.6c-4.7,0.7-8.7,1.4-12.7,2.2c-1.1,0.2-1.5,0.3-1.9,0.5c-0.2,0.1-0.4,0.2-0.6,0.2
				s-0.3-0.1-0.4-0.3c-0.3-0.6-0.6-1.4-0.9-2.2c1.1,0,1.9-0.1,3.9-0.4c4.6-0.7,11-1.7,19.3-2.7c0.3,0,0.5,0.1,0.5,0.2
				c0.1,0.4,0.2,1.2,0.2,1.6c0,0.3-0.1,0.3-0.4,0.4c-1.7,0.1-2.9,0.3-4.6,0.9c-4.6,1.8-8,5.6-8,9.8c0,5.2,4.5,6.7,9.1,7.1
				c0.4,0,0.5,0.1,0.5,0.3c0,0.3-0.1,1.1-0.2,1.5c-0.1,0.3-0.2,0.5-0.5,0.4c-5.3-0.5-10.9-2.7-10.9-9
				C378.1,385.9,380.8,382.3,385.7,379.6L385.7,379.6z M389.5,384c0.1-0.1,0.2-0.1,0.3,0c1.2,0.9,2.6,2.4,3.5,3.8
				c0.1,0.1,0.1,0.2-0.1,0.3l-0.9,0.7c-0.2,0.1-0.3,0.1-0.4-0.1c-0.9-1.5-2.2-3-3.6-4L389.5,384z M392.1,382c0.1-0.1,0.2-0.1,0.3,0
				c1.2,1,2.6,2.3,3.6,3.6c0.1,0.2,0.1,0.2-0.1,0.4l-0.8,0.7c-0.1,0.1-0.2,0.1-0.4-0.1c-0.8-1.3-2.1-2.8-3.6-3.9L392.1,382z"/>
			<path class="st2" d="M411.1,374.8c0.2,0.1,0.3,0.2,0.3,0.4c0,0.2-0.1,0.3-0.2,0.4c-0.2,0.3-0.3,0.6-0.4,1.2
				c-0.1,0.7-0.2,1.3-0.3,2c2.8-0.2,5.5-0.7,8.7-1.3c0.2-0.1,0.3,0,0.4,0.2c0.1,0.3,0.2,0.8,0.2,1.2c0,0.2-0.1,0.3-0.3,0.4
				c-3.8,0.8-6.3,1.2-9.1,1.4c-0.2,1.7-0.3,3-0.3,4.5c1.6-0.5,3.8-0.8,5.7-0.9c0.3-0.8,0.6-1.6,0.6-2.6c0.7,0.3,1.4,0.6,1.7,0.8
				c0.2,0.2,0.4,0.3,0.4,0.5c0,0.2-0.2,0.4-0.3,0.6c-0.2,0.3-0.3,0.5-0.5,0.8c4.5,0.7,7,3.6,7,7.2c0,4.9-4.4,7.4-9,8.5
				c-0.3,0.1-0.6,0-0.7-0.3c-0.2-0.3-0.5-0.8-1.1-1.2c2.2-0.4,4.6-1.3,6.1-2.3c1.3-0.9,2.7-2.3,2.7-5c0-3.3-2.6-5.1-5.4-5.4
				c-1.7,3.4-3.9,6.4-6,8.5c0.2,0.7,0.4,1.1,0.7,1.7c0.1,0.2,0.1,0.3-0.2,0.5c-0.4,0.3-0.8,0.5-1.2,0.6c-0.2,0.1-0.3,0.1-0.4-0.2
				c-0.2-0.4-0.4-0.9-0.5-1.5c-2.4,1.8-4.4,2.7-5.9,2.7c-2.1,0-2.8-1.5-2.8-3.2c0-3.2,2.6-7,7.4-9.3c0.1-1.8,0.2-3.4,0.2-5
				c-1.8,0.1-3,0.1-3.8,0.1c-0.7,0-1.2,0-1.5-0.1c-0.3,0-0.4-0.1-0.4-0.4c-0.1-0.4-0.1-0.9-0.1-1.4c2,0.2,3.9,0.1,6,0
				c0.1-1.1,0.2-1.9,0.3-2.7c0.1-0.9,0-1.5-0.1-2.1C409.7,374.4,410.6,374.6,411.1,374.8z M402.5,394.8c0,0.8,0.4,1.5,1.4,1.5
				c1.1,0,2.7-0.8,4.8-2.4c-0.4-2-0.6-4-0.7-6.2C404.3,389.7,402.5,392.6,402.5,394.8z M415,385.8c-1.6,0-3.6,0.4-5.3,1
				c0,2.2,0.2,4,0.6,5.8C411.8,391.1,414,388,415,385.8z"/>
			<path class="st2" d="M436.5,375.4c0.3,0.2,0.4,0.3,0.4,0.5c0,0.2-0.1,0.3-0.1,0.4c-0.2,0.3-0.4,0.7-0.6,1.2
				c-0.6,2.9-0.9,5.5-0.9,7.2c0,1.2,0,2.5,0.1,3.5c0.7-1.3,1.6-3.1,2.3-4.5c0.2,0.6,0.4,1,0.6,1.3c0.2,0.3,0.2,0.5,0,0.8
				c-0.8,1.4-1.5,3-2,4.1c-0.2,0.5-0.2,0.7-0.2,1c0,0.3,0,0.4-0.2,0.4c-0.3,0.1-1,0.2-1.5,0.2c-0.2,0-0.2-0.1-0.3-0.3
				c-0.5-1.3-0.8-3.4-0.8-5.8c0-1.9,0.3-4.8,0.7-7.3c0.2-1.3,0.3-2.3,0.3-3.5C435.2,374.8,435.9,375.1,436.5,375.4z M446.3,375.1
				c0.5,0.1,0.5,0.3,0.5,0.6c-0.1,0.3-0.1,0.9-0.1,1.5c0.2,3.5,0.4,6,0.4,8.3c0,4.5-0.8,7.8-2.6,10.2c-1.2,1.7-2.9,3.2-5.1,4.5
				c-0.3,0.2-0.5,0.2-0.8-0.1c-0.4-0.3-1-0.7-1.6-0.9c2.5-1.3,4.1-2.5,5.4-4.3c1.7-2.3,2.6-5,2.6-9.4c0-2.2-0.1-5.1-0.3-7.4
				c-0.1-1.5-0.3-2.3-0.6-3.3C444.9,374.9,445.8,374.9,446.3,375.1z"/>
			<path class="st2" d="M465.3,387.9c-2.4,0.1-4.9,0.1-7.2-0.1c-0.2,0-0.3-0.1-0.3-0.4c-0.1-0.4-0.1-1.2-0.1-1.6
				c2.3,0.3,5.1,0.3,7.5,0.2c0-1.5,0-3.1,0-4.6c-3,0.1-5.7,0.1-8.3-0.2c-0.2,0-0.2-0.1-0.3-0.3c-0.1-0.5-0.1-0.9-0.1-1.6
				c2.7,0.3,5.7,0.4,8.7,0.2c0-1.3,0-2.2,0-3.3c0-0.9-0.1-1.4-0.3-2.1c1,0.1,1.9,0.2,2.5,0.4c0.3,0.1,0.4,0.5,0.3,0.7
				c-0.2,0.3-0.3,0.8-0.4,1.4c-0.1,1-0.1,1.7-0.1,2.7c2.8-0.2,5.4-0.6,7.6-1c0.2-0.1,0.3,0,0.3,0.2c0.1,0.5,0.1,1,0.1,1.4
				c0,0.2-0.1,0.3-0.2,0.3c-2.4,0.4-5,0.7-7.8,0.9c0,1.5,0,3.1,0,4.6c2.4-0.2,4.5-0.4,6.9-0.9c0.2-0.1,0.3,0,0.3,0.2
				c0,0.4,0,1,0,1.5c0,0.2-0.1,0.3-0.3,0.3c-2.2,0.4-4.4,0.7-6.9,0.8c0,1.9,0.1,3.6,0.2,5.4c2.8,0.8,5.7,2.1,8.3,4
				c0.2,0.1,0.2,0.2,0.1,0.5c-0.1,0.4-0.5,1-0.8,1.3c-0.2,0.2-0.3,0.2-0.5,0.1c-2.5-2-4.6-3.1-7.1-4c0,3.5-1.8,4.9-5.6,4.9
				c-3.6,0-5.5-1.4-5.5-3.7c0-2,2.1-3.8,5.7-3.8c1.2,0,2.4,0.1,3.3,0.2C465.4,391.1,465.3,389.7,465.3,387.9z M462.2,394.3
				c-2.6,0-3.9,0.8-3.9,2c0,1.3,1.2,1.9,3.5,1.9c1.4,0,2.6-0.3,3.2-1c0.4-0.5,0.7-1.2,0.6-2.5C464.4,394.5,463.3,394.3,462.2,394.3z
				"/>
			<path class="st2" d="M507.8,380.5c0,0.3-0.1,0.3-0.4,0.3c-3.3-0.1-6.4-0.1-9.9,0c0,2,0,4.1,0,6.2c0.2,1,0.4,2.1,0.4,3.3
				c0,3.9-1.7,7.3-6.1,9.6c-0.3,0.2-0.6,0.3-0.7,0.3c-0.2,0-0.4-0.1-0.6-0.2c-0.3-0.3-0.9-0.7-1.4-0.9c4.5-1.8,6.5-4.7,6.8-7.9
				c-0.7,1.2-2,1.8-3.4,1.8c-2.2,0-4.1-1.4-4.1-4.4c0-2.7,2-4.3,4.3-4.3c1.2,0,2.3,0.3,2.9,1.1c0-1.5,0-2.9-0.1-4.4
				c-4.5,0.2-8.7,0.6-11.6,0.9c-0.7,0.1-1.1,0.3-1.4,0.3c-0.2,0-0.3-0.1-0.4-0.3c-0.2-0.4-0.3-1.2-0.5-2c1.1,0.1,2.1,0,3.9-0.2
				c2.5-0.2,5.7-0.4,9.9-0.7c0-1.3,0-1.9-0.1-2.9c0-0.8-0.1-1.3-0.3-2.1c0.9,0.1,1.8,0.2,2.4,0.3c0.3,0.1,0.6,0.2,0.6,0.5
				c0,0.2-0.1,0.3-0.2,0.6c-0.1,0.2-0.2,0.4-0.2,0.8c-0.1,0.7-0.1,1.3-0.1,2.6c3.5-0.1,6.5-0.1,10-0.1c0.3,0,0.3,0,0.3,0.3V380.5z
				 M490.2,388.6c0,1.7,1.1,2.7,2.5,2.7c1.7,0,2.8-1.3,2.8-2.7c0-1.6-1.2-2.6-2.8-2.6C491.4,385.8,490.2,386.9,490.2,388.6z"/>
			<path class="st2" d="M529.8,380.3c0.1,0,0.2,0,0.3,0.1c0.2,0.4,0.4,1.2,0.5,1.6c0,0.2-0.1,0.3-0.2,0.3c-2.9,0.9-5.5,1.3-8.2,1.5
				c0,3.1,0.3,5.7,0.6,8.4c2.9,0.8,6.1,2.2,8.9,4c0.2,0.1,0.2,0.2,0.2,0.4c-0.2,0.4-0.6,1.2-0.9,1.5c-0.1,0.1-0.2,0.2-0.3,0.1
				c-2.8-2-5.1-3.1-7.7-4c0,0.2,0,0.5,0,0.9c0,2.6-2.1,4.5-5.6,4.5c-3.8,0-6-1.6-6-3.9c0-2.5,2.7-4.1,6-4.1c1.2,0,2.4,0.1,3.4,0.2
				c-0.3-2.9-0.5-6.5-0.6-10.1c0-1.4,0-3.3,0-4.8c0-0.9-0.1-1.8-0.3-2.6c0.8,0.1,1.7,0.2,2.5,0.4c0.4,0.1,0.4,0.4,0.2,0.7
				c-0.2,0.4-0.2,0.7-0.3,1.6c-0.1,1-0.1,2.7-0.1,4.6C524.6,381.7,527.3,381.1,529.8,380.3z M517.2,393.5c-2.6,0-4.1,1-4.1,2.3
				c0,1.4,1.5,2,3.9,2c2.4,0,3.8-1.2,3.8-3.2c0-0.3,0-0.5,0-0.7C519.5,393.6,518.3,393.5,517.2,393.5z"/>
			<path class="st2" d="M541.6,383c2.9-0.9,4.7-1.5,6.8-1.5c3.1,0,5.8,2.1,5.8,7c0,2.9-1,5.4-2.6,7.2c-1.6,1.9-3.5,3.3-5.5,4.4
				c-0.6,0.3-0.8,0.3-1.1,0c-0.4-0.5-0.9-0.8-1.6-1.1c3.1-1.4,5.1-3.1,6.6-5.1c1-1.3,1.8-3.1,1.8-5.7c0-3.7-2-4.8-3.9-4.8
				c-1.1,0-2.6,0.4-4.6,1.1c-1.4,0.6-2.2,0.9-2.8,1.3c-0.4,0.2-0.7,0.5-1,0.5c-0.2,0-0.4-0.2-0.6-0.5c-0.2-0.4-0.7-1.2-1-2
				C539.3,383.7,540.2,383.5,541.6,383z M552,376.2c0.2,0,0.3,0.2,0.3,0.4c-0.1,0.4-0.2,1.2-0.4,1.5c-0.1,0.2-0.1,0.4-0.3,0.3
				c-3.1-0.5-5.5-1.1-8.5-2.3c-0.1,0-0.1-0.2-0.1-0.4c0.1-0.6,0.3-1.1,0.5-1.7C546.2,375.1,549,375.8,552,376.2z"/>
			<path class="st2" d="M567.5,376.7c0.3,0.2,0.4,0.3,0.4,0.5c0,0.2-0.1,0.3-0.2,0.5c-0.3,0.4-0.5,0.9-0.6,1.7
				c-0.9,3.7-1.5,7.8-1.5,10.8c0,2.3,0.1,3.8,0.5,5.4c0.7-1.7,1.4-3.1,2.3-5.3c0.2,0.5,0.5,0.9,0.7,1.2c0.1,0.1,0.2,0.2,0.2,0.3
				c0,0.2-0.1,0.3-0.2,0.5c-0.7,1.6-1.3,3.1-2,5c-0.1,0.2-0.1,0.5-0.1,0.8c0,0.3,0.1,0.5,0.1,0.7c0,0.1-0.1,0.2-0.2,0.3
				c-0.4,0.2-1,0.2-1.4,0.3c-0.2,0-0.3-0.1-0.3-0.3c-0.9-2.1-1.4-6-1.4-9c0-3.3,0.6-7,1.3-10.6c0.3-1.5,0.4-2.4,0.4-3.5
				C566.2,376.1,567,376.4,567.5,376.7z M573.9,391.5c0.2,0,0.2,0.1,0.2,0.3c0.1,2.4,2,3.4,5.7,3.4c2.2,0,4.2-0.2,6.1-0.4
				c0.2,0,0.3,0,0.3,0.3c0,0.4,0.1,1,0.1,1.5c0,0.3,0,0.3-0.4,0.4c-1.9,0.2-3.6,0.3-5.6,0.3c-3.5,0-5.5-0.5-6.9-2
				c-0.9-0.9-1.3-2.2-1.3-3.7L573.9,391.5z M573.3,379.9c0-0.3,0.1-0.4,0.4-0.4c2-0.3,5-0.6,6.6-0.6c1.8,0,3.6,0.1,4.4,0.2
				c0.4,0,0.5,0.1,0.5,0.3c0,0.5,0,1,0,1.5c0,0.2-0.1,0.3-0.3,0.3c-1.2-0.1-3.2-0.2-5-0.2c-1.7,0-4,0.2-6.5,0.7
				C573.3,380.8,573.3,380.3,573.3,379.9z"/>
		</g>
		<g class="st1">
			<path class="st2" d="M51.7,466.7h-1.5l-0.6-8h2.8L51.7,466.7z M57.6,466.7h-1.5l-0.7-8h2.8L57.6,466.7z"/>
			<path class="st2" d="M78.6,461h-7.2v20.7h-2.7V461h-7.1v-2.3h17.1V461z"/>
			<path class="st2" d="M85.2,468.5c1.5-2,3.5-3.2,5.5-3.2c2.6,0,4.4,1.7,4.4,4.6v11.7h-2.6v-10.8c0-2.3-1-3.2-2.7-3.2
				c-1.5,0-3.2,1.2-4.6,3.1v10.9h-2.5v-23.4h2.5V468.5z"/>
			<path class="st2" d="M102.2,474c0,3.9,1.8,6.1,4.7,6.1c2.2,0,3.4-1,4.1-3.2l2.3,0.8c-1,2.9-3.1,4.4-6.4,4.4
				c-4.3,0-7.1-3.1-7.1-8.3c0-5.1,2.9-8.4,6.9-8.4c3.9,0,6.7,3,6.7,8.1v0.6H102.2z M110.9,472.2c-0.2-3.2-1.8-5-4.2-5
				c-2.5,0-4.2,1.9-4.4,5H110.9z"/>
			<path class="st2" d="M141.3,465.3c-0.8-3.1-2.7-4.8-5.6-4.8c-4,0-6.8,3.3-6.8,9.7c0,6.3,2.6,9.7,6.8,9.7c3.8,0,5.7-3.4,5.9-7.5
				h-6.1v-2.2h8.6v11.7h-1.9l-0.3-3.7c-1.2,2.6-3.5,4-6.4,4c-5.5,0-9.4-4.3-9.4-11.9s4.1-11.9,9.6-11.9c4.3,0,7.2,2.5,8.3,6.4
				L141.3,465.3z"/>
			<path class="st2" d="M152.2,468.5c1.5-2,3.5-3.2,5.5-3.2c2.6,0,4.4,1.7,4.4,4.6v11.7h-2.6v-10.8c0-2.3-1-3.2-2.7-3.2
				c-1.5,0-3.2,1.2-4.6,3.1v10.9h-2.5v-23.4h2.5V468.5z"/>
			<path class="st2" d="M180.4,473.6c0,5.1-2.8,8.4-6.9,8.4c-4.1,0-6.8-3.2-6.8-8.3c0-5.1,2.8-8.4,6.9-8.4
				C177.6,465.3,180.4,468.5,180.4,473.6z M169.3,473.7c0,4.1,1.6,6.4,4.2,6.4c2.6,0,4.3-2.2,4.3-6.4c0-4.1-1.6-6.4-4.2-6.4
				C170.9,467.3,169.3,469.6,169.3,473.7z"/>
			<path class="st2" d="M193.5,469.9c-0.5-1.8-1.7-2.7-3.5-2.7c-2.1,0-3.2,0.9-3.2,2.3c0,1.5,0.7,2.2,3.3,2.8l1.3,0.3
				c3.6,0.9,5,2.1,5,4.7c0,2.7-2,4.7-6.1,4.7c-3.1,0-5.4-1.2-6.3-3.9l2.5-0.9c0.7,2,2.2,2.9,3.9,2.9c2.6,0,3.6-1.2,3.6-2.6
				c0-1.7-0.6-2.2-3.5-3l-1.3-0.3c-3.6-0.9-4.7-2.2-4.7-4.6c0-2.4,1.9-4.3,5.6-4.3c3,0,5,1.3,5.9,3.8L193.5,469.9z"/>
			<path class="st2" d="M204.2,465.7h3.8v2h-3.8v9.8c0,1.8,0.8,2.6,2.2,2.6c0.7,0,1.3,0,2-0.2l-0.1,2c-0.9,0.1-1.6,0.2-2.5,0.2
				c-2.7,0-4.1-1.3-4.1-4.1v-10.3h-2.6v-2h2.6v-5l2.5-0.6V465.7z"/>
			<path class="st2" d="M223.7,462.6h-3.1v-3.1h3.1V462.6z M223.4,481.6h-2.6v-15.9h2.6V481.6z"/>
			<path class="st2" d="M231.5,468.6c1.6-2,3.5-3.2,5.6-3.2c2.6,0,4.4,1.7,4.4,4.6v11.7H239v-10.8c0-2.3-1-3.2-2.7-3.2
				c-1.5,0-3.2,1.1-4.6,3.1v10.9h-2.5v-15.9h2.4V468.6z"/>
			<path class="st2" d="M259.2,479.3h11.4v2.3h-14.1v-23h2.7V479.3z"/>
			<path class="st2" d="M287.4,473.6c0,5.1-2.8,8.4-6.9,8.4c-4.1,0-6.8-3.2-6.8-8.3c0-5.1,2.8-8.4,6.9-8.4
				C284.5,465.3,287.4,468.5,287.4,473.6z M276.3,473.7c0,4.1,1.6,6.4,4.2,6.4c2.6,0,4.3-2.2,4.3-6.4c0-4.1-1.6-6.4-4.2-6.4
				C277.9,467.3,276.3,469.6,276.3,473.7z"/>
			<path class="st2" d="M298.4,481.6h-3.1l-5.1-15.9h2.7l2.4,8.7c0.5,1.8,0.9,3.3,1.3,5.1h0.5c0.5-1.8,0.9-3.4,1.4-5.2l2.4-8.6h2.6
				L298.4,481.6z"/>
			<path class="st2" d="M308.8,474c0,3.9,1.8,6.1,4.7,6.1c2.2,0,3.4-1,4.1-3.2l2.3,0.8c-1,2.9-3.1,4.4-6.4,4.4
				c-4.3,0-7.1-3.1-7.1-8.3c0-5.1,2.9-8.4,6.9-8.4c3.9,0,6.7,3,6.7,8.1v0.6H308.8z M317.5,472.2c-0.2-3.2-1.8-5-4.2-5
				c-2.5,0-4.2,1.9-4.4,5H317.5z"/>
			<path class="st2" d="M325.9,466.7h-1.5l-0.6-8h2.8L325.9,466.7z M331.8,466.7h-1.5l-0.7-8h2.8L331.8,466.7z"/>
			<path class="st2" d="M349.6,465.7h3.8v2h-3.8v9.8c0,1.8,0.8,2.6,2.2,2.6c0.7,0,1.3,0,2-0.2l-0.1,2c-0.9,0.1-1.6,0.2-2.5,0.2
				c-2.7,0-4.1-1.3-4.1-4.1v-10.3h-2.6v-2h2.6v-5l2.5-0.6V465.7z"/>
			<path class="st2" d="M356.8,469.5c0.9-2.8,3.1-4.2,6.3-4.2c3.8,0,5.8,1.7,5.8,5.3v5.8c0,2.3,0.2,4,0.3,5.2h-2.3
				c-0.2-0.7-0.2-1.4-0.3-2.5c-1.3,2-3.3,2.9-5.5,2.9c-3.1,0-4.9-1.9-4.9-4.6c0-2.7,1.6-4.6,5.2-5.2c1.4-0.2,3.2-0.4,5-0.5v-0.8
				c0-2.6-1-3.6-3.4-3.6c-1.9,0-3.3,1-3.9,3L356.8,469.5z M366.5,473.4c-1.7,0-3.2,0.2-4.4,0.5c-2.3,0.5-3.3,1.6-3.3,3.4
				c0,1.7,1.1,2.9,3.1,2.9c1.7,0,3.4-1,4.7-3.1V473.4z"/>
			<path class="st2" d="M381.6,471.7l5.9,9.9h-2.9l-4.7-8.2l-2.8,3v5.2h-2.5v-23.4h2.5v15.4l7-7.9h3L381.6,471.7z"/>
			<path class="st2" d="M392.6,474c0,3.9,1.8,6.1,4.7,6.1c2.2,0,3.4-1,4.1-3.2l2.3,0.8c-1,2.9-3.1,4.4-6.4,4.4
				c-4.3,0-7.1-3.1-7.1-8.3c0-5.1,2.9-8.4,6.9-8.4c3.9,0,6.7,3,6.7,8.1v0.6H392.6z M401.3,472.2c-0.2-3.2-1.8-5-4.2-5
				c-2.5,0-4.2,1.9-4.4,5H401.3z"/>
			<path class="st2" d="M410.8,468.6c1.6-2,3.5-3.2,5.6-3.2c2.6,0,4.4,1.7,4.4,4.6v11.7h-2.6v-10.8c0-2.3-1-3.2-2.7-3.2
				c-1.5,0-3.2,1.1-4.6,3.1v10.9h-2.5v-15.9h2.4V468.6z"/>
			<path class="st2" d="M442.4,460.3c-0.5-0.1-1-0.1-1.4-0.1c-1.6,0-2.3,0.7-2.3,2.5v3h3.6v2h-3.6v14h-2.5v-14h-2.8v-2h2.8v-3.1
				c0-2.9,1.5-4.3,4.4-4.3c0.6,0,1.3,0.1,2.1,0.2L442.4,460.3z"/>
			<path class="st2" d="M453.5,467.8c-2,0-3.9,1.6-4.9,4.7v9.1h-2.5v-15.9h2.4v4.1c1.2-3.1,3.1-4.4,5.2-4.4L453.5,467.8z"/>
			<path class="st2" d="M470.2,473.6c0,5.1-2.8,8.4-6.9,8.4c-4.1,0-6.8-3.2-6.8-8.3c0-5.1,2.8-8.4,6.9-8.4
				C467.3,465.3,470.2,468.5,470.2,473.6z M459.1,473.7c0,4.1,1.6,6.4,4.2,6.4c2.6,0,4.3-2.2,4.3-6.4c0-4.1-1.6-6.4-4.2-6.4
				C460.7,467.3,459.1,469.6,459.1,473.7z"/>
			<path class="st2" d="M477.3,468.6c1.5-2.1,3.1-3.2,5.2-3.2c2.2,0,3.7,1.3,4,3.2c1.4-2,3.2-3.2,5.3-3.2c2.5,0,4.3,1.7,4.3,4.6
				v11.7h-2.6v-10.8c0-2.2-1-3.2-2.6-3.2c-1.5,0-3.1,1.2-4.2,3.1v10.9h-2.5v-10.8c0-2.3-0.9-3.2-2.5-3.2c-1.5,0-3.1,1.2-4.3,3.1
				v10.9h-2.5v-15.9h2.4V468.6z"/>
			<path class="st2" d="M518.1,479.5h4.2v2.1h-11.3v-2.1h4.5v-18c-1.2,0.8-2.7,1.6-4.5,2.2l-0.4-2.3c1.9-0.6,3.7-1.6,5.3-2.7h2.1
				V479.5z"/>
			<path class="st2" d="M536.3,469.9c-0.5-1.8-1.7-2.7-3.5-2.7c-2.1,0-3.2,0.9-3.2,2.3c0,1.5,0.7,2.2,3.3,2.8l1.3,0.3
				c3.6,0.9,5,2.1,5,4.7c0,2.7-2,4.7-6.1,4.7c-3.1,0-5.4-1.2-6.3-3.9l2.5-0.9c0.7,2,2.2,2.9,3.9,2.9c2.6,0,3.6-1.2,3.6-2.6
				c0-1.7-0.6-2.2-3.5-3l-1.3-0.3c-3.6-0.9-4.7-2.2-4.7-4.6c0-2.4,1.9-4.3,5.6-4.3c3,0,5,1.3,5.9,3.8L536.3,469.9z"/>
			<path class="st2" d="M547,465.7h3.8v2H547v9.8c0,1.8,0.8,2.6,2.2,2.6c0.7,0,1.3,0,2-0.2l-0.1,2c-0.9,0.1-1.6,0.2-2.5,0.2
				c-2.7,0-4.1-1.3-4.1-4.1v-10.3h-2.6v-2h2.6v-5l2.5-0.6V465.7z"/>
			<path class="st2" d="M563.1,469.5c0.9-2.8,3.1-4.2,6.3-4.2c3.8,0,5.8,1.7,5.8,5.3v5.8c0,2.3,0.2,4,0.3,5.2h-2.3
				c-0.2-0.7-0.2-1.4-0.3-2.5c-1.3,2-3.3,2.9-5.5,2.9c-3.1,0-4.9-1.9-4.9-4.6c0-2.7,1.6-4.6,5.2-5.2c1.4-0.2,3.2-0.4,5-0.5v-0.8
				c0-2.6-1-3.6-3.4-3.6c-1.9,0-3.3,1-3.9,3L563.1,469.5z M572.8,473.4c-1.7,0-3.2,0.2-4.4,0.5c-2.3,0.5-3.3,1.6-3.3,3.4
				c0,1.7,1.1,2.9,3.1,2.9c1.7,0,3.4-1,4.7-3.1V473.4z"/>
			<path class="st2" d="M583.4,481.6h-2.5v-23.4h2.5V481.6z"/>
			<path class="st2" d="M591.6,468.1c1.1-1.8,2.8-2.8,4.6-2.8c3.5,0,6.1,3,6.1,8.3c0,5.3-2.8,8.4-6.3,8.4c-2.1,0-3.6-1-4.6-2.9
				l-0.5,2.5h-1.9v-23.4h2.5V468.1z M591.6,477c1.1,2,2.3,3,3.9,3c2.4,0,4.2-2.2,4.2-6.3c0-4.1-1.7-6.2-4.1-6.2
				c-1.6,0-3.1,1-4.1,3.1V477z"/>
			<path class="st2" d="M619.5,481.6h-2.4v-2.9c-1.3,2-3.4,3.3-5.5,3.3c-2.5,0-4.5-1.5-4.5-4.5v-11.8h2.6v11c0,2.2,1,3.1,2.7,3.1
				c1.6,0,3.5-1.3,4.6-3.2v-10.9h2.5V481.6z"/>
			<path class="st2" d="M627.7,468.6c1.5-2.1,3.1-3.2,5.2-3.2c2.2,0,3.7,1.3,4,3.2c1.4-2,3.2-3.2,5.3-3.2c2.5,0,4.3,1.7,4.3,4.6
				v11.7h-2.6v-10.8c0-2.2-1-3.2-2.6-3.2c-1.5,0-3.1,1.2-4.2,3.1v10.9h-2.5v-10.8c0-2.3-0.9-3.2-2.5-3.2c-1.5,0-3.1,1.2-4.3,3.1
				v10.9h-2.5v-15.9h2.4V468.6z"/>
			<path class="st2" d="M662.2,466.7h-1.5l-0.6-8h2.8L662.2,466.7z M668.1,466.7h-1.5l-0.7-8h2.8L668.1,466.7z"/>
			<path class="st2" d="M685.5,464.5c-0.8-2.8-2.5-4.1-4.9-4.1c-2.9,0-4.6,1.5-4.6,3.7c0,2.4,1.2,3.5,4.8,4.4l1,0.3
				c5.5,1.4,6.9,3.4,6.9,6.7c0,3.9-2.8,6.5-7.9,6.5c-4.2,0-7.2-2-8.3-5.8l2.7-0.9c0.7,3,2.9,4.5,5.5,4.5c3.6,0,5.2-1.7,5.2-4
				c0-2.4-0.9-3.5-5.1-4.6l-0.9-0.3c-5-1.3-6.5-3.2-6.5-6.6c0-3.2,2.5-6,7.3-6c3.7,0,6.4,1.7,7.6,5.5L685.5,464.5z"/>
			<path class="st2" d="M694.8,474c0,3.9,1.8,6.1,4.7,6.1c2.2,0,3.4-1,4.1-3.2l2.3,0.8c-1,2.9-3.1,4.4-6.4,4.4
				c-4.3,0-7.1-3.1-7.1-8.3c0-5.1,2.9-8.4,6.9-8.4c3.9,0,6.7,3,6.7,8.1v0.6H694.8z M703.5,472.2c-0.2-3.2-1.8-5-4.2-5
				c-2.5,0-4.2,1.9-4.4,5H703.5z"/>
			<path class="st2" d="M723.5,465.9c-1.6,0-2.3,0.3-3.2,1.2c1,0.9,1.6,2.1,1.6,3.5c0,3.2-2.4,5.2-5.9,5.2c-0.8,0-1.7-0.2-2.4-0.5
				c-0.9,0.5-1.4,1.2-1.4,1.8c0,0.8,0.4,1.2,3,1.5l3.2,0.3c4.2,0.4,5.4,1.8,5.4,3.9c0,2.5-2.6,4.5-7.6,4.5c-4.5,0-7-1.5-7-3.8
				c0-1.4,1.2-2.6,3.1-3.3c-1.6-0.4-2.4-1.2-2.4-2.4c0-1.1,0.7-2.2,2.3-3.2c-1.3-0.9-2.1-2.4-2.1-4.1c0-3.1,2.6-5.2,5.9-5.2
				c1.2,0,2.3,0.3,3.1,0.8c1.1-1.7,2.4-2.4,4.6-2.4L723.5,465.9z M714.1,480.5c-1.9,0.5-2.8,1.4-2.8,2.6c0,1.7,2,2.5,4.9,2.5
				c3.4,0,5.2-1.2,5.2-2.6c0-1.1-0.6-1.8-3.6-2.2L714.1,480.5z M712.4,470.6c0,2.2,1.6,3.5,3.5,3.5c1.9,0,3.5-1.3,3.5-3.5
				c0-2.2-1.6-3.5-3.5-3.5C714,467.1,712.4,468.4,712.4,470.6z"/>
			<path class="st2" d="M730.1,468.6c1.5-2.1,3.1-3.2,5.2-3.2c2.2,0,3.7,1.3,4,3.2c1.4-2,3.2-3.2,5.3-3.2c2.5,0,4.3,1.7,4.3,4.6
				v11.7h-2.6v-10.8c0-2.2-1-3.2-2.6-3.2c-1.5,0-3.1,1.2-4.2,3.1v10.9H737v-10.8c0-2.3-0.9-3.2-2.5-3.2c-1.5,0-3.1,1.2-4.3,3.1v10.9
				h-2.5v-15.9h2.4V468.6z"/>
			<path class="st2" d="M756,474c0,3.9,1.8,6.1,4.7,6.1c2.2,0,3.4-1,4.1-3.2l2.3,0.8c-1,2.9-3.1,4.4-6.4,4.4c-4.3,0-7.1-3.1-7.1-8.3
				c0-5.1,2.9-8.4,6.9-8.4c3.9,0,6.7,3,6.7,8.1v0.6H756z M764.7,472.2c-0.2-3.2-1.8-5-4.2-5c-2.5,0-4.2,1.9-4.4,5H764.7z"/>
			<path class="st2" d="M774.3,468.6c1.6-2,3.5-3.2,5.6-3.2c2.6,0,4.4,1.7,4.4,4.6v11.7h-2.6v-10.8c0-2.3-1-3.2-2.7-3.2
				c-1.5,0-3.2,1.1-4.6,3.1v10.9h-2.5v-15.9h2.4V468.6z"/>
			<path class="st2" d="M793.2,465.7h3.8v2h-3.8v9.8c0,1.8,0.8,2.6,2.2,2.6c0.7,0,1.3,0,2-0.2l-0.1,2c-0.9,0.1-1.6,0.2-2.5,0.2
				c-2.7,0-4.1-1.3-4.1-4.1v-10.3h-2.6v-2h2.6v-5l2.5-0.6V465.7z"/>
			<path class="st2" d="M822.4,473.6c0,5.1-2.8,8.4-6.9,8.4s-6.8-3.2-6.8-8.3c0-5.1,2.8-8.4,6.9-8.4
				C819.6,465.3,822.4,468.5,822.4,473.6z M811.3,473.7c0,4.1,1.6,6.4,4.2,6.4c2.7,0,4.3-2.2,4.3-6.4c0-4.1-1.6-6.4-4.2-6.4
				C812.9,467.3,811.3,469.6,811.3,473.7z"/>
			<path class="st2" d="M834.2,460.3c-0.5-0.1-1-0.1-1.4-0.1c-1.6,0-2.3,0.7-2.3,2.5v3h3.6v2h-3.6v14h-2.5v-14h-2.8v-2h2.8v-3.1
				c0-2.9,1.5-4.3,4.4-4.3c0.6,0,1.3,0.1,2.1,0.2L834.2,460.3z"/>
			<path class="st2" d="M861,465.5c-0.8-3.4-2.7-5.1-5.6-5.1c-3.9,0-6.8,3.3-6.8,9.7c0,6.3,2.9,9.7,6.8,9.7c3.1,0,5-1.5,5.8-5.1
				l2.6,0.9c-1.3,4.6-4.2,6.5-8.4,6.5c-5.5,0-9.6-4.3-9.6-11.9c0-7.6,4.1-11.9,9.6-11.9c4.3,0,7.3,2.5,8.3,6.6L861,465.5z"/>
			<path class="st2" d="M867.6,469.5c0.9-2.8,3.1-4.2,6.3-4.2c3.8,0,5.8,1.7,5.8,5.3v5.8c0,2.3,0.2,4,0.3,5.2h-2.3
				c-0.2-0.7-0.2-1.4-0.3-2.5c-1.3,2-3.3,2.9-5.5,2.9c-3.1,0-4.9-1.9-4.9-4.6c0-2.7,1.6-4.6,5.2-5.2c1.4-0.2,3.2-0.4,5-0.5v-0.8
				c0-2.6-1-3.6-3.4-3.6c-1.9,0-3.3,1-3.9,3L867.6,469.5z M877.2,473.4c-1.7,0-3.2,0.2-4.4,0.5c-2.3,0.5-3.3,1.6-3.3,3.4
				c0,1.7,1.1,2.9,3.1,2.9c1.7,0,3.4-1,4.7-3.1V473.4z"/>
			<path class="st2" d="M892.3,471.7l5.9,9.9h-2.9l-4.7-8.2l-2.8,3v5.2h-2.5v-23.4h2.5v15.4l7-7.9h3L892.3,471.7z"/>
			<path class="st2" d="M903.3,474c0,3.9,1.8,6.1,4.7,6.1c2.2,0,3.4-1,4.1-3.2l2.3,0.8c-1,2.9-3.1,4.4-6.4,4.4
				c-4.3,0-7.1-3.1-7.1-8.3c0-5.1,2.9-8.4,6.9-8.4c3.9,0,6.7,3,6.7,8.1v0.6H903.3z M912,472.2c-0.2-3.2-1.8-5-4.2-5
				c-2.5,0-4.2,1.9-4.4,5H912z"/>
			<path class="st2" d="M927.5,469.9c-0.5-1.8-1.7-2.7-3.5-2.7c-2.1,0-3.2,0.9-3.2,2.3c0,1.5,0.7,2.2,3.3,2.8l1.3,0.3
				c3.6,0.9,5,2.1,5,4.7c0,2.7-2,4.7-6.1,4.7c-3.1,0-5.4-1.2-6.3-3.9l2.5-0.9c0.7,2,2.2,2.9,3.9,2.9c2.6,0,3.6-1.2,3.6-2.6
				c0-1.7-0.6-2.2-3.5-3l-1.3-0.3c-3.6-0.9-4.7-2.2-4.7-4.6c0-2.4,1.9-4.3,5.6-4.3c3,0,5,1.3,5.9,3.8L927.5,469.9z"/>
			<path class="st2" d="M936.3,466.7h-1.5l-0.6-8h2.8L936.3,466.7z M942.2,466.7h-1.5l-0.7-8h2.8L942.2,466.7z"/>
			<path class="st2" d="M950.6,481.6h-3.4v-3.4h3.4V481.6z"/>
		</g>
		<g class="st1">
			<path class="st2" d="M53.5,532.8h-2.7v-23h2.7V532.8z"/>
			<path class="st2" d="M60.9,517.9h-1.5l-0.7-8h2.9L60.9,517.9z"/>
			<path class="st2" d="M69,519.8c1.5-2.1,3.1-3.2,5.2-3.2c2.2,0,3.7,1.3,4,3.2c1.4-2,3.2-3.2,5.3-3.2c2.5,0,4.3,1.7,4.3,4.6v11.7
				h-2.6V522c0-2.2-1-3.2-2.6-3.2c-1.5,0-3.1,1.2-4.2,3.1v10.9h-2.5V522c0-2.3-0.9-3.2-2.5-3.2c-1.5,0-3.1,1.2-4.3,3.1v10.9h-2.5
				v-15.9H69V519.8z"/>
			<path class="st2" d="M104.8,519.7c1.5-2,3.5-3.2,5.5-3.2c2.6,0,4.4,1.7,4.4,4.6v11.7h-2.6V522c0-2.3-1-3.2-2.7-3.2
				c-1.5,0-3.2,1.2-4.6,3.1v10.9h-2.5v-23.4h2.5V519.7z"/>
			<path class="st2" d="M133.1,524.8c0,5.1-2.8,8.4-6.9,8.4c-4.1,0-6.8-3.2-6.8-8.3c0-5.1,2.8-8.4,6.9-8.4
				C130.2,516.6,133.1,519.7,133.1,524.8z M122,524.9c0,4.1,1.6,6.4,4.2,6.4c2.6,0,4.3-2.2,4.3-6.4c0-4.1-1.6-6.4-4.2-6.4
				C123.6,518.5,122,520.8,122,524.9z"/>
			<path class="st2" d="M140.3,519.4c1.2-1.8,2.9-2.8,4.7-2.8c3.5,0,6.1,3,6.1,8.3c0,5.3-2.8,8.4-6.3,8.4c-2,0-3.4-0.9-4.5-2.8v8
				h-2.5v-21.6h2.4V519.4z M140.3,528.2c1.1,2,2.3,3,3.9,3c2.4,0,4.2-2.1,4.2-6.3c0-4.1-1.7-6.3-4.1-6.3c-1.6,0-3.1,1-4.1,3.1V528.2
				z"/>
			<path class="st2" d="M158.7,513.8h-3.1v-3.1h3.1V513.8z M158.4,532.8h-2.6v-15.9h2.6V532.8z"/>
			<path class="st2" d="M166.6,519.8c1.6-2,3.5-3.2,5.6-3.2c2.6,0,4.4,1.7,4.4,4.6v11.7H174V522c0-2.3-1-3.2-2.7-3.2
				c-1.5,0-3.2,1.1-4.6,3.1v10.9h-2.5v-15.9h2.4V519.8z"/>
			<path class="st2" d="M195.1,517.1c-1.6,0-2.3,0.3-3.2,1.2c1,0.9,1.6,2.1,1.6,3.5c0,3.2-2.4,5.2-5.9,5.2c-0.8,0-1.7-0.2-2.4-0.5
				c-0.9,0.5-1.4,1.2-1.4,1.8c0,0.8,0.4,1.2,3,1.5l3.2,0.3c4.2,0.4,5.4,1.8,5.4,3.9c0,2.5-2.6,4.5-7.6,4.5c-4.5,0-7-1.5-7-3.8
				c0-1.4,1.2-2.6,3.1-3.3c-1.6-0.4-2.4-1.2-2.4-2.4c0-1.1,0.7-2.2,2.3-3.2c-1.3-0.9-2.1-2.4-2.1-4.1c0-3.1,2.6-5.2,5.9-5.2
				c1.2,0,2.3,0.3,3.1,0.8c1.1-1.7,2.4-2.4,4.6-2.4L195.1,517.1z M185.7,531.7c-1.9,0.5-2.8,1.4-2.8,2.6c0,1.7,2,2.5,4.9,2.5
				c3.4,0,5.2-1.2,5.2-2.6c0-1.1-0.6-1.8-3.6-2.2L185.7,531.7z M184,521.8c0,2.2,1.6,3.5,3.5,3.5s3.5-1.3,3.5-3.5
				c0-2.2-1.6-3.5-3.5-3.5S184,519.6,184,521.8z"/>
			<path class="st2" d="M210.7,519.7c1.5-2,3.5-3.2,5.5-3.2c2.6,0,4.4,1.7,4.4,4.6v11.7H218V522c0-2.3-1-3.2-2.7-3.2
				c-1.5,0-3.2,1.2-4.6,3.1v10.9h-2.5v-23.4h2.5V519.7z"/>
			<path class="st2" d="M225.8,520.7c0.9-2.8,3.1-4.2,6.3-4.2c3.8,0,5.8,1.7,5.8,5.3v5.8c0,2.3,0.2,4,0.3,5.2h-2.3
				c-0.2-0.7-0.2-1.4-0.3-2.5c-1.3,2-3.3,2.9-5.5,2.9c-3.1,0-4.9-1.9-4.9-4.6c0-2.7,1.6-4.6,5.2-5.2c1.4-0.2,3.2-0.4,5-0.5V522
				c0-2.6-1-3.6-3.4-3.6c-1.9,0-3.3,1-3.9,3L225.8,520.7z M235.4,524.6c-1.7,0-3.2,0.2-4.4,0.5c-2.3,0.5-3.3,1.6-3.3,3.4
				c0,1.7,1.1,2.9,3.1,2.9c1.7,0,3.4-1,4.7-3.1V524.6z"/>
			<path class="st2" d="M246,519.4c1.2-1.8,2.9-2.8,4.7-2.8c3.5,0,6.1,3,6.1,8.3c0,5.3-2.8,8.4-6.3,8.4c-2,0-3.4-0.9-4.5-2.8v8h-2.5
				v-21.6h2.4V519.4z M246,528.2c1.1,2,2.3,3,3.9,3c2.4,0,4.2-2.1,4.2-6.3c0-4.1-1.7-6.3-4.1-6.3c-1.6,0-3.1,1-4.1,3.1V528.2z"/>
			<path class="st2" d="M264,519.4c1.2-1.8,2.9-2.8,4.7-2.8c3.5,0,6.1,3,6.1,8.3c0,5.3-2.8,8.4-6.3,8.4c-2,0-3.4-0.9-4.5-2.8v8h-2.5
				v-21.6h2.4V519.4z M264.1,528.2c1.1,2,2.3,3,3.9,3c2.4,0,4.2-2.1,4.2-6.3c0-4.1-1.7-6.3-4.1-6.3c-1.6,0-3.1,1-4.1,3.1V528.2z"/>
			<path class="st2" d="M282.4,513.8h-3.1v-3.1h3.1V513.8z M282.1,532.8h-2.6v-15.9h2.6V532.8z"/>
			<path class="st2" d="M290.3,519.8c1.6-2,3.5-3.2,5.6-3.2c2.6,0,4.4,1.7,4.4,4.6v11.7h-2.6V522c0-2.3-1-3.2-2.7-3.2
				c-1.5,0-3.2,1.1-4.6,3.1v10.9h-2.5v-15.9h2.4V519.8z"/>
			<path class="st2" d="M307.4,525.2c0,3.9,1.8,6.1,4.7,6.1c2.2,0,3.4-1,4.1-3.2l2.3,0.8c-1,2.9-3.1,4.4-6.4,4.4
				c-4.3,0-7.1-3.1-7.1-8.3c0-5.1,2.9-8.4,6.9-8.4c3.9,0,6.7,3,6.7,8.1v0.6H307.4z M316.1,523.4c-0.2-3.2-1.8-5-4.2-5
				c-2.5,0-4.2,1.9-4.4,5H316.1z"/>
			<path class="st2" d="M331.6,521.1c-0.5-1.8-1.7-2.7-3.5-2.7c-2.1,0-3.2,0.9-3.2,2.3c0,1.5,0.7,2.2,3.3,2.8l1.3,0.3
				c3.6,0.9,5,2.1,5,4.7c0,2.7-2,4.7-6.1,4.7c-3.1,0-5.4-1.2-6.3-3.9l2.5-0.9c0.7,2,2.2,2.9,3.9,2.9c2.6,0,3.6-1.2,3.6-2.6
				c0-1.7-0.6-2.2-3.5-3l-1.3-0.3c-3.6-0.9-4.7-2.2-4.7-4.6c0-2.4,1.9-4.3,5.6-4.3c3,0,5,1.3,5.9,3.8L331.6,521.1z"/>
			<path class="st2" d="M347.4,521.1c-0.5-1.8-1.7-2.7-3.5-2.7c-2.1,0-3.2,0.9-3.2,2.3c0,1.5,0.7,2.2,3.3,2.8l1.3,0.3
				c3.6,0.9,5,2.1,5,4.7c0,2.7-2,4.7-6.1,4.7c-3.1,0-5.4-1.2-6.3-3.9l2.5-0.9c0.7,2,2.2,2.9,3.9,2.9c2.6,0,3.6-1.2,3.6-2.6
				c0-1.7-0.6-2.2-3.5-3l-1.3-0.3c-3.6-0.9-4.7-2.2-4.7-4.6c0-2.4,1.9-4.3,5.6-4.3c3,0,5,1.3,5.9,3.8L347.4,521.1z"/>
			<path class="st2" d="M367,516.9h3.8v2H367v9.8c0,1.8,0.8,2.6,2.2,2.6c0.7,0,1.3,0,2-0.2l-0.1,2c-0.9,0.1-1.6,0.2-2.5,0.2
				c-2.7,0-4.1-1.3-4.1-4.1v-10.3h-2.6v-2h2.6v-5l2.5-0.6V516.9z"/>
			<path class="st2" d="M387.4,524.8c0,5.1-2.8,8.4-6.9,8.4c-4.1,0-6.8-3.2-6.8-8.3c0-5.1,2.8-8.4,6.9-8.4
				C384.5,516.6,387.4,519.7,387.4,524.8z M376.3,524.9c0,4.1,1.6,6.4,4.2,6.4c2.6,0,4.3-2.2,4.3-6.4c0-4.1-1.6-6.4-4.2-6.4
				C377.9,518.5,376.3,520.8,376.3,524.9z"/>
			<path class="st2" d="M400.6,520.7c0.9-2.8,3.1-4.2,6.3-4.2c3.8,0,5.8,1.7,5.8,5.3v5.8c0,2.3,0.2,4,0.3,5.2h-2.3
				c-0.2-0.7-0.2-1.4-0.3-2.5c-1.3,2-3.3,2.9-5.5,2.9c-3.1,0-4.9-1.9-4.9-4.6c0-2.7,1.6-4.6,5.2-5.2c1.4-0.2,3.2-0.4,5-0.5V522
				c0-2.6-1-3.6-3.4-3.6c-1.9,0-3.3,1-3.9,3L400.6,520.7z M410.2,524.6c-1.7,0-3.2,0.2-4.4,0.5c-2.3,0.5-3.3,1.6-3.3,3.4
				c0,1.7,1.1,2.9,3.1,2.9c1.7,0,3.4-1,4.7-3.1V524.6z"/>
			<path class="st2" d="M420.8,532.8h-2.5v-23.4h2.5V532.8z"/>
			<path class="st2" d="M429.1,532.8h-2.5v-23.4h2.5V532.8z"/>
			<path class="st2" d="M446.9,516.9h3.8v2h-3.8v9.8c0,1.8,0.8,2.6,2.2,2.6c0.7,0,1.3,0,2-0.2l-0.1,2c-0.9,0.1-1.6,0.2-2.5,0.2
				c-2.7,0-4.1-1.3-4.1-4.1v-10.3h-2.6v-2h2.6v-5l2.5-0.6V516.9z"/>
			<path class="st2" d="M457.2,519.7c1.5-2,3.5-3.2,5.5-3.2c2.6,0,4.4,1.7,4.4,4.6v11.7h-2.6V522c0-2.3-1-3.2-2.7-3.2
				c-1.5,0-3.2,1.2-4.6,3.1v10.9h-2.5v-23.4h2.5V519.7z"/>
			<path class="st2" d="M474.2,525.2c0,3.9,1.8,6.1,4.7,6.1c2.2,0,3.4-1,4.1-3.2l2.3,0.8c-1,2.9-3.1,4.4-6.4,4.4
				c-4.3,0-7.1-3.1-7.1-8.3c0-5.1,2.9-8.4,6.9-8.4c3.9,0,6.7,3,6.7,8.1v0.6H474.2z M482.9,523.4c-0.2-3.2-1.8-5-4.2-5
				c-2.5,0-4.2,1.9-4.4,5H482.9z"/>
			<path class="st2" d="M501.4,532.8h-2.5v-23.4h2.5V532.8z"/>
			<path class="st2" d="M519.9,524.8c0,5.1-2.8,8.4-6.9,8.4s-6.8-3.2-6.8-8.3c0-5.1,2.8-8.4,6.9-8.4
				C517,516.6,519.9,519.7,519.9,524.8z M508.8,524.9c0,4.1,1.6,6.4,4.2,6.4s4.3-2.2,4.3-6.4c0-4.1-1.6-6.4-4.2-6.4
				C510.4,518.5,508.8,520.8,508.8,524.9z"/>
			<path class="st2" d="M530.9,532.8h-3.1l-5.1-15.9h2.7l2.4,8.7c0.5,1.8,0.9,3.3,1.3,5.1h0.5c0.5-1.8,0.9-3.4,1.4-5.2l2.4-8.6h2.6
				L530.9,532.8z"/>
			<path class="st2" d="M541.3,525.2c0,3.9,1.8,6.1,4.7,6.1c2.2,0,3.4-1,4.1-3.2l2.3,0.8c-1,2.9-3.1,4.4-6.4,4.4
				c-4.3,0-7.1-3.1-7.1-8.3c0-5.1,2.9-8.4,6.9-8.4c3.9,0,6.7,3,6.7,8.1v0.6H541.3z M550,523.4c-0.2-3.2-1.8-5-4.2-5
				c-2.5,0-4.2,1.9-4.4,5H550z"/>
			<path class="st2" d="M564.6,519c-2,0-3.9,1.6-4.9,4.7v9.1h-2.5v-15.9h2.4v4.1c1.2-3.1,3.1-4.4,5.2-4.4L564.6,519z"/>
			<path class="st2" d="M576.9,521.1c-0.5-1.8-1.7-2.7-3.5-2.7c-2.1,0-3.2,0.9-3.2,2.3c0,1.5,0.7,2.2,3.3,2.8l1.3,0.3
				c3.6,0.9,5,2.1,5,4.7c0,2.7-2,4.7-6.1,4.7c-3.1,0-5.4-1.2-6.3-3.9l2.5-0.9c0.7,2,2.2,2.9,3.9,2.9c2.6,0,3.6-1.2,3.6-2.6
				c0-1.7-0.6-2.2-3.5-3l-1.3-0.3c-3.6-0.9-4.7-2.2-4.7-4.6c0-2.4,1.9-4.3,5.6-4.3c3,0,5,1.3,5.9,3.8L576.9,521.1z"/>
			<path class="st2" d="M587.2,532.8h-3.4v-3.4h3.4V532.8z"/>
		</g>
		<g class="st1">
			<path class="st2" d="M57.3,611.7c6.4,0,10.2,3.4,10.2,10.7s-4.3,10.9-10.6,10.9h-6.3v-21.6H57.3z M53.1,631.2h3.6
				c4.8,0,8-2.7,8-8.8c0-6.1-3-8.6-7.8-8.6h-3.9V631.2z"/>
			<path class="st2" d="M74.7,615.4h-2.9v-2.9h2.9V615.4z M74.4,633.3H72v-15h2.4V633.3z"/>
			<path class="st2" d="M86.7,620.3c-1.8,0-3.7,1.5-4.6,4.4v8.6h-2.4v-15h2.3v3.8c1.1-2.9,2.9-4.1,4.9-4.1L86.7,620.3z"/>
			<path class="st2" d="M91.9,626.1c0,3.7,1.7,5.7,4.4,5.7c2,0,3.2-0.9,3.8-3l2.2,0.7c-1,2.7-2.9,4.1-6,4.1c-4,0-6.7-2.9-6.7-7.8
				c0-4.8,2.8-7.9,6.5-7.9c3.7,0,6.3,2.8,6.3,7.6v0.5H91.9z M100,624.4c-0.2-3-1.7-4.7-4-4.7c-2.3,0-3.9,1.8-4.1,4.7H100z"/>
			<path class="st2" d="M115.6,623c-0.4-2.2-1.7-3.2-3.3-3.2c-2.5,0-4,2.1-4,5.9c0,3.9,1.6,6,4,6c2,0,3.1-1.1,3.5-3.3l2.3,0.7
				c-0.8,2.9-2.8,4.4-5.8,4.4c-4,0-6.4-2.9-6.4-7.8c0-4.9,2.6-7.9,6.4-7.9c2.9,0,4.9,1.5,5.7,4.4L115.6,623z"/>
			<path class="st2" d="M125,618.3h3.6v1.8H125v9.2c0,1.7,0.7,2.4,2.1,2.4c0.6,0,1.2,0,1.9-0.2l-0.1,1.8c-0.8,0.1-1.5,0.1-2.3,0.1
				c-2.5,0-3.9-1.2-3.9-3.8v-9.7h-2.4v-1.8h2.4v-4.7l2.3-0.5V618.3z"/>
			<path class="st2" d="M144.1,625.8c0,4.8-2.6,7.9-6.4,7.9c-3.8,0-6.4-3-6.4-7.8c0-4.8,2.6-7.9,6.4-7.9
				C141.4,618,144.1,620.9,144.1,625.8z M133.7,625.8c0,3.9,1.5,6,4,6c2.5,0,4-2.1,4-6c0-3.8-1.5-6-4-6
				C135.2,619.8,133.7,622,133.7,625.8z"/>
			<path class="st2" d="M155.5,620.3c-1.8,0-3.7,1.5-4.6,4.4v8.6h-2.4v-15h2.3v3.8c1.1-2.9,2.9-4.1,4.9-4.1L155.5,620.3z"/>
			<path class="st2" d="M167,636.3h-1.6l11.5-27h1.6L167,636.3z"/>
			<path class="st2" d="M201.6,633.3h-2.3v-2.2c-1.1,1.7-2.5,2.6-4.4,2.6c-3.3,0-5.8-2.9-5.8-7.9c0-5,2.5-7.8,5.8-7.8
				c1.8,0,3.3,0.9,4.4,2.5v-9.2h2.4V633.3z M199.2,622.8c-1-2-2.3-2.9-3.8-2.9c-2.2,0-3.9,2-3.9,5.9c0,3.9,1.8,5.9,4,5.9
				c1.5,0,2.7-0.9,3.7-2.8V622.8z"/>
			<path class="st2" d="M218.5,633.3h-2.3v-2.8c-1.2,1.9-3.2,3.1-5.2,3.1c-2.3,0-4.2-1.4-4.2-4.2v-11.1h2.4v10.3c0,2,1,2.9,2.6,2.9
				c1.5,0,3.3-1.2,4.3-3v-10.2h2.4V633.3z"/>
			<path class="st2" d="M232.7,623c-0.4-2.2-1.7-3.2-3.3-3.2c-2.5,0-4,2.1-4,5.9c0,3.9,1.6,6,4,6c2,0,3.1-1.1,3.5-3.3l2.3,0.7
				c-0.8,2.9-2.8,4.4-5.8,4.4c-4,0-6.4-2.9-6.4-7.8c0-4.9,2.6-7.9,6.4-7.9c2.9,0,4.9,1.5,5.7,4.4L232.7,623z"/>
			<path class="st2" d="M245.6,624l5.5,9.3h-2.7l-4.4-7.7l-2.6,2.8v4.9H239v-22h2.3v14.5l6.6-7.5h2.8L245.6,624z"/>
			<path class="st2" d="M257.2,615.4h-2.9v-2.9h2.9V615.4z M257,633.3h-2.4v-15h2.4V633.3z"/>
			<path class="st2" d="M264.6,621c1.5-1.9,3.3-3,5.2-3c2.5,0,4.2,1.6,4.2,4.3v11h-2.4v-10.2c0-2.1-0.9-3-2.5-3c-1.4,0-3,1.1-4.4,3
				v10.2h-2.4v-15h2.3V621z"/>
			<path class="st2" d="M282.4,634.1c0,2.9-1.6,4.4-4.4,4.4c-0.2,0-0.5-0.1-0.9-0.1l-0.2-1.8c0.3,0,0.6,0.1,0.8,0.1
				c1.4,0,2.3-0.8,2.3-2.9v-15.5h2.4V634.1z M282.7,615.4h-2.9v-2.9h2.9V615.4z"/>
			<path class="st2" d="M287.6,621.9c0.8-2.6,3-3.9,5.9-3.9c3.6,0,5.4,1.6,5.4,5v5.5c0,2.1,0.1,3.7,0.3,4.9h-2.2
				c-0.1-0.7-0.2-1.3-0.3-2.4c-1.3,1.8-3.1,2.7-5.1,2.7c-2.9,0-4.6-1.8-4.6-4.4c0-2.5,1.5-4.3,4.9-4.9c1.3-0.2,3-0.4,4.7-0.5v-0.8
				c0-2.4-0.9-3.3-3.2-3.3c-1.8,0-3.1,1-3.6,2.8L287.6,621.9z M296.6,625.5c-1.6,0-3,0.2-4.2,0.5c-2.2,0.5-3.1,1.5-3.1,3.2
				c0,1.6,1,2.7,2.9,2.7c1.6,0,3.2-1,4.4-3V625.5z"/>
			<path class="st2" d="M309.5,634c-1.2,3.4-2.9,4.6-5.5,4.6c-0.4,0-0.9,0-1.4-0.1l-0.1-2c0.6,0.1,1.1,0.2,1.6,0.2
				c1.6,0,2.7-0.8,3.4-3l0.2-0.7l-5.2-14.7h2.5l2.6,8.5c0.4,1.3,0.7,2.4,1,3.7h0.3c0.4-1.3,0.7-2.5,1.1-3.7l2.6-8.4h2.4L309.5,634z"
				/>
		</g>
		<g class="st1">
			<path class="st2" d="M65.6,684.5h-2.7l-2.1-6.8h-7.7l-2.2,6.8h-2.5l6.9-21.6h3.2L65.6,684.5z M58.7,670.4c-0.6-1.8-1-3.5-1.5-5.5
				h-0.4c-0.5,2-0.9,3.7-1.5,5.5l-1.6,5.3h6.6L58.7,670.4z"/>
			<path class="st2" d="M78.1,674.2c-0.4-2.2-1.7-3.2-3.3-3.2c-2.5,0-4,2.1-4,5.9c0,3.9,1.6,6,4,6c2,0,3.1-1.1,3.5-3.3l2.3,0.7
				c-0.8,2.9-2.8,4.4-5.8,4.4c-4,0-6.4-2.9-6.4-7.8c0-4.9,2.6-7.9,6.4-7.9c2.9,0,4.9,1.5,5.7,4.4L78.1,674.2z"/>
			<path class="st2" d="M87.5,669.5H91v1.8h-3.6v9.2c0,1.7,0.7,2.4,2.1,2.4c0.6,0,1.2,0,1.9-0.2l-0.1,1.8c-0.8,0.1-1.5,0.1-2.3,0.1
				c-2.5,0-3.9-1.2-3.9-3.8v-9.7h-2.4v-1.8h2.4v-4.7l2.3-0.5V669.5z"/>
			<path class="st2" d="M106.6,677c0,4.8-2.6,7.9-6.4,7.9c-3.8,0-6.4-3-6.4-7.8c0-4.8,2.6-7.9,6.4-7.9
				C103.9,669.2,106.6,672.1,106.6,677z M96.2,677c0,3.9,1.5,6,4,6c2.5,0,4-2.1,4-6c0-3.8-1.5-6-4-6C97.7,671,96.2,673.2,96.2,677z"
				/>
			<path class="st2" d="M118,671.5c-1.8,0-3.7,1.5-4.6,4.4v8.6h-2.4v-15h2.3v3.8c1.1-2.9,2.9-4.1,4.9-4.1L118,671.5z"/>
			<path class="st2" d="M129.5,687.5h-1.6l11.5-27h1.6L129.5,687.5z"/>
			<path class="st2" d="M162.9,662.3c0.2,0.1,0.3,0.2,0.3,0.4s-0.1,0.3-0.2,0.4c-0.2,0.3-0.3,0.6-0.4,1.2c-0.1,0.6-0.2,1.2-0.3,1.9
				c2.6-0.2,5.2-0.6,8.1-1.3c0.2-0.1,0.3,0,0.4,0.2c0.1,0.3,0.1,0.8,0.1,1.1c0,0.2-0.1,0.3-0.3,0.4c-3.6,0.8-5.9,1.1-8.6,1.3
				c-0.1,1.6-0.3,2.8-0.3,4.2c1.5-0.4,3.6-0.8,5.3-0.8c0.3-0.8,0.5-1.5,0.5-2.5c0.7,0.3,1.3,0.5,1.6,0.8c0.2,0.2,0.4,0.3,0.4,0.5
				c0,0.2-0.2,0.4-0.3,0.6c-0.1,0.3-0.3,0.5-0.4,0.8c4.2,0.6,6.5,3.4,6.5,6.7c0,4.6-4.1,6.9-8.5,8c-0.3,0.1-0.5,0-0.7-0.3
				c-0.1-0.3-0.5-0.8-1-1.1c2.1-0.4,4.3-1.3,5.7-2.2c1.2-0.9,2.5-2.2,2.5-4.7c0-3.1-2.5-4.8-5-5.1c-1.6,3.2-3.6,6-5.7,8
				c0.2,0.6,0.4,1.1,0.6,1.6c0.1,0.2,0.1,0.3-0.1,0.4c-0.4,0.3-0.8,0.5-1.1,0.6c-0.2,0.1-0.3,0.1-0.4-0.1c-0.2-0.4-0.4-0.9-0.5-1.4
				c-2.3,1.7-4.1,2.5-5.5,2.5c-1.9,0-2.6-1.4-2.6-3c0-3,2.4-6.6,6.9-8.7c0.1-1.7,0.1-3.2,0.2-4.7c-1.7,0.1-2.8,0.1-3.6,0.1
				c-0.6,0-1.1,0-1.4-0.1c-0.3,0-0.4-0.1-0.4-0.4c-0.1-0.4-0.1-0.8-0.1-1.3c1.8,0.1,3.6,0.1,5.7,0c0.1-1,0.2-1.8,0.3-2.5
				c0.1-0.9,0-1.4-0.1-2C161.6,661.9,162.4,662.1,162.9,662.3z M154.9,681.1c0,0.8,0.4,1.4,1.3,1.4c1,0,2.6-0.7,4.5-2.3
				c-0.4-1.9-0.6-3.7-0.6-5.9C156.5,676.3,154.9,679,154.9,681.1z M166.6,672.7c-1.5,0-3.4,0.4-4.9,0.9c0,2,0.2,3.7,0.5,5.4
				C163.5,677.6,165.6,674.7,166.6,672.7z"/>
			<path class="st2" d="M184.8,672.8c3.2-1,5.6-1.7,7.9-1.7c3.6,0,6.1,2.3,6.1,5.7c0,2.8-1.2,4.6-3.9,6.1c-1.6,0.9-3.6,1.6-6.1,2
				c-0.3,0.1-0.4,0-0.6-0.3c-0.1-0.3-0.6-0.8-1.1-1.2c2.8-0.4,4.9-1,6.7-1.9c1.9-1,2.9-2.4,2.9-4.7c0-2.6-1.7-3.9-4.3-3.9
				c-2.2,0-5.3,1-8.6,2.3c-0.7,0.3-1.1,0.6-1.4,0.7c-0.2,0.1-0.4,0.3-0.6,0.3c-0.2,0-0.4-0.1-0.5-0.3c-0.4-0.5-0.8-1.3-1.1-1.9
				C181.5,673.8,182.5,673.5,184.8,672.8z"/>
			<path class="st2" d="M218.8,663.2c0.1,0.1,0.2,0.3,0.2,0.4c0,0.2-0.1,0.3-0.3,0.4c-0.4,0.1-0.6,0.4-1.1,0.8
				c-2.9,2.6-6.4,5.9-8.6,8.3c-0.3,0.3-0.4,0.5-0.4,0.7s0.1,0.4,0.4,0.5c3.6,2.7,7.5,5.8,11.3,9.7c0.2,0.2,0.3,0.3,0,0.6
				c-0.4,0.4-0.8,0.8-1.1,1.1c-0.2,0.2-0.4,0.2-0.6-0.1c-3.8-4.2-7.6-7.3-11-9.9c-0.8-0.6-1.1-1.1-1.1-1.8s0.4-1.2,1-1.9
				c2.4-2.5,5.6-5.6,8.2-8.3c0.6-0.6,0.9-1.1,1.3-1.8C217.6,662.3,218.4,662.8,218.8,663.2z"/>
			<path class="st2" d="M232.1,676.3c1.3-1.3,2.7-2.1,4.1-2.1c2.9,0,3.8,2.1,4.1,5.1c0.2,2.5,0.7,3.9,2.3,3.9c1.7,0,2.8-0.9,3.7-2
				c0.8-1.1,1.8-2.6,2.5-4.8c0.3,0.8,0.7,1.2,1.1,1.6c0.2,0.2,0.3,0.4,0.1,0.8c-0.6,1.6-1.3,2.8-2.3,4c-1.2,1.6-2.9,2.6-5.1,2.6
				c-2.8,0-3.8-1.7-4.2-5.3c-0.3-3-1-4.1-2.5-4.1c-1.3,0-2.6,0.8-4,2.5c-1,1.2-2.2,3.4-3.6,6.5c-0.1,0.3-0.3,0.3-0.5,0.2
				c-0.4-0.2-0.9-0.5-1.3-0.8c-0.2-0.1-0.2-0.3-0.1-0.5c3.8-7.4,6.9-13.5,8.9-17.9c0.7-1.6,1-2.4,1.1-3.4c0.8,0.3,1.6,0.8,2.1,1.1
				c0.3,0.2,0.4,0.6,0.1,0.8c-0.3,0.2-0.5,0.5-0.9,1.2C235.8,669.4,233.8,673.1,232.1,676.3L232.1,676.3z"/>
		</g>
		<g class="st1">
			<path class="st2" d="M65.6,735.7h-2.7l-2.1-6.8h-7.7l-2.2,6.8h-2.5l6.9-21.6h3.2L65.6,735.7z M58.7,721.6c-0.6-1.8-1-3.5-1.5-5.5
				h-0.4c-0.5,2-0.9,3.7-1.5,5.5l-1.6,5.3h6.6L58.7,721.6z"/>
			<path class="st2" d="M78.1,725.4c-0.4-2.2-1.7-3.2-3.3-3.2c-2.5,0-4,2.1-4,5.9c0,3.9,1.6,6,4,6c2,0,3.1-1.1,3.5-3.3l2.3,0.7
				c-0.8,2.9-2.8,4.4-5.8,4.4c-4,0-6.4-2.9-6.4-7.8c0-4.9,2.6-7.9,6.4-7.9c2.9,0,4.9,1.5,5.7,4.4L78.1,725.4z"/>
			<path class="st2" d="M87.5,720.7H91v1.8h-3.6v9.2c0,1.7,0.7,2.4,2.1,2.4c0.6,0,1.2,0,1.9-0.2l-0.1,1.8c-0.8,0.1-1.5,0.1-2.3,0.1
				c-2.5,0-3.9-1.2-3.9-3.8v-9.7h-2.4v-1.8h2.4v-4.7l2.3-0.5V720.7z"/>
			<path class="st2" d="M101.7,722.7c-1.8,0-3.7,1.5-4.6,4.4v8.6h-2.4v-15H97v3.8c1.1-2.9,2.9-4.1,4.9-4.1L101.7,722.7z"/>
			<path class="st2" d="M106.8,728.5c0,3.7,1.7,5.7,4.4,5.7c2,0,3.2-0.9,3.8-3l2.2,0.7c-1,2.7-2.9,4.1-6,4.1c-4,0-6.7-2.9-6.7-7.8
				c0-4.8,2.8-7.9,6.5-7.9c3.7,0,6.3,2.8,6.3,7.6v0.5H106.8z M114.9,726.8c-0.2-3-1.7-4.7-4-4.7c-2.3,0-3.9,1.8-4.1,4.7H114.9z"/>
			<path class="st2" d="M129.5,724.7c-0.5-1.7-1.6-2.6-3.2-2.6c-1.9,0-3,0.9-3,2.1c0,1.4,0.6,2,3.1,2.6l1.2,0.3
				c3.4,0.8,4.7,2,4.7,4.4c0,2.5-1.9,4.4-5.8,4.4c-2.9,0-5-1.2-5.9-3.6l2.3-0.8c0.6,1.9,2,2.7,3.7,2.7c2.5,0,3.4-1.1,3.4-2.5
				c0-1.6-0.6-2.1-3.3-2.8l-1.2-0.3c-3.4-0.8-4.4-2-4.4-4.3c0-2.3,1.8-4.1,5.3-4.1c2.8,0,4.7,1.3,5.5,3.6L129.5,724.7z"/>
			<path class="st2" d="M144.3,724.7c-0.5-1.7-1.6-2.6-3.2-2.6c-1.9,0-3,0.9-3,2.1c0,1.4,0.6,2,3.1,2.6l1.2,0.3
				c3.4,0.8,4.7,2,4.7,4.4c0,2.5-1.9,4.4-5.8,4.4c-2.9,0-5-1.2-5.9-3.6l2.3-0.8c0.6,1.9,2,2.7,3.7,2.7c2.5,0,3.4-1.1,3.4-2.5
				c0-1.6-0.6-2.1-3.3-2.8l-1.2-0.3c-3.4-0.8-4.4-2-4.4-4.3c0-2.3,1.8-4.1,5.3-4.1c2.8,0,4.7,1.3,5.5,3.6L144.3,724.7z"/>
			<path class="st2" d="M159.1,738.7h-1.6l11.5-27h1.6L159.1,738.7z"/>
			<path class="st2" d="M191.2,725.8c-2.3,0.1-4.6,0.1-6.7-0.1c-0.2,0-0.3-0.1-0.3-0.4c-0.1-0.4-0.1-1.1-0.1-1.5
				c2.2,0.3,4.8,0.3,7.1,0.2c0-1.4,0-3,0-4.4c-2.8,0.1-5.4,0.1-7.8-0.1c-0.2,0-0.2-0.1-0.3-0.3c-0.1-0.4-0.1-0.9-0.1-1.5
				c2.6,0.3,5.3,0.4,8.1,0.2c0-1.2,0-2,0-3.1c0-0.8-0.1-1.3-0.3-1.9c1,0.1,1.8,0.2,2.3,0.4c0.3,0.1,0.4,0.4,0.3,0.7
				c-0.2,0.3-0.3,0.8-0.4,1.3c-0.1,0.9-0.1,1.6-0.1,2.6c2.7-0.2,5.1-0.6,7.1-1c0.2-0.1,0.3,0,0.3,0.2c0.1,0.5,0.1,0.9,0.1,1.3
				c0,0.2-0.1,0.3-0.2,0.3c-2.3,0.4-4.7,0.7-7.3,0.8c0,1.4,0,3,0,4.3c2.3-0.1,4.2-0.4,6.5-0.8c0.2-0.1,0.3,0,0.3,0.1
				c0,0.4,0,0.9,0,1.4c0,0.2-0.1,0.3-0.3,0.3c-2.1,0.4-4.1,0.6-6.5,0.8c0,1.8,0.1,3.3,0.2,5.1c2.6,0.7,5.4,2,7.8,3.8
				c0.1,0.1,0.2,0.2,0.1,0.5c-0.1,0.4-0.4,0.9-0.7,1.3c-0.1,0.2-0.3,0.2-0.4,0.1c-2.4-1.8-4.3-2.9-6.7-3.7c0,3.3-1.7,4.6-5.2,4.6
				c-3.4,0-5.2-1.3-5.2-3.5c0-1.9,2-3.6,5.4-3.6c1.2,0,2.2,0.1,3.1,0.2C191.3,728.8,191.2,727.5,191.2,725.8z M188.3,731.8
				c-2.5,0-3.7,0.8-3.7,1.8c0,1.2,1.1,1.8,3.3,1.8c1.3,0,2.5-0.3,3-0.9c0.4-0.4,0.6-1.2,0.5-2.4C190.3,732,189.3,731.8,188.3,731.8z
				"/>
			<path class="st2" d="M214.3,714.1c0.2,0.1,0.4,0.2,0.4,0.4c0,0.3-0.1,0.6-0.1,1c0,0.6,0.1,1.2,0.2,1.9c0.3,2.1,0.6,4.1,1.1,5.9
				c1.7-0.8,3.5-1.7,5.2-2.6c0.9-0.5,1.3-0.8,1.7-1.3c0.6,0.6,1.1,1.1,1.5,1.6c0.2,0.4,0.2,0.8-0.4,0.8c-0.7,0.1-1.7,0.5-2.6,0.9
				c-2.1,1-4.7,2.2-6.6,3.3c-3,1.7-4.3,3.2-4.3,5.3c0,2.6,2.5,3.2,6.9,3.2c2.7,0,5.4-0.3,7.5-0.6c0.3,0,0.4,0,0.4,0.3
				c0.1,0.5,0.1,1,0.2,1.5c0,0.3-0.1,0.4-0.4,0.4c-2.4,0.3-4.5,0.4-7.8,0.4c-5.1,0-8.7-1.1-8.7-5.1c0-2.8,2-5,5.7-7.2
				c-0.6-2.2-1.3-5.2-1.6-7.5c-0.2-1.3-0.3-2.1-0.6-2.9C212.8,713.9,213.7,714,214.3,714.1z M224.1,714.2c0.1-0.1,0.2-0.1,0.3,0
				c1.2,0.8,2.5,2.3,3.3,3.5c0.1,0.1,0.1,0.2-0.1,0.3l-0.8,0.7c-0.1,0.1-0.3,0.1-0.4-0.1c-0.8-1.4-2.1-2.8-3.4-3.7L224.1,714.2z
				 M226.5,712.3c0.1-0.1,0.2-0.1,0.3,0c1.2,0.9,2.5,2.2,3.3,3.4c0.1,0.1,0.1,0.2-0.1,0.4l-0.8,0.7c-0.1,0.1-0.2,0.1-0.4-0.1
				c-0.7-1.2-2-2.6-3.4-3.7L226.5,712.3z"/>
			<path class="st2" d="M241.3,716.2c0.2-1,0.3-1.8,0.3-2.8c0.9,0.2,1.5,0.4,2.3,0.8c0.3,0.1,0.4,0.5,0.1,0.8
				c-0.2,0.2-0.4,0.5-0.5,1c-0.4,1.4-0.8,2.8-1.3,4.2c0.9-0.1,2.1-0.2,2.8-0.2c2.5,0,3.8,1.3,3.8,4.7c0,3.9-0.6,7.3-1.6,9.5
				c-0.7,1.6-1.9,2.3-3.3,2.3c-1.2,0-2.3-0.2-3-0.5c-0.2-0.1-0.4-0.2-0.4-0.5c0-0.5-0.1-1.1-0.4-1.8c1.3,0.6,2.4,0.8,3.4,0.8
				c0.8,0,1.4-0.3,2-1.5c0.7-1.7,1.3-4.6,1.3-8.2c0-2.3-0.4-3.1-2-3.1c-0.9,0-2.1,0.1-3.2,0.3c-1.7,5.1-3.6,9.6-6,13.8
				c-0.1,0.2-0.3,0.2-0.5,0.1c-0.3-0.1-0.8-0.5-1.2-0.8c-0.2-0.1-0.1-0.3-0.1-0.5c2.5-4.1,4.2-8.2,5.6-12.5
				c-1.2,0.2-2.4,0.4-3.9,0.6c-0.5,0.1-1.1,0.2-1.3,0.4c-0.3,0.2-0.6,0.2-0.8-0.1c-0.2-0.5-0.5-1.2-0.7-2c1.1,0,2.2,0,3-0.1
				c1.6-0.2,2.8-0.4,4.1-0.6C240.6,719,240.9,717.8,241.3,716.2z M252,718.6c0.2-0.1,0.3,0,0.4,0.1c2,1.8,3.7,4.3,4.7,7.1
				c0.1,0.2,0.1,0.4-0.1,0.5c-0.3,0.3-0.8,0.6-1.2,0.8c-0.2,0.1-0.4,0.1-0.5-0.2c-1-3-2.5-5.5-4.7-7.4
				C251.1,719.2,251.6,718.8,252,718.6z"/>
		</g>
		<rect class="st0" width="1000" height="1000"/>
	</g>
</g>
</svg>
