<svg xmlns="http://www.w3.org/2000/svg" viewBox="0 0 110.88 22.28"><defs><style>.cls-1{fill:#fff;}</style></defs><title>Status_Works</title><g id="レイヤー_2" data-name="レイヤー 2"><g id="レイヤー_1-2" data-name="レイヤー 1"><path class="cls-1" d="M15.36,13.82,19.88.3H25L17.17,22H11.9L11,9.69,6.35,22H1.09L0,.3H5l.29,13.47L10.22.3h4.33Z"/><path class="cls-1" d="M45.62,11.49a15.62,15.62,0,0,1-1.13,4.09,12.76,12.76,0,0,1-2.21,3.47,10.3,10.3,0,0,1-3.23,2.38,9.3,9.3,0,0,1-4.18.83,8.48,8.48,0,0,1-2.67-.45,6.86,6.86,0,0,1-2.09-1.17,7.25,7.25,0,0,1-1.53-1.74,9.07,9.07,0,0,1-1-2.17,11.73,11.73,0,0,1-.46-2.47,13.78,13.78,0,0,1,.07-2.64l.12-.9a15.62,15.62,0,0,1,1.13-4.09,12.17,12.17,0,0,1,2.22-3.44A10.09,10.09,0,0,1,33.91.83,9.36,9.36,0,0,1,38.09,0a8.07,8.07,0,0,1,2.65.46,7,7,0,0,1,2.09,1.16,7.21,7.21,0,0,1,1.52,1.74,8.6,8.6,0,0,1,1,2.18A10.92,10.92,0,0,1,45.78,8a14.27,14.27,0,0,1-.06,2.61Zm-5.08-.83q.08-.59.12-1.29a13.46,13.46,0,0,0,0-1.42,8.12,8.12,0,0,0-.18-1.4A3.68,3.68,0,0,0,40,5.33a2.59,2.59,0,0,0-.87-.87,2.79,2.79,0,0,0-1.35-.38,4,4,0,0,0-1.61.23,4.07,4.07,0,0,0-1.26.77,4.9,4.9,0,0,0-1,1.15,8.71,8.71,0,0,0-.7,1.4,11.75,11.75,0,0,0-.47,1.53c-.12.52-.21,1-.28,1.51l-.12.92c0,.4-.09.83-.13,1.3a11.37,11.37,0,0,0,0,1.43,8.24,8.24,0,0,0,.18,1.41A3.68,3.68,0,0,0,32.92,17a2.71,2.71,0,0,0,.87.88,2.76,2.76,0,0,0,1.38.37A3.7,3.7,0,0,0,36.76,18,4.12,4.12,0,0,0,38,17.18,5,5,0,0,0,39,16a7.81,7.81,0,0,0,.7-1.42,10.64,10.64,0,0,0,.47-1.52c.12-.52.21-1,.28-1.49Z"/><path class="cls-1" d="M58.23,14.32H55.41L54.07,22H49L52.73.3h8a10.79,10.79,0,0,1,2.82.42A6.8,6.8,0,0,1,65.88,1.9a5.26,5.26,0,0,1,1.52,2,6,6,0,0,1,.41,2.85,7,7,0,0,1-1.35,3.89,7.94,7.94,0,0,1-3.33,2.43L66,21.71V22H60.61Zm-2.14-4,3,0a4.14,4.14,0,0,0,1.34-.21,3.44,3.44,0,0,0,1.09-.62,3.4,3.4,0,0,0,.79-1,4.11,4.11,0,0,0,.41-2.42,2.34,2.34,0,0,0-.35-.89,1.79,1.79,0,0,0-.7-.6,2.6,2.6,0,0,0-1.07-.25l-3.45,0Z"/><path class="cls-1" d="M79.55,14,76.9,16.44l-1,5.52H70.85L74.6.3h5.1L78.08,9.57,80.19,7,85.81.3h6.61l-9,9.8,5,11.86H82.6Z"/><path class="cls-1" d="M104.26,16.12a1.91,1.91,0,0,0-.13-1.21,2.38,2.38,0,0,0-.72-.83,4.54,4.54,0,0,0-1-.59L101.24,13c-.77-.3-1.54-.65-2.31-1a9.77,9.77,0,0,1-2.07-1.4,6.2,6.2,0,0,1-1.45-1.89A4.92,4.92,0,0,1,95,6.21a5.34,5.34,0,0,1,.47-2,6.1,6.1,0,0,1,1-1.59A6.34,6.34,0,0,1,98,1.42a9.17,9.17,0,0,1,1.8-.83,11,11,0,0,1,2-.46,12.07,12.07,0,0,1,2-.13,9.35,9.35,0,0,1,2.85.49,6.76,6.76,0,0,1,2.28,1.32,6,6,0,0,1,1.52,2.1,6.87,6.87,0,0,1,.52,2.83h-5.06a3,3,0,0,0-.55-2A2.36,2.36,0,0,0,103.35,4a4.14,4.14,0,0,0-1.09.12,3.58,3.58,0,0,0-1,.41,2.63,2.63,0,0,0-.81.71,2.16,2.16,0,0,0-.43,1,1.36,1.36,0,0,0,.22,1.07,2.93,2.93,0,0,0,.83.77,6,6,0,0,0,1.1.55l1,.39a20.2,20.2,0,0,1,2.37,1.07,9,9,0,0,1,2,1.45,6.17,6.17,0,0,1,1.36,2,5.45,5.45,0,0,1,.4,2.58,5.74,5.74,0,0,1-.88,2.85,6.48,6.48,0,0,1-2,1.94A8.61,8.61,0,0,1,103.82,22a12.25,12.25,0,0,1-2.95.33,10.4,10.4,0,0,1-3.15-.52,7.6,7.6,0,0,1-2.57-1.4,6.27,6.27,0,0,1-1.7-2.29,7.08,7.08,0,0,1-.58-3.14H98a3.48,3.48,0,0,0,.67,2.53,3.12,3.12,0,0,0,2.47.85,4.29,4.29,0,0,0,1.07-.13,3.07,3.07,0,0,0,.95-.39,2.53,2.53,0,0,0,.73-.69A2.38,2.38,0,0,0,104.26,16.12Z"/></g></g></svg>