<?xml version="1.0" encoding="utf-8"?>
<!-- Generator: Adobe Illustrator 22.1.0, SVG Export Plug-In . SVG Version: 6.00 Build 0)  -->
<svg version="1.1" id="レイヤー_1" xmlns="http://www.w3.org/2000/svg" xmlns:xlink="http://www.w3.org/1999/xlink" x="0px"
	 y="0px" viewBox="0 0 189.8 34.3" style="enable-background:new 0 0 189.8 34.3;" xml:space="preserve">
<style type="text/css">
	.st0{enable-background:new    ;}
	.st1{fill:#FFFFFF;}
</style>
<title>Status_Bio</title>
<g id="レイヤー_2_1_">
	<g id="レイヤー_1-2">
		<g class="st0">
			<path class="st1" d="M0.3,26.1L4.1,4.4l7.1,0c0.9,0,1.8,0.1,2.7,0.3c0.9,0.2,1.6,0.5,2.3,1s1.2,1.1,1.6,1.8
				c0.4,0.7,0.5,1.6,0.5,2.7c0,0.6-0.2,1.2-0.4,1.6s-0.5,0.9-0.8,1.3s-0.7,0.7-1.2,1c-0.4,0.3-0.9,0.6-1.5,0.8
				c0.5,0.2,0.9,0.4,1.2,0.7c0.3,0.3,0.6,0.7,0.8,1.1c0.2,0.4,0.4,0.8,0.5,1.3c0.1,0.5,0.1,1,0.1,1.4c-0.1,1.2-0.4,2.2-0.8,3
				s-1.1,1.5-1.9,2s-1.6,0.9-2.6,1.1c-1,0.2-2,0.4-3.1,0.3H0.3z M6.3,16.6l-1,5.8l3.4,0c0.5,0,0.9-0.1,1.4-0.2s0.8-0.3,1.2-0.5
				c0.4-0.2,0.7-0.5,0.9-0.9s0.4-0.8,0.5-1.3c0.1-0.9,0-1.6-0.4-2.1s-1-0.8-1.9-0.8L6.3,16.6z M6.9,13.5l3,0c0.5,0,0.9-0.1,1.4-0.2
				s0.8-0.3,1.2-0.5c0.4-0.2,0.7-0.5,0.9-0.9c0.2-0.4,0.4-0.8,0.5-1.3c0.1-0.5,0.1-0.9,0-1.2s-0.3-0.6-0.5-0.8s-0.6-0.4-0.9-0.4
				C11.9,8.1,11.5,8,11.1,8L7.8,8L6.9,13.5z"/>
			<path class="st1" d="M26.4,26.1H22l3.7-21.7h4.4L26.4,26.1z"/>
			<path class="st1" d="M52.1,15.7c-0.1,0.9-0.3,1.8-0.6,2.7c-0.3,0.9-0.6,1.7-1.1,2.5c-0.4,0.8-1,1.5-1.5,2.2
				c-0.6,0.7-1.3,1.2-2,1.7s-1.5,0.9-2.4,1.1s-1.8,0.4-2.8,0.4c-1,0-1.9-0.2-2.6-0.5c-0.8-0.3-1.5-0.7-2-1.2
				c-0.6-0.5-1.1-1.1-1.5-1.8c-0.4-0.7-0.7-1.4-0.9-2.2c-0.2-0.8-0.4-1.6-0.4-2.5c-0.1-0.9,0-1.7,0.1-2.6l0.1-1
				c0.1-0.9,0.3-1.8,0.6-2.7s0.7-1.7,1.1-2.5c0.4-0.8,1-1.5,1.5-2.2c0.6-0.7,1.3-1.3,2-1.7c0.7-0.5,1.5-0.9,2.4-1.1
				c0.9-0.3,1.8-0.4,2.8-0.4c1,0,1.9,0.2,2.6,0.5c0.8,0.3,1.5,0.7,2,1.2c0.6,0.5,1.1,1.1,1.5,1.8c0.4,0.7,0.7,1.4,0.9,2.2
				c0.2,0.8,0.4,1.6,0.4,2.5c0,0.9,0,1.7-0.1,2.6L52.1,15.7z M47.8,14.6c0-0.4,0.1-0.9,0.1-1.4s0-1,0-1.5s-0.1-1-0.2-1.4
				c-0.1-0.5-0.3-0.9-0.6-1.2c-0.3-0.4-0.6-0.7-1-0.9c-0.4-0.2-0.9-0.4-1.5-0.4c-0.6,0-1.2,0.1-1.7,0.2c-0.5,0.2-1,0.4-1.4,0.8
				s-0.8,0.7-1.1,1.2c-0.3,0.5-0.6,1-0.8,1.5c-0.2,0.5-0.4,1.1-0.6,1.6c-0.1,0.6-0.3,1.1-0.3,1.6l-0.1,1c-0.1,0.4-0.1,0.9-0.1,1.4
				s0,1,0,1.5c0,0.5,0.1,1,0.2,1.5c0.1,0.5,0.3,0.9,0.6,1.3s0.6,0.7,1,0.9c0.4,0.2,0.9,0.4,1.5,0.4c0.6,0,1.2-0.1,1.7-0.2
				c0.5-0.2,1-0.5,1.4-0.8c0.4-0.3,0.8-0.8,1.1-1.2c0.3-0.5,0.6-1,0.8-1.5c0.2-0.5,0.4-1.1,0.5-1.6c0.1-0.6,0.2-1.1,0.3-1.6
				L47.8,14.6z"/>
			<path class="st1" d="M73.3,23.3c-0.5,0.6-1,1.1-1.7,1.5c-0.7,0.4-1.4,0.7-2.2,0.9c-0.8,0.2-1.5,0.4-2.3,0.5
				c-0.8,0.1-1.5,0.1-2.2,0.1c-1,0-1.9-0.2-2.7-0.4s-1.5-0.6-2.1-1.1c-0.6-0.5-1.1-1-1.5-1.7c-0.4-0.6-0.7-1.4-1-2.1
				c-0.2-0.8-0.4-1.6-0.4-2.4c-0.1-0.9,0-1.7,0.1-2.6l0.2-1.3c0.1-0.9,0.3-1.8,0.6-2.7s0.6-1.7,1.1-2.5c0.4-0.8,0.9-1.5,1.5-2.2
				c0.6-0.7,1.2-1.2,1.9-1.7c0.7-0.5,1.5-0.8,2.4-1.1c0.9-0.3,1.8-0.4,2.8-0.3c1.2,0,2.2,0.2,3.1,0.5s1.7,0.8,2.3,1.4
				s1.1,1.4,1.5,2.2c0.4,0.9,0.6,1.9,0.7,3l-4.2,0c0-0.5-0.1-1-0.3-1.5c-0.1-0.4-0.3-0.8-0.6-1.1c-0.3-0.3-0.6-0.6-1-0.7
				c-0.4-0.2-0.9-0.3-1.5-0.3c-0.6,0-1.2,0.1-1.7,0.2s-1,0.4-1.4,0.8c-0.4,0.3-0.8,0.7-1.1,1.2c-0.3,0.5-0.6,0.9-0.8,1.5
				c-0.2,0.5-0.4,1.1-0.5,1.6c-0.1,0.6-0.2,1.1-0.3,1.6l-0.2,1.3c-0.1,0.5-0.1,1-0.1,1.5c0,0.5,0,1,0,1.5c0,0.5,0.1,1,0.3,1.4
				c0.1,0.5,0.4,0.9,0.6,1.2c0.3,0.3,0.6,0.6,1.1,0.8c0.4,0.2,1,0.3,1.6,0.3c0.7,0,1.3,0,2-0.2c0.6-0.2,1.2-0.4,1.8-0.8l0.7-3.7h-4
				l0.6-3.3h8.3L73.3,23.3z"/>
			<path class="st1" d="M88,18.1h-3.5L83,26.1h-4.4l3.8-21.7l7.5,0c1,0,1.9,0.2,2.8,0.4C93.7,5.1,94.4,5.5,95,6s1.1,1.2,1.5,2
				c0.3,0.8,0.5,1.7,0.4,2.8c-0.1,1.5-0.6,2.8-1.4,3.8s-1.9,1.8-3.4,2.4l3.1,8.8v0.2h-4.6L88,18.1z M85,14.5l3.2,0
				c0.5,0,1-0.1,1.5-0.2s0.9-0.4,1.3-0.6c0.4-0.3,0.7-0.6,0.9-1c0.2-0.4,0.4-0.9,0.5-1.5c0.1-1,0-1.7-0.5-2.3
				c-0.4-0.5-1.2-0.8-2.1-0.9l-3.7,0L85,14.5z"/>
			<path class="st1" d="M112.9,21.6h-7.6l-2.2,4.5h-4.8l11.6-21.7h4l4.1,21.7h-4.4L112.9,21.6z M107.1,18h5.2l-1.2-8.1L107.1,18z"/>
			<path class="st1" d="M128.3,18.4l-1.3,7.6h-4.4l3.8-21.7l7.9,0c1,0,2,0.2,2.9,0.5s1.6,0.8,2.3,1.4c0.6,0.6,1.1,1.3,1.4,2.2
				c0.3,0.9,0.4,1.8,0.3,2.9c-0.1,1.2-0.4,2.2-0.9,3.1c-0.5,0.9-1.2,1.6-2,2.2c-0.8,0.6-1.7,1-2.7,1.3c-1,0.3-2.1,0.4-3.2,0.4
				L128.3,18.4z M128.9,14.8l3.6,0c0.5,0,1.1-0.1,1.5-0.2s0.9-0.4,1.3-0.6c0.4-0.3,0.7-0.6,1-1s0.4-0.9,0.5-1.5
				c0.1-0.5,0.1-0.9,0-1.3c-0.1-0.4-0.2-0.8-0.4-1.1c-0.2-0.3-0.5-0.5-0.9-0.7c-0.4-0.2-0.8-0.3-1.3-0.3l-4.1,0L128.9,14.8z"/>
			<path class="st1" d="M161.4,26.1H157l1.6-9.3h-8.4l-1.6,9.3h-4.4L148,4.4h4.4l-1.5,8.8h8.4l1.5-8.8h4.4L161.4,26.1z"/>
			<path class="st1" d="M176.5,14.1l6.1-9.7h5l-9.5,14l-1.3,7.6h-4.4l1.4-8.1l-4.5-13.5l4.6,0L176.5,14.1z"/>
		</g>
	</g>
</g>
</svg>
