<?xml version="1.0" encoding="utf-8"?>
<!-- Generator: Adobe Illustrator 23.0.0, SVG Export Plug-In . SVG Version: 6.00 Build 0)  -->
<svg version="1.1" id="レイヤー_1" xmlns="http://www.w3.org/2000/svg" xmlns:xlink="http://www.w3.org/1999/xlink" x="0px"
	 y="0px" viewBox="0 0 59.3 59.3" style="enable-background:new 0 0 59.3 59.3;" xml:space="preserve">
<title>batu</title>
<polygon points="42.5,18 41.4,16.9 29.7,28.6 18,16.9 16.9,18 28.6,29.7 16.9,41.4 18,42.5 29.7,30.8 41.4,42.5 42.5,41.4 
	30.8,29.7 "/>
<g>
	<path d="M29.7,2c15.3,0,27.7,12.4,27.7,27.7S44.9,57.3,29.7,57.3S2,44.9,2,29.7S14.4,2,29.7,2 M29.7,0C13.3,0,0,13.3,0,29.7
		s13.3,29.7,29.7,29.7s29.7-13.3,29.7-29.7S46.1,0,29.7,0L29.7,0z"/>
</g>
</svg>
