<svg xmlns="http://www.w3.org/2000/svg" viewBox="0 0 831.79 410.18"><defs><style>.cls-1{fill:#231815;}.cls-2{fill:none;stroke:#231815;stroke-miterlimit:10;}</style></defs><title>hikyo</title><g id="レイヤー_2" data-name="レイヤー 2"><g id="レイヤー_1-2" data-name="レイヤー 1"><path class="cls-1" d="M629.44,312.52c5.41,7.57,25.85,47.5-3,70.91s-84.74,39.22-150.85,11.69S354.13,349,327.08,329.73s-34.24-4.81-36.66-2.06S255,369,199.67,380s-62.5,11-99.76,10.32S-4.07,372.4.75,313.21s52.15-74.3,52.15-74.3c27.17-7,72.62-18.8,157.41,9.65S452.15,356.59,505,358s77.52-8.26,87.13-14.46,24.66-20.64,26.46-26.15S624,305,629.44,312.52ZM262.09,309c7.57-12.62-.35-17.34-6.87-20.49s-33.37-19.29-87.7-31.11S88.76,262.49,74,274.69c0,0-19.26,24.42-19.93,51.2s30.25,49.23,90.09,49.62S254.52,321.55,262.09,309Z"/><path class="cls-2" d="M52.9,238.91c27.17-7,72.62-18.8,157.41,9.65S452.15,356.59,505,358s77.52-8.26,87.13-14.46,24.66-20.64,26.46-26.15S624,305,629.44,312.52s25.85,47.5-3,70.91-84.74,39.22-150.85,11.69S354.13,349,327.08,329.73s-34.24-4.81-36.66-2.06S255,369,199.67,380s-62.5,11-99.76,10.32S-4.07,372.4.75,313.21,52.9,238.91,52.9,238.91Z"/><path class="cls-1" d="M509.82,117.71c11.76,2.51,24.06,2.34,36,.94A104.8,104.8,0,0,0,559,116.23c9.74,4.49,9.24,14.52,17.76,20.14a26.59,26.59,0,0,0,8.31,3.36c-6.56,2.76-13.11,5.56-19.9,7.73A112.32,112.32,0,0,1,494,146.28a46.21,46.21,0,0,0,54.14,45.95l-1,1.66c35.95-33.1,89.64-45.64,136.53-31.89,11.17,3.28,22.27,8.16,30.16,16.71,9.32,10.09,13.07,24,16.21,37.37,2.39,10.13,5.75,21.75,15.34,25.8a30.38,30.38,0,0,0,8.51,1.84c12.33,1.37,27.24.36,33.61-10.3Q776.3,216.16,764.91,199c-15-22.68-31.57-46.34-54.12-60.55,4.17-2.1,8.62-4,12.35-6.42,7.38-4.74,11.66-11.42,11.16-18.07a17.32,17.32,0,0,0-5.09-10.44c14.2,3.27,28.87,4.34,43,1,5.84-1.39,11.59-3.57,16.33-7.25,12.26-9.53,15.28-27,13.73-42.44-16,7.89-34.45,9-52.31,9.12a624.69,624.69,0,0,1-97.37-6.79,101.68,101.68,0,0,0,12.29-17.94c3-5.59,5.42-11.72,5.15-18A22.66,22.66,0,0,0,657.2,2a22.63,22.63,0,0,0-22.87,2.58,45.83,45.83,0,0,1,10.52,16.82l-2.37-9c3.57,5.88,3.35,13.48.85,19.89s-7,11.8-11.8,16.75q-2.07,2.14-4.25,4.21-2.68-.39-5.37-.72c-8.25-1-16.55-1.57-24.86-1.88a398.51,398.51,0,0,0-61.68,2.51c-10.14,1.21-20.37,2.85-29.69,7S488,71.38,484.07,80.83s-2.41,21.38,5.06,28.34C494.67,114.32,502.43,116.14,509.82,117.71Zm189.51-.9c-2.56,4.15-7.89,7.35-13.4,10.12l-1.06.52a113.15,113.15,0,0,0-27.9-2.74c8.21-6.29,15.34-13.17,24.42-19a15.72,15.72,0,0,1,5.5-2.45,13.94,13.94,0,0,1,8.52,1.28C700.92,107.35,701.88,112.66,699.33,116.81ZM637.42,72.19c7.85,1.86,15.63,4,23.28,6.56,12.07,4,23.77,9.12,35.6,13.84-7.94,0-16,1.27-21.68,4.74a34.29,34.29,0,0,0-6.39,5.44l-9.61,9.72c-4.51,4.56-9.24,9.21-15.17,13-4.43.41-8.84,1-13.21,1.58A189.24,189.24,0,0,0,608,131.44a20.83,20.83,0,0,1-7.77-3.85c-4.94-4.19-5.22-9.93-9.48-14.41a22.41,22.41,0,0,0-9.22-5.36c1.26-.63,2.52-1.27,3.78-1.95C603.34,96.05,621.85,85.48,637.42,72.19ZM498.64,82.86c.64-2.49,6.88-7.08,9.21-8.16,25.46-11.82,50.33-13.73,78.3-11.42,8.28.69,16.5,2,24.68,3.48-29.7,21-67.2,31.17-102.87,24.56C503.31,90.46,497.45,87.45,498.64,82.86Z"/><path class="cls-1" d="M495.88,220.8c-7.73,1.7-13,6.77-18.08,11.41-4.68,4.32-9.63,8.47-14.75,12.52a126.81,126.81,0,0,1-2.33-20.42q-.59-11.82-.79-23.65a160.7,160.7,0,0,1,42.28,1.42c1.06-6.67.44-13.62-3.15-19.79s-10.38-11.51-19-13.61c-6.41-1.57-13.37-1.3-20-.35q.24-10.82.79-21.6c.53-10.33,1.24-21-1.67-30.74s-9.43-17.82-17.49-21.69a26.85,26.85,0,0,0-25.3,1.13l.73.36c8.05,2.68,11,16.23,11.44,26.13q1.25,27.27.26,54.6c-6.64,2.29-13.22,4.7-19.88,6.9-16.36,5.4-34.52,9.56-52,6.74l-.51-.61c1.79,10.47,13.07,19.68,27,22.06,14.63,2.5,29.53-2,43.83-5.46-.83,16.54-.34,33.75,8.91,45.55a30.11,30.11,0,0,0,7.33,6.71c-2.83,1.63-5.75,3.15-8.81,4.53a197.13,197.13,0,0,1-20.78,7.43c-9.05,2.85-18.18,5.73-27.84,7.16s-20,1.31-29-1.68l-.67.2c1.6,6.2,9.11,10.46,16.13,14.07,11.49,5.92,24,11.91,38,12.23,11.31.25,22.09-3.25,32.25-6.91,9.31-3.34,18.58-6.93,26.45-11.9,18.51-11.71,27.05-29.58,39.4-45.1,3.67-4.62,9-9.59,16.24-9.47C517.22,223.22,506.28,218.51,495.88,220.8Z"/><path class="cls-1" d="M823.3,334.44c-3.61-2.09-7.85-2.79-12-3.35-10.4-1.42-21.21-2.21-31.18,1.08-8.9,2.94-16.41,8.9-24.06,14.31-12,8.49-25.54,16.07-40.24,16.45-5.93.16-12.24-1.05-16.56-5.12-4-3.78-5.68-9.56-5.33-15.05a31,31,0,0,1,3-11.06c16.19-10.3,21.25-26.52,12.45-41a61,61,0,0,0-12.56-14.05c12.91-14.95,20-31.92,20.19-49.46.1-11.05-2.56-22.51-10.95-33s-23.05-19.9-41.24-24.1c-24.19-5.59-50.23-1.16-69.85,6.69-17.08,6.84-31.41,16.78-34.55,29.25-3.47,13.79,7.31,28.68,23,40.54s35.89,21.34,55.31,31.11c8.88,4.47,17.71,9.1,25.88,14a112.33,112.33,0,0,1-15.25,9.1c-13.45,6.68-33.52,11.66-50.13,5.53-10-3.71-15.8-10.62-17.9-17.26s-1.15-13.27-1.32-19.9c-.24-9.25-3-19.16-13.09-27s-29.1-12.44-42.14-8.14c0,1.62,6.92,1.07,9.38,2l-.35.39c9.5,5.51,10,14.05,8.33,21.26-2,8.66-6,17-7.13,25.78a28,28,0,0,0,10.26,26c11.81,9.9,33.43,14.75,52.64,14.12s36.28-6,50.86-12.58a161.56,161.56,0,0,0,24.57-13.71,103.8,103.8,0,0,1,16.43,13.62c5.46,5.72,9.41,12.59,7.35,18.34-5.6,4.28-10.63,9.66-12.94,16.32-4.2,12.09,1.67,25.93,11.27,34.39a28.64,28.64,0,0,0,6.47,4.45,42.05,42.05,0,0,0,8.62,2.68c10.55,2.46,21.44,4.93,32.14,3.15a48.05,48.05,0,0,0,21.8-10c5.24-4.17,9.7-9.22,14.56-13.82a112.4,112.4,0,0,1,21.47-16c5-2.85,10.36-5.36,16.1-5.73s11.91,1.78,15.07,6.58A17.47,17.47,0,0,0,823.3,334.44ZM686.81,268.81c-17.38-12.42-38-23.25-54.55-36.06-10-7.79-18.68-16.67-20.06-25.95s6.24-18.9,20.85-21.35c12.82-2.15,28.1,1.68,38.24,7.88a48.86,48.86,0,0,1,19.49,22.41C698.88,233.75,697.06,252.45,686.81,268.81Z"/><path class="cls-1" d="M245.91,220.49c7.19-14.53,1.61-33.14-10.25-44.19S207,160.86,190.81,160.58c-3.13-.06-6.25.06-9.37.25a7.93,7.93,0,0,1-1.2-1.88,15,15,0,0,1-.88-6l-.13-10.6c0-3.92.19-8.3,2-11.6,12.89-2.12,25.71-5,37.3-11,13.56-6.92,25.42-18.52,29.37-33.22s-1.71-32.36-15.17-39.47l-1.31,1c3.87,8.51-6.52,16.33-15.25,19.67A319.55,319.55,0,0,1,162,83.12c-22.58,4.31-46,6.27-67,15.63s-39.7,28.48-40.27,51.46c6.9-10.28,21.38-11.18,33.76-11.38q22.5-.36,45-2.26c2.14,3.12,2.75,7.39,3.1,11.29.45,5,.84,10.07-.22,15a21.89,21.89,0,0,1-1.65,4.81,539.2,539.2,0,0,1-106.88,5.64l-2-2.68c.54,19.8,17.39,36.14,36.14,42.52s39.15,4.91,58.9,3.38l17.92-1.39c2.46,5.69,2.53,13.55,5,19.61,4.24,10.55,14.45,13.38,23.38,15.06L221.65,260a206.75,206.75,0,0,1-21.8-15c-5.69-4.46-11.58-9.82-13.85-18.05a21.71,21.71,0,0,1,1.84-15.57C208,210.39,228.35,211.16,245.91,220.49Z"/><path class="cls-1" d="M318.43,133.78c5.48-3.12,11.95-3.85,18-5.66,12.95-3.88,24.48-13.5,28.86-26.27s.57-28.44-10.33-36.44c-4.28-3.14-9.34-5-14.28-7-9.71-3.88-19.35-8.36-27.37-15.07s-14.37-15.92-15.82-26.28a54.61,54.61,0,0,0-6.53,30l.45-.95c-3.85,16.61,3.6,35.24,17.85,44.6,4.8,3.16,10.22,5.3,15.09,8.36s9.38,7.33,10.83,12.9a15.41,15.41,0,0,1-4.78,15.23C326,131,319.8,131.9,314.86,135c-3.49,2.17-6.16,6.58-5.89,10.34-17-1.28-34.61,2.28-48.07,9.77,21.12,2.12,37,15.88,42.53,30.54s3,30.2.3,45.28q-1.69,9.65-3.4,19.3c-1.33,7.54-2.71,15.2-7,22.16a34.58,34.58,0,0,1-22.19,15.44l47.17,13.08c-12.21-11.91-4.71-28.48,2.49-42.31a483.23,483.23,0,0,0,23.72-53.09c3.42-9.09,6.56-18.4,6-27.81A31.29,31.29,0,0,0,335,152.54c-6.87-4.13-15.71-6.32-24.63-7.13C310.68,140.75,314.18,136.2,318.43,133.78Z"/></g></g></svg>