<svg xmlns="http://www.w3.org/2000/svg" viewBox="0 0 1178.79 152.12"><title>aboutMe</title><g id="レイヤー_2" data-name="レイヤー 2"><g id="レイヤー_1-2" data-name="レイヤー 1"><path d="M0,148.47v-8.66a77,77,0,0,0,10.07-1.1,7,7,0,0,0,2.76-1.46,11.56,11.56,0,0,0,2.35-3.13q1.2-2.13,7.15-15.91Q25,111.75,32.76,92.65L60,25.46,69.17,1.77H84L130.63,110.7,137.1,125l4.17,9.6a10.73,10.73,0,0,0,2,2.72,6.48,6.48,0,0,0,2.14,1.25,31.81,31.81,0,0,0,6.11.73c1,.14,2.57.31,4.59.52v8.66l-29-.63-36.62.63v-8.66q12.62-.52,14.24-1.41a3.11,3.11,0,0,0,1.62-3q0-2.61-2.4-8.56l-9-23H41.32l-4.59,12.52q-5.22,14.4-5.22,17.94a3.86,3.86,0,0,0,1.67,3.55q2.51,1.47,14.92,1.88v8.66L24,147.84ZM46.12,92q9.8.32,22.22.32,12,0,21.49-.32L67.51,38.19Z"/><path d="M177.79,148.47v-4.9A59.4,59.4,0,0,0,187,137.1q.63-5.11.83-12.52.42-15.24.42-55.41,0-10.74-.52-33.49-.31-17.52-1.15-20A3.88,3.88,0,0,0,185,13.46q-2.19-1.46-15.65-2.3V2.5c1.53,0,3.13,0,4.8.11l14.4.42q7.08.11,17.63.1t16.38-.21q15-.63,19.61-.62,17.22,0,26.56,3.54t13.67,10.28a27.32,27.32,0,0,1,4.32,15.08,30.35,30.35,0,0,1-4.95,16.69,35.16,35.16,0,0,1-12.68,12q-4.59,2.61-20.45,7,19,2.3,26.45,6.05A28.14,28.14,0,0,1,287,84.67a35.67,35.67,0,0,1,4.48,17.79,38.43,38.43,0,0,1-4.59,18.73,48.15,48.15,0,0,1-11.84,14.34A57.38,57.38,0,0,1,258.44,145q-9.39,3.51-23.48,3.5l-35.05-.63Q191.45,147.84,177.79,148.47Zm39.54-85.76,6,.1a70.28,70.28,0,0,0,13.15-1.15,23,23,0,0,0,9.81-4,21.81,21.81,0,0,0,6.31-8.56A31.68,31.68,0,0,0,255.21,36a26,26,0,0,0-2.93-12.79,17.21,17.21,0,0,0-7.61-7.51q-4.69-2.23-14.09-2.24a83.85,83.85,0,0,0-12.31.83q-.63,7.52-.73,17.32l-.21,16.18Zm.42,74.07q3.44.74,12.94.73,12.93,0,20.92-8.5t8-24.36q0-11.27-4.18-18.26a23,23,0,0,0-11.06-9.86q-6.89-2.86-19-2.87a72.52,72.52,0,0,0-8,.42v47.58l.21,12.41C217.54,134.42,217.61,135.32,217.75,136.78Z"/><path d="M314.89,77.21q0-19.09,5.79-33.28a67.75,67.75,0,0,1,39.9-38.4A108.32,108.32,0,0,1,395.85,0a105.1,105.1,0,0,1,34.43,5.32A65.28,65.28,0,0,1,464,32.76a68.16,68.16,0,0,1,6.94,17.63,88.91,88.91,0,0,1,2.35,21.18A96.41,96.41,0,0,1,466.49,108a66.13,66.13,0,0,1-14.66,22.22,68.44,68.44,0,0,1-22,14.92q-16.89,7-38.6,7-23.47,0-40.33-8.5a62.65,62.65,0,0,1-26.45-25.09Q314.88,101.94,314.89,77.21ZM347,71.05q0,24.32,6.68,40.22t17.11,22.49q10.43,6.57,24.62,6.57A44.69,44.69,0,0,0,419,134.07q10.38-6.25,16.28-21.18t5.89-36.2A105,105,0,0,0,438,50a64,64,0,0,0-9.13-20.61,42,42,0,0,0-14-13q-8.09-4.48-21.44-4.49-15.24,0-25.93,7.15T351.87,40.17A93.78,93.78,0,0,0,347,71.05Z"/><path d="M487.35,11.16V2.5l33.91.63,14.09-.21,14.08-.31,3.86-.11v8.66q-11.26,0-14.29,2a5.11,5.11,0,0,0-2.09,3.65q-1.45,6.47-1.46,28.48V69.49l.11,12.2q0,19.1.41,23.58.94,9.81,4.91,15.81t12.15,9.7q8.19,3.71,20.82,3.71,14.5,0,23.11-5a28.74,28.74,0,0,0,12.26-12.88q3.64-7.94,3.65-30.16V65.21q0-27.54-.11-33.6-.3-13.14-1.46-15.86a4.91,4.91,0,0,0-2.4-2.5q-3.43-1.77-15-2.09V2.5q18.89.74,22.43.73c.63,0,1.57,0,2.82-.1l23.16-.63v8.66q-9.7,0-12.21,1.57a6,6,0,0,0-2,3.18q-.78,2.36-1.51,21.13t-.73,29.63V91.19a145.43,145.43,0,0,1-1.36,19.41A46,46,0,0,1,619,127.71a44.1,44.1,0,0,1-11.63,12.83,52.69,52.69,0,0,1-17.84,8.66,88,88,0,0,1-23.9,2.92A99.5,99.5,0,0,1,536,147.84a47.53,47.53,0,0,1-16.38-8.4,38.17,38.17,0,0,1-13.77-24.36q-.52-3.75-.52-20.24l.1-20V48.31q0-14.61-.62-26.3a21.1,21.1,0,0,0-1.25-6.67,8.34,8.34,0,0,0-2.61-2.72Z"/><path d="M685.38,148.47v-8.56q12.52-.41,14.87-1.67a6.42,6.42,0,0,0,3.18-4.17q1.16-4.48,1.15-27V44.55q0-25.56-.31-28.59H689.35q-11.26,0-19.83.73-3.43.31-4,.84c-.49.42-.91,1.63-1.25,3.65a102.58,102.58,0,0,0-1.57,16.38h-8.66q-.42-21.39-.52-24.1c-.21-3.06-.56-6.37-1-9.91l.94-1c3.26.35,6.74.6,10.43.73q9,.31,34.53.32h42.16q26.28,0,35.16-.32c3.2-.13,6.43-.38,9.7-.73l1,1q-.93,6.36-1.14,11.16-.11.84-.42,22.85h-8.66A121.4,121.4,0,0,0,774.9,22c-.41-2.5-.87-4-1.35-4.48a7.23,7.23,0,0,0-3.34-.73Q761.65,16,749.65,16H734.73q-.32,3.66-.31,28.59v62.5q0,22.53,1.15,27.13a6.18,6.18,0,0,0,3.13,4q2.4,1.31,14.92,1.72v8.56q-20.25-.94-34.12-.94Q704.68,147.53,685.38,148.47Z"/><path d="M851.28,148.47V139.6q11.79-.82,14-1.67a3.84,3.84,0,0,0,2-1.46,8.79,8.79,0,0,0,1.25-4q.74-6,1.25-26,.32-9.7.32-33.39,0-21.18-.32-37.51t-1.35-19.46a4.61,4.61,0,0,0-1.31-2.24,7.19,7.19,0,0,0-3.39-1.2,98.32,98.32,0,0,0-12.41-1.36V2.5q21.48.63,29.63.63,10.74,0,21.6-.63l9.18,20.66L919,38.81l33.18,68.45q10.64-20.57,16-31.93l13.78-28.9q11.48-24.21,14-29.79t5.79-14.14q13.66.74,17.53.73l31.09-.73v8.87h-1.46q-10.55-.1-13.36,2.45t-2.81,9.86q0,8.67-.11,13.15l-.52,29.32v36.62q0,13.37.11,15.65.83,13.26,1.46,16.28a4.77,4.77,0,0,0,1.14,2.34,5.25,5.25,0,0,0,2.4,1.36c1,.31,5.43.72,13.15,1.2v8.87l-33.28-.63-32.56.63V139.6q12.94-.42,14.77-1.51t2.61-5q.78-3.85.78-25.87v-76L978.46,80.23l-11.58,24.31q-4.59,9.6-12.94,27.86-5.12,11.07-8,17.84h-7.1q-3.75-8.76-10.85-24-12.11-26.09-18.36-38.92l-27.44-56V82.53q0,12.82.37,30.52t.78,20a7.13,7.13,0,0,0,1.3,3.39,6.78,6.78,0,0,0,3.13,1.77q2.25.73,12.78,1.36v8.87q-11.68-.63-23.89-.63Q860.67,147.84,851.28,148.47Z"/><path d="M1070.28,148.47v-5.63a52.09,52.09,0,0,0,10.22-6.06q.63-4.38,1-14.19.83-17.94.83-26.08V49.56q0-2.72-.31-20.35-.32-11.79-1.46-14.39a3.41,3.41,0,0,0-1.57-1.57q-2.82-1.25-15-1.88V2.5l24.2.53q7.2.11,13.78.1,14.28,0,31.82-.31L1155,2.3q3.75,0,15.23.41a15.6,15.6,0,0,1,3.44.63l.73,1.35-2,15q-.11,1.56-1,15h-8.14c-.14-8.2-.45-13.25-.94-15.12a3.81,3.81,0,0,0-1.25-2.09c-.9-.63-3.69-1.18-8.35-1.67a181.94,181.94,0,0,0-20.24-1.15q-9.29,0-19,.73a252.32,252.32,0,0,0-1.46,30V66.77q7.1.53,14.82.53,2.4,0,17.32-.42,5.63-.1,6.62-.73a4,4,0,0,0,1.52-2.19q1.24-4,1.46-13.25h8.45l-.42,22.95.42,22.85h-9q.1-12.11-1.56-14.92a6,6,0,0,0-4.49-2.61,121.76,121.76,0,0,0-18.46-1.15q-10.12,0-16.7.63V122.7q0,7.41.32,12.73,8.45.63,20,.62,11.27,0,20.81-.73t11.74-2.08a3.87,3.87,0,0,0,1.36-1.88q1.88-5,4-19h8.56a319.71,319.71,0,0,0-2.3,34l-1.35,1.36a186.12,186.12,0,0,1-19,.73l-16.8-.31q-24.84-.32-34.22-.32Q1102.63,147.84,1070.28,148.47Z"/></g></g></svg>