<svg xmlns="http://www.w3.org/2000/svg" viewBox="0 0 1421.03 152.12"><defs><style>.cls-1{fill:#0f0f0e;}</style></defs><title>sho_design_1</title><g id="レイヤー_2" data-name="レイヤー 2"><g id="レイヤー_1-2" data-name="レイヤー 1"><path class="cls-1" d="M95.47,40.69H86.7a133,133,0,0,0-1-17.11Q82.42,19,74.44,15.44a43.65,43.65,0,0,0-17.89-3.55q-14.19,0-22,7.15T26.81,35.79A25.38,25.38,0,0,0,29.11,47a16.84,16.84,0,0,0,6.26,6.78,45.89,45.89,0,0,0,12,4.59q6,1.26,16.85,3.13t14,2.61a53.69,53.69,0,0,1,13.67,5.27,28.39,28.39,0,0,1,8.29,7.1,33.25,33.25,0,0,1,5.06,10.12,44,44,0,0,1,2,13.72q0,13.35-5.53,23.47a50,50,0,0,1-11.58,13.93,55,55,0,0,1-15.24,9.44q-12.51,5-30,5A98.53,98.53,0,0,1,22,149.72a108.94,108.94,0,0,1-22-8.24q3.24-11.89,3.34-36.21H12.1A130.24,130.24,0,0,0,13.25,124q4,6.46,13.56,11.37a45.43,45.43,0,0,0,21,4.91,42.69,42.69,0,0,0,17.68-3.5q7.77-3.49,11.27-9.65a27.79,27.79,0,0,0,3.49-14,24,24,0,0,0-2.45-11.27,18,18,0,0,0-7.67-7.51q-5.22-2.82-18.36-5.84-18.89-4-24.83-5.74a36.13,36.13,0,0,1-14.45-7.83A32,32,0,0,1,4.28,62.55,44.1,44.1,0,0,1,1.56,47,47.67,47.67,0,0,1,6.47,25.41,38.74,38.74,0,0,1,19.41,10.12,53.59,53.59,0,0,1,37.56,2.35,91.33,91.33,0,0,1,58.32,0,114.14,114.14,0,0,1,79.76,2a70.66,70.66,0,0,1,18,5.74l.84,2.5a122.52,122.52,0,0,0-2.14,13.31Q95.79,30.06,95.47,40.69Z"/><path class="cls-1" d="M142.92,148.47v-9.18a108.28,108.28,0,0,0,12.11-.63,7.88,7.88,0,0,0,3.23-1.2,4.15,4.15,0,0,0,1.46-2.24q1-3.14,1.15-14.5l.42-20.77V51.12l-.42-20.55q-.1-11.58-1.15-14.71a4.26,4.26,0,0,0-1.41-2.24,7.89,7.89,0,0,0-3.18-1.26q-2.19-.46-12.21-.67V2.5q17.12.63,36.1.63,17,0,30.16-.63v9.19Q198,12.1,196,12.57a5,5,0,0,0-2.82,1.51q-.83,1-1.25,7.31Q191,32,191,52.06v12q7.51.63,31.51.63,30.25,0,37.35-.63v-12q0-16.17-.21-20.76-.82-13.87-1.25-15.65a4.1,4.1,0,0,0-1-1.93,5.71,5.71,0,0,0-2.5-1.15q-1.83-.46-13.1-.88V2.5Q255,3.13,272,3.13q19,0,36.1-.63v9.19a109.4,109.4,0,0,0-12.11.62,8,8,0,0,0-3.23,1.2,4.09,4.09,0,0,0-1.46,2.24q-1.05,3.24-1.15,14.51l-.42,20.86V100l.42,20.45q.11,11.68,1,14.71a5.25,5.25,0,0,0,1.52,2.3,6.89,6.89,0,0,0,3.18,1.25,109.55,109.55,0,0,0,12.21.63v9.18q-17.11-.63-36.1-.63-17,0-30.16.63v-9.18q11.17-.42,13.15-.89a5,5,0,0,0,2.82-1.51c.55-.7,1-3.13,1.25-7.31q.82-10.64.83-30.67V77.1q-5.22-.72-30.36-.73-24.11,0-32.13.21c-2.16.07-4.28.25-6.37.52V98.91q0,16.28.31,20.76.84,13.87,1.26,15.76a4,4,0,0,0,1,1.82,5.44,5.44,0,0,0,2.5,1.15q1.83.47,13.1.89v9.18q-13.16-.63-30.16-.63Q160,147.84,142.92,148.47Z"/><path class="cls-1" d="M329.05,77.21q0-19.09,5.8-33.28a67.75,67.75,0,0,1,39.9-38.4A108.28,108.28,0,0,1,410,0a105.15,105.15,0,0,1,34.43,5.32,65.28,65.28,0,0,1,33.7,27.44,68.16,68.16,0,0,1,6.94,17.63,89.42,89.42,0,0,1,2.35,21.18A96.41,96.41,0,0,1,480.65,108,66,66,0,0,1,466,130.21a68.44,68.44,0,0,1-22,14.92q-16.9,7-38.6,7-23.48,0-40.33-8.5a62.65,62.65,0,0,1-26.45-25.09Q329.05,101.94,329.05,77.21Zm32.14-6.16q0,24.32,6.68,40.22T385,133.76q10.42,6.57,24.62,6.57a44.69,44.69,0,0,0,23.53-6.26q10.38-6.25,16.28-21.18t5.89-36.2A105,105,0,0,0,452.12,50,64.16,64.16,0,0,0,443,29.37a42.08,42.08,0,0,0-14-13q-8.1-4.48-21.44-4.49-15.24,0-25.93,7.15T366,40.17A93.78,93.78,0,0,0,361.19,71.05Z"/><path class="cls-1" d="M562.87,148.47v-5c.56-.35,1.53-.9,2.92-1.67a72.66,72.66,0,0,0,7.31-4.59q1.14-14,1.14-45.38V74.7q0-13.77-.52-40.37-.32-14.71-1.35-18.78a3.7,3.7,0,0,0-.84-1.47,5.49,5.49,0,0,0-2.61-1.25q-1.77-.4-13.14-1.87V2.5l37.87.63q6.68,0,25.14-.52,13.37-.31,21.39-.31,18.48,0,29.58,2.24a60.54,60.54,0,0,1,19.36,7.2,54.86,54.86,0,0,1,13.93,11.74,49.58,49.58,0,0,1,8.6,14.6,81.83,81.83,0,0,1,4.91,28.8q0,19.94-7.31,35.58a74,74,0,0,1-20.08,26.19,81.47,81.47,0,0,1-27.7,15.18q-14.93,4.63-36,4.64l-31-.63Zm41.74-12.73a123.84,123.84,0,0,0,18.57,1.46,94,94,0,0,0,24.62-2.92,44.69,44.69,0,0,0,13.88-6.36A46.63,46.63,0,0,0,673.1,115.6a64.45,64.45,0,0,0,8.51-19.4,93.79,93.79,0,0,0,3-24.31,87.51,87.51,0,0,0-3-23,51.46,51.46,0,0,0-9.92-19.46,39.18,39.18,0,0,0-17.42-12.1q-10.54-3.75-31.93-3.76a129.56,129.56,0,0,0-17.73,1.36q-1.05,14.82-1.05,55.82v24Q603.56,125.84,604.61,135.74Z"/><path class="cls-1" d="M740,148.47v-5.63a52.2,52.2,0,0,0,10.23-6.06q.63-4.38,1-14.19.84-17.94.84-26.08V49.56q0-2.72-.32-20.35-.32-11.79-1.46-14.39a3.44,3.44,0,0,0-1.56-1.57q-2.82-1.25-15-1.88V2.5L758,3q7.2.11,13.77.1,14.29,0,31.82-.31l21.18-.52c2.51,0,7.58.14,15.24.41a15.7,15.7,0,0,1,3.44.63l.73,1.35-2,15q-.1,1.56-1,15H833c-.14-8.2-.46-13.25-.94-15.12a3.87,3.87,0,0,0-1.25-2.09c-.91-.63-3.69-1.18-8.35-1.67a182.08,182.08,0,0,0-20.24-1.15q-9.29,0-19,.73a250.2,250.2,0,0,0-1.46,30V66.77q7.1.53,14.81.53,2.4,0,17.32-.42,5.64-.1,6.63-.73A4,4,0,0,0,822,64q1.26-4,1.46-13.25H832l-.41,22.95L832,96.51h-9q.1-12.11-1.56-14.92A6,6,0,0,0,816.93,79a121.9,121.9,0,0,0-18.47-1.15q-10.12,0-16.69.63V122.7q0,7.41.31,12.73,8.45.63,20,.62,11.28,0,20.82-.73t11.74-2.08a3.93,3.93,0,0,0,1.35-1.88q1.88-5,4-19h8.55a319.31,319.31,0,0,0-2.29,34l-1.36,1.36a185.85,185.85,0,0,1-19,.73l-16.8-.31q-24.83-.32-34.22-.32Q772.38,147.84,740,148.47Z"/><path class="cls-1" d="M965.29,40.69h-8.76a134.88,134.88,0,0,0-1-17.11q-3.24-4.59-11.22-8.14a43.68,43.68,0,0,0-17.89-3.55q-14.19,0-22,7.15t-7.77,16.75A25.38,25.38,0,0,0,898.94,47a16.77,16.77,0,0,0,6.26,6.78,45.89,45.89,0,0,0,12,4.59q6,1.26,16.85,3.13t14,2.61a53.84,53.84,0,0,1,13.67,5.27,28.53,28.53,0,0,1,8.29,7.1,33.48,33.48,0,0,1,5.06,10.12,44.34,44.34,0,0,1,2,13.72q0,13.35-5.53,23.47A49.71,49.71,0,0,1,960,137.67a55,55,0,0,1-15.23,9.44q-12.53,5-30,5a98.53,98.53,0,0,1-22.85-2.4,108.72,108.72,0,0,1-22-8.24q3.23-11.89,3.34-36.21h8.76A128.79,128.79,0,0,0,883.08,124q4,6.46,13.56,11.37a45.42,45.42,0,0,0,21,4.91,42.7,42.7,0,0,0,17.69-3.5q7.77-3.49,11.27-9.65a27.79,27.79,0,0,0,3.49-14,24.13,24.13,0,0,0-2.45-11.27,18,18,0,0,0-7.67-7.51q-5.22-2.82-18.36-5.84-18.89-4-24.83-5.74a36.06,36.06,0,0,1-14.45-7.83,31.88,31.88,0,0,1-8.2-12.36A44.32,44.32,0,0,1,871.39,47a47.67,47.67,0,0,1,4.91-21.54,38.72,38.72,0,0,1,12.93-15.29,53.73,53.73,0,0,1,18.16-7.77A91.27,91.27,0,0,1,928.15,0a114.22,114.22,0,0,1,21.44,2,70.79,70.79,0,0,1,18,5.74l.83,2.5a124.93,124.93,0,0,0-2.13,13.31Q965.6,30.06,965.29,40.69Z"/><path class="cls-1" d="M1064.62,2.5v9.19q-10.53.3-12.52.78a7.16,7.16,0,0,0-2.82,1.15,3.45,3.45,0,0,0-1.14,1.72,24.61,24.61,0,0,0-1.05,6.78q-.21,2.72-.31,10.22-.42,25.68-.42,27.65V102l.32,19.09q0,10.76,1,14a4.25,4.25,0,0,0,1.41,2.25,7.81,7.81,0,0,0,3.13,1.25q2.13.46,12.36.68v9.18q-17-.63-36.31-.63-16.8,0-29.94.63v-9.18q10.85-.42,12.52-.73a6.2,6.2,0,0,0,3-1.15,3.23,3.23,0,0,0,1-1.67q.31-1.25.84-9.81.82-12.51.83-23.16V59.16q0-20.76-.21-26.71-.51-13.25-1.25-16.59a4.58,4.58,0,0,0-1-2.09,5.36,5.36,0,0,0-2.5-1.2q-1.83-.46-13.2-.88V2.5q13.14.63,30.15.63Q1047.62,3.13,1064.62,2.5Z"/><path class="cls-1" d="M1224.26,44.76h-8.35q0-3.34-.42-9.91a53.57,53.57,0,0,0-1-7.83,25.82,25.82,0,0,0-5.64-5.11,55.72,55.72,0,0,0-15.65-7.2,70.92,70.92,0,0,0-20-2.61q-26.09,0-41.79,16.17t-15.7,44.45q0,30.89,16.54,49.09T1172.71,140a63.36,63.36,0,0,0,13.62-1.46,68.6,68.6,0,0,0,13-4.28c.21-1.88.38-5.49.52-10.85s.21-8.59.21-9.7q0-10-.83-11.9a4,4,0,0,0-2.82-1.77q-3.66-1.05-19.83-2V89.62l31.2.42,31.41-.42v6.89c-4,.84-6.68,2-7.93,3.44q-.95,1-1.15,5.74-.52,12-.52,17.22a144.56,144.56,0,0,0,.94,16.27,238,238,0,0,1-33.86,10,145.13,145.13,0,0,1-28.85,2.92q-23.47,0-41.53-7.93a72.17,72.17,0,0,1-21.59-14.5A65,65,0,0,1,1091,110.6a82.33,82.33,0,0,1-7.41-35.27q0-16.38,4.85-28.59A66.19,66.19,0,0,1,1102,25.41a73.36,73.36,0,0,1,19.67-14.82,88.74,88.74,0,0,1,23.06-8.14A133.16,133.16,0,0,1,1171.15,0a159.9,159.9,0,0,1,33,3.23q15.28,3.24,23.84,7.1l.84,2Q1226.35,21.49,1224.26,44.76Z"/><path class="cls-1" d="M1257.64,139.6q12.31-.63,14.09-1.15a4.44,4.44,0,0,0,1.93-1.35,9.15,9.15,0,0,0,1.3-3.86q.63-4,1.46-19.2.42-8.66.42-22.54V58l-.42-30.36a61,61,0,0,0-.62-9.91,7.55,7.55,0,0,0-1.52-3.39,6.76,6.76,0,0,0-3.28-1.73q-2.3-.61-13.36-1.35V2.5q13.26.63,19.51.63l15.13-.31,9.6-.32q21.49,28.08,52.07,64.69,22,26.4,36.51,41.32V84.41q0-56.13-1.25-66c-.28-2.57-.9-4.24-1.88-5q-2.4-1.87-16.27-2.08V2.5q12.72.63,23.37.63,10.32,0,26.6-.63v8.77q-12.72.32-15.13,1.88a2.71,2.71,0,0,0-1.14,1.56q-1.58,5.22-2,23.84T1402.25,66q0,69.39,1.36,84.2l-1.36.94q-8.76-1.45-17.84-2.71-33.71-37.66-95.57-113.1v52q0,16.17.63,33.7.4,12.1,1.25,14.71a4.15,4.15,0,0,0,1.41,2,7.34,7.34,0,0,0,3.49,1.09,90.49,90.49,0,0,0,9.91.84c.42,0,1.12,0,2.09-.11v8.45q-19.83-.21-22.54-.21-10.11,0-27.44.63Z"/></g></g></svg>