<svg xmlns="http://www.w3.org/2000/svg" viewBox="0 0 826.76 152.12"><title>works</title><g id="レイヤー_2" data-name="レイヤー 2"><g id="レイヤー_1-2" data-name="レイヤー 1"><path d="M107.67.73h9.6q3.87,10.65,7.62,20.14,16.28,41.73,19.62,49.66L157,101.41l12.1-46.74q7-27.75,8-34a17,17,0,0,0,.32-3.13,5.45,5.45,0,0,0-1-3.45,5.43,5.43,0,0,0-3-1.77q-.94-.21-13.15-1.15V2.5Q179,3.24,183,3.23l24.62-.73v8.66c-1,.07-1.81.14-2.3.21q-6.57.42-8,1.25a8.62,8.62,0,0,0-2.82,3q-1.35,2.19-7.15,21.49t-17,61.93Q159.11,141.69,158,149.2H142l-11.27-30.26L102.25,46.53q-4.48,9.81-32,74.92L59.05,149.2H43.82l-24.2-111q-4-18.36-5.64-22a6.69,6.69,0,0,0-3.13-3.55Q8.34,11.38,0,11.16V2.5l29.11.63L63.23,2.5v8.66c-6.12.21-9.5.35-10.12.42a7.58,7.58,0,0,0-4.18,1.62,4.78,4.78,0,0,0-1.25,3.6,24.86,24.86,0,0,0,.16,2.66Q48,21,50,31.51q3.85,20.76,5.63,29l9.29,42.26Q66,100,73.66,81.69L86.81,51.12,103.4,11.37Q105.49,6.36,107.67.73Z"/><path d="M220.15,77.21q0-19.09,5.79-33.28a67.81,67.81,0,0,1,39.91-38.4A108.22,108.22,0,0,1,301.11,0a105.1,105.1,0,0,1,34.43,5.32,65.17,65.17,0,0,1,33.7,27.44,67.8,67.8,0,0,1,6.94,17.63,88.91,88.91,0,0,1,2.35,21.18A96.41,96.41,0,0,1,371.75,108a66.13,66.13,0,0,1-14.66,22.22,68.51,68.51,0,0,1-22,14.92q-16.9,7-38.61,7-23.47,0-40.32-8.5a62.6,62.6,0,0,1-26.45-25.09Q220.15,101.94,220.15,77.21Zm32.13-6.16q0,24.32,6.68,40.22t17.11,22.49q10.44,6.57,24.63,6.57a44.68,44.68,0,0,0,23.52-6.26q10.38-6.25,16.28-21.18t5.9-36.2A105,105,0,0,0,343.21,50a64,64,0,0,0-9.13-20.61,42,42,0,0,0-14-13Q312,11.9,298.61,11.89q-15.24,0-25.93,7.15T257.14,40.17A93.52,93.52,0,0,0,252.28,71.05Z"/><path d="M395.43,11.16V2.61q2.4,0,16.7.42,7,.21,19.82.2,10.95,0,18.78-.41,12.93-.52,21.39-.52,16.38,0,24.52,2.34a26.81,26.81,0,0,1,13.88,9.76q5.73,7.41,5.73,18.05a37.05,37.05,0,0,1-7.82,22.95q-7.83,10.34-24.1,16.38c1.73,3.13,3.72,6.33,5.94,9.6s3.53,5.25,3.92,6,.78,1.36,1.2,2l16.17,24.31q6.46,9.7,7,10.44,7.83,10.42,9.6,12.31a11.06,11.06,0,0,0,3.44,2.61q1.67.72,6.57.83v8.66q-16.06-.42-23.26-.42-8.36,0-16.59.42a25.33,25.33,0,0,0-2.51-5.95l-22.32-36.83q-9.6-15.85-16.28-24.93a31.39,31.39,0,0,0-6.47-6.89l1.15-3.44q12.53.42,18.88-2.56t10.75-10.64a34,34,0,0,0,4.38-17.17q0-9.59-4.59-16a24.24,24.24,0,0,0-11.37-8.87q-4.38-1.56-15.65-1.56a59.62,59.62,0,0,0-9.91.83q-.31,3.77-.63,16.9-.63,29.54-.63,39.44,0,15.66.32,33.18.4,21.49.62,24.42.31,5.84,1.15,7.61a4.2,4.2,0,0,0,1.36,1.52,7.87,7.87,0,0,0,3,1.09,105.72,105.72,0,0,0,12.11.63v9.18q-17.85-.63-36.1-.63-16.29,0-30.16.63v-9.18q11.9-.42,14.09-1.15a3.26,3.26,0,0,0,1.82-1,6.6,6.6,0,0,0,.89-2.92,94.86,94.86,0,0,0,1-12.32l.84-30.46V52.69l-.42-22q-.21-13-1.25-15.65a3.92,3.92,0,0,0-1.57-1.77Q408.38,12,395.43,11.16Z"/><path d="M703.85,139.39v9.08q-15.14-.42-26.08-.42-8.46,0-16.28.42a60.39,60.39,0,0,0-8.14-11.89L633,113.2Q609.94,86,608.49,84.51c-2.58-2.85-4.59-4.62-6-5.32a6,6,0,0,0-2.51-.73,2.56,2.56,0,0,0-1.46.42,1.52,1.52,0,0,0-.68.73,10.53,10.53,0,0,0-.15,2.4v23.47l.31,20.66q.1,8.25,1.36,10.23a5.2,5.2,0,0,0,2.81,1.87q2.08.73,13.67,1.15v9.08q-17.12-.63-36.1-.63-16.91,0-30.15.63v-9.08q10.85-.51,14-1.46a4.52,4.52,0,0,0,1.93-1.35,7.2,7.2,0,0,0,1.25-2.87,57.31,57.31,0,0,0,.78-8.3q.94-15.43.94-22.33V65.21l-.73-32.34q-.21-11.89-.94-15.76a7.2,7.2,0,0,0-1.2-3,4.62,4.62,0,0,0-2.14-1.14q-2.29-.63-13.87-1.25V2.5q13.25.63,30.25.63,19,0,36-.63v9.19q-12.1.3-14.71,1.66-1.56.95-2.19,4-1.26,6.78-1.25,25.77v28.8l1.67.73q9.8-7.83,26.91-25.46L641,32q7.2-7.41,10.12-10.64l9.18-10.75q.1-2.19-.31-8.14,10.53.21,14.19.21l24.52-.21V11q-9.71.21-14.09,1.51T673.8,18.88Q667.34,24,647.3,42.05L627.48,61.87q5,6.26,14.92,17.84l22.85,26.82q15.86,18.57,21.49,24.62T695,138.3Q697.59,139.39,703.85,139.39Z"/><path d="M815,40.69H806.2a133,133,0,0,0-1-17.11q-3.24-4.59-11.22-8.14a43.65,43.65,0,0,0-17.89-3.55q-14.19,0-22,7.15t-7.78,16.75A25.38,25.38,0,0,0,748.61,47a16.84,16.84,0,0,0,6.26,6.78,45.89,45.89,0,0,0,12,4.59q6,1.26,16.85,3.13t14,2.61a53.69,53.69,0,0,1,13.67,5.27,28.39,28.39,0,0,1,8.29,7.1,33.25,33.25,0,0,1,5.06,10.12,44,44,0,0,1,2,13.72q0,13.35-5.53,23.47a50,50,0,0,1-11.58,13.93,55,55,0,0,1-15.24,9.44q-12.51,5-30,5a98.53,98.53,0,0,1-22.85-2.4,108.94,108.94,0,0,1-22-8.24q3.24-11.89,3.34-36.21h8.76A130.24,130.24,0,0,0,732.75,124q4,6.46,13.56,11.37a45.43,45.43,0,0,0,21,4.91,42.69,42.69,0,0,0,17.68-3.5q7.77-3.49,11.27-9.65a27.79,27.79,0,0,0,3.49-14,24,24,0,0,0-2.45-11.27,18,18,0,0,0-7.67-7.51q-5.22-2.82-18.36-5.84-18.88-4-24.83-5.74A36.13,36.13,0,0,1,732,74.91a32,32,0,0,1-8.19-12.36A44.1,44.1,0,0,1,721.06,47,47.67,47.67,0,0,1,726,25.41a38.74,38.74,0,0,1,12.94-15.29,53.59,53.59,0,0,1,18.15-7.77A91.33,91.33,0,0,1,777.82,0a114.14,114.14,0,0,1,21.44,2,70.66,70.66,0,0,1,18,5.74l.84,2.5A122.52,122.52,0,0,0,816,23.53Q815.29,30.06,815,40.69Z"/></g></g></svg>